<?xml version="1.0" encoding="UTF-8" standalone="no"?>
<!-- Created with Inkscape (http://www.inkscape.org/) -->

<svg
   version="1.1"
   id="svg591"
   width="2016.5079"
   height="2852.0635"
   viewBox="0 0 2016.5079 2852.0635"
   sodipodi:docname="griff.svg"
   inkscape:version="1.2 (dc2aedaf03, 2022-05-15)"
   xmlns:inkscape="http://www.inkscape.org/namespaces/inkscape"
   xmlns:sodipodi="http://sodipodi.sourceforge.net/DTD/sodipodi-0.dtd"
   xmlns="http://www.w3.org/2000/svg"
   xmlns:svg="http://www.w3.org/2000/svg">
  <defs
     id="defs595" />
  <sodipodi:namedview
     id="namedview593"
     pagecolor="#ffffff"
     bordercolor="#000000"
     borderopacity="0.25"
     inkscape:showpageshadow="2"
     inkscape:pageopacity="0.0"
     inkscape:pagecheckerboard="0"
     inkscape:deskcolor="#d1d1d1"
     showgrid="false"
     inkscape:zoom="0.28190116"
     inkscape:cx="1009.219"
     inkscape:cy="1427.8054"
     inkscape:window-width="1920"
     inkscape:window-height="991"
     inkscape:window-x="-9"
     inkscape:window-y="-9"
     inkscape:window-maximized="1"
     inkscape:current-layer="g597" />
  <g
     inkscape:groupmode="layer"
     inkscape:label="Image"
     id="g597">
    <path
       style="fill:#000000;stroke-width:2.53968"
       d="m 809.10079,734.31114 c -0.74672,-1.20823 4.63327,-8.78911 11.95553,-16.84638 l 13.31321,-14.64957 19.00572,4.33206 c 46.82798,10.67376 71.74138,-6.66524 86.17777,-59.97722 4.21486,-15.56497 45.84379,-270.42577 45.84379,-280.66499 0,-2.50603 -5.78134,-3.33044 -23.35535,-3.33044 h -23.35533 l 8.61544,-8.88888 c 8.16335,-8.42246 9.51116,-8.88889 25.68457,-8.88889 h 17.06913 l 2.78563,-12.98888 c 12.3465,-57.57001 52.6933,-106.54306 103.5906,-125.73897 18.9324,-7.14032 55.6854,-10.63766 72.3544,-6.88508 l 9.4209,2.12086 -14.703,16.37167 -14.703,16.37168 -12.9665,-5.57802 c -24.2574,-10.43527 -56.3119,-5.93053 -70.9257,9.96744 -11.9658,13.01741 -20.5094,38.78449 -32.5287,98.10533 l -1.6724,8.25397 h 38.297 c 21.0634,0 38.2636,0.85714 38.2226,1.90476 -0.041,1.04762 -3.3939,5.55251 -7.4511,10.01084 l -7.3767,8.10609 -31.6246,-1.49425 c -29.5582,-1.39662 -31.7176,-1.17953 -33.0461,3.32249 -0.7818,2.64919 -8.443,49.35979 -17.0249,103.80132 -8.582,54.44152 -18.3107,109.65658 -21.61945,122.70014 -18.89318,74.47906 -60.1439,124.93447 -113.82938,139.22923 -14.3548,3.82225 -63.99754,4.82306 -66.15408,1.33369 z m 175.12997,-0.17499 c -0.80619,-1.30445 4.64457,-8.93643 12.11287,-16.95997 l 13.57867,-14.58822 12.4992,3.59591 c 18.7179,5.385 43.3207,4.41093 56.1615,-2.22356 17.5007,-9.04211 30.1826,-30.14766 37.6694,-62.69049 3.0219,-13.13499 44.3825,-270.37539 44.3825,-276.03462 0,-1.13333 -10.5099,-2.0606 -23.3554,-2.0606 h -23.3553 l 8.6155,-8.88888 c 8.1352,-8.39343 9.5512,-8.88889 25.404,-8.88889 h 16.7885 l 4.3863,-18.4127 c 6.797,-28.53308 22.4021,-57.52196 42.6175,-79.16834 28.8308,-30.87183 58.6141,-46.00818 96.2375,-48.90948 19.6732,-1.51709 43.2216,0.55604 43.0386,3.78899 -0.054,0.96203 -6.1911,8.52543 -13.6371,16.80755 l -13.538,15.0584 -12.8655,-5.53459 c -8.7297,-3.7554 -18.0521,-5.5346 -28.9994,-5.5346 -30.1837,0 -49.183,15.78145 -59.8393,49.70464 -4.8741,15.51581 -15.7836,63.85816 -15.7836,69.94001 0,1.24308 17.1428,2.26012 38.0952,2.26012 20.9524,0 38.0953,0.80274 38.0953,1.78384 0,0.98113 -3.5662,5.46322 -7.9248,9.96018 l -7.9249,8.17633 -32.0751,-1.41216 -32.0752,-1.41219 -16.1292,102.56312 c -16.8127,106.91035 -23.0899,136.88942 -34.7822,166.11551 -21.1469,52.85897 -56.2816,88.43588 -100.0258,101.28472 -15.1869,4.4608 -64.88717,5.70016 -67.37174,1.68 z M 289.5238,680.42227 c -16.0741,-2.82671 -46.75138,-16.37208 -44.67779,-19.72723 0.76832,-1.24318 8.35673,-6.40623 16.86314,-11.47348 l 15.46616,-9.21315 8.56388,6.53199 c 20.07005,15.30816 59.54685,21.73694 80.28094,13.07367 10.87147,-4.5424 24.10829,-19.44018 30.4799,-34.30451 5.60305,-13.07136 13.61092,-43.34676 11.91406,-45.0436 -0.62603,-0.62606 -9.63248,0.7327 -20.01427,3.01943 -27.8236,6.12853 -78.14487,6.03654 -97.08742,-0.17753 C 237.24044,565.3697 210.03365,511.7598 218.47943,439.59335 229.04818,349.28686 292.79522,272.7919 372.20639,255.1246 c 24.6333,-5.48039 84.02977,-4.06269 113.46057,2.70814 17.74489,4.08236 19.50611,5.03157 18.29433,9.85976 -0.7375,2.93838 -4.48239,16.19535 -8.32198,29.45993 -5.88105,20.31708 -7.86337,24.24529 -12.58004,24.92897 -4.88602,0.70821 -5.59896,-0.3532 -5.59896,-8.33555 0,-21.96612 -13.0384,-37.01473 -38.92978,-44.93186 -49.0927,-15.01166 -96.86938,4.81763 -132.50623,54.99553 -27.26941,38.3963 -39.3582,75.36107 -41.24444,126.11627 -1.12651,30.31185 -0.61748,36.89892 4.03494,52.216 9.16366,30.16935 29.56968,51.28688 58.80424,60.85461 22.68046,7.42273 86.34921,4.58262 86.34921,-3.85181 0,-2.38832 17.18181,-95.915 19.14702,-104.22408 l 1.42664,-6.03187 -29.96937,1.20292 c -32.77062,1.31535 -49.43667,6.03657 -66.05559,18.71245 l -9.11947,6.95576 1.71025,-7.40371 c 2.30141,-9.96287 24.91068,-30.81389 42.2256,-38.94191 13.22397,-6.20762 16.52325,-6.59922 61.91936,-7.34921 38.75883,-0.64035 47.71045,-0.1534 46.69569,2.53968 -2.42537,6.43683 -17.05389,72.26647 -23.5971,106.18903 -16.93148,87.77953 -44.02821,128.38687 -96.48172,144.58812 -19.46919,6.01341 -53.37862,8.37597 -72.34576,5.0405 z m 529.5238,-88.38496 c -2.79365,-1.2273 -7.36508,-4.77354 -10.15873,-7.88053 -7.93648,-8.8267 -6.2961,-37.44988 5.83919,-101.8879 13.98123,-74.23993 15,-84.23571 9.44876,-92.70796 -4.08185,-6.22969 -5.36376,-6.61275 -17.4656,-5.21926 -7.18323,0.82713 -15.63187,2.25049 -18.77473,3.16303 -4.78392,1.38903 -5.71395,0.68056 -5.71222,-4.35134 0.002,-5.52193 4.03949,-7.42619 49.67316,-23.42728 27.31911,-9.57922 50.21153,-16.87634 50.87203,-16.21585 0.66049,0.6605 -2.19345,16.49803 -6.3421,35.19454 -7.38697,33.29059 -28.79946,146.89217 -32.09016,170.25082 -1.40551,9.97692 -0.82976,12.64711 3.70466,17.18154 9.5515,9.55149 22.51525,3.33064 51.95718,-24.93239 l 17.45941,-16.76028 -1.5597,8.88888 c -1.98567,11.31645 -33.2963,42.37954 -52.55334,52.13781 -13.98024,7.08432 -35.76724,10.31378 -44.29781,6.56617 z m -266.88522,-3.10517 c 3.05587,-9.24419 17.71182,-80.38212 26.97882,-130.95139 11.13475,-60.7617 12.39624,-85.66829 4.58725,-90.57046 -8.94781,-5.61707 -24.37478,2.55324 -47.03675,24.91123 -19.67119,19.40734 -21.28506,20.48714 -19.67693,13.16544 2.35515,-10.72297 11.42464,-22.12782 29.82004,-37.49867 28.12686,-23.50222 51.86532,-31.84015 68.36249,-24.01173 16.93282,8.03515 20.1221,27.0241 12.18194,72.53138 -9.78151,56.06059 -9.88709,55.43276 4.76432,28.33331 38.29115,-70.82395 84.32525,-110.19312 119.58455,-102.27089 5.93478,1.33346 11.80544,3.43939 13.04587,4.67983 1.31403,1.31403 -3.31914,10.22684 -11.1006,21.35428 l -13.35593,19.09895 -10.37125,-4.55729 c -16.00671,-7.03352 -26.21816,-3.0051 -48.24551,19.03292 -19.08374,19.09295 -35.78365,42.90118 -58.14916,82.90032 -12.72873,22.76444 -13.89226,26.38593 -20.60299,64.12698 l -7.11239,40 -9.0292,0.0229 c -4.96605,0.0127 -15.0556,0.7459 -22.42123,1.63055 -10.79909,1.29704 -13.16577,0.92396 -12.22334,-1.92683 z M 849.10307,286.34921 c 5.19322,-11.87817 8.84508,-15.47363 33.46118,-32.94433 15.19746,-10.78604 28.04711,-19.1956 28.55482,-18.68792 1.93089,1.93091 -12.62494,33.41373 -17.30474,37.42834 -4.73282,4.06011 -46.76081,27.53724 -49.29625,27.53724 -0.68447,0 1.37879,-6 4.58499,-13.33333 z"
       id="path601" />
  </g>
</svg>
