<?xml version="1.0" encoding="UTF-8" standalone="no"?>
<!-- Created with Inkscape (http://www.inkscape.org/) -->

<svg
   version="1.1"
   id="svg248"
   width="1614.9153"
   height="2284.0679"
   viewBox="0 0 1614.9153 2284.0679"
   sodipodi:docname="jack.svg"
   inkscape:version="1.2 (dc2aedaf03, 2022-05-15)"
   xmlns:inkscape="http://www.inkscape.org/namespaces/inkscape"
   xmlns:sodipodi="http://sodipodi.sourceforge.net/DTD/sodipodi-0.dtd"
   xmlns="http://www.w3.org/2000/svg"
   xmlns:svg="http://www.w3.org/2000/svg">
  <defs
     id="defs252" />
  <sodipodi:namedview
     id="namedview250"
     pagecolor="#ffffff"
     bordercolor="#000000"
     borderopacity="0.25"
     inkscape:showpageshadow="2"
     inkscape:pageopacity="0.0"
     inkscape:pagecheckerboard="0"
     inkscape:deskcolor="#d1d1d1"
     showgrid="false"
     inkscape:zoom="0.35200355"
     inkscape:cx="808.23048"
     inkscape:cy="1143.4544"
     inkscape:window-width="1920"
     inkscape:window-height="991"
     inkscape:window-x="-9"
     inkscape:window-y="-9"
     inkscape:window-maximized="1"
     inkscape:current-layer="g254" />
  <g
     inkscape:groupmode="layer"
     inkscape:label="Image"
     id="g254">
    <path
       style="fill:#000000;stroke-width:2.0339"
       d="m 147.61765,524.65571 c -11.64814,-4.12192 -28.01187,-13.91651 -30.80753,-18.43998 -1.25367,-2.02847 18.61433,-24.18181 21.68721,-24.18181 0.74148,0 2.47596,2.72276 3.85439,6.0506 3.438,8.30008 18.06369,21.35061 27.36937,24.42177 11.46065,3.78234 27.833,1.74663 37.52235,-4.66547 9.4908,-6.28072 20.12303,-26.47477 25.3668,-48.17978 2.93225,-12.13721 41.96604,-220.56461 41.96604,-224.08472 0,-0.8472 -9.77628,-1.80016 -21.72507,-2.11767 l -21.72504,-0.57728 11.04708,-12.63002 11.0471,-12.63003 53.83954,-0.0818 53.83955,-0.0819 -13.10282,13.22034 -13.10282,13.22034 h -12.31747 -12.31747 l -17.01641,92.0339 c -9.35905,50.61864 -19.16093,99.5565 -21.78199,108.75078 -12.70349,44.5619 -37.13632,76.54214 -67.3579,88.16502 -17.06443,6.56278 -40.70218,7.32195 -56.28491,1.80769 z m 218.45233,-52.48508 c -20.91922,-11.10352 -24.2843,-53.08796 -7.72766,-96.41408 12.24962,-32.05534 40.82807,-68.20422 65.85881,-83.30484 23.13208,-13.95519 42.36149,-17.68981 83.76499,-16.26842 20.05015,0.68833 24.91525,1.43288 24.91525,3.81305 0,1.62675 -2.3148,13.19984 -5.14401,25.71799 -7.49972,33.18342 -25.36446,130.9385 -25.36446,138.79325 0,6.74935 4.30836,13.15839 8.78934,13.07489 7.28403,-0.13566 22.08812,-9.95292 35.3792,-23.46136 l 15.02341,-15.2691 -1.26458,7.69265 c -1.00789,6.13124 -4.32978,10.65435 -16.36604,22.28412 -22.70443,21.93769 -46.36959,31.50258 -61.96253,25.04378 -17.35597,-7.18908 -16.1794,-28.14344 8.33524,-148.44882 2.16547,-10.62712 3.54909,-20.35586 3.07468,-21.61944 -1.29927,-3.46062 -18.87761,-8.91055 -33.17469,-10.28539 -30.57578,-2.94018 -48.93529,16.11499 -66.65742,69.18316 -7.73848,23.17257 -12.37505,53.40314 -10.30639,67.19793 1.69956,11.33351 7.86736,19.59155 14.63263,19.59155 5.84453,0 15.15082,-4.42611 18.96212,-9.01843 4.07378,-4.90863 6.42519,-3.78301 5.03083,2.40826 -4.66302,20.705 -4.36957,20.25514 -17.48897,26.81099 -14.67022,7.3308 -27.59257,8.16673 -38.30975,2.47826 z m 245.11648,-1.08577 c -12.45877,-5.88989 -19.68517,-13.35554 -25.82317,-26.67806 -4.0947,-8.88757 -4.6706,-13.24611 -4.56862,-34.57627 0.0986,-20.65308 0.92851,-26.83983 5.39532,-40.22655 7.88935,-23.64392 20.16551,-42.81439 40.14706,-62.69369 31.44242,-31.28155 60.21645,-39.81776 97.22229,-28.84239 12.00796,3.56137 12.05834,3.70666 7.50397,21.63854 -7.3044,28.75963 -6.87496,27.7512 -11.8175,27.7512 -4.36867,0 -4.61679,-0.67873 -3.90342,-10.67796 0.45002,-6.30777 -0.3255,-12.75902 -1.89486,-15.76272 -3.87911,-7.42452 -14.94846,-12.19655 -28.30001,-12.20024 -37.39049,-0.0102 -65.11118,42.95962 -68.25866,105.80798 -0.91975,18.36557 -0.45462,25.91209 2.14916,34.8688 3.88877,13.37689 13.44687,23.10761 24.78746,25.23511 15.06429,2.82608 46.17724,-7.80122 69.1869,-23.63229 10.22286,-7.03351 12.21014,-6.82139 10.2242,1.09129 -1.58857,6.32939 -22.08545,20.17061 -46.64422,31.49815 -29.32768,13.52713 -47.98001,15.6372 -65.4059,7.3991 z m 276.07504,0.55222 c -11.36232,-5.62424 -27.61007,-23.59286 -51.11067,-56.52401 -10.49795,-14.71066 -19.77472,-27.17158 -20.61506,-27.69096 -0.84035,-0.51935 -4.47861,14.8355 -8.08499,34.1219 -3.60641,19.2864 -7.17845,38.26957 -7.93784,42.18482 l -1.38075,7.11865 -16.90404,1.65358 c -9.29721,0.90946 -17.225,1.33259 -17.6173,0.94029 -0.3923,-0.3923 1.51993,-10.28894 4.2494,-21.99254 2.72947,-11.70362 11.32993,-55.15858 19.11216,-96.56655 7.78222,-41.40799 16.58518,-83.05206 19.56216,-92.54238 17.59869,-56.10315 53.54324,-93.64509 97.53325,-101.86767 12.95148,-2.42087 45.02415,-1.40233 47.80642,1.51821 0.91086,0.95612 -3.23911,7.08778 -9.22215,13.62592 l -10.87824,11.88752 -11.38694,-4.2604 c -36.32642,-13.59146 -64.18438,3.68831 -75.34046,46.73228 -5.79891,22.37418 -27.4537,124.56615 -26.58089,125.43895 0.45541,0.45541 4.59701,-6.41646 9.20357,-15.27083 27.89447,-53.61671 83.26247,-83.33742 106.638,-57.24169 5.61317,6.26638 5.79834,7.13103 4.92348,22.99098 -0.69053,12.51808 -2.18784,18.97707 -6.22851,26.86809 -10.30656,20.12766 -35.52964,37.36133 -65.83011,44.9784 -7.67339,1.92897 -14.27125,3.69887 -14.66193,3.93309 -1.13627,0.68125 27.64266,38.85954 36.96361,49.03609 10.79467,11.78555 24.88645,20.81662 32.48158,20.81662 7.82473,0 17.37864,-4.70745 27.99278,-13.79276 l 8.68107,-7.43066 -1.38132,6.03543 c -1.8023,7.87489 -22.80236,27.33545 -36.9995,34.28711 -13.128,6.42816 -21.52518,6.68592 -32.98678,1.01252 z M 858.02815,370.30887 c 22.13339,-8.78542 42.39088,-27.96291 46.97586,-44.47147 3.06496,-11.03563 2.57288,-25.29505 -1.05151,-30.46957 -12.22619,-17.45532 -48.44892,14.16982 -84.29018,73.59161 l -4.79064,7.94248 16.12348,-1.13138 c 9.13806,-0.64121 20.85,-3.00747 27.03299,-5.46167 z"
       id="path258" />
  </g>
</svg>
