<?xml version="1.0" encoding="UTF-8" standalone="no"?>
<!-- Created with Inkscape (http://www.inkscape.org/) -->

<svg
   version="1.1"
   id="svg1125"
   width="1767.4576"
   height="1680"
   viewBox="0 0 1767.4576 1680"
   sodipodi:docname="jsl2.svg"
   inkscape:version="1.2 (dc2aedaf03, 2022-05-15)"
   xmlns:inkscape="http://www.inkscape.org/namespaces/inkscape"
   xmlns:sodipodi="http://sodipodi.sourceforge.net/DTD/sodipodi-0.dtd"
   xmlns="http://www.w3.org/2000/svg"
   xmlns:svg="http://www.w3.org/2000/svg">
  <defs
     id="defs1129" />
  <sodipodi:namedview
     id="namedview1127"
     pagecolor="#ffffff"
     bordercolor="#000000"
     borderopacity="0.25"
     inkscape:showpageshadow="2"
     inkscape:pageopacity="0.0"
     inkscape:pagecheckerboard="0"
     inkscape:deskcolor="#d1d1d1"
     showgrid="false"
     inkscape:zoom="0.49404762"
     inkscape:cx="835.95181"
     inkscape:cy="841.01205"
     inkscape:window-width="1920"
     inkscape:window-height="991"
     inkscape:window-x="-9"
     inkscape:window-y="-9"
     inkscape:window-maximized="1"
     inkscape:current-layer="g1131" />
  <g
     inkscape:groupmode="layer"
     inkscape:label="Image"
     id="g1131">
    <path
       style="fill:#000000;stroke-width:2.0339"
       d="m 837.96609,1660.3561 c -41.47281,-2.8462 -98.90327,-9.5894 -101.3388,-11.8986 -0.36346,-0.3447 1.73451,-4.2462 4.66216,-8.6702 5.30349,-8.0141 5.35717,-8.0372 14.65007,-6.3011 17.30221,3.2324 66.55749,7.7293 99.3147,9.0673 34.43614,1.4065 82.22476,-1.0718 124.82933,-6.4735 l 25.16835,-3.191 7.9849,7.7928 7.985,7.7928 -8.7465,1.5154 c -51.34705,8.8967 -128.84362,13.5001 -174.50921,10.3661 z m -128.8452,-16.6848 c -14.12258,-3.3784 -16.00352,-4.7861 -27.75043,-20.7685 l -3.84604,-5.2328 24.79711,5.7143 c 13.6384,3.1428 26.9004,5.7264 29.47108,5.7412 4.63792,0.027 4.62539,0.098 -1.62313,9.1796 -3.4634,5.0339 -6.48195,9.0504 -6.70788,8.9255 -0.22592,-0.1248 -6.67924,-1.7265 -14.34071,-3.5593 z m 317.48931,-4.6148 c -8.735,-7.1357 -9.5825,-9.8936 -3.0509,-9.9281 2.517,-0.014 16.4185,-2.759 30.8923,-6.1017 14.4737,-3.3426 26.6914,-6.0775 27.1504,-6.0775 0.4589,0 -3.7495,5.2912 -9.3521,11.7583 -9.2399,10.6657 -11.3018,11.9888 -22.1881,14.2373 -15.509,3.2034 -14.5828,3.3569 -23.4516,-3.8883 z m -372.3214,-8.9668 c -44.08008,-12.8609 -95.05126,-33.2618 -140.04593,-56.0527 l -21.68935,-10.9862 5.86808,-6.9716 5.86806,-6.9717 32.09245,15.4707 c 36.54857,17.6188 61.73528,27.8788 98.19415,40.0001 13.98305,4.6488 26.79661,10.148 28.47458,12.2203 1.67796,2.0723 6.10232,7.5302 9.83192,12.1287 3.7296,4.5985 6.47537,8.3178 6.1017,8.2651 -0.37367,-0.053 -11.48671,-3.2488 -24.69566,-7.1027 z m 431.884,-2.1961 c 3.9202,-4.3415 8.4825,-9.7798 10.1384,-12.0851 1.8738,-2.6086 10.6917,-6.7045 23.3498,-10.8459 33.5879,-10.989 69.2879,-25.6467 104.18,-42.7741 l 32.9936,-16.1954 5.0075,6.3984 c 2.7541,3.5191 4.5373,7.1592 3.9626,8.089 -2.0425,3.3048 -61.1994,31.6965 -91.2284,43.7841 -29.0528,11.6946 -73.2133,26.6636 -88.4435,29.9795 l -7.0876,1.5431 z m -254.30841,-8.1526 c -20.28612,-1.4989 -67.84887,-6.8677 -80.75823,-9.1158 l -12.68137,-2.2084 4.15106,-8.1367 c 3.81322,-7.4745 4.67738,-8.0413 10.61811,-6.9645 34.17128,6.1939 63.0897,8.159 120.36535,8.1792 52.23203,0.018 65.99499,-0.6484 95.59275,-4.6324 l 34.57584,-4.654 5.5823,6.6868 c 3.0704,3.6777 4.9011,7.3029 4.0683,8.056 -1.6781,1.5176 -35.71189,6.705 -65.5819,9.996 -20.82602,2.2945 -97.6381,4.1456 -115.93221,2.7938 z m -116.9946,-15.732 c -8.12941,-1.8416 -12.03118,-4.295 -19.11094,-12.0167 -4.89281,-5.3364 -8.4058,-10.1928 -7.80667,-10.792 0.59915,-0.5991 6.45329,0.2611 13.00926,1.9116 6.55595,1.6505 17.20241,4.059 23.65879,5.3521 l 11.73887,2.3511 -4.48629,7.9823 c -2.46744,4.3902 -5.00418,7.8795 -5.63717,7.754 -0.63299,-0.1255 -5.74764,-1.2696 -11.36585,-2.5424 z m 307.47591,-5.3653 c -2.9681,-3.5274 -5.3966,-7.044 -5.3966,-7.8146 0,-0.7707 9.2202,-3.321 20.4892,-5.6672 l 20.4892,-4.266 -8.2858,8.4426 c -4.5572,4.6434 -8.2858,9.552 -8.2858,10.908 0,1.3559 -1.1441,2.4779 -2.5424,2.4931 -1.3983,0.016 -4.4614,0.543 -6.8068,1.1727 -3.1112,0.8352 -5.7239,-0.5896 -9.661,-5.2686 z m 42.7813,-11.1443 c 9.4431,-10.7517 10.6847,-11.4401 35.212,-19.5214 38.1583,-12.5726 74.5994,-27.2592 103.2578,-41.6151 l 25.6768,-12.8624 6.6629,5.8502 6.663,5.8501 -14.6896,8.0305 c -39.1803,21.4189 -100.7757,46.1729 -145.1623,58.338 -14.1977,3.8911 -26.1728,7.0748 -26.6114,7.0748 -0.4386,0 3.6073,-5.0151 8.9908,-11.1447 z m -408.42557,2.0212 c -42.09547,-12.2847 -101.96875,-36.7422 -135.49797,-55.3491 -13.33406,-7.3997 -13.48056,-7.8166 -6.05219,-17.2231 2.44008,-3.0899 5.00208,-2.239 28.88398,9.5931 29.67341,14.7016 57.26707,25.9138 95.42117,38.773 14.42985,4.8633 28.0307,10.4622 30.22409,12.4419 7.58284,6.8442 16.14539,18.8559 13.37174,18.7581 -1.49231,-0.053 -13.35018,-3.1999 -26.35082,-6.9939 z M 465.7627,1547.1925 C 409.99002,1512.4627 363.47198,1476.943 322.64737,1437.9144 l -19.50409,-18.646 5.2197,-6.8434 5.21971,-6.8434 24.73408,22.5595 c 43.62368,39.7884 92.94372,77.0507 136.02585,102.7704 10.87149,6.4902 19.79522,12.4724 19.83051,13.2937 0.0352,0.8213 -2.4528,4.2517 -5.52907,7.623 l -5.59322,6.1297 z m 805.0617,-0.1208 -5.4468,-6.8263 8.4977,-4.7616 c 16.1279,-9.037 67.5449,-44.4035 89.3638,-61.4676 12.0358,-9.413 34.1284,-28.1627 49.0947,-41.6661 l 27.2114,-24.5516 6.5884,5.5003 6.5884,5.5002 -22.1237,21.0228 c -29.3116,27.8529 -67.7939,58.5606 -104.2659,83.2007 -27.2548,18.4132 -47.1231,30.8758 -49.223,30.8757 -0.461,-10e-5 -3.2893,-3.072 -6.285,-6.8265 z m -791.51561,-36.7548 c -51.12236,-32.0956 -97.77821,-67.7804 -133.43652,-102.059 l -19.26726,-18.5218 5.34767,-6.3554 5.34767,-6.3553 17.99992,16.7415 c 38.0115,35.3541 89.13429,74.874 125.58313,97.0806 31.49166,19.1863 28.97424,16.599 23.43752,24.0879 -2.61081,3.5313 -5.35039,6.4205 -6.08799,6.4205 -0.73757,0 -9.25342,-4.9675 -18.92414,-11.039 z m 765.57771,3.308 -6.8242,-5.6971 15.0366,-8.8832 c 44.1595,-26.088 92.1074,-62.1881 134.8403,-101.5214 11.0785,-10.1971 20.8552,-18.5401 21.726,-18.5401 0.8708,0 3.4737,2.6549 5.7842,5.8998 l 4.2011,5.8998 -20.483,19.4759 c -26.2623,24.9712 -60.9757,52.8577 -94.4218,75.8525 -24.412,16.7838 -50.2354,33.2109 -52.2072,33.2109 -0.4553,0 -3.8987,-2.5637 -7.652,-5.6971 z m -278.78482,-3.0486 c 0,-1.4543 0.95502,-3.5991 2.12227,-4.7664 1.47378,-1.4738 1.41096,-7.9684 -0.20559,-21.2542 -1.99002,-16.3552 -3.06801,-19.759 -7.42749,-23.452 -6.24679,-5.2918 -4.894,-6.3232 13.28034,-10.1258 23.6361,-4.9453 27.05099,-3.9303 29.78429,8.8526 1.1008,5.148 0.7386,6.6102 -1.6374,6.6102 -1.7361,0 -3.62839,-2.6295 -4.391,-6.1017 -1.50848,-6.868 -1.82267,-6.9283 -17.28813,-3.3177 -11.09199,2.5895 -11.18071,2.6704 -10.50657,9.5748 0.84069,8.6104 2.5923,10.5485 8.74655,9.6778 3.0969,-0.4382 4.915,-2.1299 5.10314,-4.7485 0.55527,-7.7282 0.66842,-7.9905 2.58775,-6 1.02469,1.0627 2.40955,5.4712 3.07749,9.7967 0.66793,4.3254 1.71406,8.6729 2.32476,9.661 0.61068,0.9881 0.46774,2.8363 -0.31767,4.1071 -0.95856,1.551 -2.50247,0.897 -4.69631,-1.9892 -2.37409,-3.1234 -4.58274,-3.9526 -8.07255,-3.0307 -4.27846,1.1302 -4.68673,2.1454 -3.73033,9.2759 0.59065,4.4037 1.60469,8.5375 2.25338,9.1861 0.64871,0.6488 6.44599,0.3444 12.88287,-0.6764 l 11.70342,-1.8559 0.6317,-8.7725 c 0.8931,-12.4026 5.47,-10.026 5.47,2.8403 v 10 l -17.28814,4.3915 c -20.72921,5.2656 -24.40678,5.5845 -24.40678,2.117 z m 10.16949,-28.6638 c 0,-0.4396 -1.42041,-1.3444 -3.15649,-2.0106 -1.81,-0.6945 -2.62641,-0.3536 -1.91385,0.7994 1.19442,1.9326 5.07034,2.8585 5.07034,1.2112 z m -243.55932,22.4815 c -7.18781,-2.1004 -8.76551,-6.4866 -2.99229,-8.319 2.74113,-0.87 4.21979,-4.9736 6.1017,-16.9336 3.26015,-20.7193 3.13775,-26.8147 -0.56703,-28.2364 -4.22929,-1.6229 -3.811,-4.2534 1.09377,-6.8783 5.57798,-2.9853 12.12656,-0.629 12.12656,4.3633 0,2.2265 -1.90065,13.2202 -4.22367,24.4306 -2.32302,11.2104 -3.725,21.682 -3.11555,23.2702 0.60946,1.5883 0.4508,4.5408 -0.35259,6.5613 -1.23057,3.0947 -2.50227,3.3692 -8.0709,1.7419 z m 17.79661,-0.2793 c 0,-1.6522 2.33492,-4.5339 5.1887,-6.4038 7.35153,-4.8168 11.11654,-13.2607 11.39347,-25.5523 0.19688,-8.7401 -0.5284,-11.1261 -4.10369,-13.5 -4.13758,-2.7473 -6.21836,-12.5569 -2.66351,-12.5569 2.26793,0 9.43,8.0194 12.54624,14.0482 3.30956,6.4027 1.22284,24.4177 -4.01839,34.6914 -2.62211,5.1397 -6.14701,8.5233 -10.43754,10.019 -8.11804,2.8299 -7.90528,2.85 -7.90528,-0.7456 z m 287.89934,-17.6236 c -1.7269,-5.815 -2.6104,-11.1021 -1.9634,-11.749 1.4448,-1.4449 6.9454,5.7924 6.9454,9.1382 0,2.618 6.3216,4.8609 13.8259,4.9055 9.5325,0.056 19.1438,-17.1774 12.1063,-21.7078 -1.3983,-0.9002 -8.801,-1.6406 -16.4504,-1.6455 -12.1568,-0.01 -14.3978,-0.6134 -17.7966,-4.8104 -2.1387,-2.6409 -3.8886,-6.4072 -3.8886,-8.3698 0,-6.3065 7.672,-13.7468 15.727,-15.2521 4.2146,-0.7876 8.7668,-2.3441 10.1161,-3.459 3.6262,-2.9961 6.2941,-0.4502 9.003,8.5912 3.0189,10.0761 1.0983,12.3588 -4.4567,5.2967 -2.3342,-2.9673 -6.262,-5.3952 -8.7285,-5.3952 -6.098,0 -13.5253,5.511 -13.5253,10.0358 0,6.4114 4.8834,8.5314 16.7105,7.2542 9.2903,-1.0032 11.8669,-0.5064 16.5728,3.1952 4.6913,3.6902 5.475,5.6802 4.958,12.5893 -0.8227,10.9924 -10.4565,18.8165 -25.4336,20.6558 l -10.5821,1.2996 z m -350.23358,6.4039 c -6.48264,-2.6156 -7.46654,-5.6253 -2.67694,-8.1886 3.22182,-1.7243 3.99291,-3.6015 3.1749,-7.7292 -0.71091,-3.5872 0.63403,-8.582 3.93246,-14.6043 3.48214,-6.3577 4.74307,-7.5999 4.1293,-4.0678 -3.03976,17.4931 -3.04564,28.0835 -0.0163,30.5971 2.50643,2.0801 2.6065,2.9394 0.49798,4.277 -3.1383,1.9907 -3.4246,1.9817 -9.04068,-0.2842 z m 159.0472,-1.6058 c -0.61586,-0.6158 -1.12021,-2.5689 -1.12076,-4.3401 -8.9e-4,-2.7502 2.74552,-3.1303 18.81356,-2.6041 21.82007,0.7146 23.89933,1.1934 23.89933,5.5035 0,2.7131 -3.0598,3.1483 -20.23619,2.8785 -11.1299,-0.175 -20.74007,-0.8219 -21.35594,-1.4378 z M 668.13558,1485.78 c -1.11864,-0.3731 -4.55084,-1.2335 -7.62712,-1.912 -6.81059,-1.5021 -7.25316,-4.3663 -0.92029,-5.9558 3.5065,-0.8801 7.62986,-7.0273 16.51918,-24.6272 11.22402,-22.2225 15.42453,-26.8378 20.13687,-22.1255 1.37587,1.3759 -5.82205,14.4107 -9.93588,17.993 -1.28463,1.1187 -3.89339,6.0765 -5.79726,11.0174 -1.90387,4.9408 -5.26464,11.2756 -7.46839,14.0772 -2.74568,3.4906 -3.34831,5.7524 -1.91459,7.1861 3.94596,3.946 2.42571,6.1543 -2.99252,4.3468 z m 448.47462,-13.1584 c 0,-1.0751 1.8271,-3.6569 4.0603,-5.7374 4.0447,-3.7683 4.0297,-3.8603 -3.9005,-23.9776 -8.3651,-21.2204 -12.3474,-25.0048 -19.1519,-18.2003 -2.463,2.463 -2.764,4.4478 -1.2704,8.3762 4.458,11.7255 -0.5833,11.0692 -5.5079,-0.7171 -2.0456,-4.8959 -2.3246,-7.7958 -0.8882,-9.2323 3.2688,-3.2688 36.9977,-15.8107 39.072,-14.5287 3.0254,1.8698 8.2217,13.1263 7.5399,16.3335 -0.9451,4.4461 -9.7839,-2.2627 -9.7839,-7.4261 0,-4.7342 -6.4579,-5.3738 -10.0884,-0.9992 -2.7823,3.3523 -1.7669,7.653 5.2748,22.3426 2.6475,5.5229 4.8136,11.1312 4.8136,12.4629 0,3.5006 6.0918,8.0039 10.8271,8.0039 7.7843,0 5.4229,4.2458 -5.4132,9.7326 -11.5314,5.8388 -15.5833,6.7663 -15.5833,3.567 z m -499.00647,-7.7864 c 0.52344,-2.0017 2.94648,-4.5187 5.38452,-5.5932 9.86701,-4.3491 18.85031,-32.0281 12.46661,-38.4118 -3.74438,-3.7444 -2.0978,-11.6789 2.09014,-10.0718 8.10104,3.1087 8.55812,24.4971 0.85056,39.8017 -5.81472,11.5461 -23.19948,23.482 -20.79183,14.2751 z m -18.8087,-6.8937 c -6.65949,-12.878 1.52213,-40.9142 14.19447,-48.6407 3.48289,-2.1235 7.19057,-3.5786 8.2393,-3.2334 4.30235,1.4159 3.15181,5.6622 -2.39707,8.8468 -11.49299,6.5961 -18.85602,25.3755 -13.79015,35.1718 3.93323,7.6061 3.97796,14.3208 0.0954,14.3208 -1.64925,0 -4.50311,-2.9094 -6.34194,-6.4653 z m -44.16149,-19.5375 c -4.3156,-4.7687 -4.31145,-4.8654 0.68105,-15.8246 3.20321,-7.0315 3.63786,-9.9781 1.93984,-13.1508 -2.94163,-5.4965 -0.59386,-8.6712 5.31575,-7.1879 5.90447,1.4819 13.02303,-2.6044 13.02303,-7.4757 0,-1.9682 -1.92203,-5.5006 -4.27118,-7.8497 -3.07477,-3.0748 -3.65205,-4.8904 -2.06083,-6.4816 3.13301,-3.133 12.43371,6.0117 12.43371,12.2252 0,7.3691 -5.53442,16.4664 -10.46177,17.1967 -4.19475,0.6217 -5.597,3.1742 -10.80441,19.6672 -1.33558,4.2301 -1.00045,4.6159 2.92664,3.3695 3.79273,-1.2038 4.3372,-0.7175 3.76011,3.3585 -0.86103,6.0814 -7.83781,7.2849 -12.48194,2.1532 z m 663.65436,-12.2462 c -6.9671,-5.6416 -6.7131,-19.2653 0.5564,-29.8503 12.1855,-17.7428 3.034,-32.7348 -12.825,-21.0098 -7.3442,5.4298 -7.6603,9.2638 -0.9734,11.8062 3.2133,1.2217 4.6335,2.993 3.9105,4.8771 -3.2705,8.5227 -13.0242,3.1635 -13.0242,-7.1562 0,-7.2446 11.1511,-18.7436 16.7796,-17.303 1.9577,0.501 3.5594,0.11 3.5594,-0.8687 0,-2.2984 6.1068,-0.1241 10.6779,3.8018 5.271,4.5269 4.5413,16.3084 -1.5669,25.2973 -2.8194,4.1491 -5.6798,10.3119 -6.3564,13.6951 l -1.2303,6.1512 7.3081,-3.0535 c 4.0195,-1.6794 10.0196,-3.0535 13.3337,-3.0535 4.6289,0 6.1762,-1.0238 6.6755,-4.4169 0.9338,-6.3465 5.7346,-7.256 5.7346,-1.0864 0,6.8052 -4.7698,10.246 -15.9935,11.5371 -8.6027,0.9897 -9.4383,1.569 -9.5232,6.6016 -0.128,7.5858 -1.6071,8.4324 -7.0428,4.0309 z m -693.03367,-2.7847 c -7.3862,-4.5663 -8.88873,-8.7772 -2.39662,-6.7167 3.9686,1.2596 12.05764,-3.578 12.05764,-7.2109 0,-0.7972 3.82834,-8.062 8.50745,-16.1439 7.10032,-12.264 8.11643,-15.3206 6.14335,-18.48 -3.10107,-4.9656 -0.0517,-6.6827 6.53682,-3.6808 3.30999,1.5082 4.59071,3.1928 3.49876,4.6021 -0.94739,1.2228 -4.95952,8.1724 -8.91584,15.4435 -3.95634,7.2712 -8.89438,16.1739 -10.97345,19.7838 -3.14406,5.459 -3.35233,7.2512 -1.23777,10.6504 1.3983,2.2478 2.54237,4.557 2.54237,5.1315 0,2.4579 -9.67649,0.3836 -15.76271,-3.379 z m -247.4848,-30.4271 c -35.31021,-37.4301 -77.16382,-93.2843 -107.74625,-143.7886 l -11.49209,-18.9783 5.64971,-6.8071 c 3.10734,-3.7439 6.10733,-6.862 6.66666,-6.929 0.55932,-0.067 5.09545,6.9601 10.08029,15.6158 24.63019,42.7684 66.28917,99.8205 102.80106,140.7864 11.18644,12.5511 20.57725,23.8717 20.86847,25.157 0.29121,1.2852 -1.58293,4.9591 -4.16474,8.1641 l -4.69423,5.8274 z m 1175.39967,13.0064 -6.1529,-5.6134 21.9535,-24.5392 c 36.9924,-41.3493 72.3875,-89.0988 100.1613,-135.1218 6.4132,-10.6272 11.9692,-19.6565 12.3468,-20.0652 1.2072,-1.307 10.9335,10.8041 11.0003,13.6974 0.1619,7.016 -46.3488,76.4277 -75.9714,113.3782 -11.5566,14.4155 -29.1509,34.6851 -39.0984,45.0437 l -18.0863,18.8338 z m -969.45399,-9.2377 c -4.83992,-3.6713 -12.27468,-8.8062 -16.52168,-11.4108 -8.55458,-5.2465 -8.93197,-9.5726 -0.78513,-9.0004 4.34297,0.305 6.75277,-1.7775 13.50668,-11.6719 4.52133,-6.6238 8.22061,-12.668 8.22061,-13.4315 0,-0.7635 1.56107,-3.1132 3.46903,-5.2215 2.87284,-3.1745 3.03578,-4.5271 0.94804,-7.87 -2.53035,-4.0518 -1.69094,-7.9391 1.71434,-7.9391 2.73063,0 17.02897,10.0612 18.80902,13.2351 2.13307,3.8035 -1.65352,5.7023 -6.35441,3.1864 -3.21732,-1.7218 -4.94752,-0.7933 -10.24665,5.4992 -5.96704,7.0855 -11.04076,15.0766 -16.97234,26.7313 -1.75692,3.4521 -1.84326,5.1441 -0.28893,5.6622 1.2192,0.4064 5.32263,3.0303 9.11874,5.831 l 6.90201,5.0922 5.29312,-6.4854 c 3.39935,-4.1651 5.80151,-5.6628 6.71412,-4.1862 2.49049,4.0297 -7.03245,18.6545 -12.14689,18.6545 -1.41891,0 -6.53977,-3.0038 -11.37968,-6.6751 z m 787.03679,-19.2571 c -13.5188,-10.5146 -22.4046,-28.9967 -18.2864,-38.0351 3.7162,-8.1562 5.4911,-6.1395 5.6153,6.3804 0.07,7.0583 1.0604,11.8769 2.5424,12.371 1.3352,0.445 2.4276,1.9262 2.4276,3.2915 0,1.3653 3.1363,5.5222 6.9694,9.2374 6.0378,5.852 7.9034,6.5799 13.9557,5.4444 4.8336,-0.9068 7.7156,-0.4316 9.3536,1.542 1.849,2.2279 1.6515,3.1275 -0.9016,4.1072 -6.8555,2.6307 -14.7459,1.0513 -21.676,-4.3388 z m 151.4515,-0.5301 c -2.517,-3.1385 -4.5763,-6.3657 -4.5763,-7.1714 0,-0.8057 5.7203,-7.5333 12.7119,-14.9502 30.8781,-32.7571 73.0803,-88.6211 98.0854,-129.8381 l 13.8496,-22.8287 6.5264,5.5406 c 7.7478,6.5776 8.6619,4.0179 -13.9631,39.1 -31.5966,48.9934 -71.6557,100.6516 -97.2314,125.3848 l -10.8263,10.4695 z M 303.03113,1365.3324 c -31.49674,-33.7009 -60.11578,-71.0916 -90.7409,-118.5527 -23.40445,-36.271 -22.36305,-33.5583 -16.05713,-41.8258 2.93141,-3.8433 5.66212,-6.9878 6.06824,-6.9878 0.40611,0 3.99385,5.8213 7.97277,12.9363 23.04272,41.2042 70.01275,104.8491 104.99204,142.2652 l 14.84526,15.8795 -3.99301,5.3482 c -2.19616,2.9415 -4.95815,5.6699 -6.13773,6.0631 -1.17958,0.3932 -8.80686,-6.4135 -16.94954,-15.126 z m 997.13837,4.168 c -1.3983,-0.5642 -2.5424,-3.058 -2.5424,-5.5417 0,-6.555 -9.6093,-24.8187 -14.8726,-28.2674 -2.48,-1.6249 -7.4702,-3.6048 -11.0894,-4.3997 -7.6664,-1.6839 -8.5126,-4.1951 -2.0041,-5.9478 10.8774,-2.9292 31.4813,19.5527 33.3304,36.3683 0.5525,5.0244 0.7157,9.0631 0.3625,8.9748 -0.3531,-0.088 -1.7861,-0.6222 -3.1844,-1.1865 z m -878.47507,-17.6033 c -6.89855,-5.7977 -12.61889,-11.5873 -12.71186,-12.8659 -0.30663,-4.2174 5.48502,-4.5919 9.10765,-0.5889 1.95645,2.1618 4.28419,3.9306 5.17276,3.9306 2.14592,0 12.17821,-10.6798 22.58611,-24.0437 l 8.42927,-10.8234 -5.77237,-4.6027 c -3.37411,-2.6904 -5.16366,-5.5876 -4.30726,-6.9732 2.50454,-4.0525 5.95649,-2.624 16.4657,6.8139 5.58578,5.0163 10.84849,9.1206 11.69492,9.1206 0.84643,0 1.53895,1.8305 1.53895,4.0678 0,4.2108 -4.9068,5.6127 -7.11865,2.0339 -3.04393,-4.9252 -9.64464,-1.0755 -22.19003,12.9418 -7.37176,8.2366 -13.40319,15.9047 -13.40319,17.0401 0,1.1354 1.99084,3.3862 4.4241,5.0018 2.90158,1.9266 3.97348,4.1118 3.11469,6.3498 -1.86637,4.8637 -3.04472,4.3515 -17.03079,-7.4025 z m 915.05567,-7.6745 c -8.5298,-3.2233 -11.1162,-18.3883 -5.4432,-31.915 3.5873,-8.5534 2.3772,-20.3416 -2.2711,-22.1254 -5.4506,-2.0915 -12.6591,1.272 -16.8242,7.8504 -4.7727,7.538 -4.129,9.764 2.8237,9.764 5.3059,0 6.5237,3.7291 2.524,7.7288 -3.2165,3.2166 -4.7645,3.0806 -8.6005,-0.7554 -4.6416,-4.6417 -3.9335,-15.1792 1.4741,-21.9369 3.4161,-4.2689 6.9384,-6.0754 13.2731,-6.8071 15.509,-1.7915 19.6299,7.6597 12.5787,28.8487 -4.9201,14.7848 -4.1283,19.0228 2.6624,14.2492 2.4435,-1.7177 7.8749,-4.0509 12.0698,-5.1849 6.2753,-1.6964 7.6271,-2.9792 7.6271,-7.2377 0,-3.2363 0.9528,-4.8587 2.5424,-4.3294 7.9856,2.6589 -1.7976,17.7976 -11.5014,17.7976 -6.0709,0 -9.8094,5.5033 -7.1342,10.502 2.3622,4.4137 0.1178,5.7876 -5.8007,3.5511 z m -953.70234,-29.4645 c -5.40392,-5.4039 -4.73208,-8.0458 2.37596,-9.3428 2.70718,-0.494 4.08303,-2.3663 4.11332,-5.5977 0.0252,-2.6902 1.83531,-5.8484 4.05907,-7.0823 2.20745,-1.2247 6.53443,-3.8908 9.6155,-5.9246 3.08107,-2.0339 5.60194,-3.0717 5.60194,-2.3064 0,1.7428 -14.45603,21.8107 -16.98783,23.5825 -1.0273,0.7189 -1.26886,3.6935 -0.53684,6.6102 1.71335,6.8265 -1.45227,6.8499 -8.24112,0.061 z m -18.97997,-20.1818 c -6.96368,-7.1847 -6.81329,-7.8754 1.56622,-7.1929 2.65341,0.2161 10.87117,-3.8824 19.32204,-9.6365 18.86526,-12.8453 27.57858,-17.2982 31.15973,-15.924 5.20655,1.9979 3.00327,4.9279 -7.8107,10.3868 -5.87288,2.9647 -16.16949,8.839 -22.88136,13.0541 -9.57707,6.0145 -12.06644,8.6072 -11.56706,12.0475 0.90323,6.2224 -1.85349,5.4522 -9.78887,-2.735 z m 1021.01691,-0.5277 c 0,-1.9682 1.8305,-4.7218 4.0678,-6.119 6.5713,-4.1038 4.8573,-8.0055 -9.3961,-21.389 -18.0969,-16.9925 -18.3859,-17.1177 -24.9671,-10.8125 -5.4125,5.1855 -10.3825,6.9206 -10.3825,3.6247 0,-2.9455 12.9926,-18.6748 15.4256,-18.6748 1.2935,0 10.0214,7.2833 19.3953,16.1851 9.3739,8.9018 18.3497,16.2238 19.9462,16.2711 1.5965,0.047 5.3239,-2.814 8.2831,-6.3587 3.2016,-3.8349 6.3502,-5.8454 7.7752,-4.9647 3.427,2.118 2.9603,7.3417 -0.656,7.3417 -1.6779,0 -3.0508,0.8043 -3.0508,1.7874 0,0.983 -4.5763,6.5855 -10.1695,12.4499 -5.5932,5.8645 -10.1695,11.4669 -10.1695,12.45 0,0.983 -1.3729,1.7873 -3.0508,1.7873 -1.678,0 -3.0509,-1.6103 -3.0509,-3.5785 z M 338.78934,1265.9564 c -4.92882,-4.9288 -3.88975,-8.8168 4.9067,-18.3598 5.02121,-5.4474 7.64829,-9.9751 6.90763,-11.9052 -1.55732,-4.0584 4.46563,-6.3971 8.29332,-3.2204 3.85176,3.1966 11.33488,1.9486 14.0217,-2.3386 1.56286,-2.4937 1.3814,-4.8588 -0.66643,-8.6852 -4.11415,-7.6873 0.32857,-11.6288 5.02627,-4.4591 6.59288,10.0619 -3.19306,27.2946 -13.96462,24.5911 -3.31865,-0.8329 -6.114,1.0459 -11.95811,8.0373 -8.48495,10.1507 -8.98659,11.4004 -4.57614,11.4004 4.05018,0 3.92166,5.3324 -0.16638,6.9011 -4.30606,1.6524 -4.17785,1.6845 -7.82396,-1.9616 z m -21.36498,-27.4471 c -7.10237,-8.838 -7.20575,-11.7843 -0.28348,-8.0796 4.81421,2.5765 4.12946,2.9131 23.88734,-11.7427 14.10826,-10.4651 18.09722,-15.1657 15.89434,-18.73 -2.32332,-3.7592 2.77093,-3.6668 6.19097,0.1123 3.53514,3.9063 3.49954,4.2089 -1.06682,9.0696 -2.59821,2.7656 -6.40975,5.5635 -8.47011,6.2174 -2.06036,0.654 -3.7461,2.3456 -3.7461,3.7591 0,1.4136 -2.51695,3.8359 -5.59322,5.3829 -14.04268,7.0619 -17.07118,10.2223 -15.71455,16.3989 1.90174,8.6585 -3.0831,7.586 -11.09837,-2.3879 z m 1276.06664,-21.1299 -5.6089,-7.3537 18.4073,-38.0637 c 17.6027,-36.3998 34.7306,-79.0515 42.2388,-105.1823 1.9285,-6.7119 4.698,-14.546 6.1545,-17.4091 2.4989,-4.9126 21.1332,-21.0123 22.6104,-19.5351 1.0745,1.0745 -14.4871,53.0482 -22.5165,75.2017 -12.298,33.9309 -38.8629,92.0481 -51.7931,113.31 l -3.8835,6.386 z M 133.64269,1181.6949 c -10.62174,-21.8135 -23.48992,-50.7422 -28.59597,-64.2859 -8.670747,-22.9991 -26.221882,-78.282 -25.176483,-79.3015 0.257809,-0.2514 5.611512,3.3512 11.897115,8.0058 10.112408,7.4885 11.811628,9.8107 14.756758,20.1667 7.0376,24.7466 24.73221,69.0568 41.12942,102.9948 9.40072,19.457 17.09223,35.9662 17.09223,36.687 0,0.7208 -2.65294,4.4793 -5.89541,8.3523 l -5.89542,7.0418 z m 1420.43971,16.961 -6.3877,-5.7745 13.9283,-27.4577 c 14.8586,-29.2918 30.9247,-68.4047 41.9893,-102.223 6.5644,-20.0634 7.166,-21.0413 18.179,-29.5486 6.2645,-4.8391 10.9766,-7.6024 10.4713,-6.1405 -0.5053,1.4618 -3.311,11.3528 -6.235,21.9799 -10.4676,38.0448 -38.6924,106.7275 -58.373,142.0458 l -7.1846,12.8932 z m -1384.94588,-27.639 c -7.85229,-15.9406 -19.33149,-41.4088 -25.50932,-56.5958 -11.32914,-27.8506 -28.90038,-82.7072 -27.07637,-84.5312 0.54181,-0.5419 5.53118,2.9604 11.08747,7.7828 9.02051,7.829 10.78768,10.8097 16.50209,27.8339 10.86092,32.3566 26.55194,70.556 40.05255,97.5068 l 12.90971,25.7712 -5.37253,5.6077 c -2.95489,3.0842 -6.03497,5.6077 -6.84462,5.6077 -0.80965,0 -7.89669,-13.0424 -15.74898,-28.9831 z m 235.60924,3.5594 c 0,-2.0339 -2.0339,-3.0509 -6.1017,-3.0509 -4.06779,0 -6.10169,-1.0169 -6.10169,-3.0508 0,-2.0339 2.0339,-3.0509 6.10169,-3.0509 5.87571,0 6.1017,-0.339 6.1017,-9.1525 0,-7.7966 0.60264,-9.1526 4.06779,-9.1526 3.46516,0 4.0678,1.356 4.0678,9.1526 v 9.1525 h 8.13559 8.1356 v -9.1525 c 0,-7.7966 0.60264,-9.1526 4.06779,-9.1526 3.46515,0 4.0678,1.356 4.0678,9.1526 0,9.073 0.0608,9.1525 6.99403,9.1525 6.72994,0 7.04583,-0.3456 8.36652,-9.1525 1.57672,-10.5143 7.01233,-13.0081 7.01233,-3.2172 0,9.891 1.87767,12.3697 9.37015,12.3697 6.82308,0 6.90104,-0.1033 6.90104,-9.1525 0,-7.7966 0.60264,-9.1526 4.06779,-9.1526 3.47315,0 4.0678,1.356 4.0678,9.2754 v 9.2753 l 7.62712,-0.6313 c 7.40345,-0.6127 7.64546,-0.8847 8.25254,-9.2753 0.50561,-6.9882 1.38224,-8.6441 4.57627,-8.6441 3.32656,0 3.95085,1.4463 3.95085,9.1526 0,9.1041 0.0376,9.1525 7.11864,9.1525 7.08098,0 7.11865,-0.048 7.11865,-9.1525 0,-7.7966 0.60264,-9.1526 4.06779,-9.1526 3.46516,0 4.0678,1.356 4.0678,9.1526 v 9.1525 h 8.13559 8.1356 v -9.1525 c 0,-7.7966 0.60264,-9.1526 4.06779,-9.1526 3.46515,0 4.0678,1.356 4.0678,9.1526 0,9.1041 0.0376,9.1525 7.11864,9.1525 7.08098,0 7.11865,-0.048 7.11865,-9.1525 0,-7.7966 0.60264,-9.1526 4.06779,-9.1526 3.46516,0 4.0678,1.356 4.0678,9.1526 v 9.1525 h 8.13559 8.1356 v -9.1525 c 0,-7.7966 0.60264,-9.1526 4.06779,-9.1526 3.46516,0 4.0678,1.356 4.0678,9.1526 0,9.044 0.0816,9.1525 6.88143,9.1525 7.18786,0 9.29744,-3.0936 9.36199,-13.7288 0.0163,-2.6995 1.27894,-4.5763 3.07861,-4.5763 1.79968,0 3.06224,1.8768 3.07861,4.5763 0.0614,10.1108 2.26056,13.7288 8.34505,13.7288 5.59456,0 5.86448,-0.4212 5.86448,-9.1525 0,-7.7966 0.60264,-9.1526 4.06779,-9.1526 3.46516,0 4.0678,1.356 4.0678,9.1526 v 9.1525 h 8.13559 8.1356 v -9.1525 c 0,-7.7966 0.60264,-9.1526 4.06779,-9.1526 3.46516,0 4.0678,1.356 4.0678,9.1526 0,9.073 0.0608,9.1525 6.99403,9.1525 6.72994,0 7.04583,-0.3456 8.36652,-9.1525 1.57672,-10.5143 7.01233,-13.0081 7.01233,-3.2172 0,9.891 1.87768,12.3697 9.37015,12.3697 6.82308,0 6.90104,-0.1033 6.90104,-9.1525 0,-7.7966 0.60264,-9.1526 4.06779,-9.1526 3.47315,0 4.0678,1.356 4.0678,9.2754 v 9.2753 l 7.62712,-0.6313 c 7.40345,-0.6127 7.64546,-0.8847 8.25254,-9.2753 0.50561,-6.9882 1.38224,-8.6441 4.57627,-8.6441 3.32657,0 3.95085,1.4463 3.95085,9.1526 0,9.1041 0.0376,9.1525 7.11864,9.1525 7.08098,0 7.11865,-0.048 7.11865,-9.1525 0,-7.7966 0.60264,-9.1526 4.06779,-9.1526 3.46516,0 4.0678,1.356 4.0678,9.1526 v 9.1525 h 8.13559 8.1356 v -9.1525 c 0,-7.7966 0.60264,-9.1526 4.06779,-9.1526 3.46516,0 4.0678,1.356 4.0678,9.1526 0,9.1041 0.0376,9.1525 7.11864,9.1525 7.08098,0 7.11865,-0.048 7.11865,-9.1525 0,-7.7966 0.60264,-9.1526 4.06779,-9.1526 3.46516,0 4.0678,1.356 4.0678,9.1526 v 9.1525 h 8.13559 8.1356 v -9.1525 c 0,-7.7966 0.60264,-9.1526 4.06779,-9.1526 3.46516,0 4.0678,1.356 4.0678,9.1526 0,9.044 0.0816,9.1525 6.88143,9.1525 7.18786,0 9.29744,-3.0936 9.36199,-13.7288 0.0163,-2.6995 1.27894,-4.5763 3.07861,-4.5763 2.07967,0 3.06076,2.1043 3.08199,6.6102 0.0433,9.2073 2.45384,12.1356 9.3421,11.3493 5.3388,-0.6094 5.93866,-1.4682 6.50642,-9.3154 0.50561,-6.9882 1.38224,-8.6441 4.57627,-8.6441 3.32657,0 3.95085,1.4463 3.95085,9.1526 0,9.1041 0.0376,9.1525 7.11864,9.1525 7.08098,0 7.11865,-0.048 7.11865,-9.1525 0,-7.7966 0.60264,-9.1526 4.0678,-9.1526 3.46515,0 4.06779,1.356 4.06779,9.1526 v 9.1525 h 8.13559 8.1356 v -9.1525 c 0,-7.7966 0.60264,-9.1526 4.06779,-9.1526 3.46516,0 4.0678,1.356 4.0678,9.1526 0,9.1041 0.0376,9.1525 7.11865,9.1525 7.08097,0 7.11864,-0.048 7.11864,-9.1525 0,-7.7966 0.60264,-9.1526 4.0678,-9.1526 3.46515,0 4.06779,1.356 4.06779,9.1526 v 9.1525 h 8.1356 8.13559 v -9.1525 c 0,-7.7966 0.60264,-9.1526 4.06779,-9.1526 3.46516,0 4.0678,1.356 4.0678,9.1526 0,9.044 0.0816,9.1525 6.88143,9.1525 7.18786,0 9.29744,-3.0936 9.36199,-13.7288 0.0163,-2.6995 1.27894,-4.5763 3.07862,-4.5763 2.0149,0 3.05084,2.0155 3.05084,5.9354 0,9.891 1.87765,12.3697 9.37015,12.3697 6.8231,0 6.901,-0.1033 6.901,-9.1525 0,-7.7966 0.6027,-9.1526 4.0678,-9.1526 3.4732,0 4.0678,1.356 4.0678,9.2754 v 9.2753 l 7.6272,-0.6313 c 7.4034,-0.6127 7.6454,-0.8847 8.2525,-9.2753 0.5056,-6.9882 1.3822,-8.6441 4.5763,-8.6441 3.3265,0 3.9508,1.4463 3.9508,9.1526 0,9.1041 0.038,9.1525 7.1187,9.1525 6.9491,0 7.1186,-0.1936 7.1186,-8.1356 0,-6.7796 0.678,-8.1356 4.0678,-8.1356 3.3898,0 4.0678,1.356 4.0678,8.1356 v 8.1356 h 8.1356 8.1356 v -9.1525 c 0,-7.7966 0.6026,-9.1526 4.0678,-9.1526 3.4651,0 4.0678,1.356 4.0678,9.1526 0,9.1041 0.038,9.1525 7.1186,9.1525 7.081,0 7.1187,-0.048 7.1187,-9.1525 0,-7.7966 0.6026,-9.1526 4.0678,-9.1526 3.4651,0 4.0678,1.356 4.0678,9.1526 0,9.1041 0.038,9.1525 7.1186,9.1525 7.081,0 7.1186,-0.048 7.1186,-9.1525 0,-7.7966 0.6027,-9.1526 4.0678,-9.1526 3.4652,0 4.0678,1.356 4.0678,9.1526 v 9.1525 h 8.1356 8.1356 v -9.1525 c 0,-7.7966 0.6027,-9.1526 4.0678,-9.1526 3.4652,0 4.0678,1.356 4.0678,9.1526 0,9.073 0.061,9.1525 6.994,9.1525 6.73,0 7.0459,-0.3456 8.3666,-9.1525 1.5767,-10.5143 7.0123,-13.0081 7.0123,-3.2172 0,9.891 1.8777,12.3697 9.3701,12.3697 6.8231,0 6.9011,-0.1033 6.9011,-9.1525 0,-7.7966 0.6026,-9.1526 4.0678,-9.1526 3.4651,0 4.0678,1.356 4.0678,9.1526 0,9.0491 0.078,9.1525 6.901,9.1525 7.4925,0 9.3702,-2.4787 9.3702,-12.3697 0,-9.7909 5.4356,-7.2971 7.0123,3.2172 1.3207,8.8069 1.6366,9.1525 8.3665,9.1525 6.9333,0 6.994,-0.08 6.994,-9.1525 0,-7.7966 0.6027,-9.1526 4.0678,-9.1526 3.4652,0 4.0678,1.356 4.0678,9.1526 v 9.1525 h 8.1356 8.1356 v -9.1525 c 0,-7.7966 0.6027,-9.1526 4.0678,-9.1526 3.4652,0 4.0678,1.356 4.0678,9.1526 0,9.1041 0.038,9.1525 7.1187,9.1525 7.0809,0 7.1186,-0.048 7.1186,-9.1525 0,-7.7966 0.6026,-9.1526 4.0678,-9.1526 3.4651,0 4.0678,1.356 4.0678,9.1526 v 9.1525 h 8.1356 8.1356 v -9.1525 c 0,-7.7966 0.6026,-9.1526 4.0678,-9.1526 3.4651,0 4.0678,1.356 4.0678,9.1526 0,9.1041 0.038,9.1525 7.1186,9.1525 4.9718,0 7.1187,0.9201 7.1187,3.0509 0,2.0409 -2.041,3.0508 -6.1656,3.0508 -3.6042,0 -6.6518,1.2674 -7.3362,3.0509 -0.6439,1.6779 -3.3609,3.0508 -6.0379,3.0508 -2.9704,0 -4.8671,-1.1889 -4.8671,-3.0508 0,-2.0339 -2.0339,-3.0509 -6.1017,-3.0509 -4.0678,0 -6.1017,1.017 -6.1017,3.0509 0,1.8983 -1.9209,3.0508 -5.0848,3.0508 -3.1638,0 -5.0847,-1.1525 -5.0847,-3.0508 0,-2.1308 -2.1469,-3.0509 -7.1186,-3.0509 -4.9718,0 -7.1187,0.9201 -7.1187,3.0509 0,1.8983 -1.9209,3.0508 -5.0847,3.0508 -3.1639,0 -5.0848,-1.1525 -5.0848,-3.0508 0,-2.0339 -2.0339,-3.0509 -6.1017,-3.0509 -4.0678,0 -6.1017,1.017 -6.1017,3.0509 0,1.8619 -1.8967,3.0508 -4.8671,3.0508 -2.6769,0 -5.394,-1.3729 -6.0379,-3.0508 -0.6843,-1.7835 -3.732,-3.0509 -7.3362,-3.0509 -4.1246,0 -6.1655,1.01 -6.1655,3.0509 0,1.8983 -1.9209,3.0508 -5.0848,3.0508 -3.1638,0 -5.0847,-1.1525 -5.0847,-3.0508 0,-2.0339 -2.0339,-3.0509 -6.1017,-3.0509 -4.0678,0 -6.1017,1.017 -6.1017,3.0509 0,2.0339 -2.0339,3.0508 -6.1017,3.0508 -4.0678,0 -6.1017,-1.0169 -6.1017,-3.0508 0,-2.0339 -2.0339,-3.0509 -6.1017,-3.0509 -4.0678,0 -6.1017,1.017 -6.1017,3.0509 0,1.8983 -1.9209,3.0508 -5.0848,3.0508 -3.1638,0 -5.0847,-1.1525 -5.0847,-3.0508 0,-2.0409 -2.041,-3.0509 -6.1655,-3.0509 -3.6042,0 -6.6519,1.2674 -7.3363,3.0509 -0.6439,1.6779 -3.3609,3.0508 -6.0378,3.0508 -2.9704,0 -4.8672,-1.1889 -4.8672,-3.0508 0,-2.0339 -2.0339,-3.0509 -6.1017,-3.0509 -4.0678,0 -6.1017,1.017 -6.1017,3.0509 0,1.8983 -1.9209,3.0508 -5.0847,3.0508 -3.1639,0 -5.0848,-1.1525 -5.0848,-3.0508 0,-2.1308 -2.1469,-3.0509 -7.1186,-3.0509 -4.9717,0 -7.1186,0.9201 -7.1186,3.0509 0,1.8983 -1.9209,3.0508 -5.0848,3.0508 -3.1638,0 -5.0847,-1.1525 -5.0847,-3.0508 0,-1.9084 -1.928,-3.0509 -5.1486,-3.0509 -2.8317,0 -5.6754,1.3729 -6.3193,3.0509 -0.6439,1.6779 -3.3609,3.0508 -6.0379,3.0508 -2.9704,0 -4.8671,-1.1889 -4.8671,-3.0508 0,-2.0339 -2.0339,-3.0509 -6.1017,-3.0509 -4.0678,0 -6.1017,1.017 -6.1017,3.0509 0,1.8619 -1.8967,3.0508 -4.8671,3.0508 -2.677,0 -5.394,-1.3729 -6.0379,-3.0508 -0.6844,-1.7835 -3.732,-3.0509 -7.3363,-3.0509 -4.1245,0 -6.1655,1.01 -6.1655,3.0509 0,1.8983 -1.9209,3.0508 -5.0847,3.0508 -3.1639,0 -5.0848,-1.1525 -5.0848,-3.0508 0,-2.0339 -2.0339,-3.0509 -6.1017,-3.0509 -4.0678,0 -6.1017,1.017 -6.1017,3.0509 0,1.8619 -1.8967,3.0508 -4.8671,3.0508 -2.6769,0 -5.394,-1.3729 -6.0379,-3.0508 -0.6843,-1.7835 -3.732,-3.0509 -7.3362,-3.0509 -4.1246,0 -6.1655,1.01 -6.1655,3.0509 0,1.8983 -1.92094,3.0508 -5.08479,3.0508 -3.16386,0 -5.08475,-1.1525 -5.08475,-3.0508 0,-2.0409 -2.041,-3.0509 -6.16552,-3.0509 -3.60423,0 -6.65188,1.2674 -7.33625,3.0509 -0.64391,1.6779 -3.36094,3.0508 -6.03787,3.0508 -2.97041,0 -4.86714,-1.1889 -4.86714,-3.0508 0,-2.0339 -2.0339,-3.0509 -6.10169,-3.0509 -4.0678,0 -6.1017,1.017 -6.1017,3.0509 0,1.8983 -1.92089,3.0508 -5.08475,3.0508 -3.16385,0 -5.08474,-1.1525 -5.08474,-3.0508 0,-2.1308 -2.1469,-3.0509 -7.11864,-3.0509 -4.97175,0 -7.11865,0.9201 -7.11865,3.0509 0,1.8983 -1.92089,3.0508 -5.08474,3.0508 -3.16386,0 -5.08475,-1.1525 -5.08475,-3.0508 0,-2.0339 -2.0339,-3.0509 -6.1017,-3.0509 -4.06779,0 -6.10169,1.017 -6.10169,3.0509 0,1.8619 -1.89673,3.0508 -4.86714,3.0508 -2.67693,0 -5.39396,-1.3729 -6.03787,-3.0508 -0.68437,-1.7835 -3.73202,-3.0509 -7.33625,-3.0509 -4.12452,0 -6.16552,1.01 -6.16552,3.0509 0,1.8983 -1.92089,3.0508 -5.08474,3.0508 -3.16386,0 -5.08475,-1.1525 -5.08475,-3.0508 0,-2.0339 -2.0339,-3.0509 -6.1017,-3.0509 -4.06779,0 -6.10169,1.017 -6.10169,3.0509 0,1.8983 -1.9209,3.0508 -5.08475,3.0508 -3.16385,0 -5.08474,-1.1525 -5.08474,-3.0508 0,-2.0409 -2.041,-3.0509 -6.16552,-3.0509 -3.60423,0 -6.65188,1.2674 -7.33625,3.0509 -0.64391,1.6779 -3.36094,3.0508 -6.03787,3.0508 -2.97041,0 -4.86714,-1.1889 -4.86714,-3.0508 0,-2.0339 -2.0339,-3.0509 -6.1017,-3.0509 -4.06779,0 -6.10169,1.017 -6.10169,3.0509 0,1.8983 -1.9209,3.0508 -5.08475,3.0508 -3.16385,0 -5.08474,-1.1525 -5.08474,-3.0508 0,-2.1308 -2.1469,-3.0509 -7.11865,-3.0509 -4.97174,0 -7.11864,0.9201 -7.11864,3.0509 0,1.8983 -1.92089,3.0508 -5.08475,3.0508 -3.16385,0 -5.08474,-1.1525 -5.08474,-3.0508 0,-2.0339 -2.0339,-3.0509 -6.1017,-3.0509 -4.06779,0 -6.10169,1.017 -6.10169,3.0509 0,1.8619 -1.89673,3.0508 -4.86714,3.0508 -2.67694,0 -5.39396,-1.3729 -6.03787,-3.0508 -0.68437,-1.7835 -3.73202,-3.0509 -7.33625,-3.0509 -4.12452,0 -6.16552,1.01 -6.16552,3.0509 0,1.8983 -1.92089,3.0508 -5.08475,3.0508 -3.16385,0 -5.08474,-1.1525 -5.08474,-3.0508 0,-2.0339 -2.0339,-3.0509 -6.1017,-3.0509 -4.06779,0 -6.10169,1.017 -6.10169,3.0509 0,2.0339 -2.0339,3.0508 -6.1017,3.0508 -4.06779,0 -6.10169,-1.0169 -6.10169,-3.0508 0,-2.0339 -2.0339,-3.0509 -6.1017,-3.0509 -4.06779,0 -6.10169,1.017 -6.10169,3.0509 0,1.8983 -1.9209,3.0508 -5.08475,3.0508 -3.16385,0 -5.08474,-1.1525 -5.08474,-3.0508 0,-2.0409 -2.041,-3.0509 -6.16552,-3.0509 -3.60423,0 -6.65188,1.2674 -7.33625,3.0509 -0.64391,1.6779 -3.36094,3.0508 -6.03787,3.0508 -2.97041,0 -4.86714,-1.1889 -4.86714,-3.0508 0,-2.0339 -2.0339,-3.0509 -6.1017,-3.0509 -4.06779,0 -6.10169,1.017 -6.10169,3.0509 0,1.8619 -1.89673,3.0508 -4.86714,3.0508 -2.67694,0 -5.39396,-1.3729 -6.03787,-3.0508 -0.64389,-1.678 -3.48757,-3.0509 -6.3193,-3.0509 -3.22058,0 -5.14857,1.1425 -5.14857,3.0509 0,1.8983 -1.9209,3.0508 -5.08475,3.0508 -3.16385,0 -5.08474,-1.1525 -5.08474,-3.0508 0,-2.0409 -2.041,-3.0509 -6.16552,-3.0509 -3.60423,0 -6.65189,1.2674 -7.33625,3.0509 -0.64391,1.6779 -3.36094,3.0508 -6.03787,3.0508 -2.97041,0 -4.86714,-1.1889 -4.86714,-3.0508 0,-2.0339 -2.0339,-3.0509 -6.1017,-3.0509 -4.06779,0 -6.10169,1.017 -6.10169,3.0509 0,1.8983 -1.9209,3.0508 -5.08475,3.0508 -3.16385,0 -5.08474,-1.1525 -5.08474,-3.0508 0,-2.1308 -2.1469,-3.0509 -7.11865,-3.0509 -4.97174,0 -7.11864,0.9201 -7.11864,3.0509 0,1.8983 -1.9209,3.0508 -5.08475,3.0508 -3.16385,0 -5.08474,-1.1525 -5.08474,-3.0508 0,-2.0339 -2.0339,-3.0509 -6.1017,-3.0509 -4.06779,0 -6.10169,1.017 -6.10169,3.0509 0,1.8619 -1.89673,3.0508 -4.86714,3.0508 -2.67694,0 -5.39396,-1.3729 -6.03787,-3.0508 -0.68437,-1.7835 -3.73202,-3.0509 -7.33625,-3.0509 -4.12452,0 -6.16552,1.01 -6.16552,3.0509 0,1.8983 -1.9209,3.0508 -5.08475,3.0508 -3.16385,0 -5.08474,-1.1525 -5.08474,-3.0508 0,-2.0339 -2.0339,-3.0509 -6.1017,-3.0509 -4.06779,0 -6.10169,1.017 -6.10169,3.0509 0,1.8619 -1.89673,3.0508 -4.86714,3.0508 -2.67694,0 -5.39396,-1.3729 -6.03787,-3.0508 -0.68437,-1.7835 -3.73202,-3.0509 -7.33625,-3.0509 -4.12453,0 -6.16552,1.01 -6.16552,3.0509 0,1.8983 -1.9209,3.0508 -5.08475,3.0508 -3.16385,0 -5.08474,-1.1525 -5.08474,-3.0508 0,-2.0409 -2.041,-3.0509 -6.16552,-3.0509 -3.60423,0 -6.65189,1.2674 -7.33625,3.0509 -0.64391,1.6779 -3.36094,3.0508 -6.03787,3.0508 -2.97041,0 -4.86714,-1.1889 -4.86714,-3.0508 0,-2.0339 -2.0339,-3.0509 -6.1017,-3.0509 -4.06779,0 -6.10169,1.017 -6.10169,3.0509 0,1.8983 -1.9209,3.0508 -5.08475,3.0508 -3.16385,0 -5.08474,-1.1525 -5.08474,-3.0508 z m 0,-39.661 c 0,-1.1187 -2.74577,-2.0339 -6.1017,-2.0339 -4.06779,0 -6.10169,-1.017 -6.10169,-3.0509 0,-2.0339 2.0339,-3.0508 6.10169,-3.0508 4.0678,0 6.1017,-1.017 6.1017,-3.0509 0,-1.8983 1.92089,-3.0508 5.08474,-3.0508 3.16385,0 5.08475,1.1525 5.08475,3.0508 0,2.0339 2.0339,3.0509 6.10169,3.0509 4.0678,0 6.1017,-1.017 6.1017,-3.0509 0,-1.678 1.37288,-3.0508 3.05084,-3.0508 1.67797,0 3.05085,-0.9153 3.05085,-2.0339 0,-1.1187 -0.86308,-2.0339 -1.91796,-2.0339 -1.05489,0 -7.45933,-5.1303 -14.23208,-11.4007 -12.92398,-11.9654 -25.1315,-33.0489 -27.67357,-47.7949 l -1.2638,-7.3311 45.90201,-11.4824 c 25.24611,-6.3154 47.09925,-11.4825 48.56255,-11.4825 1.46329,0 3.81731,4.3251 5.23115,9.6113 3.34652,12.5122 16.29936,25.2533 29.40279,28.922 5.20936,1.4586 14.91254,2.2456 21.66398,1.7573 9.78991,-0.7082 13.75583,-2.1128 19.88693,-7.0435 13.98287,-11.2453 13.69489,-9.2832 14.35706,-97.82333 l 0.59704,-79.83051 h 55.84364 55.84365 v 89.38379 89.38375 l -7.48397,15.5484 c -8.3803,17.4104 -21.63055,33.4105 -31.6339,38.1989 -3.65467,1.7494 -9.8295,5.5459 -13.72187,8.4367 -3.89238,2.8908 -13.14358,7.0627 -20.55826,9.2709 -12.0842,3.5988 -19.65171,4.0149 -73.02598,4.0149 -40.75891,0 -62.14055,-0.7778 -67.77258,-2.4652 -6.44473,-1.9309 -8.4059,-1.9309 -9.04953,0 -0.98422,2.9527 -10.65221,3.3441 -10.65221,0.4313 0,-1.1187 -3.20339,-2.0339 -7.11865,-2.0339 -3.91525,0 -7.11864,0.9152 -7.11864,2.0339 0,1.1186 -1.83051,2.0339 -4.0678,2.0339 -2.23729,0 -4.06779,-0.9153 -4.06779,-2.0339 0,-1.1187 -3.66102,-2.0339 -8.1356,-2.0339 -4.47457,0 -8.13559,0.9152 -8.13559,2.0339 0,1.1186 -1.83051,2.0339 -4.0678,2.0339 -2.23729,0 -4.06779,-0.9153 -4.06779,-2.0339 z m 40.67796,-10.1695 c -4.00702,-2.5896 -8.71906,-2.5896 -7.11864,0 0.69136,1.1186 3.26233,2.0198 5.71326,2.0027 3.62284,-0.025 3.88568,-0.3998 1.40538,-2.0027 z m 333.55932,10.1939 c -1.67797,-1.0978 -6.42903,-2.0101 -10.55793,-2.0272 -4.12889,-0.016 -8.02922,-0.876 -8.66739,-1.9086 -0.63818,-1.0325 -4.12438,-2.465 -7.74716,-3.1833 -3.62276,-0.7183 -13.68006,-4.0949 -22.34955,-7.5037 l -15.76272,-6.1978 v -41.4664 c 0,-22.8064 0.53575,-41.4663 1.19055,-41.4663 0.65479,0 16.90055,6.7691 36.10169,15.0423 19.20114,8.2733 41.08981,16.5534 48.64149,18.4004 38.07509,9.3123 77.2342,12.9306 102.10694,9.4348 18.5867,-2.6124 26.06919,-6.4678 25.1348,-12.9508 -0.91815,-6.3702 -14.57992,-10.7427 -42.34983,-13.5542 -84.40546,-8.5454 -105.86516,-12.4643 -129.13072,-23.5813 -18.52005,-8.8494 -27.23683,-16.3209 -34.64465,-29.69513 -5.43472,-9.81191 -6.03332,-12.70881 -6.03332,-29.19772 0,-15.92234 0.73977,-19.81154 5.6832,-29.87815 10.90876,-22.21424 38.09465,-41.01519 72.62189,-50.22316 26.94524,-7.18592 46.66078,-9.28043 87.45762,-9.29115 44.45858,-0.0122 67.40209,2.57075 101.69492,11.44633 12.8644,3.32954 25.67793,6.40373 28.47453,6.83156 2.7967,0.42785 9.6611,2.55344 15.2543,4.72357 l 10.1695,3.94566 0.5533,37.83283 c 0.3044,20.80806 0.1541,37.83284 -0.334,37.83284 -0.488,0 -9.2634,-3.19641 -19.5007,-7.10312 -10.2374,-3.90673 -20.61251,-7.56572 -23.05585,-8.13108 -2.44334,-0.56538 -13.60163,-4.1951 -24.79619,-8.06605 -28.75944,-9.94475 -53.59098,-13.88966 -87.44286,-13.89177 -39.91501,-0.002 -62.85618,6.61206 -56.71251,16.35183 3.45462,5.4767 15.99948,8.06386 56.09276,11.5682 65.94409,5.7638 95.19275,11.84014 120.16905,24.96482 24.8669,13.06719 36.0439,30.99489 36.0439,57.81359 0,20.7405 -5.9132,34.5487 -21.217,49.5444 -12.8747,12.6154 -39.42343,28.1491 -55.05417,32.2122 -10.85048,2.8204 -177.89568,4.0792 -182.03389,1.3716 z M 1075.9322,1008.8136 V 880.67797 h 56.9491 56.9492 v 87.45762 87.45761 h 76.2712 76.2712 v 40.678 40.678 h -133.2204 -133.2203 z m -989.980259,20.1757 c -11.030072,-8.411 -13.362445,-13.1746 -15.956192,-32.58895 -1.105023,-8.27115 -0.655347,-9.46096 5.987955,-15.8436 l 7.182699,-6.90087 1.095881,4.86697 c 0.602734,2.67684 3.785189,16.76022 7.072123,31.29635 3.286934,14.5362 5.797242,26.6085 5.578464,26.8272 -0.218778,0.2188 -5.151197,-3.2269 -10.96093,-7.6571 z m 1574.332759,-3.0911 c 0.9296,-3.2912 2.7066,-11.1514 10.6381,-47.05566 0.9503,-4.30159 1.395,-4.11504 8.2323,3.45295 6.8309,7.56108 7.1475,8.53511 5.7666,17.74371 -1.4936,9.9603 -5.818,15.5459 -19.674,25.4123 -5.6965,4.0562 -5.9899,4.0827 -4.963,0.4467 z m -1539.87288,-7.9481 c -8.88081,-7.9846 -10.65322,-10.8721 -12.68702,-20.66891 l -2.36408,-11.38767 7.11865,-7.11865 7.11864,-7.11864 2.40193,11.9685 c 1.32106,6.58267 4.11395,18.79997 6.20642,27.14947 2.09248,8.3496 3.51739,15.4682 3.16646,15.8191 -0.35093,0.3509 -5.28338,-3.5385 -10.961,-8.6432 z m 1499.95948,-13.7837 c 2.6629,-11.42713 5.3271,-22.99266 5.9206,-25.70123 l 1.0791,-4.92465 7.0151,7.01509 7.0151,7.01508 -2.2365,11.13645 c -2.1916,10.91276 -6.1585,15.53686 -21.259,24.78126 -1.5093,0.924 -0.61,-6.1232 2.4656,-19.322 z m 61.1905,-34.75061 -7.5906,-9.0864 2.958,-22.02909 c 9.4357,-70.27109 9.1837,-140.6929 -0.7533,-210.45348 l -3.3729,-23.6786 7.6812,-6.4488 c 9.0331,-7.58368 8.4925,-8.45366 12.5792,20.24668 12.2405,85.96351 11.4212,172.08614 -2.3954,251.79348 l -1.5155,8.74263 z M 63.277775,960.70745 c -5.177242,-34.92472 -6.308923,-45.96826 -8.669925,-84.60576 -2.615412,-42.80088 -0.543929,-98.13477 5.272771,-140.84745 1.523392,-11.18644 3.43544,-25.14407 4.248993,-31.01695 0.813553,-5.87288 2.047717,-10.65114 2.742584,-10.61835 0.694867,0.0327 4.345692,2.86191 8.112947,6.28692 l 6.849551,6.22729 -3.301623,25.74699 c -9.533019,74.34118 -9.582809,136.62637 -0.165254,206.7277 l 3.000751,22.33664 -7.862317,7.86232 -7.862318,7.86232 z m 38.411975,11.46602 c -0.003,-1.66151 -1.803019,-15.37686 -4.000402,-30.47855 -6.831246,-46.9483 -9.222848,-100.28283 -6.477368,-144.45027 2.205277,-35.477 9.58821,-97.20852 11.91402,-99.61753 1.82169,-1.88687 14.75482,15.2258 13.8343,18.30508 -3.47574,11.62701 -7.67466,61.50283 -8.60234,102.18082 -1.10383,48.40181 0.8884,86.37793 6.45739,123.09179 l 2.69672,17.77824 -7.90858,8.10568 c -4.72066,4.83831 -7.91066,6.88795 -7.91374,5.08474 z m 1534.09075,-4.54239 -6.381,-6.61413 2.8448,-19.32203 c 9.4658,-64.29204 9.4825,-146.86379 0.043,-211.34313 l -2.8021,-19.13972 6.3054,-7.84623 c 3.468,-4.31542 6.9634,-7.14323 7.7676,-6.28399 2.7314,2.91822 9.938,61.38248 12.3507,100.19573 1.8499,29.76173 1.848,47.57854 -0.01,77.44407 -2.4291,39.07778 -9.427,95.15868 -12.228,97.99418 -0.8309,0.84116 -4.3822,-1.44698 -7.8917,-5.08475 z M 173.80381,951.71152 c -0.75987,-1.22949 -0.53476,-3.08227 0.50024,-4.11726 1.10547,-1.10549 33.29509,-1.66168 78.02617,-1.34821 66.09077,0.46316 76.14435,0.93642 76.14435,3.58446 0,2.64846 -10.1088,3.12112 -76.64459,3.58365 -54.03929,0.37566 -77.05207,-0.12651 -78.02617,-1.70264 z m 1237.72159,-12.0505 c 0,-3.99643 1.3559,-4.0678 77.2881,-4.0678 75.9322,0 77.2882,0.0714 77.2882,4.0678 0,3.99642 -1.356,4.06779 -77.2882,4.06779 -75.9322,0 -77.2881,-0.0714 -77.2881,-4.06779 z M 260.67541,863.19317 c -6.29352,-4.40815 -5.22851,-12.88348 2.13606,-16.99865 5.02928,-2.81028 6.08381,-2.75526 11.78926,0.61505 6.92647,4.09156 12.17893,2.03164 12.17893,-4.77632 0,-6.34402 -5.92611,-17.9746 -9.78218,-19.19846 -6.09136,-1.93332 -59.89446,-0.509 -65.98053,1.74669 -4.7372,1.75577 -5.59322,3.23897 -5.59322,9.69116 0,8.32839 -6.41012,14.36809 -10.69821,10.08 -2.64893,-2.64892 -2.42523,-48.99191 0.2494,-51.66655 1.04706,-1.04705 3.82638,-1.29351 6.17627,-0.54768 3.20718,1.01792 4.27254,3.0348 4.27254,8.08859 0,10.82989 2.7952,11.75542 34.01261,11.26214 37.52376,-0.59294 35.57244,-0.90303 44.70743,7.10432 14.27493,12.51285 15.33577,25.23066 3.40893,40.86755 -4.55965,5.97803 -6.5375,6.97967 -13.78222,6.97967 -4.65224,0 -10.54501,-1.46138 -13.09507,-3.24751 z m 1256.61269,-2.81766 c -5.9493,-3.8116 0.4209,-9.09466 12.3063,-10.20602 l 10.8756,-1.01695 -0.7444,-12.20339 c -0.4095,-6.71186 -0.8343,-16.32203 -0.9441,-21.35593 -0.2902,-13.29929 -1.4504,-14.23729 -17.6095,-14.23729 -16.0071,0 -17.0812,0.98315 -14.5379,13.30721 1.5399,7.46142 2.2118,8.09479 9.2084,8.67999 5.7119,0.47772 7.5473,1.5316 7.5473,4.33366 0,3.2639 -2.3487,3.81248 -19.8305,4.63186 -10.9068,0.5112 -20.9746,0.52245 -22.3729,0.025 -4.8628,-1.72993 -2.501,-6.46528 4.0678,-8.15585 5.8319,-1.50094 6.6864,-2.61694 7.2574,-9.47872 0.356,-4.27764 -0.3565,-8.78124 -1.5833,-10.00802 -1.2268,-1.22679 -8.1866,-2.35733 -15.4662,-2.51231 -16.6022,-0.35345 -17.382,0.87032 -15.8203,24.82781 1.3742,21.08136 2.9468,23.16293 17.4985,23.16293 9.1264,0 9.8701,0.36706 9.2723,4.57627 -0.5645,3.97501 -2.0299,4.65625 -11.1533,5.18498 -14.796,0.85749 -25.0669,-3.70709 -25.1631,-11.18288 -0.04,-3.13336 -0.4642,-10.73091 -0.9419,-16.88345 -2.4258,-31.24402 -2.8787,-42.83231 -1.7853,-45.68179 1.7983,-4.68618 7.2051,-3.78276 11.8766,1.98444 4.0929,5.05291 4.5468,5.12009 36.6866,5.43028 17.8983,0.17268 34.4628,-0.31663 36.81,-1.0875 2.3472,-0.77087 5.3021,-3.67212 6.5665,-6.44724 3.2704,-7.17766 8.0779,-6.3794 9.4221,1.56452 0.6152,3.63559 1.4036,19.66306 1.752,35.61657 0.7258,33.23963 0.5433,33.65894 -15.6581,35.99316 -5.4566,0.78615 -10.9481,1.80375 -12.2034,2.26133 -1.2553,0.45759 -3.6552,-0.0476 -5.3332,-1.12267 z m -768.42752,-51.90093 0.83107,-7.11865 h -15.86278 c -15.16464,0 -15.86278,-0.20447 -15.86278,-4.64575 0,-2.91289 4.00674,-8.60272 10.74193,-15.25423 l 10.74191,-10.60849 h 13.6306 13.6306 l 5.11899,-10.10189 c 2.81547,-5.55602 5.11902,-10.58992 5.11902,-11.18644 0,-0.5965 -5.0339,-1.08455 -11.18644,-1.08455 -13.91719,0 -14.51974,-2.93154 -2.68475,-13.06186 6.88973,-5.89735 10.15776,-7.27713 17.23591,-7.27713 7.65563,0 9.12547,-0.75663 11.9027,-6.12716 3.04247,-5.88351 2.98389,-6.1971 -1.4732,-7.88538 -2.55292,-0.96702 -16.7688,-6.12624 -31.59083,-11.46498 l -26.94915,-9.70676 v -11.89938 -11.89939 h 145.42373 145.42369 v 11.98579 c 0,9.52334 -0.7312,12.27471 -3.5593,13.39216 -1.9576,0.77351 -15,5.54345 -28.98304,10.59988 -13.98305,5.05642 -26.15398,9.87375 -27.04652,10.7052 -0.89255,0.83144 -0.51681,3.93909 0.83494,6.90586 2.11973,4.6523 3.69445,5.39416 11.44999,5.39416 7.32318,0 10.66023,1.36678 17.97861,7.36365 12.30112,10.07982 11.81012,12.97534 -2.20007,12.97534 -6.15254,0 -11.18644,0.89076 -11.18644,1.97949 0,1.08872 2.01289,6.12262 4.47309,11.18644 l 4.47307,9.20695 h 11.69247 c 11.0571,0 12.3615,0.55672 24.0015,10.24365 8.953,7.45075 12.309,11.60973 12.309,15.25423 0,4.8733 -0.4123,5.01059 -15.0456,5.01059 h -15.0457 l 0.2999,6.61017 0.2999,6.61017 H 995.67743 983.55828 L 963.073,768.96236 c -11.2669,-25.08765 -21.57783,-45.97808 -22.91318,-46.4232 -1.33536,-0.44512 -4.48566,0.63197 -7.00068,2.39355 -2.515,1.76158 -3.4213,3.20288 -2.01401,3.20288 2.01684,0 10.54977,15.76457 10.54977,19.49067 0,0.46657 -28.37288,0.84832 -63.05085,0.84832 -34.67796,0 -63.05084,-0.67682 -63.05084,-1.50405 0,-4.35159 7.48558,-18.82076 9.74026,-18.82731 1.7077,-0.004 1.22898,-1.50242 -1.37329,-4.29563 -2.19718,-2.35841 -5.07438,-3.92817 -6.39377,-3.48838 -2.36245,0.78748 -20.82878,39.60781 -24.50037,51.5052 -1.03567,3.35593 -6.14004,14.56779 -11.3431,24.91525 l -9.46008,18.81356 h -12.11667 -12.11666 z m 49.11315,-22.33937 6.43304,-15.22072 74.43724,-0.0335 74.43724,-0.0336 3.12225,7.62711 c 1.71722,4.19492 4.61411,11.05933 6.43752,15.25424 l 3.31525,7.62712 h -87.30779 -87.30779 l 6.43304,-15.22072 z M 289.87767,744.498 c -2.35609,-4.55618 -4.95238,-6.29188 -10.7302,-7.17344 -14.92326,-2.27691 -40.23848,-7.57564 -44.83639,-9.38469 -9.3867,-3.69317 -19.28325,-2.21286 -23.89804,3.57466 -2.50564,3.14237 -5.31039,4.79829 -6.68658,3.94775 -3.16062,-1.95337 -2.93914,-10.70282 0.82901,-32.75042 1.7207,-10.06779 3.76404,-22.32555 4.54076,-27.23945 2.08648,-13.19987 7.93892,-16.75704 24.25471,-14.74226 14.64559,1.80854 16.82473,3.18618 12.26007,7.75084 -2.77002,2.77003 -4.96196,2.97065 -13.66196,1.25046 -5.69941,-1.12692 -10.68437,-1.48936 -11.07766,-0.80544 -0.39332,0.68392 -1.37964,8.56552 -2.19181,17.51467 -0.8122,8.94915 -2.32872,17.87288 -3.37005,19.83051 -3.48765,6.55649 1.23413,10.95252 14.58555,13.57924 15.56132,3.0615 18.71486,1.15045 17.83273,-10.80665 -0.55381,-7.50667 -1.26081,-8.44691 -7.77923,-10.34537 -5.20023,-1.51454 -6.97528,-3.0661 -6.46104,-5.64756 0.81032,-4.0678 2.05222,-4.17572 14.64805,-1.27284 5.0339,1.16012 13.72881,2.72195 19.32203,3.47073 12.03759,1.61152 14.43012,7.05228 3.56203,8.10026 -7.76774,0.74903 -11.20259,5.82739 -10.29405,15.21956 0.57047,5.89749 1.40278,6.63198 8.76592,7.73579 4.47458,0.6708 10.57859,1.89553 13.56448,2.72162 7.34629,2.0325 10.4969,-3.46041 13.73251,-23.94189 2.27852,-14.42308 2.18278,-16.3022 -1.0103,-19.83051 -1.94003,-2.14371 -5.44478,-3.91013 -7.78836,-3.9254 -9.17217,-0.0598 -13.64457,-2.4134 -13.01183,-6.84753 0.5169,-3.62223 1.94858,-4.28664 8.95924,-4.15777 10.13132,0.1863 23.91143,6.94397 24.97367,12.24704 0.98164,4.90053 -5.67537,57.24046 -8.05889,63.36229 -2.47056,6.34528 -7.27621,5.71725 -10.97437,-1.4342 z M 1443.1961,726.97336 c -4.9528,-4.95274 -3.8564,-8.50127 4.5072,-14.58773 4.2368,-3.08328 9.0419,-6.76128 10.678,-8.17334 2.9802,-2.57219 27.5674,-19.24218 40.2227,-27.27085 10.6658,-6.76646 5.2969,-8.93384 -11.7699,-4.75139 -7.9664,1.95226 -15.0544,2.97952 -15.7511,2.28278 -0.6967,-0.69671 -3.3347,0.0883 -5.8622,1.7443 -2.5275,1.65608 -8.295,3.60262 -12.8168,4.32567 -8.0803,1.29209 -11.2699,4.91483 -9.9319,11.28047 0.3644,1.73327 -1.2994,2.753 -4.4917,2.753 -4.4136,0 -5.3762,-1.31717 -7.4318,-10.16949 -3.8794,-16.70628 -3.4732,-23.38983 1.4216,-23.38983 2.7578,0 4.8576,1.96212 6.1899,5.784 1.9528,5.60174 2.318,5.73344 11.5891,4.1796 5.2651,-0.88241 14.1491,-2.88307 19.7423,-4.4459 45.9068,-12.8271 43.2475,-11.75516 44.4826,-17.93072 0.8109,-4.0545 2.7399,-6.18094 6.4521,-7.11265 7.286,-1.82868 9.58,1.23319 10.6573,14.22478 l 0.9216,11.11342 -19.0534,12.3456 c -10.4794,6.79007 -20.0179,12.34666 -21.1968,12.34796 -1.1789,10e-4 -5.2137,3.17016 -8.9664,7.04189 -3.7526,3.87173 -7.5573,6.58564 -8.4548,6.03093 -0.8975,-0.5547 -5.1,2.329 -9.3387,6.40823 l -7.7069,7.41679 10.1427,-1.4412 c 5.5785,-0.79265 12.6263,-2.72548 15.6617,-4.29519 3.0355,-1.56968 8.7139,-2.85398 12.6186,-2.85398 3.9048,0 7.6026,-0.81387 8.2174,-1.80858 0.6148,-0.99472 3.6434,-2.39913 6.7302,-3.1209 13.7922,-3.22487 16.7989,-5.44208 16.7989,-12.3878 0,-5.7982 2.693,-9.1234 7.3888,-9.1234 2.7726,0 6.7996,15.52385 6.5733,25.33995 -0.2837,12.30446 -3.2346,14.64139 -8.6768,6.87151 -3.0745,-4.38938 -3.1124,-4.39129 -17.912,-0.89675 -15.9376,3.76328 -19.0126,4.3584 -36.1869,7.00339 -6.1525,0.94755 -15.305,3.22572 -20.3389,5.06259 -11.2779,4.11529 -11.1976,4.11421 -15.109,0.20278 z M 112.26759,690.00059 c -5.79715,-7.31951 -6.06379,-8.40065 -4.2125,-17.08076 1.62284,-7.60898 4.00244,-11.01582 13.30237,-19.04479 7.84883,-6.7762 10.93057,-8.53229 10.038,-5.72006 -0.70839,2.23196 -3.51794,13.92696 -6.24342,25.98885 -2.72549,12.06191 -5.34696,22.32228 -5.8255,22.80081 -0.47853,0.47854 -3.65506,-2.64628 -7.05895,-6.94405 z m 1514.12411,3.43936 c -0.4938,-1.61231 -3.1256,-12.72108 -5.8484,-24.68613 -5.5535,-24.40446 -5.04,-24.96916 9.2722,-10.19622 4.6409,4.7902 8.5092,11.21736 9.5841,15.92372 1.6777,7.34505 1.3207,8.37628 -5.1538,14.89084 -5.0596,5.09095 -7.201,6.20001 -7.8541,4.06779 z M 75.508559,687.52314 c -7.57282,-6.47681 -7.6723,-9.08886 -1.203149,-31.59094 2.508859,-8.72672 4.411987,-11.13689 13.414471,-16.98838 10.136587,-6.58863 10.448296,-6.65731 9.231138,-2.03389 -0.692833,2.63174 -3.798718,16.45173 -6.901969,30.71109 -3.103249,14.25933 -6.099899,25.89164 -6.659221,25.84954 -0.559322,-0.0421 -4.105893,-2.71844 -7.88127,-5.94742 z M 1668.894,683.89831 c -0.7641,-4.19492 -3.6149,-16.70018 -6.3352,-27.78948 -2.7203,-11.08928 -4.5369,-20.57142 -4.0369,-21.07139 0.4999,-0.49998 5.8716,3.78437 11.937,9.52076 9.5841,9.06421 11.3317,11.94203 13.3474,21.97909 2.3146,11.52517 2.3059,11.56329 -4.1933,18.2687 -3.582,3.6957 -7.1465,6.71943 -7.9213,6.71943 -0.7746,0 -2.0337,-3.4322 -2.7977,-7.62711 z M 726.86291,663.68247 c -12.25704,-2.40492 -19.7127,-24.39201 -11.16844,-32.93627 l 4.30552,-4.30552 h 157.76082 c 104.85901,0 159.08009,0.70603 161.69489,2.10545 3.0892,1.65325 3.9341,4.303 3.9341,12.33712 0,5.62739 -0.9889,12.07946 -2.1976,14.3379 -5.2695,9.84614 -5.8893,9.88259 -162.99129,9.58662 -80.85797,-0.15234 -148.96007,-0.65872 -151.338,-1.1253 z m 41.95064,-8.76722 c 5.32456,-5.32456 5.17173,-13.81698 -0.35453,-19.69942 -8.54966,-9.10068 -22.69631,-3.16064 -22.69631,9.52993 0,12.32838 14.49646,18.72387 23.05084,10.16949 z m -16.9729,-3.71947 c -4.37502,-4.83433 -4.26192,-9.07665 0.35339,-13.25343 7.43131,-6.72524 16.61951,-2.96394 16.61951,6.80341 0,9.92532 -10.28923,13.83541 -16.9729,6.45002 z m 53.1305,4.6211 c 5.90939,-4.1391 6.15232,-15.54085 0.45257,-21.24061 -8.79895,-8.79895 -22.37288,-2.08196 -22.37288,11.07112 0,7.63041 5.6559,13.33566 13.22033,13.33566 2.2988,0 6.21381,-1.42479 8.69998,-3.16617 z m -17.02261,-5.98637 c -3.08625,-4.71025 -3.08625,-5.45925 0,-10.16949 2.05558,-3.13719 5.24331,-5.08475 8.32263,-5.08475 3.07933,0 6.26705,1.94756 8.32263,5.08475 3.08626,4.71024 3.08626,5.45924 0,10.16949 -2.05558,3.13718 -5.2433,5.08474 -8.32263,5.08474 -3.07932,0 -6.26705,-1.94756 -8.32263,-5.08474 z m 218.83106,5.08474 c 5.4139,-5.41387 5.2319,-15.02823 -0.3835,-20.25974 -8.99289,-8.37817 -22.66729,-2.29106 -22.66729,10.09025 0,12.32838 14.49646,18.72387 23.05079,10.16949 z m -16.97286,-3.71947 c -4.37501,-4.83433 -4.26191,-9.07665 0.35339,-13.25343 7.43132,-6.72524 16.61947,-2.96394 16.61947,6.80341 0,9.92532 -10.28918,13.83541 -16.97286,6.45002 z m -35.68572,-14.7663 c 7.82884,-4.95763 16.04846,0.0675 16.04846,9.81156 0,5.32957 0.62495,6.82892 2.19291,5.26097 3.68995,-3.68996 1.20968,-13.21119 -4.55824,-17.498 -10.30958,-7.66228 -24.36996,1.93684 -20.92586,14.28625 1.53877,5.51746 1.58705,5.48141 2.98932,-2.23092 0.78393,-4.31142 2.69795,-8.64487 4.25341,-9.62986 z m -22.59561,9.33323 v -5.08474 h -53.8983 -53.89831 v 5.08474 5.08475 h 53.89831 53.8983 z M 119.16602,629.02849 c 7.19228,-26.14585 14.46828,-47.30933 25.71325,-74.7912 10.92109,-26.69036 39.92369,-86.42968 41.97465,-86.45901 0.70492,-0.0102 3.67559,2.89418 6.6015,6.45393 l 5.31983,6.47225 -11.808,22.52913 c -13.27954,25.33676 -30.2247,66.06311 -41.82821,100.53083 -7.43901,22.09721 -8.26713,23.51534 -19.32654,33.09629 l -11.55452,10.00985 z m 1501.05238,7.0732 c -10.2846,-9.84246 -11.74,-12.42856 -18.5999,-33.05084 -11.1072,-33.39061 -28.1692,-74.44542 -41.5431,-99.96187 l -11.884,-22.67374 6.623,-6.41919 6.6229,-6.4192 15.4077,31.12684 c 16.6003,33.53613 32.1374,70.18344 40.7903,96.21156 6.4291,19.3389 15.5039,51.86441 14.4706,51.86441 -0.4014,0 -5.7508,-4.80508 -11.8875,-10.67797 z m 45.4613,-9.66083 c -4.9882,-4.37929 -10.0636,-8.00135 -11.2785,-8.04905 -1.2149,-0.0478 -3.7368,-5.58222 -5.6042,-12.29894 -6.8379,-24.5948 -24.5499,-69.0273 -41.6419,-104.46362 l -17.5263,-36.33686 5.638,-4.84958 c 3.1009,-2.66728 6.4951,-4.84959 7.5428,-4.84959 3.8365,0 36.8839,70.17358 50.7655,107.79661 7.0012,18.97497 22.6052,69.58235 21.7259,70.46168 -0.3034,0.30342 -4.633,-3.03136 -9.6213,-7.41065 z M 86.804927,608.57524 c 11.389215,-38.45805 26.213723,-76.06352 46.476443,-117.89727 10.43022,-21.5339 19.53239,-39.15255 20.22703,-39.15255 1.99974,0 11.10196,10.94661 11.17309,13.4371 0.0353,1.23787 -7.62724,18.17007 -17.02796,37.62711 -16.26919,33.67298 -33.43684,76.57156 -40.82528,102.01432 -3.08861,10.63593 -4.50158,12.46784 -15.24226,19.7617 l -11.838081,8.03909 z m 233.503383,21.88361 c -0.70823,-1.14594 -0.71888,-4.67327 -0.0236,-7.83854 1.87418,-8.5331 0.55595,-9.26175 -47.22067,-26.10086 -20.07856,-7.07679 -20.97939,-7.21188 -24.83328,-3.72415 -5.3074,4.80313 -14.33238,2.7852 -14.33238,-3.20463 0,-5.97964 5.98206,-17.85811 10.10455,-20.06439 1.90993,-1.02217 12.08724,-1.41073 22.61624,-0.86347 38.36152,1.99392 55.35783,2.21913 61.59134,0.81617 l 6.36584,-1.43276 -9.82965,-4.3621 c -5.40628,-2.39915 -10.89781,-4.36772 -12.20339,-4.37461 -1.30556,-0.006 -4.72855,-1.24139 -7.60666,-2.74331 -6.17654,-3.22316 -32.76069,-11.48145 -36.95981,-11.48145 -1.60442,0 -3.95966,2.28813 -5.23389,5.08474 -2.64586,5.80707 -4.18402,6.18909 -9.44126,2.3449 -3.27759,-2.39662 -3.44526,-3.60531 -1.33859,-9.64851 6.12832,-17.57971 21.30041,-30.22653 19.53592,-16.28432 -0.68422,5.40635 0.14197,6.28411 9.80912,10.42178 21.13567,9.04627 29.05776,12.56164 39.03084,17.31968 5.59322,2.66845 14.20415,6.02894 19.13542,7.46774 10.43195,3.04377 14.52383,7.92085 11.15361,13.29399 -2.67425,4.26358 -21.07346,6.13098 -45.08892,4.57627 -19.43158,-1.25797 -37.06452,-0.34867 -37.06452,1.91133 0,0.93431 6.17797,4.28823 13.72882,7.45312 7.55084,3.16491 14.34644,6.64277 15.10132,7.72859 0.75487,1.08582 4.0785,2.18069 7.38582,2.43307 3.30734,0.25237 8.87593,1.93918 12.37469,3.74844 7.00208,3.62092 14.4602,1.54543 14.4602,-4.02407 0,-3.41282 1.77724,-3.72269 6.00657,-1.04724 2.56489,1.62255 2.4938,3.33521 -0.53762,12.95197 -5.02343,15.93612 -13.10044,25.44427 -16.68606,19.64262 z M 1411.2439,620.30311 c -1.8327,-1.07034 -3.9634,-4.4747 -4.7347,-7.56527 -1.6458,-6.59439 -12.0731,-31.55048 -16.6665,-39.88869 -2.841,-5.15722 -2.8558,-6.13146 -0.1343,-8.85312 4.3029,-4.30287 11.6474,-1.61597 11.6474,4.26106 0,5.20774 7.7634,13.43783 12.6759,13.43783 1.7936,0 7.8167,-2.28814 13.3846,-5.08475 5.5679,-2.79661 11.0594,-5.08475 12.2034,-5.08475 2.1626,0 18.2728,-7.36088 31.2916,-14.29749 4.1369,-2.20417 9.1708,-4.0216 11.1864,-4.03873 2.0551,-0.0183 2.7715,-0.68752 1.631,-1.52542 -3.1287,-2.29861 -11.1865,-17.90463 -11.1865,-21.66556 0,-4.49611 4.8217,-6.08062 10.0267,-3.29499 4.1604,2.22657 13.4731,20.35905 18.4552,35.93357 1.3849,4.32942 3.3227,8.74117 4.3062,9.80388 2.8099,3.03616 2.0983,8.49878 -1.4956,11.48148 -2.8284,2.34736 -3.9566,1.94306 -8.1356,-2.91523 -2.6685,-3.10231 -4.8518,-6.90071 -4.8518,-8.44092 0,-5.6252 -8.2056,-5.34857 -25.0167,0.84341 -9.2912,3.42216 -22.2749,8.97452 -28.8528,12.33855 -6.5778,3.36404 -13.053,6.11644 -14.3893,6.11644 -1.3362,0 -3.6133,1.42631 -5.0601,3.1696 -2.1877,2.6361 -1.8583,4.75906 1.9575,12.61296 4.3597,8.97366 4.4082,9.57476 0.9758,12.08465 -4.2407,3.10084 -4.8248,3.13704 -9.2179,0.57149 z M 732.20338,587.579 c 0,-25.35136 0.57496,-32.54825 2.54237,-31.82377 1.39831,0.51492 34.27942,10.77262 73.06916,22.79491 l 70.52678,21.85871 66.76135,-20.7988 c 36.71874,-11.43934 69.27826,-21.53524 72.35456,-22.43532 l 5.5932,-1.63654 v 32.40041 32.40038 H 877.62711 732.20338 Z m 99.66101,-15.32749 c -22.9322,-7.24876 -54.73728,-17.2747 -70.67796,-22.27988 l -28.98305,-9.10033 v -10.31426 c 0,-7.3844 0.7222,-10.05389 2.54237,-9.39759 1.39831,0.50418 34.31789,10.73843 73.15464,22.74277 l 70.61225,21.82609 68.92949,-21.46125 c 37.91121,-11.80369 70.48427,-22.05785 72.38447,-22.78705 3.0269,-1.16154 3.3777,0.0142 2.8311,9.48486 l -0.6238,10.81068 -70.16951,21.92907 c -38.59322,12.06097 -72,21.88344 -74.23728,21.82773 -2.23729,-0.0557 -22.83051,-6.03211 -45.76272,-13.28084 z m -28.07353,-43.41104 c -38.37262,-12.06517 -70.235,-22.40323 -70.80524,-22.97349 -0.57025,-0.57025 -0.75072,-4.70524 -0.40105,-9.18889 l 0.63576,-8.15209 71.18644,22.14761 c 39.15254,12.18118 72.39105,22.16115 73.86335,22.17768 2.21453,0.0248 106.09025,-31.73932 136.24458,-41.66229 l 8.7519,-2.88004 -0.6163,9.39399 -0.6164,9.39397 -70.16951,21.93516 c -38.59322,12.06433 -72,21.89237 -74.23728,21.8401 -2.23729,-0.0523 -35.4636,-9.96655 -73.83625,-22.03171 z m 567.65044,-3.60861 c -2.47,-0.41066 -6.4345,-3.89141 -8.81,-7.73501 -2.3754,-3.8436 -5.0522,-6.98838 -5.9484,-6.98838 -0.8961,0 -4.0921,-5.03389 -7.1023,-11.18644 -3.0102,-6.15254 -6.1668,-11.18644 -7.0148,-11.18644 -2.8907,0 -14.8158,-20.46842 -13.6678,-23.45983 1.5226,-3.96798 7.7029,-3.76967 15.1163,0.48502 5.9354,3.40641 6.1702,3.36283 13.6933,-2.54237 4.2099,-3.30454 12.8553,-9.66926 19.2121,-14.14383 6.3567,-4.47458 15.7926,-11.33899 20.9685,-15.25424 9.0238,-6.82597 11.8654,-12.5782 7.5355,-15.25424 -3.1747,-1.9621 -2.3877,-8.58158 1.1833,-9.95188 5.5715,-2.13798 9.0702,-1.35572 10.3976,2.32476 0.7061,1.95763 2.5031,4.93221 3.9933,6.61017 9.568,10.77346 13.3617,17.13602 13.6216,22.8456 0.4033,8.86153 -5.7264,10.1218 -11.8539,2.43714 -3.3179,-4.16097 -5.5009,-5.23989 -8.3726,-4.13792 -2.1365,0.81984 -4.2398,1.35339 -4.6741,1.18564 -0.4342,-0.1678 -1.3495,0.48075 -2.0339,1.44112 -1.9038,2.67154 -12.0042,8.7708 -14.5244,8.7708 -1.2303,0 -4.5472,2.74576 -7.371,6.10169 -2.8239,3.35593 -6.092,6.1017 -7.2626,6.1017 -1.1706,0 -4.1834,2.05932 -6.6951,4.57627 -2.5117,2.51695 -6.9641,6.22069 -9.8942,8.23053 -5.7655,3.95467 -7.2199,12.29207 -2.6269,15.05823 1.4854,0.89457 4.46,5.21596 6.6102,9.60307 2.1502,4.38712 5.8237,9.2075 8.1633,10.71196 3.7937,2.43949 5.089,2.07168 11.9746,-3.40032 8.2514,-6.55737 14.21,-7.83421 15.9082,-3.40887 1.3558,3.5331 0.06,5.23143 -9.7637,12.79416 -10.6183,8.17464 -15.2872,10.28217 -20.7621,9.37191 z M 805.42372,497.16822 c -37.47458,-11.68233 -69.40424,-21.71626 -70.95482,-22.29765 -4.74145,-1.77781 3.05093,-8.51892 11.59625,-10.03184 12.02685,-2.12929 14.11979,-3.07277 15.09579,-6.80497 1.24552,-4.76289 20.79771,-10.8408 63.58481,-19.76573 19.01695,-3.96674 36.63559,-8.07848 39.15254,-9.13721 l 4.57627,-1.92496 v -53.61545 -53.61543 l 5.08475,-2.31678 c 3.67194,-1.67304 6.41652,-1.70996 9.87787,-0.13281 l 4.79313,2.18388 -0.85554,52.17929 c -0.47055,28.69859 -0.0557,53.3245 0.92172,54.72423 0.97749,1.39971 22.31575,7.03955 47.41834,12.53297 48.16961,10.54137 60.89532,14.61368 60.89532,19.4869 0,1.64164 2.51695,3.55487 5.59325,4.25162 3.0762,0.69675 8.2636,1.89691 11.5274,2.66701 5.4377,1.28304 11.4916,7.1139 9.2481,8.90742 -2.3433,1.87328 -141.99452,44.17242 -145.49036,44.06776 -2.16108,-0.0647 -34.59025,-9.67593 -72.06482,-21.35825 z m 82.66356,-2.18823 c 9.11927,-4.32739 13.70494,-13.19303 12.28802,-23.75693 -1.49569,-11.15113 -8.61433,-17.83119 -20.41997,-19.16187 -8.60488,-0.96988 -9.89949,-0.48992 -16.51058,6.12116 -12.28472,12.28473 -9.48622,30.5529 5.69181,37.15501 8.4183,3.66177 10.56632,3.62128 18.95072,-0.35737 z m -16.96385,-4.83448 c -2.45837,-0.99002 -5.91,-4.58514 -7.67028,-7.98913 -8.6583,-16.74334 13.15979,-32.84695 26.46979,-19.53696 8.39237,8.39236 6.20914,21.49548 -4.53501,27.21785 -5.14592,2.74074 -8.06748,2.80388 -14.2645,0.30824 z m -505.05916,21.82491 c -11.19906,-7.06239 -20.30156,-14.27288 -20.30156,-16.08173 0,-3.01859 9.98109,-1.7062 16.31402,2.14509 5.47057,3.32687 7.16491,3.47951 13.69676,1.23397 4.09964,-1.40939 10.10377,-5.52824 13.34249,-9.15301 5.50538,-6.16159 5.83741,-7.49673 5.10179,-20.51538 -0.61446,-10.87438 -1.66391,-14.58798 -4.79044,-16.95169 -8.10242,-6.12553 -14.49734,-3.95795 -29.27795,9.9239 -20.99003,19.7137 -37.24623,21.90913 -46.87435,6.3305 -7.21473,-11.67368 -5.35268,-22.32774 6.65072,-38.05303 3.92811,-5.14611 7.49406,-11.06524 7.92431,-13.15365 0.60773,-2.94978 2.3156,-3.67161 7.65356,-3.23475 7.42367,0.60752 26.16757,12.73383 24.49637,15.84783 -0.55932,1.04221 -5.76006,1.59289 -11.5572,1.22373 -8.40746,-0.53536 -11.78489,0.24903 -16.69124,3.87645 -10.83452,8.01031 -13.75888,23.98881 -5.39353,29.46999 7.69073,5.03916 15.49183,2.13762 26.61012,-9.89732 12.30343,-13.3178 16.08748,-15.49777 27.05686,-15.5872 15.51247,-0.12651 26.75465,11.75648 26.75465,28.27966 0,12.15812 -6.54691,27.32681 -14.99644,34.74558 -4.05703,3.56215 -7.37644,8.21231 -7.37644,10.3337 0,5.38542 -9.18297,4.99359 -18.3425,-0.78264 z m -167.73944,-48.21224 -6.08195,-6.35695 4.89392,-8.53112 c 8.42698,-14.68997 40.74062,-62.63065 55.1033,-81.75147 15.54069,-20.68911 48.42099,-59.19535 60.3698,-70.69926 l 7.94418,-7.64839 5.68229,5.93103 5.6823,5.93103 -14.29934,15.42185 c -39.09872,42.16804 -74.2813,89.89711 -111.5836,151.37555 -1.22968,2.02666 -3.1197,1.12653 -7.7109,-3.67227 z M 1528.4563,446.94915 c -24.7361,-40.77339 -62.8999,-91.47815 -97.3854,-129.38713 -8.5127,-9.35784 -15.4448,-17.59513 -15.4046,-18.30508 0.04,-0.70996 2.1752,-3.85949 4.7443,-6.99893 l 4.6711,-5.7081 17.4955,18.38469 c 33.2057,34.89352 61.8802,72.71809 98.2443,129.594 l 15.2099,23.78937 -5.5149,5.75626 c -3.0332,3.16595 -6.1142,5.75628 -6.8468,5.75628 -0.7325,0 -7.5785,-10.29661 -15.2134,-22.88136 z m -1363.16936,1.22089 -6.08707,-7.58768 11.1577,-18.42677 c 18.01731,-29.75533 45.99069,-69.985 66.7176,-95.94934 19.67451,-24.64601 54.97031,-63.84154 57.47323,-63.82326 0.76108,0.006 4.06442,2.15498 7.34072,4.77651 l 5.95692,4.7664 -21.98467,24.63144 c -37.9548,42.52426 -72.60834,89.47792 -101.33412,137.30217 L 171.374,455.75774 Z m 1409.03956,-8.36447 c -24.6306,-42.76908 -66.2903,-99.822 -102.8011,-140.78603 -11.1864,-12.55086 -20.563,-23.41385 -20.8367,-24.13997 -0.2737,-0.72615 1.7945,-4.06601 4.5961,-7.42194 l 5.0938,-6.1017 17.543,18.30509 c 23.287,24.29859 55.1321,64.21269 77.5802,97.23775 20.5711,30.26373 41.1083,63.56629 41.1083,66.66014 0,1.97567 -10.1019,11.86383 -12.2033,11.94508 -0.5594,0.0216 -5.0955,-7.04265 -10.0803,-15.69842 z m -813.19535,-30.28495 0.56375,-30.12095 46.77966,-25.95907 c 25.72882,-14.2775 47.4661,-25.96446 48.30509,-25.97103 0.83898,-0.006 1.51057,2.04738 1.49243,4.56433 -0.0277,3.84547 -7.09206,8.4803 -44.23729,29.02354 l -44.20429,24.44728 -1.01695,26.37704 c -0.89406,23.18957 -1.45375,26.46059 -4.63155,27.06844 -3.35209,0.64118 -3.57367,-1.49628 -3.05085,-29.42958 z m 227.85189,28.4544 c -1.84619,-0.74495 -2.54238,-8.08401 -2.54238,-26.8013 v -25.77546 l -43.72881,-24.2633 c -37.36287,-20.73112 -43.72881,-24.94855 -43.72881,-28.97032 0,-2.58887 0.68644,-4.66953 1.52542,-4.6237 0.83898,0.0458 22.57627,11.85618 48.30508,26.24528 l 46.77967,26.16199 0.56284,29.6869 c 0.57622,30.39167 0.3293,31.36717 -7.17301,28.33991 z M 446.15749,424.06324 c -0.64487,-1.68047 -0.6227,-5.24581 0.0492,-7.92301 0.96448,-3.84275 -0.59524,-6.75588 -7.40776,-13.83578 -14.71719,-15.29483 -29.00679,-31.06936 -32.10553,-35.44181 -4.91953,-6.94166 -11.07614,-9.28365 -17.14084,-6.5204 -3.81053,1.7362 -5.86914,1.78188 -7.48495,0.16597 -3.21084,-3.21083 2.3776,-10.25786 26.61315,-33.55916 14.24201,-13.693 22.11594,-19.83051 25.44098,-19.83051 2.64848,0 8.79183,3.30669 13.65191,7.34823 10.91949,9.08038 13.30645,12.87592 9.58157,15.23571 -4.25294,2.69435 -4.89183,2.40515 -13.98248,-6.32914 l -8.48459,-8.15199 -9.47799,10.62234 c -13.38557,15.00183 -16.35079,17.88512 -18.39331,17.88512 -0.98817,0 -2.30211,1.93274 -2.91985,4.29499 -0.82966,3.17267 1.30697,6.89298 8.1767,14.23728 5.11493,5.46826 10.3437,9.94231 11.61948,9.94231 2.46818,0 13.39493,-11.56074 13.39493,-14.17214 0,-0.85276 -1.88998,-3.95319 -4.19996,-6.88987 -4.16018,-5.28877 -3.70523,-10.2479 0.83028,-9.05061 3.46621,0.91503 29.81036,29.01824 29.81036,31.80088 0,3.33026 -3.4656,2.96524 -10.32672,-1.08771 -5.76925,-3.408 -5.97449,-3.36673 -12.00872,2.41442 -3.37652,3.23491 -6.10279,6.8545 -6.05837,8.04352 0.12569,3.3652 17.53909,21.49039 20.58854,21.43011 4.75523,-0.094 30.17815,-25.77851 30.17815,-30.48869 0,-2.39068 -2.74577,-7.09249 -6.1017,-10.44842 -8.00733,-8.00733 -8.24878,-14.44161 -0.50847,-13.55099 6.57329,0.75635 18.81356,17.29808 18.81356,25.42503 0,3.51696 -5.27789,10.49762 -17.79661,23.53821 -9.78814,10.19619 -19.81434,20.65643 -22.28044,23.24501 -5.13588,5.39095 -10.36115,6.1057 -12.07054,1.6511 z M 1217.6433,358.1676 c -17.1133,-10.333 -20.6208,-13.902 -17.4349,-17.7407 1.9561,-2.35706 5.3224,-2.28203 16.332,0.36399 4.3056,1.0348 6.0976,0.21573 9.1525,-4.18312 2.0892,-3.00842 5.2414,-7.05429 7.0048,-8.99081 1.7635,-1.93651 3.8311,-4.8239 4.5948,-6.4164 1.5581,-3.24891 15.5558,-22.30318 24.525,-33.38438 l 5.8853,-7.27115 -4.8684,-5.20503 c -10.3919,-11.11062 -17.2112,-11.03923 -24.1904,0.25322 -2.3483,3.79975 -6.1238,7.49707 -8.3898,8.2163 -7.4793,2.37382 -7.0175,0.31359 3.9348,-17.556 2.4627,-4.01819 6.8073,-8.36726 9.6546,-9.66456 4.729,-2.15471 6.5315,-1.34857 20.8361,9.31853 8.6126,6.42252 19.3849,14.07948 23.9385,17.01549 4.5535,2.93602 10.2676,7.86604 12.6978,10.95562 l 4.4187,5.6174 -4.5623,8.17745 c -5.7543,10.31416 -15.0716,20.44267 -17.452,18.97151 -4.0265,-2.48851 1.319,-20.00479 7.0907,-23.23478 5.8311,-3.26327 0.6284,-11.83365 -8.7569,-14.42506 -4.2002,-1.15973 -8.1349,-1.44395 -8.7438,-0.63161 -2.799,3.73438 -21.8454,32.34468 -25.2039,37.85988 -2.0669,3.39405 -5.0117,7.1218 -6.5439,8.28388 -1.5323,1.16209 -4.2107,5.56839 -5.952,9.79178 -3.1023,7.52412 -3.0578,7.77926 2.206,12.6576 5.8057,5.38054 5.4641,11.3112 -0.6342,11.00998 -1.9927,-0.0984 -10.7853,-4.5035 -19.5391,-9.78903 z M 540.36135,346.46304 c -2.61821,-2.61819 -1.36334,-7.17905 2.93226,-10.65742 l 4.31058,-3.49049 -4.22935,-8.02196 c -2.32615,-4.4121 -11.43598,-18.54741 -20.24408,-31.41181 -15.24635,-22.26759 -16.3225,-23.35821 -22.42908,-22.73069 -5.22651,0.53707 -6.85096,-0.29921 -8.77228,-4.51605 -3.04713,-6.68772 -0.39718,-10.02783 11.58691,-14.60459 l 8.95859,-3.42132 9.45334,6.87362 c 5.19933,3.78047 14.13823,11.06085 19.86423,16.17861 5.72601,5.11775 13.84311,11.37036 18.03803,13.89469 4.19492,2.52434 7.62712,5.2605 7.62712,6.08038 0,1.27261 15.26373,10.38094 17.3964,10.38094 1.65543,0 -9.43902,-19.98881 -12.50821,-22.53602 -1.82014,-1.51056 -3.9216,-4.40162 -4.66993,-6.42458 -0.74836,-2.02295 -5.90868,-9.61637 -11.46741,-16.87426 -10.04089,-13.11012 -11.18304,-13.70282 -20.97402,-10.88383 -1.5024,0.43257 -3.75206,-0.76164 -4.99924,-2.65377 -1.77328,-2.6903 -1.45001,-4.34372 1.48287,-7.58451 4.22878,-4.67274 24.8641,-13.04144 27.7537,-11.25557 2.74849,1.69867 2.30829,5.22018 -1.12704,9.01619 -2.69372,2.97651 -2.04346,4.92331 6.16779,18.46523 5.04846,8.32584 10.06577,16.51078 11.14961,18.18875 1.08382,1.67796 4.15676,7.62711 6.82873,13.22034 2.672,5.59322 7.70463,13.20054 11.18364,16.90519 3.47902,3.70462 6.32548,7.65464 6.32548,8.77777 0,3.69698 -4.16398,9.91026 -6.64161,9.91026 -2.54347,0 -26.17033,-13.90532 -27.93466,-16.44063 -0.55932,-0.80374 -6.50847,-5.60824 -13.22034,-10.67667 -6.71186,-5.06843 -14.63628,-11.10828 -17.60982,-13.4219 -11.60953,-9.03299 -12.72858,-4.44675 -2.72916,11.18486 3.91525,6.12053 7.11864,12.3183 7.11864,13.7728 0,1.45453 2.35343,4.69086 5.22985,7.19187 2.8764,2.501 6.20322,7.33956 7.39293,10.75236 2.02385,5.80562 2.66126,6.12541 9.90165,4.96764 13.74657,-2.19818 12.90655,4.77996 -1.72371,14.31862 -10.7701,7.02193 -17.36933,9.57905 -19.42241,7.52595 z m 595.62795,-38.45267 c -4.87,-4.51339 -5.4543,-6.25703 -4.3695,-13.04083 0.6887,-4.30696 3.1354,-12.22412 5.437,-17.59369 4.9064,-11.44617 3.887,-18.26461 -3.2146,-21.5003 -5.5086,-2.50987 -6.0201,-4.121 -3.0627,-9.6469 1.6651,-3.11131 3.299,-3.41563 10.678,-1.98877 12.5682,2.43033 12.871,2.37812 19.7424,-3.40372 10.27,-8.64171 6.917,-19.14853 -8.3594,-26.19387 -6.3979,-2.95068 -7.2566,-4.10481 -5.8506,-7.86382 1.9729,-5.27477 8.1322,-4.96511 17.6967,0.88973 9.2773,5.67901 10.7396,8.13171 11.4634,19.22723 0.9264,14.2006 -4.1902,23.78986 -15.7827,29.57945 -7.4825,3.7369 -9.1809,5.59993 -9.1809,10.0706 0,3.01701 -1.3729,9.37662 -3.0508,14.13249 -4.2972,12.17947 -4.0916,19.16731 0.5085,17.27979 10.013,-4.10863 14.2268,2.41261 6.9675,10.78273 -5.1573,5.94635 -12.722,5.66488 -19.6223,-0.73012 z m -803.16182,-20.93311 -5.56068,-5.80409 20.10519,-19.11672 c 11.05786,-10.51419 31.00757,-27.95499 44.3327,-38.75735 24.63006,-19.96698 96.39579,-69.2804 104.62441,-71.89206 3.41496,-1.08387 5.92992,-0.0173 10.32688,4.37972 l 5.81253,5.81252 -23.03092,13.92821 c -42.72895,25.84082 -91.9053,63.14157 -130.08497,98.67077 -10.98317,10.2207 -20.19329,18.5831 -20.46693,18.5831 -0.27364,0 -2.99984,-2.61185 -6.05821,-5.8041 z m 758.35892,1.81593 c -4.4746,-2.05473 -10.6525,-4.72408 -13.7288,-5.93193 -9.4229,-3.69974 -7.1243,-8.38499 4.1138,-8.38499 8.9151,0 9.9775,-0.53923 13.0239,-6.61017 30.0518,-59.88836 30.8838,-62.21514 24.6932,-69.0557 -2.9654,-3.27674 -3.0334,-4.15035 -0.5085,-6.53041 2.4519,-2.31116 4.4482,-2.21991 12.5675,0.57445 l 9.6527,3.32206 -3.551,6.50152 c -12.1731,22.2882 -14.7374,27.89239 -14.7374,32.20864 0,5.55729 -3.9806,15.18283 -6.2788,15.18283 -2.8445,0 -14.3629,22.26667 -12.8758,24.89069 0.8001,1.41183 3.2649,4.57968 5.4773,7.03973 8.8683,9.86098 -2.0869,14.03074 -17.8481,6.79328 z m 299.4977,-11.85454 c -43.3913,-40.61729 -95.739,-79.66583 -147.9723,-110.37927 -2.5278,-1.48641 -1.9521,-2.89619 3.359,-8.22444 l 6.4098,-6.43054 12.9122,7.78521 c 41.6855,25.13348 97.7598,67.69785 132.505,100.58065 l 19.6278,18.57574 -4.3995,5.95074 c -2.4198,3.27289 -5.1399,5.95072 -6.0448,5.95072 -0.9049,0 -8.2837,-6.21397 -16.3972,-13.80881 z m 33.0447,-27.11658 c -39.2431,-37.04425 -92.359,-77.86794 -138.648,-106.56176 l -22.2468,-13.79042 6.4472,-6.65181 6.4472,-6.6518 13.4917,8.23022 c 48.3003,29.46412 103.6673,71.6117 141.4838,107.70305 l 22.2293,21.21529 -4.8152,6.51291 c -2.6484,3.58212 -5.3295,6.46812 -5.9581,6.41335 -0.6287,-0.0547 -8.9226,-7.44334 -18.4311,-16.41903 z m -1115.57234,9.37009 -6.08085,-4.96835 12.18254,-12.43991 c 27.21488,-27.78985 77.48197,-68.36071 119.98149,-96.83779 18.64454,-12.49289 45.23215,-29.11391 46.57172,-29.11391 0.40686,0 3.13379,3.13877 6.05985,6.97504 l 5.32013,6.97505 -12.70584,7.62192 c -44.65326,26.78642 -94.33552,63.90823 -136.75403,102.18047 -15.07021,13.59716 -27.64648,24.68919 -27.94729,24.64896 -0.30079,-0.0403 -3.28328,-2.3089 -6.62772,-5.04148 z m 415.51862,2.90137 c -5.24359,-2.93447 -13.71921,-37.04512 -9.80573,-39.46377 2.6098,-1.61296 10.19844,9.01896 10.19844,14.28832 0,6.71579 14.49262,13.92557 25.12549,12.4994 15.08899,-2.02385 28.4545,-20.37061 23.78571,-32.65047 -2.33329,-6.137 -8.46974,-7.67117 -32.28954,-8.07266 l -18.97155,-0.31977 -6.96065,-7.59725 c -8.38428,-9.15108 -9.30639,-19.23613 -2.64738,-28.9543 5.23928,-7.64624 10.84301,-10.44841 27.02713,-13.51501 6.81362,-1.29107 13.2579,-3.139 14.32062,-4.10652 4.01983,-3.65977 7.57179,-1.47634 11.20021,6.88494 5.54454,12.77674 7.34621,25.9322 3.55147,25.9322 -1.64764,0 -4.44273,-2.05932 -6.2113,-4.57627 -7.42009,-10.55984 -9.43402,-12.04157 -17.64944,-12.9854 -6.81149,-0.78254 -10.1329,0.0763 -16.44216,4.25158 -9.4886,6.27926 -10.4125,13.02281 -2.82386,20.61145 4.70349,4.70348 6.23221,5.02326 20.49701,4.2876 20.40068,-1.0521 23.80054,-0.20461 32.30205,8.05193 6.35193,6.16894 7.20313,8.19535 7.20313,17.14823 0,11.06007 -6.35092,26.26173 -10.9716,26.26173 -1.51434,0 -6.88389,2.3086 -11.93233,5.13025 -6.8726,3.84115 -11.77061,5.03849 -19.49322,4.76515 -5.67283,-0.20074 -11.50621,0.62421 -12.9631,1.83332 -1.71118,1.42013 -3.85267,1.52469 -6.0494,0.29532 z m 281.09842,-0.29038 c 0.079,-7.36548 2.7289,-11.73366 7.1174,-11.73366 6.6868,0 16.3275,-12.01692 20.1275,-25.08836 1.7797,-6.12201 3.2358,-18.01694 3.2358,-26.43319 0,-14.43164 -0.3347,-15.57102 -5.8832,-20.02595 -4.8928,-3.92844 -5.71,-5.83652 -4.8539,-11.33385 1.8493,-11.87592 10.1234,-7.98108 18.3631,8.64406 5.3763,10.84751 5.8889,34.80474 1.0446,48.81356 -6.8299,19.75048 -13.3464,30.31676 -20.874,33.84621 -10.671,5.0033 -18.3104,6.38729 -18.2773,3.31118 z m -19.85826,-3.83207 c -3.63559,-2.32828 -6.61017,-5.18654 -6.61017,-6.35168 0,-1.16512 -1.36285,-3.13456 -3.02858,-4.37654 -3.41357,-2.54518 -7.59842,-21.72675 -6.19554,-28.39773 0.50533,-2.40287 1.35143,-10.0714 1.88024,-17.04116 1.38122,-18.20467 11.35393,-36.49084 22.54019,-41.33018 4.96873,-2.14955 10.83892,-3.12955 14.91492,-2.49 5.8397,0.91628 6.6401,1.75275 6.1017,6.37659 -0.514,4.41391 -1.9199,5.53153 -8.2402,6.55021 -10.338,1.66627 -14.55982,6.03167 -20.72357,21.42843 -5.60142,13.99208 -7.62077,35.5727 -3.45848,36.96014 1.27106,0.42368 2.31101,1.85841 2.31101,3.18828 0,1.32986 2.74036,5.74247 6.0897,9.80579 4.91079,5.95763 5.84591,8.60668 4.83051,13.68374 -1.48552,7.42757 -1.82573,7.49274 -10.41173,1.99411 z M 835.25208,245.58254 c -4.04966,-2.96117 -2.72248,-9.65034 1.91467,-9.65034 1.55827,0 4.55821,-1.72497 6.66653,-3.83328 3.474,-3.474 3.80074,-6.95293 3.48618,-37.11864 -0.19098,-18.30695 -1.08954,-34.48589 -1.99696,-35.95319 -0.90743,-1.46731 -3.8491,-3.50398 -6.53703,-4.52593 -5.81848,-2.21219 -6.37292,-7.12222 -1.12158,-9.93264 4.5311,-2.42498 29.1636,-0.0624 30.12216,2.88911 0.36331,1.11864 -2.07891,3.59302 -5.42715,5.49862 -5.77975,3.28945 -6.08773,4.13248 -6.08773,16.66433 0,16.57354 3.24745,19.54668 21.30002,19.50082 17.09622,-0.0434 18.47128,-1.30872 17.82663,-16.40334 -0.63911,-14.96531 -0.84053,-15.35304 -9.95335,-19.16062 -11.46235,-4.78928 -7.59945,-8.05265 10.33528,-8.73121 14.72648,-0.55718 21.50837,1.23524 21.50837,5.68453 0,0.84596 -2.61484,2.62121 -5.81074,3.945 -5.8019,2.40322 -5.81238,2.44159 -6.86514,25.16201 -0.57991,12.51531 -0.77703,26.41613 -0.43806,30.8907 0.33897,4.47458 0.68251,11.6145 0.76344,15.86651 0.13159,6.91218 0.92933,8.05771 7.53342,10.81708 5.42385,2.26623 6.78488,3.6876 5.1227,5.34978 -2.67247,2.67247 -26.13777,5.88631 -31.44114,4.30625 -4.97935,-1.48354 -3.71447,-9.62682 1.644,-10.58406 6.25627,-1.11762 6.77839,-2.32446 7.86217,-18.17294 0.94227,-13.77921 0.68913,-15.00143 -3.70303,-17.87928 -3.4354,-2.25097 -7.674,-2.76667 -15.62323,-1.90086 -17.1073,1.86329 -17.52285,2.15158 -19.04412,13.21254 -1.99227,14.48545 0.0813,21.49391 7.23653,24.45765 5.37144,2.22492 8.67197,9.83679 4.45812,10.28158 -17.34265,1.83057 -30.6647,1.56193 -33.73096,-0.68018 z M 1202.5246,145.29661 c -26.5398,-13.61088 -63.8081,-28.81125 -97.1009,-39.60394 -18.1308,-5.877536 -21.6029,-7.819976 -31.9807,-17.891129 -6.403,-6.213763 -11.2704,-11.669062 -10.8166,-12.122888 1.5576,-1.557616 46.7483,11.996044 74.2574,22.271394 30.6242,11.438893 68.5852,28.414593 91.2419,40.802213 l 14.9054,8.14957 -5.6249,5.87112 c -3.0937,3.22911 -6.5977,5.74497 -7.7867,5.59078 -1.1891,-0.15419 -13.3817,-6.03439 -27.0949,-13.06712 z m -688.72333,5.46441 -5.60384,-5.84915 12.85043,-7.13197 c 20.23154,-11.22846 59.16781,-28.61696 89.18691,-39.829853 27.45502,-10.255145 72.69885,-23.829987 74.25081,-22.278023 0.45017,0.450179 -2.921,5.345427 -7.49152,10.878326 -7.96871,9.646645 -9.44902,10.445412 -36.04187,19.4481 -39.11254,13.24108 -62.30616,22.5763 -93.36098,37.57694 -14.84178,7.16913 -27.25529,13.03478 -27.58558,13.03478 -0.33028,0 -3.12225,-2.63212 -6.20436,-5.84915 z m -18.45834,-33.87636 -5.47884,-7.18313 37.27133,-18.031028 c 20.49926,-9.917065 50.54254,-23.097547 66.76288,-29.289966 32.13673,-12.268794 78.85191,-26.918449 80.51975,-25.250602 0.57445,0.574444 -1.73325,5.424413 -5.12819,10.777707 l -6.17266,9.733263 -31.05014,10.554655 c -41.10305,13.971876 -62.24567,22.659549 -99.26796,40.790011 -16.9388,8.29522 -31.0632,15.08223 -31.38757,15.08223 -0.32436,0 -3.05524,-3.23241 -6.0686,-7.18314 z m 726.01297,-8.25795 c -33.7815,-16.753384 -70.6176,-31.779973 -107.747,-43.953312 -23.9402,-7.849064 -24.6408,-8.251316 -33.1966,-19.057717 -4.8071,-6.071674 -7.9921,-11.03941 -7.0777,-11.03941 8.4211,0 64.1547,18.207413 101.2417,33.074311 32.5758,13.058536 90.5084,41.123478 90.5084,43.846028 0,1.76796 -10.8162,12.67294 -12.3147,12.41573 -0.4981,-0.0855 -14.6344,-6.96403 -31.4141,-15.28563 z M 1061.4053,92.591713 c -0.5322,-0.532186 -11.2835,-3.198693 -23.8917,-5.925573 -12.6083,-2.72688 -23.2821,-5.315978 -23.7197,-5.753551 -0.4375,-0.437571 1.2374,-3.773524 3.7222,-7.413228 4.2438,-6.21626 5.0729,-6.547122 13.6703,-5.454972 7.7798,0.98829 10.9798,2.988915 21.3356,13.338804 6.7007,6.69687 11.6583,12.176129 11.017,12.176129 -0.6414,0 -1.6016,-0.435425 -2.1337,-0.967609 z M 687.45762,90.585384 c 0,-0.759561 3.72472,-5.79831 8.27715,-11.19722 6.97263,-8.269139 9.73592,-10.034961 17.53326,-11.204245 8.56273,-1.284061 9.76877,-0.891183 16.09918,5.244488 3.76367,3.647892 6.60433,6.871222 6.31261,7.162954 -0.29174,0.291733 -8.74414,2.330862 -18.78309,4.5314 -10.03898,2.200535 -20.76962,4.640575 -23.84589,5.42231 -3.07627,0.781734 -5.59322,0.799875 -5.59322,0.04031 z m 54.29845,-18.989143 -7.65812,-7.842625 22.95102,-3.41089 c 12.62307,-1.87599 32.56119,-4.482138 44.30695,-5.79144 28.42436,-3.16847 115.14744,-3.153954 144.40678,0.02418 32.28327,3.506587 65.0847,8.714128 65.0847,10.332818 0,0.740892 -2.5169,4.28487 -5.5932,7.875508 l -5.5932,6.528423 -31.52542,-4.399082 c -55.82046,-7.789223 -167.84886,-5.96995 -213.59798,3.468705 -4.01545,0.828441 -6.7795,-0.638961 -12.78153,-6.785597 z M 681.73168,46.944083 c 8.22747,-13.774791 11.39876,-15.995739 26.47019,-18.537866 l 14.21028,-2.396874 6.92951,6.716345 c 8.11512,7.865473 8.61118,9.976251 2.35324,10.013185 -2.51695,0.01485 -15.7671,2.605791 -29.44476,5.757642 l -24.86852,5.730635 z m 363.16022,0.0362 -23.9216,-5.40192 9.0901,-7.598368 c 8.6399,-7.222061 9.5146,-7.502979 17.6622,-5.672339 4.7146,1.059314 9.4058,3.415752 10.4247,5.236528 1.019,1.820776 4.5222,6.350888 7.7849,10.066916 5.9366,6.761447 7.2691,9.488975 4.4068,9.020676 -0.839,-0.137267 -12.2902,-2.680438 -25.4471,-5.651493 z m -46.24785,-8.697391 c -17.69546,-3.223023 -66.44259,-7.656714 -98.64406,-8.97196 -34.43614,-1.406518 -82.22476,1.07172 -124.82933,6.473442 l -25.16831,3.191024 -7.98261,-7.792786 -7.98258,-7.792785 14.84581,-2.526963 C 822.52382,8.328191 917.78272,7.8445861 997.6271,19.600059 c 12.3051,1.811675 23.3146,3.86314 24.4656,4.558813 1.1664,0.705002 -1.5343,4.479671 -6.1017,8.527954 -7.7448,6.864566 -8.6966,7.171628 -17.34695,5.59607 z"
       id="path1135" />
  </g>
</svg>
