<?xml version="1.0" encoding="UTF-8" standalone="no"?>
<!-- Created with Inkscape (http://www.inkscape.org/) -->

<svg
   version="1.1"
   id="svg192"
   width="1614.9153"
   height="2284.0679"
   viewBox="0 0 1614.9153 2284.0679"
   sodipodi:docname="liam.svg"
   inkscape:version="1.2 (dc2aedaf03, 2022-05-15)"
   xmlns:inkscape="http://www.inkscape.org/namespaces/inkscape"
   xmlns:sodipodi="http://sodipodi.sourceforge.net/DTD/sodipodi-0.dtd"
   xmlns="http://www.w3.org/2000/svg"
   xmlns:svg="http://www.w3.org/2000/svg">
  <defs
     id="defs196" />
  <sodipodi:namedview
     id="namedview194"
     pagecolor="#ffffff"
     bordercolor="#000000"
     borderopacity="0.25"
     inkscape:showpageshadow="2"
     inkscape:pageopacity="0.0"
     inkscape:pagecheckerboard="0"
     inkscape:deskcolor="#d1d1d1"
     showgrid="false"
     inkscape:zoom="0.35200355"
     inkscape:cx="808.23048"
     inkscape:cy="1143.4544"
     inkscape:window-width="1920"
     inkscape:window-height="991"
     inkscape:window-x="-9"
     inkscape:window-y="-9"
     inkscape:window-maximized="1"
     inkscape:current-layer="g198" />
  <g
     inkscape:groupmode="layer"
     inkscape:label="Image"
     id="g198">
    <path
       style="fill:#000000;stroke-width:2.0339"
       d="m 227.79662,474.78106 c -35.23729,-1.39528 -69.86554,-2.62231 -76.95166,-2.72675 l -12.88385,-0.18988 11.60681,-13.22034 c 11.171,-12.72393 11.96316,-13.22034 21.09696,-13.22034 13.32471,0 26.4479,-7.05128 32.17502,-17.28814 6.78863,-12.13426 9.55514,-23.21314 20.82685,-83.40433 5.65454,-30.19542 12.071,-60.84991 14.2588,-68.1211 8.50255,-28.25821 31.85644,-56.57168 56.31234,-68.27119 9.28139,-4.44015 15.62695,-5.86422 29.15195,-6.54227 15.22778,-0.76341 18.68191,-0.24867 28.98305,4.31909 13.31172,5.9027 12.96275,4.55474 7.98224,30.83335 -3.30391,17.43226 -3.7345,18.33578 -9.03088,18.94865 -5.37836,0.62238 -5.56163,0.32095 -5.56468,-9.15254 -0.006,-19.1796 -11.7285,-31.15995 -30.47359,-31.14443 -19.25386,0.0163 -32.75879,15.30492 -40.60538,45.96952 -1.17515,4.5925 -5.78636,27.93148 -10.24713,51.86441 -11.13972,59.76687 -13.62256,69.55615 -22.38537,88.26016 -7.96639,17.00409 -18.69407,29.72305 -33.07169,39.21053 l -8.38827,5.53524 20.21441,1.28652 c 37.57176,2.39123 83.29271,1.88518 98.86475,-1.09424 12.09128,-2.31343 26.09408,-7.45802 40.84118,-15.00486 0.83899,-0.42935 1.52543,1.52121 1.52543,4.33463 0,7.80111 -22.98759,28.83105 -39.05596,35.7299 -12.84032,5.51292 -24.44322,5.88939 -95.18133,3.08841 z m 203.38983,-1.44948 c -2.79661,-1.39739 -6.74625,-5.73134 -8.77698,-9.63104 -4.78349,-9.1859 -3.96386,-18.54887 6.6742,-76.2429 9.96526,-54.04529 11.67408,-69.78817 8.26633,-76.1556 -2.24359,-4.19221 -3.53148,-4.54025 -12.97129,-3.50526 -5.76421,0.63199 -13.07697,1.77513 -16.25058,2.5403 -5.22011,1.25862 -5.70484,0.92916 -5.08475,-3.45596 0.61263,-4.33229 4.86578,-6.32056 40.0365,-18.7165 21.64306,-7.62812 39.81045,-13.40988 40.37194,-12.84838 0.56152,0.56149 -2.20883,15.95524 -6.1563,34.20828 -6.65237,30.76045 -21.75785,111.4365 -24.58452,131.30223 -2.10802,14.81506 7.0624,19.82801 22.20427,12.13786 2.23729,-1.13628 11.16101,-8.94803 19.83051,-17.35951 14.07553,-13.65657 15.76271,-14.75031 15.76271,-10.2184 0,10.79951 -24.32292,34.58668 -45.76271,44.75473 -13.14965,6.23634 -25.17507,7.37949 -33.55933,3.19015 z m 112.88136,-0.12508 c -13.86699,-6.40955 -19.10471,-18.73373 -19.23276,-45.25412 -0.14665,-30.36653 8.95629,-58.05029 29.37655,-89.33978 11.22404,-17.19834 36.36238,-41.46578 50.87316,-49.1107 22.03766,-11.61042 32.75252,-13.63242 70.02588,-13.21462 18.37863,0.20599 33.80284,0.7617 34.27601,1.23486 0.47317,0.47317 -1.91904,13.04628 -5.31602,27.94023 -9.3287,40.90135 -24.74858,127.0556 -24.74858,138.27581 0,8.51249 0.6946,10.22485 4.93042,12.15482 7.5336,3.43255 20.32143,-3.84163 38.08784,-21.6657 l 15.14176,-15.1909 -0.85123,7.29136 c -1.5215,13.03271 -32.86169,40.61105 -53.99064,47.51 -9.83305,3.21065 -24.58485,1.6921 -29.84994,-3.07274 -6.25512,-5.6608 -8.6124,-17.69025 -6.29834,-32.14128 5.03596,-31.44904 15.05219,-87.95578 19.52476,-110.14915 2.70524,-13.42373 4.28869,-25.00367 3.51878,-25.73319 -3.26552,-3.09421 -22.71958,-8.21536 -34.95917,-9.20276 -11.801,-0.95202 -14.42111,-0.43277 -24.40485,4.83665 -18.03386,9.51828 -31.15538,31.98523 -43.7786,74.95868 -6.37872,21.71512 -8.89426,53.2832 -5.15002,64.62836 4.6583,14.11481 17.51016,14.86865 32.64385,1.91479 l 8.78587,-7.52038 -1.45298,10.95312 c -1.93377,14.57733 -3.04411,16.235 -16.18389,24.16143 -13.20405,7.96517 -30.81085,10.43005 -40.96786,5.73531 z m 464.96969,0.0203 c -13.06869,-7.59878 -13.29714,-22.11705 -1.3553,-86.13238 13.784,-73.89053 13.8433,-74.30502 11.5002,-80.46773 -3.1132,-8.18825 -10.4908,-9.14986 -21.35447,-2.78335 -15.40049,9.02528 -35.97647,36.64637 -60.82027,81.64483 -10.49677,19.01231 -11.68672,22.60005 -17.46146,52.64748 -3.40839,17.73464 -6.45485,32.45557 -6.76992,32.7132 -1.06822,0.87267 -32.09829,3.22442 -32.09829,2.43195 0,-0.43291 6.40678,-35.39233 14.23729,-77.68759 7.83051,-42.29526 14.23729,-79.40327 14.23729,-82.46222 0,-3.05894 -1.6761,-7.63159 -3.72464,-10.16145 -5.83346,-7.20403 -13.41165,-3.92398 -29.86568,12.92668 -16.09182,16.47972 -33.74374,41.53829 -50.40979,71.56139 -10.35321,18.65087 -11.73258,22.70236 -16.6191,48.81357 -2.93085,15.66101 -5.76519,29.94638 -6.29856,31.74527 -0.74042,2.49724 -4.87039,3.59599 -17.46445,4.64627 -9.07208,0.75659 -16.77714,1.09316 -17.12236,0.74795 -0.34521,-0.34521 2.13139,-12.96147 5.50355,-28.03613 7.77281,-34.7468 26.17052,-134.5722 26.17052,-142.00038 0,-18.28302 -20.03364,-12.75944 -44.87398,12.37245 -14.42773,14.59704 -14.57374,14.68239 -13.08,7.64321 2.05442,-9.68138 7.3575,-16.67303 21.69866,-28.60786 28.27479,-23.53054 54.61489,-28.18705 64.81505,-11.45828 5.4416,8.92453 5.03726,22.24186 -1.81865,59.89664 -3.10603,17.05933 -5.09833,31.01696 -4.42735,31.01696 0.67099,0 4.24501,-6.17797 7.94229,-13.72882 17.20135,-35.12988 47.08801,-71.51675 67.14544,-81.74929 24.68933,-12.59555 44.96038,0.25735 44.96827,28.51222 0.002,9.44699 -5.2418,45.00643 -9.20144,62.38961 -2.13769,9.38468 2.31336,3.9346 9.1929,-11.2562 15.45028,-34.11602 44.6819,-70.37053 64.45785,-79.94392 11.3421,-5.49061 26.664,-5.95721 34.1679,-1.0405 16.1786,10.60067 16.455,23.11387 2.203,99.75433 -6.229,33.49695 -11.3255,63.86378 -11.3255,67.48184 0,6.62187 4.3429,13.00876 8.7893,12.92589 7.284,-0.13566 22.0881,-9.95292 35.3792,-23.46136 l 15.0234,-15.2691 -1.2646,7.69265 c -1.0041,6.10873 -4.2996,10.62409 -16.0051,21.92994 -8.1074,7.83051 -19.549,16.84696 -25.426,20.03656 -12.6903,6.88747 -31.0553,9.12812 -38.6452,4.71492 z M 456.55059,229.32204 c 4.28754,-9.46301 7.4125,-12.49855 27.46497,-26.67874 12.44483,-8.80043 22.9298,-15.66484 23.29995,-15.25424 0.37015,0.4106 -2.64984,7.61095 -6.71109,16.00078 l -7.38407,15.25424 -19.32203,10.61638 c -10.62712,5.83902 -19.96637,10.6441 -20.7539,10.67796 -0.78751,0.0338 0.74526,-4.74349 3.40617,-10.61638 z"
       id="path202" />
  </g>
</svg>
