<?xml version="1.0" encoding="UTF-8" standalone="no"?>
<!-- Created with Inkscape (http://www.inkscape.org/) -->

<svg
   version="1.1"
   id="svg538"
   width="2016.5079"
   height="2852.0635"
   viewBox="0 0 2016.5079 2852.0635"
   sodipodi:docname="sarah.svg"
   inkscape:version="1.2 (dc2aedaf03, 2022-05-15)"
   xmlns:inkscape="http://www.inkscape.org/namespaces/inkscape"
   xmlns:sodipodi="http://sodipodi.sourceforge.net/DTD/sodipodi-0.dtd"
   xmlns="http://www.w3.org/2000/svg"
   xmlns:svg="http://www.w3.org/2000/svg">
  <defs
     id="defs542" />
  <sodipodi:namedview
     id="namedview540"
     pagecolor="#ffffff"
     bordercolor="#000000"
     borderopacity="0.25"
     inkscape:showpageshadow="2"
     inkscape:pageopacity="0.0"
     inkscape:pagecheckerboard="0"
     inkscape:deskcolor="#d1d1d1"
     showgrid="false"
     inkscape:zoom="0.28190116"
     inkscape:cx="1009.219"
     inkscape:cy="1427.8054"
     inkscape:window-width="1920"
     inkscape:window-height="991"
     inkscape:window-x="-9"
     inkscape:window-y="-9"
     inkscape:window-maximized="1"
     inkscape:current-layer="g544" />
  <g
     inkscape:groupmode="layer"
     inkscape:label="Image"
     id="g544">
    <path
       style="fill:#000000;stroke-width:2.53968"
       d="m 247.61904,597.5935 c -11.13352,-1.47665 -32.28613,-7.71053 -45.75853,-13.48549 l -11.75277,-5.03781 13.2635,-15.2494 c 7.29493,-8.38715 14.08364,-15.24937 15.08603,-15.24937 1.00238,0 9.1167,4.88317 18.03183,10.85148 20.79024,13.9182 38.73962,19.63116 61.5803,19.5999 39.43906,-0.054 65.1052,-24.2431 65.1052,-61.3585 0,-20.50243 -9.25702,-33.68008 -56.24597,-80.06784 -23.7759,-23.47172 -45.69867,-47.24726 -48.71728,-52.83456 -4.39824,-8.14096 -5.49002,-14.45872 -5.49668,-31.80752 -0.007,-19.323 0.88284,-23.45895 8.28665,-38.49824 9.84091,-19.98971 31.80363,-41.62755 51.90321,-51.13544 17.59812,-8.3246 42.80137,-12.76234 60.38443,-10.6324 16.23482,1.96662 50.84485,12.89381 54.82903,17.3108 1.94808,2.15972 1.31476,10.41217 -2.22929,29.04851 -4.52772,23.80891 -5.43695,26.03175 -10.64795,26.03175 -4.8834,0 -5.92734,-1.73263 -7.30603,-12.12582 -3.19723,-24.10182 -21.85795,-40.00853 -50.36137,-42.92881 -48.63652,-4.98301 -84.43906,40.48939 -65.34275,82.99113 3.63322,8.08625 17.98659,24.05512 49.07929,54.60318 50.91154,50.01978 57.95113,60.76482 57.74107,88.13437 -0.144,18.77087 -4.72066,33.25562 -15.42166,48.80902 -26.18407,38.05724 -82.71649,60.0995 -136.01026,53.03106 z m 233.95378,-3.25366 c -19.16511,-6.10908 -28.3374,-25.64963 -28.04023,-59.73666 0.25488,-29.2363 5.57625,-49.60008 21.23705,-81.26985 21.11871,-42.70694 52.09085,-76.43763 85.23035,-92.82146 24.8547,-12.28789 47.6723,-15.90105 88.73663,-14.05132 19.4718,0.87708 35.70535,1.89678 36.07454,2.26595 0.36917,0.3692 -2.12076,12.62819 -5.53318,27.24221 -6.41458,27.47094 -26.8049,134.58573 -31.73948,166.73453 -3.47454,22.63642 -1.10829,28.72533 11.16305,28.72533 11.03563,0 28.05437,-11.46783 46.35736,-31.23723 l 14.53404,-15.69851 -1.61795,9.97033 c -3.07216,18.93148 -45.08904,54.10588 -71.7612,60.07485 -24.38603,5.45737 -41.7376,-6.50972 -41.75987,-28.80109 -0.005,-5.22563 7.42611,-47.44612 16.51408,-93.82327 9.08795,-46.37717 15.87589,-86.36282 15.08427,-88.85701 -1.98014,-6.23881 -30.76475,-14.80267 -49.75431,-14.80267 -33.75815,0 -56.28251,24.9377 -75.69884,83.80952 -11.92015,36.14286 -16.81016,83.14629 -10.40325,99.99772 5.98783,15.74918 20.42994,14.53724 42.9425,-3.60358 8.57546,-6.9102 15.59177,-11.48203 15.59177,-10.15962 0,1.32239 -1.22494,8.11606 -2.72211,15.09706 -2.06824,9.64392 -5.09089,14.83277 -12.58395,21.60232 -19.09351,17.2498 -43.99052,25.03573 -61.85127,19.34245 z m 521.74888,-3.0539 c -16.66358,-8.69874 -21.52367,-19.88111 -22.59318,-51.98384 -1.33694,-40.12915 10.6946,-77.16419 37.81148,-116.3902 28.4517,-41.15685 67.2707,-68.34608 107.2143,-75.09417 16.2895,-2.75193 82.1103,-1.75203 85.156,1.29364 0.5118,0.51182 -2.5397,16.17115 -6.7812,34.7985 -12.9064,56.68084 -31.121,161.42161 -30.2983,174.22641 0.7367,11.4674 1.146,12.05864 8.8646,12.80622 11.62,1.12544 22.2812,-5.30661 44.3908,-26.78148 l 19.4671,-18.90832 -2.1399,9.48805 c -1.4165,6.28051 -6.7097,14.19048 -15.6576,23.39807 -36.0245,37.07005 -77.5172,48.93641 -92.6433,26.49478 -8.3424,-12.37717 -5.4221,-39.88505 14.7262,-138.71434 2.8247,-13.85554 6.5694,-34.20083 8.3215,-45.21178 3.64,-22.87558 4.5384,-21.51012 -18.6688,-28.37376 -29.4463,-8.70893 -54.957,-3.24072 -71.2029,15.26234 -23.0375,26.23828 -45.7965,95.02883 -45.7965,138.42322 0,41.86524 17.82,48.78131 50.0032,19.4066 6.5216,-5.95248 11.1736,-8.96881 10.3378,-6.70296 -0.8358,2.26586 -2.3446,9.6207 -3.3528,16.34408 -2.1131,14.09145 -10.219,23.0976 -29.8845,33.20373 -18.0874,9.29511 -33.3759,10.27025 -47.274,3.01521 z m 429.0592,1.23287 c -6.5081,-3.35497 -9.8883,-7.47335 -12.6202,-15.37626 -4.4094,-12.75568 -2.4867,-28.2595 15.4162,-124.30527 8.3412,-44.7488 10.3932,-60.55769 8.5368,-65.76868 -3.7143,-10.42586 -9.08,-12.67454 -21.421,-8.97707 -20.5063,6.14385 -53.3038,46.8157 -87.2981,108.25768 -13.2095,23.87525 -14.4826,27.75525 -21.2496,64.7619 l -7.1982,39.36508 -21.5274,1.35401 c -11.84,0.74471 -21.7609,1.27307 -22.0463,1.17414 -0.2855,-0.099 2.2764,-12.13681 5.6929,-26.75083 3.4166,-14.61404 13.7087,-66.57097 22.8713,-115.45986 9.1626,-48.88889 18.845,-97.48823 21.5164,-107.99853 11.0833,-43.60599 30.595,-78.81285 57.8975,-104.47015 29.6153,-27.83076 55.2852,-37.88159 95.6141,-37.43689 12.6272,0.13922 25.8156,1.04807 29.3077,2.01963 6.2846,1.74852 6.2075,1.92025 -7.5847,16.8897 -7.6636,8.31778 -14.0174,15.38182 -14.1196,15.69788 -0.1021,0.31606 -5.8319,-1.55202 -12.7328,-4.15129 -20.399,-7.68345 -32.3647,-8.72681 -47.9897,-4.1845 -35.1018,10.20438 -45.7412,35.34514 -69.9201,165.22145 -7.0212,37.71429 -13.2228,70.57143 -13.7813,73.01588 -2.182,9.55116 2.8908,3.64411 10.9051,-12.69842 21.333,-43.50189 60.0415,-89.98047 84.9769,-102.03454 16.6699,-8.05843 31.6591,-9.4836 43.0237,-4.09071 20.7119,9.82844 21.7604,31.21965 5.7418,117.14171 -16.1682,86.72437 -17.4857,96.26116 -14.1572,102.48043 7.0767,13.22294 31.3745,2.23866 57.5222,-26.00396 l 14.5341,-15.69851 -1.5723,10.13452 c -1.3028,8.39739 -4.7793,13.18185 -20.2822,27.91233 -30.2717,28.76359 -59.0059,39.7996 -78.056,29.97913 z m -673.01583,-0.88848 c 0,-0.78276 3.38245,-16.21979 7.51657,-34.30454 10.63482,-46.52221 30.57866,-156.72749 30.57866,-168.97094 0,-30.05565 -21.63548,-26.86291 -56.22511,8.29714 l -19.3997,19.71962 2.10705,-9.45565 c 1.59446,-7.15532 7.11312,-14.28894 22.68493,-29.32337 34.93224,-33.72674 66.11733,-43.46101 83.51271,-26.06804 5.96477,5.96393 6.76883,8.93607 7.46138,27.57986 0.53823,14.49016 -1.19063,31.36365 -5.6398,55.04416 -3.52876,18.78172 -5.97838,34.58614 -5.4436,35.12092 0.53478,0.53478 6.42839,-9.59162 13.09694,-22.50314 29.43111,-56.98405 71.89582,-98.75553 104.89386,-103.18151 10.70796,-1.43624 28.18944,3.15327 28.18944,7.40071 0,1.98207 -16.3964,26.97595 -24.45854,37.28343 -0.41618,0.53206 -4.90865,-1.00285 -9.98327,-3.41092 -6.22689,-2.95487 -12.05572,-3.84757 -17.9284,-2.74586 -20.66885,3.87749 -53.76409,41.56922 -85.27066,97.11358 -16.67507,29.39726 -17.1553,30.76548 -24.68152,70.32345 -4.22156,22.1886 -7.99743,40.63896 -8.39086,41.00084 -1.50877,1.38776 -42.62008,2.42979 -42.62008,1.08026 z"
       id="path548" />
  </g>
</svg>
