<?xml version="1.0" encoding="UTF-8" standalone="no"?>
<!-- Created with Inkscape (http://www.inkscape.org/) -->

<svg
   version="1.1"
   id="svg508"
   width="1614.9153"
   height="2284.0679"
   viewBox="0 0 1614.9153 2284.0679"
   sodipodi:docname="sws-oxford.svg"
   inkscape:version="1.2 (dc2aedaf03, 2022-05-15)"
   xmlns:inkscape="http://www.inkscape.org/namespaces/inkscape"
   xmlns:sodipodi="http://sodipodi.sourceforge.net/DTD/sodipodi-0.dtd"
   xmlns="http://www.w3.org/2000/svg"
   xmlns:svg="http://www.w3.org/2000/svg">
  <defs
     id="defs512" />
  <sodipodi:namedview
     id="namedview510"
     pagecolor="#ffffff"
     bordercolor="#000000"
     borderopacity="0.25"
     inkscape:showpageshadow="2"
     inkscape:pageopacity="0.0"
     inkscape:pagecheckerboard="0"
     inkscape:deskcolor="#d1d1d1"
     showgrid="false"
     inkscape:zoom="0.35200355"
     inkscape:cx="808.23048"
     inkscape:cy="1143.4544"
     inkscape:window-width="1920"
     inkscape:window-height="991"
     inkscape:window-x="-9"
     inkscape:window-y="-9"
     inkscape:window-maximized="1"
     inkscape:current-layer="g514" />
  <g
     inkscape:groupmode="layer"
     inkscape:label="Image"
     id="g514">
    <path
       style="fill:#000000;stroke-width:2.0339"
       d="m 717.33671,1559.9594 c -130.97616,-11.7302 -257.84419,-55.5503 -365.71416,-126.3172 -34.97545,-22.9452 -88.9015,-65.6819 -91.49879,-72.5133 -4.80573,-12.6401 -0.67419,-28.7987 9.38701,-36.7128 12.7677,-10.0431 29.07867,-6.9805 45.71862,8.5842 12.90761,12.0736 53.14892,41.8111 76.09809,56.2349 94.18391,59.1958 197.24648,94.9803 311.3844,108.1163 33.47262,3.8524 121.66034,3.2523 156.61018,-1.0656 136.39637,-16.8512 260.37054,-68.5391 366.19504,-152.6758 9.5606,-7.6012 20.5297,-14.6893 24.3759,-15.7512 18.5575,-5.124 37.9388,10.9816 37.8789,31.4767 -0.043,14.7026 -4.1552,20.555 -26.8862,38.2642 -109.9448,85.6552 -239.0261,139.3235 -381.22466,158.5022 -34.789,4.6921 -128.21518,6.9122 -162.32433,3.8574 z M 1312.701,1320.2219 c -13.9009,-8.4767 -19.6146,-22.4784 -15.1939,-37.2333 1.4666,-4.895 7.0955,-13.1486 14.1081,-20.6867 41.6715,-44.7938 82.1639,-104.9646 112.4159,-167.0476 l 15.8573,-32.5424 -117.4018,-1.0169 c -123.0359,-1.0658 -123.7459,-1.1215 -128.5416,-10.0824 -3.4695,-6.4828 -2.3685,-15.7967 2.5422,-21.5058 l 4.6228,-5.3742 124.8567,0.2581 c 68.6711,0.1419 125.5296,0.674 126.3522,1.1824 1.9696,1.2173 16.4857,-44.39824 24.0759,-75.65617 14.0517,-57.86785 19.4256,-105.19101 19.3635,-170.51689 -0.065,-68.28096 -5.5465,-113.45206 -21.4728,-176.94917 -6.6698,-26.59218 -18.2019,-63.4912 -24.2601,-77.62432 l -3.8266,-8.9271 -121.5739,0.17613 -121.574,0.17614 -4.5763,-5.31883 c -7.0068,-8.14377 -6.2752,-19.572 1.6815,-26.26715 l 6.2577,-5.26572 h 111.8454 111.8455 l -1.3417,-4.57627 c -5.8784,-20.05078 -59.9101,-107.37269 -87.876,-142.01852 -23.3474,-28.92415 -26.9047,-40.8455 -17.141,-57.444 7.9556,-13.52474 29.3853,-18.7716 42.5588,-10.42015 7.7747,4.92876 41.936,48.55141 64.4151,82.25555 126.7665,190.06735 164.2637,427.8746 101.8234,645.76274 -23.3849,81.60273 -55.3351,150.89003 -101.7602,220.67793 -30.8627,46.3939 -73.9343,98.8319 -87.2192,106.186 -8.4632,4.685 -23.0054,4.59 -30.8629,-0.2014 z m -231.9724,-8.188 c -25.0642,-6.2739 -38.649,-31.3176 -36.9351,-68.0904 0.9949,-21.3453 5.2042,-32.7808 16.7846,-45.599 10.6439,-11.7815 21.8138,-16.6495 38.2028,-16.6495 18.4022,0 19.8632,0.8024 19.8632,10.9102 v 8.4411 l -9.2332,-0.7343 c -29.6756,-2.3602 -44.9467,14.7126 -44.4158,49.6563 0.2874,18.9177 5.3441,33.0297 13.8271,38.5879 7.4738,4.8971 20.9563,5.9251 31.1778,2.3775 l 8.6441,-3.0002 v 9.0184 c 0,8.2539 -0.5604,9.2519 -6.6102,11.7719 -8.9269,3.7186 -23.5123,5.2608 -31.3053,3.3101 z m -625.1244,-3.562 c -20.09091,-7.0291 -34.75607,-21.7946 -42.99584,-43.2898 -5.31214,-13.8578 -7.39819,-46.8132 -3.99869,-63.171 7.05114,-33.9289 29.68091,-56.9987 60.83195,-62.0148 l 8.76362,-1.4112 -0.62803,9.7864 c -0.58049,9.0454 -1.08996,9.8816 -6.72974,11.0451 -13.29454,2.7428 -27.55479,14.1854 -34.10121,27.3631 -7.74533,15.5911 -9.74699,44.6271 -4.49236,65.1659 5.39413,21.0839 18.37353,35.1403 37.06815,40.1439 8.46771,2.2664 8.64407,2.4917 8.64407,11.0443 0,8.514 -0.16414,8.7283 -6.61017,8.6336 -3.6356,-0.053 -10.7239,-1.5364 -15.75175,-3.2955 z m 34.56531,-5.4767 c 0,-7.623 0.68381,-9.4396 3.55932,-9.4557 5.61976,-0.031 23.45292,-9.1267 28.35706,-14.4627 2.45231,-2.6683 6.99913,-10.3403 10.10406,-17.0488 5.07026,-10.955 5.65196,-14.4763 5.71074,-34.5703 0.049,-16.7614 -0.89136,-25.1205 -3.74931,-33.3277 -6.10589,-17.5344 -20.83784,-31.4072 -36.86323,-34.7134 -5.63978,-1.1635 -6.14925,-1.9997 -6.72974,-11.0451 l -0.62803,-9.7864 8.76362,1.3975 c 38.90681,6.204 62.66195,39.0476 62.66195,86.6356 0,46.426 -24.50644,80.2843 -61.25984,84.6372 l -9.9266,1.1757 z m 346.24597,4.5748 c -4.76811,-2.3601 -12.33671,-8.4576 -16.81912,-13.5499 -11.38472,-12.9337 -14.83971,-26.0001 -13.77091,-52.0802 0.92924,-22.6751 5.68102,-35.4889 17.20525,-46.3962 7.16715,-6.7835 22.19366,-13.7446 29.79814,-13.8041 5.45479,-0.043 5.68218,0.3366 5.08474,8.481 -0.56318,7.6772 -1.27002,8.6916 -7.1029,10.1933 -16.40196,4.2226 -26.29853,25.0452 -24.58605,51.7294 1.37773,21.4676 7.51084,32.7483 21.41144,39.3822 10.04888,4.7957 10.65498,5.5183 10.6618,12.7118 0.006,7.2509 -0.31888,7.6271 -6.60293,7.6256 -3.63559,-9e-4 -10.51135,-1.9327 -15.27946,-4.2929 z m 34.14549,-4.3496 c 0.0484,-7.9724 0.64109,-8.9177 7.62712,-12.1654 17.053,-7.9277 24.72594,-33.8813 18.54173,-62.7172 -2.50995,-11.7035 -13.23297,-25.5189 -21.39736,-27.568 -4.18528,-1.0504 -4.82396,-2.427 -4.82396,-10.397 v -9.1863 l 6.47062,1.2941 c 17.78632,3.5573 33.7499,19.5099 39.57511,39.548 4.61927,15.8897 3.03582,44.5445 -3.25454,58.8956 -5.5453,12.6511 -18.72458,25.1118 -30.19493,28.5484 -11.95341,3.5813 -12.60153,3.2582 -12.54379,-6.2522 z m -266.26418,-22.3729 c 12.48384,-15.9407 23.55413,-30.0711 24.60061,-31.401 1.3127,-1.6682 -5.39512,-11.8431 -21.63295,-32.8143 -12.94458,-16.718 -23.53562,-30.9605 -23.53562,-31.6499 0,-0.6894 5.47729,-1.2534 12.17176,-1.2534 h 12.17177 l 17.56857,23.3898 c 9.6627,12.8644 18.14304,23.3589 18.84518,23.321 0.70215,-0.038 9.02427,-10.5633 18.49361,-23.3898 l 17.21699,-23.321 h 12.01511 c 9.29567,0 11.57394,0.5754 10.06599,2.5423 -1.07203,1.3983 -11.40212,14.4407 -22.95576,28.9831 -11.55364,14.5424 -21.79063,27.4726 -22.74889,28.7338 -1.11258,1.4644 3.62238,9.1826 13.10134,21.3559 8.16397,10.4846 19.21951,24.7832 24.56785,31.7747 l 9.72423,12.7119 h -13.04856 -13.04858 l -17.0703,-23.3421 c -9.38868,-12.8382 -17.76218,-23.3636 -18.60781,-23.3898 -0.84562,-0.026 -9.36468,10.4776 -18.93122,23.342 l -17.39374,23.3899 h -12.13373 -12.13375 z m 129.94052,-24.9152 v -53.8983 h -7.11865 c -7.08097,0 -7.11864,-0.049 -7.11864,-9.1526 0,-9.1041 0.0376,-9.1525 7.11864,-9.1525 h 7.11865 l 0.0447,-9.6611 c 0.0557,-12.0525 5.5436,-24.4441 13.96308,-31.5286 8.4096,-7.0762 18.33263,-9.0001 41.41599,-8.0299 l 9.66094,0.406 v 10.1187 10.1186 l -6.61017,-1.4746 c -10.22205,-2.2803 -22.9271,-1.6647 -28.62944,1.3871 -5.55102,2.9707 -8.55669,8.8984 -10.66684,21.0366 l -1.32592,7.6272 h 19.54839 19.54838 v 9.1525 9.1526 h -18.30508 -18.30509 v 53.8983 53.8983 H 744.4068 734.23731 Z m 219.66102,-9.1526 v -63.0508 h 10.16949 10.1695 v 9.291 9.291 l 5.59322,-3.9406 c 15.42057,-10.8646 33.28756,-16.2528 45.21006,-13.6342 5.8062,1.2753 6.1459,1.8939 6.1459,11.1955 v 9.8456 l -15.7627,-0.2296 c -12.7682,-0.1859 -17.50153,0.6628 -24.9153,4.4671 -17.24101,8.8471 -16.27118,5.546 -16.27118,55.3853 v 44.4306 h -10.1695 -10.16949 z m 178.98307,-24.4068 v -87.4576 h 10.1695 10.1695 v 87.4576 87.4577 h -10.1695 -10.1695 z m -928.98911,81.8644 c -10.41813,-5.6589 -44.43276,-47.9639 -73.32698,-91.199 C -1.5303936,1015.3807 -35.414133,762.76789 39.742976,535.93223 67.584643,451.90182 114.16952,365.26212 167.58851,298.16196 c 8.17837,-10.27294 15.97676,-20.7465 17.32976,-23.27461 6.0348,-11.27612 26.02394,-16.07583 39.00149,-9.36486 12.21059,6.31434 17.88863,25.09822 11.34417,37.52837 -1.4724,2.79661 -10.41803,14.69492 -19.87918,26.44068 -31.83438,39.52158 -57.0826,78.39344 -80.58504,124.0678 l -13.08217,25.42373 116.94487,1.01695 116.94489,1.01695 5.24719,4.9308 c 7.15507,6.72362 7.27351,18.65154 0.25491,25.67012 l -4.99228,4.9923 H 231.15751 c -117.09779,0 -125.05131,0.22394 -126.41752,3.55933 -15.216054,37.14771 -33.465366,106.84666 -40.872185,156.1017 -6.486195,43.13294 -8.811395,119.17993 -5.018217,164.1237 4.553691,53.95477 18.916542,124.57544 34.046202,167.40178 l 5.748281,16.2711 129.152549,1.017 c 133.33074,1.0498 135.9995,1.2276 139.08275,9.2624 2.87849,7.5012 1.22518,17.3942 -3.73607,22.3555 l -4.99229,4.9923 H 236.02465 c -67.16948,0 -122.12634,0.6978 -122.12634,1.5506 0,3.1328 28.85846,60.5246 39.99067,79.5308 17.23499,29.4256 40.98635,63.7681 61.05696,88.2835 27.63264,33.7521 31.15692,39.2963 31.14816,49.0005 -0.0203,21.6235 -22.83719,34.6955 -42.20181,24.1769 z m 195.4199,-247.4112 c -7.44561,-6.4045 -7.973,-19.2386 -1.07408,-26.1378 l 4.58636,-4.5866 373.67253,-1.0169 c 281.6016,-0.7664 375.2609,-0.433 380.119,1.3532 9.9936,3.6744 13.9879,15.4083 8.6441,25.3934 -5.5069,10.2896 11.258,9.8636 -388.13219,9.8636 h -372.1553 z m 90.85732,-140.74095 c -27.84039,-7.38969 -50.33801,-24.59331 -61.31187,-46.88439 -7.61516,-15.46857 -10.02968,-38.58291 -5.93953,-56.85956 2.9523,-13.19232 15.0842,-32.01615 26.59729,-41.26831 l 8.41421,-6.76186 12.56063,4.53458 c 6.90834,2.494 12.91124,4.84924 13.33977,5.23381 0.42854,0.38459 -2.22468,4.12043 -5.89605,8.30186 -11.39201,12.97479 -16.96218,27.84661 -16.99524,45.3756 -0.0364,19.28533 5.64714,33.14104 18.4259,44.9201 14.47082,13.33873 24.75633,17.04565 47.45783,17.10388 17.79748,0.0456 20.45382,-0.48643 32.81996,-6.57427 22.17413,-10.91628 31.54471,-27.81785 29.70193,-53.57299 -1.23716,-17.29088 -7.07685,-27.07847 -22.25461,-37.29976 -9.92973,-6.68707 -19.2962,-10.727 -73.35897,-31.64097 -36.5496,-14.13907 -56.66667,-30.91465 -62.64228,-52.23727 -3.77872,-13.48346 -1.74157,-38.50509 4.11061,-50.48947 30.69283,-62.85425 150.69989,-63.86343 181.39912,-1.52546 3.97587,8.07339 4.75774,12.83638 4.75774,28.98309 0,18.09814 -0.43576,20.12555 -6.87946,32.00746 -3.78368,6.97698 -11.31651,16.83578 -16.73959,21.90844 l -9.86016,9.22302 -7.66716,-3.29276 c -4.21697,-1.81103 -10.19655,-4.21284 -13.28797,-5.33736 l -5.62078,-2.04459 6.42283,-7.3152 c 9.46757,-10.78298 14.51589,-23.86127 15.46507,-40.06426 1.02756,-17.5411 -4.09204,-29.0745 -17.34204,-39.06794 -11.3868,-8.58817 -22.12088,-11.50637 -42.39998,-11.52702 -14.47125,-0.0142 -18.18761,0.78771 -29.54677,6.37981 -19.32751,9.51491 -27.89056,24.02319 -25.30646,42.87637 3.06167,22.33733 25.39951,39.03375 72.42348,54.13288 6.15255,1.97555 21.27633,8.42683 33.60843,14.3362 38.82756,18.60563 53.64958,36.78376 55.45751,68.01472 2.49427,43.08724 -25.74399,78.54195 -72.19107,90.63989 -14.94053,3.89152 -52.71419,3.77534 -67.72232,-0.20827 z m 249.56404,0.13281 c -8.72284,-1.64666 -23.36691,-5.51166 -32.54237,-8.58893 l -16.68269,-5.59509 -0.57962,-20.84746 c -0.31879,-11.4661 0.2051,-20.84746 1.16425,-20.84746 0.95912,0 6.71148,2.68503 12.78301,5.96675 6.07153,3.28171 18.36118,8.46797 27.31033,11.52498 14.15113,4.83403 19.58376,5.57937 41.69492,5.72044 22.56114,0.144 26.62076,-0.37812 36.05502,-4.63672 11.90646,-5.37453 25.65624,-19.05886 30.53853,-30.39319 2.05182,-4.76331 3.29006,-13.81888 3.3901,-24.79243 0.34213,-37.52835 -16.45696,-51.93397 -63.37348,-54.34424 l -22.88136,-1.17551 v -15.67011 -15.67011 l 18.81356,-1.13725 c 40.75542,-2.4636 61.05324,-18.47594 61.3797,-48.42064 0.19505,-17.88803 -5.91981,-27.54844 -22.63192,-35.75469 -10.85915,-5.33225 -13.58008,-5.78508 -34.17151,-5.68715 -19.78367,0.0942 -24.60411,0.87269 -41.65247,6.72753 -10.60377,3.64161 -24.10377,9.38123 -30,12.75472 l -10.72041,6.13361 v -21.28436 -21.28436 l 8.05216,-3.22184 c 25.32871,-10.13455 64.61852,-16.53401 88.55801,-14.42421 40.06682,3.53112 64.97307,17.2749 77.42431,42.72432 6.97214,14.25055 7.59238,38.08613 1.35783,52.18041 -7.5345,17.03295 -27.17307,34.29226 -45.73129,40.19087 -9.3758,2.98005 -9.71888,5.33044 -1.01695,6.96704 20.21528,3.80195 44.60658,22.40335 51.72907,39.4499 5.07503,12.14622 7.01581,31.75257 4.63912,46.86574 -5.68556,36.15427 -29.43368,62.89591 -66.44292,74.81827 -14.06602,4.53131 -56.57783,5.50487 -76.46293,1.75109 z M 294.60507,871.01699 c -0.17064,-23.21187 -0.0555,-79.04238 0.25554,-124.0678 0.31115,-45.02543 0.0838,-81.86441 -0.50544,-81.86441 -1.65228,0 -111.25961,127.68641 -112.59535,131.16728 -1.03078,2.68615 5.07958,3.07001 48.87004,3.07001 h 50.04811 v 15.25424 15.25424 h -64.06779 -64.0678 v -23.14678 -23.14679 l 71.35666,-83.12441 71.35664,-83.12441 18.11389,-0.58452 18.11388,-0.58452 0.52947,91.093 0.52946,91.093 21.86441,0.57728 21.86441,0.57728 v 15.18543 15.18544 h -22.37288 -22.37289 v 41.69491 41.69492 h -18.30508 -18.30509 z m 687.51431,23.38983 c 5.60649,-10.34746 37.66182,-69.15255 71.23402,-130.67797 l 61.0405,-111.86441 -84.3156,-0.53079 -84.31556,-0.53079 v -17.28482 -17.2848 l 101.18646,0.52745 101.1864,0.52747 0.5827,21.12013 0.5826,21.12012 -67.5095,126.84598 -67.5095,126.84599 h -21.17802 -21.17809 z m 248.38912,3.55932 V 882.7119 h 30.5085 30.5085 v -99.66102 -99.66102 h -30.5085 -30.5085 v -12.9279 -12.92793 l 16.113,-1.34376 c 8.8621,-0.73907 20.061,-2.73673 24.8864,-4.43924 14.3256,-5.05434 26.1193,-18.7331 26.1193,-30.29407 0,-5.12625 0.1866,-5.18575 16.2711,-5.18575 h 16.2712 V 749.49156 882.7119 h 29.4916 29.4915 v 15.25424 15.25424 h -79.3221 -79.322 z M 405.32367,516.9863 c -6.27598,-0.89239 -14.81518,-11.68446 -14.81518,-18.72382 0,-3.23288 2.18768,-8.37562 4.90852,-11.53888 l 4.90855,-5.70663 373.90502,-0.59809 c 263.87832,-0.42207 376.14592,0.0498 381.52032,1.60353 5.0924,1.47224 8.6299,4.16369 10.678,8.1242 4.41,8.52795 3.8085,13.37142 -2.5306,20.37958 l -5.5932,6.18356 -374.23728,0.45869 c -205.83052,0.25228 -376.26538,0.17023 -378.74415,-0.18224 z m -41.25586,-64.72963 c -1.67797,-0.53984 -7.39831,-2.91218 -12.71187,-5.27184 l -9.66102,-4.29031 v -10.83879 c 0,-11.84027 1.42341,-13.10245 7.31189,-6.48372 6.27401,7.05206 19.05635,11.82263 31.80856,11.87148 15.46868,0.0592 23.8112,-6.66801 25.36508,-20.45394 1.56006,-13.8408 -5.01554,-20.68475 -24.31156,-25.30371 -28.48729,-6.81913 -38.30168,-16.8494 -38.40885,-39.25371 -0.0964,-20.15158 8.68729,-33.39954 25.91411,-39.08492 9.2764,-3.06148 26.7844,-1.21667 38.77019,4.08521 8.70937,3.85257 8.80482,4.00627 8.80482,14.17865 0,5.65613 -0.51868,10.28386 -1.15265,10.28386 -0.63396,0 -4.06617,-2.17487 -7.62712,-4.83301 -13.54006,-10.10732 -35.39562,-12.19833 -44.20169,-4.22894 -12.29439,11.12628 -8.14353,32.34295 7.21875,36.8979 4.47458,1.32672 13.39424,3.86805 19.82144,5.64741 15.44872,4.27692 24.76755,12.58676 27.85204,24.83636 3.77943,15.0095 -1.35757,34.69772 -11.4298,43.8061 -8.81524,7.9717 -31.24318,12.33495 -43.36232,8.43592 z m 207.26905,-3.3383 c -7.14328,-3.69834 -10.2033,-7.10648 -15.06566,-16.77966 -5.56363,-11.06827 -6.10169,-13.93222 -6.10169,-32.47767 0,-18.17909 0.6073,-21.57572 5.71879,-31.98483 7.12222,-14.50377 14.9906,-20.37055 28.67111,-21.37761 19.88272,-1.46361 31.5396,12.40298 33.31774,39.63362 l 0.96289,14.74576 h -23.65729 -23.65731 v -6.10169 -6.1017 h 17.28814 c 18.67267,0 18.44121,0.17228 16.02272,-11.92027 -1.89165,-9.45822 -9.99252,-16.5543 -18.89837,-16.5543 -16.39837,0 -23.50013,11.42566 -23.3876,37.62712 0.12346,28.73402 8.71477,40.9215 28.53891,40.48454 5.86105,-0.12915 11.49985,-1.99635 16.97872,-5.62208 l 8.20324,-5.42866 v 9.28084 c 0,8.94724 -0.31071,9.42189 -8.64406,13.20454 -11.77575,5.34521 -25.20194,5.11289 -36.29028,-0.62795 z m 83.38983,-0.0919 c -7.00054,-3.69618 -10.30043,-7.34001 -15.06565,-16.63584 -5.58777,-10.90046 -6.1017,-13.62818 -6.1017,-32.38579 0,-18.33673 0.59919,-21.70298 5.71879,-32.12864 7.12223,-14.50377 14.99061,-20.37055 28.67112,-21.37761 19.88272,-1.46362 31.5396,12.40297 33.31773,39.63362 l 0.96289,14.74576 h -23.65729 -23.65731 v -6.10169 -6.1017 h 17.28814 c 18.67267,0 18.44121,0.17227 16.02272,-11.92025 -1.99191,-9.95961 -9.3712,-16.55428 -18.52389,-16.55428 -16.8467,0 -23.90211,11.2288 -23.72632,37.76078 0.10149,15.31575 0.9128,19.84548 4.79014,26.74428 2.56739,4.56804 6.97863,9.54179 9.80276,11.05278 8.26041,4.41954 21.57226,3.09726 30.88898,-3.06826 l 8.20324,-5.42866 v 9.28084 c 0,8.94724 -0.31072,9.42189 -8.64407,13.20454 -11.86882,5.38745 -25.22492,5.12253 -36.29028,-0.71984 z m 77.69227,-0.48262 c -8.74023,-7.35438 -10.3608,-15.67442 -10.37369,-53.25906 -0.0109,-31.69112 -0.1787,-33.05085 -4.07915,-33.05085 -3.29298,0 -4.06779,-1.35593 -4.06779,-7.11864 0,-5.76271 0.77481,-7.11864 4.06779,-7.11864 3.68038,0 4.0678,-1.35594 4.0678,-14.23729 v -14.23729 h 6.10169 6.1017 v 14.23729 14.23729 h 13.22034 13.22034 v 7.11864 7.11864 h -13.22034 -13.22034 v 30.57381 c 0,22.59413 0.79735,32.48213 3.05502,37.88549 3.02554,7.24116 3.15307,7.30226 13.22034,6.33492 l 10.16532,-0.97674 v 7.58278 c 0,6.86561 -0.60114,7.70302 -6.35593,8.85399 -11.07428,2.21485 -15.53885,1.41087 -21.9031,-3.9443 z m 216.39463,3.38587 c -6.32547,-2.78858 -12.59919,-10.49817 -17.56532,-21.58552 -3.71553,-8.29522 -4.55227,-13.88014 -4.59087,-30.64162 -0.0431,-18.69097 0.48309,-21.55899 5.96975,-32.54237 5.37309,-10.75603 15.99899,-21.19745 21.57196,-21.19745 0.95322,0 1.73312,3.26247 1.73312,7.24995 0,5.54276 -1.42279,8.44715 -6.04218,12.33413 -7.39843,6.22536 -10.20633,15.66565 -10.20633,34.31423 0,23.58561 5.56762,35.88984 17.60738,38.91162 8.83409,2.21722 15.51889,-1.49223 20.50554,-11.37866 9.06384,-17.96984 4.99517,-57.16019 -6.60844,-63.6539 -1.91589,-1.07219 -3.05258,-4.71956 -3.05258,-9.79507 v -8.08676 l 5.99656,3.10094 c 14.75366,7.62942 23.90868,31.5659 21.80223,57.00352 -1.67906,20.27673 -4.69047,28.86061 -13.40082,38.19856 -6.83061,7.32279 -8.80943,8.26481 -18.64686,8.87691 -6.05295,0.37662 -12.83586,-0.12223 -15.07314,-1.10851 z m 220.48941,-2.90321 c -7.0019,-3.69689 -10.2996,-7.33895 -15.0657,-16.63906 -5.5941,-10.91573 -6.0999,-13.61005 -6.0801,-32.38686 0.018,-18.28129 0.6333,-21.73115 5.7188,-32.12542 7.0653,-14.44103 14.955,-20.34655 28.6495,-21.44447 19.7225,-1.58122 31.5859,12.45781 33.3167,39.4263 l 0.964,15.02101 h -23.6573 -23.6573 v -6.10169 -6.1017 h 17.2881 c 17.1432,0 17.2881,-0.0431 17.2881,-5.15007 0,-7.56763 -5.1536,-18.60618 -9.8636,-21.1269 -8.0873,-4.32819 -18.5683,-2.67343 -24.71,3.90131 -14.9252,15.97743 -11.4653,60.30114 5.4118,69.33099 8.4821,4.53816 21.7164,3.28807 31.1281,-2.94032 l 8.2032,-5.42866 v 9.28084 c 0,8.94724 -0.3107,9.42189 -8.644,13.20454 -11.8689,5.38745 -25.225,5.12253 -36.2903,-0.71984 z m -716.52686,-0.86036 c -0.58153,-1.95763 -4.81916,-23.23729 -9.41695,-47.28814 -4.59781,-24.05084 -8.87591,-45.85476 -9.50691,-48.45317 -1.04908,-4.32008 -0.56009,-4.66816 5.71444,-4.0678 l 6.86171,0.65657 6.4586,36.1371 c 3.55224,19.87542 6.84458,37.26525 7.31628,38.64407 0.47172,1.37882 4.2388,-11.67948 8.3713,-29.01846 11.68088,-49.01026 10.89364,-46.77966 16.51015,-46.77966 5.55492,0 4.34251,-3.45002 16.41645,46.71512 5.09318,21.16141 8.03493,30.15033 8.98586,27.45763 0.77756,-2.20179 3.9803,-19.7914 7.11718,-39.08801 l 5.70344,-35.08474 h 6.0699 c 7.2084,0 7.64803,-5.3818 -4.85973,59.49152 l -8.52907,44.23729 h -5.69541 c -6.51893,0 -5.20692,3.45291 -17.18841,-45.23636 -4.33318,-17.6088 -8.47414,-30.87999 -9.20211,-29.49152 -0.72797,1.38848 -5.30963,18.77025 -10.18147,38.62619 -8.76568,35.72581 -8.91533,36.10169 -14.37293,36.10169 -3.49367,0 -5.90254,-1.30454 -6.57232,-3.55932 z M 827.79663,382.3729 v -69.15255 h 6.1017 6.10169 v 27.45763 27.45763 h 25.36469 25.36471 l 0.56749,-26.94915 0.56752,-26.94916 6.61017,-0.63734 6.61017,-0.63734 v 69.28141 69.28141 h -7.11864 -7.11865 V 417.96612 384.4068 h -25.42373 -25.42373 v 33.55932 33.55932 h -6.10169 -6.1017 z m 189.15257,17.28814 v -51.86441 h 6.1017 c 5.2263,0 6.1017,0.76413 6.1017,5.32615 v 5.32614 l 7.3437,-5.60135 c 4.2985,-3.27858 10.8738,-5.99925 15.8564,-6.56087 7.0861,-0.79871 9.6045,-0.0407 15.0291,4.52382 3.5841,3.01582 6.5165,6.86963 6.5165,8.56405 0,2.12994 2.2667,1.09054 7.3446,-3.36791 17.8117,-15.63887 35.5596,-13.36776 42.7885,5.47546 3.1457,8.19964 3.7262,15.85397 3.7441,49.36536 l 0.021,39.66101 -6.6101,0.63735 -6.6102,0.63734 v -38.67724 c 0,-25.22653 -0.8286,-40.49579 -2.3826,-43.90644 -4.2834,-9.4011 -16.7085,-9.3419 -27.9691,0.13322 l -6.2585,5.26619 v 38.46326 38.46327 h -5.9831 -5.9832 l -0.627,-40.46963 c -0.5643,-36.42517 -1.0142,-40.897 -4.5016,-44.74577 -5.8482,-6.45439 -15.7998,-5.62828 -24.5292,2.03626 l -7.1894,6.31239 v 38.43338 38.43337 h -6.1017 -6.1017 z M 711.05965,274.49812 c -8.01423,-2.39823 -16.40821,-10.84584 -21.94789,-22.08812 -4.03762,-8.19398 -4.61756,-12.52423 -4.65836,-34.78287 -0.0443,-24.22661 0.24071,-25.99835 6.05509,-37.62712 3.76636,-7.53271 8.74676,-13.9549 13.01264,-16.77966 9.78657,-6.48045 12.41109,-5.92968 12.41109,2.60451 0,5.60576 -1.50166,8.49927 -6.84638,13.19198 -9.07857,7.97109 -12.07813,19.30538 -11.10826,41.97436 0.9192,21.48484 5.2561,32.1059 15.00889,36.75667 12.12964,5.78422 24.27622,-1.49351 29.04217,-17.4009 3.03434,-10.12765 3.07693,-38.32356 0.0714,-47.33159 -1.26866,-3.80252 -4.92968,-9.70301 -8.13559,-13.1122 -4.25015,-4.51976 -5.82883,-8.23797 -5.82883,-13.72881 0,-4.14166 0.7799,-7.5303 1.73313,-7.5303 5.38275,0 16.17203,10.61708 21.61953,21.27449 5.89279,11.52859 6.13425,13.03471 6.02383,37.57118 -0.12691,28.18393 -2.01691,34.99428 -13.26828,47.80888 -8.58097,9.77318 -20.35732,13.03789 -33.18417,9.1995 z m 237.71613,-2.75622 c -8.04607,-3.50589 -18.15539,-15.18038 -21.61129,-24.95727 -1.69296,-4.78941 -2.7429,-16.4397 -2.71941,-30.17445 0.0323,-18.9147 0.75509,-23.94087 4.67563,-32.51704 8.32404,-18.2088 18.15218,-25.44907 34.54534,-25.44907 20.76643,0 32.89987,15.91717 33.57708,44.04779 l 0.38402,15.95222 -24.91526,0.57108 -24.91525,0.57107 v -7.18124 -7.18125 h 18.56959 18.56959 l -1.05781,-9.38489 c -2.06369,-18.30917 -15.61765,-27.26813 -30.54044,-20.18679 -11.30527,5.3647 -15.72116,16.31805 -15.66576,38.85789 0.074,30.08048 9.16418,43.59515 29.32296,43.59515 8.17088,0 12.64236,-1.3498 20.06469,-6.05691 l 9.55074,-6.05689 v 10.19697 c 0,10.17549 -0.0203,10.20541 -9.32118,14.1925 -10.80774,4.63275 -29.26853,5.18933 -38.51324,1.16113 z M 575.59324,198.30509 V 124.0678 h 7.11864 7.11865 v 29.49153 29.49153 h 27.45762 27.45763 V 153.55933 124.0678 h 7.11865 7.11864 v 74.23729 74.2373 h -7.11864 -7.11865 v -36.61018 -36.61017 h -27.45763 -27.45762 v 36.61017 36.61018 h -7.11865 -7.11864 z m 205.42373,18.30509 v -55.93221 h 7.11865 c 6.64653,0 7.11864,0.4299 7.11864,6.48222 v 6.48222 l 5.59322,-5.21675 c 7.62108,-7.10813 13.31008,-9.78159 20.81475,-9.78159 8.44442,0 16.82354,4.55666 20.29011,11.03399 2.79307,5.21893 2.8737,5.235 7.04671,1.40402 13.11929,-12.04399 29.88911,-15.90689 39.58208,-9.11767 2.60723,1.82619 6.45181,7.0889 8.54347,11.69492 3.34483,7.36555 3.80842,13.82713 3.84771,53.62882 l 0.0447,45.25424 h -5.87117 -5.87115 l -0.76526,-42.33289 c -0.63866,-35.33028 -1.33035,-43.19538 -4.18153,-47.54682 -6.36191,-9.70949 -17.10657,-9.20807 -29.69672,1.38585 l -6.49552,5.46562 v 41.51411 41.51413 h -7.11865 -7.11864 v -41.79593 c 0,-32.73127 -0.64627,-43.04565 -2.97985,-47.5583 -5.13744,-9.93474 -15.97787,-9.85927 -29.59189,0.20601 l -6.07233,4.48947 v 42.32937 42.32938 h -7.11864 -7.11865 z m 489.15253,37.35025 c -2.2373,-1.33209 -12.3051,-9.4494 -22.3729,-18.03849 C 1199.5354,194.74907 1151.2648,162.90097 1095.2543,135.2771 1020.9575,98.634645 950.80398,77.30989 867.45765,66.03317 833.77634,61.4761 754.13083,59.827174 717.62191,62.931072 573.33744,75.19778 436.0514,129.83052 327.07622,218.34804 c -11.21789,9.11197 -24.08268,19.5418 -28.58844,23.17739 -6.94775,5.606 -9.83898,6.61017 -19.03196,6.61017 -9.21502,0 -11.91301,-0.94236 -18.00075,-6.28749 -9.80276,-8.60695 -12.75756,-19.77982 -8.31049,-31.42428 3.40512,-8.91616 22.30359,-25.98568 61.09272,-55.18029 C 422.82538,73.514796 552.88175,22.20412 695.59324,4.7885508 c 41.10025,-5.01560344 129.78088,-5.0143122 170.8091,0.00248 148.40606,18.1466232 279.26826,70.8199422 390.54686,157.1989892 50.8973,39.50861 58.983,48.06733 58.983,62.4335 0,8.25956 -6.9278,21.77634 -13.6659,26.66325 -6.521,4.72944 -26.0442,6.47738 -32.0968,2.87366 z"
       id="path518" />
  </g>
</svg>
