<?xml version="1.0" encoding="UTF-8" standalone="no"?>
<!-- Created with Inkscape (http://www.inkscape.org/) -->

<svg
   version="1.1"
   id="svg726"
   width="1950.4762"
   height="1950.4762"
   viewBox="0 0 1950.4762 1950.4762"
   sodipodi:docname="sws-knoxville.svg"
   inkscape:version="1.2 (dc2aedaf03, 2022-05-15)"
   xmlns:inkscape="http://www.inkscape.org/namespaces/inkscape"
   xmlns:sodipodi="http://sodipodi.sourceforge.net/DTD/sodipodi-0.dtd"
   xmlns="http://www.w3.org/2000/svg"
   xmlns:svg="http://www.w3.org/2000/svg">
  <defs
     id="defs730" />
  <sodipodi:namedview
     id="namedview728"
     pagecolor="#ffffff"
     bordercolor="#000000"
     borderopacity="0.25"
     inkscape:showpageshadow="2"
     inkscape:pageopacity="0.0"
     inkscape:pagecheckerboard="0"
     inkscape:deskcolor="#d1d1d1"
     showgrid="false"
     inkscape:zoom="0.41220703"
     inkscape:cx="976.45108"
     inkscape:cy="976.45108"
     inkscape:window-width="1920"
     inkscape:window-height="991"
     inkscape:window-x="-9"
     inkscape:window-y="-9"
     inkscape:window-maximized="1"
     inkscape:current-layer="g732" />
  <g
     inkscape:groupmode="layer"
     inkscape:label="Image"
     id="g732">
    <path
       style="fill:#000000;stroke-width:2.53968"
       d="m 916.8254,1948.7127 c -55.24416,-3.2587 -132.45338,-15.6731 -186.96825,-30.0625 -136.91162,-36.1383 -257.48181,-97.2111 -369.78063,-187.3062 -31.81607,-25.5254 -35.02951,-28.8607 -36.97729,-38.3795 -4.29031,-20.9668 5.95182,-39.3524 25.12175,-45.0958 15.95027,-4.7788 24.67997,-1.2234 49.91454,20.3294 95.05603,81.187 230.30674,149.1048 357.37486,179.4601 76.78281,18.3427 133.10222,24.9217 213.37851,24.926 89.72621,0.01 163.29251,-9.8473 244.59671,-32.7567 111.9509,-31.5448 224.6752,-89.0837 312.6599,-159.5939 13.1578,-10.5446 27.8037,-20.4526 32.5465,-22.0178 23.4785,-7.7486 48.9271,12.1554 48.9271,38.2672 0,22.6664 -14.5648,37.3284 -83.8641,84.4235 -178.5356,121.3312 -392.3981,180.4607 -606.9296,167.8062 z m 721.5034,-300.8674 c -12.8351,-8.8092 -18.5943,-18.065 -19.7764,-31.7831 -1.3609,-15.7922 1.4562,-20.5989 34.2043,-58.3596 48.6132,-56.0542 92.0346,-122.1148 125.2844,-190.6058 9.633,-19.8427 17.5145,-37.2713 17.5145,-38.7301 0,-1.8118 -45.0963,-2.6524 -142.3038,-2.6524 -151.6894,0 -155.8304,-0.3143 -162.2537,-12.3165 -4.4778,-8.3668 -3.1781,-19.9116 3.0578,-27.1612 l 5.8019,-6.7452 157.8422,0.3724 157.8423,0.3724 8.8602,-27.4197 c 29.4189,-91.042 43.0182,-178.1888 43.1183,-276.30856 0.085,-83.31482 -8.0808,-150.61658 -27.3296,-225.2511 -8.3744,-32.47035 -27.4292,-92.42778 -32.3479,-101.7854 -2.2228,-4.22872 -11.3842,-4.48698 -153.6679,-4.33168 -142.0858,0.15518 -151.6123,-0.11251 -156.3645,-4.39207 -7.8018,-7.02588 -10.1096,-15.50484 -6.8819,-25.28465 5.4159,-16.41049 2.3886,-16.09796 155.929,-16.09796 76.1964,0 138.5388,-0.59047 138.5388,-1.31215 0,-0.72168 -6.3012,-13.87647 -14.0028,-29.23289 -26.9446,-53.72602 -63.6098,-110.77567 -100.7914,-156.82753 -25.7299,-31.86817 -29.8216,-47.97135 -17.3742,-68.37714 9.74,-15.96727 36.0699,-22.20089 52.2196,-12.36305 8.5898,5.23263 44.2032,49.80063 71.9059,89.98613 77.3464,112.1982 132.2105,244.19642 156.374,376.22187 12.0965,66.09326 15.2629,102.97461 15.2629,177.77778 0,74.8032 -3.1664,111.6845 -15.2629,177.7778 -29.8661,163.1837 -104.4558,320.9807 -212.3813,449.2996 -36.0916,42.9114 -43.4483,48.9891 -61.0041,50.3981 -10.9516,0.879 -14.9178,0 -22.0137,-4.8683 z M 255.04803,1628.465 c -8.93547,-4.9637 -17.50172,-14.3374 -45.75102,-50.0636 C 69.40176,1401.4791 -6.0743289,1173.904 0.83287752,949.84127 6.914286,752.56658 68.074898,568.85202 179.81617,412.21026 c 36.93332,-51.77404 58.18851,-78.36599 65.18778,-81.55507 9.2503,-4.21471 25.53114,-3.79279 34.59956,0.89668 15.90019,8.2223 22.15357,30.4858 13.3761,47.62187 -2.28981,4.47033 -9.51327,14.41356 -16.05217,22.0961 -19.08137,22.4187 -41.67036,53.15188 -61.85687,84.15863 -18.98492,29.16115 -51.48418,86.88148 -58.78931,104.4128 l -3.96847,9.52381 h 144.60112 144.60114 l 7.81389,6.57496 c 10.28198,8.65171 10.99457,23.49115 1.58014,32.90555 l -6.23375,6.23378 H 288.55187 132.42844 l -5.47946,14.60317 c -22.82088,60.81938 -40.094397,130.45684 -49.609828,200 -5.657696,41.34908 -7.731962,143.74886 -3.845666,189.84826 5.633245,66.8217 20.985664,143.4273 40.334824,201.2629 l 9.34629,27.9365 163.3999,1.2698 163.39993,1.2698 4.85404,5.9957 c 5.49527,6.7876 6.36521,22.3019 1.59871,28.5102 -7.50586,9.7761 -10.19124,9.9386 -164.19673,9.9386 -82.50452,0 -150.00823,0.9104 -150.00823,2.0232 0,5.6067 45.37633,92.2688 63.21133,120.7243 24.33381,38.8244 39.38949,59.7202 69.41775,96.3453 27.7947,33.9008 32.42883,41.4279 32.44079,52.6928 0.0282,26.6015 -29.06154,43.8431 -52.24406,30.9651 z m 513.00856,-37.1467 c -13.00015,-5.6607 -25.49323,-18.4664 -31.77453,-32.5696 -4.8721,-10.9393 -5.95139,-17.7115 -5.97295,-37.4789 -0.0292,-26.6736 5.16294,-42.7105 18.39847,-56.8281 7.72033,-8.2349 24.28701,-16.683 32.87973,-16.7669 4.93607,-0.048 5.70174,1.2413 5.62224,9.4681 -0.0838,8.6618 -1.06062,9.9835 -10.79365,14.6031 -7.77999,3.6927 -12.30826,8.1995 -16.58664,16.508 -5.20023,10.0987 -5.78237,14.271 -5.003,35.8564 0.77339,21.4198 1.72084,25.6954 7.69412,34.7216 4.27297,6.4569 10.16107,11.5049 15.79668,13.5427 8.13955,2.9433 8.98453,4.1563 8.98453,12.8974 0,8.3422 -0.77366,9.6351 -5.71428,9.5491 -3.14286,-0.055 -9.23167,-1.631 -13.53072,-3.5029 z m 37.04233,-5.604 c 0.0178,-8.7517 1.1035,-10.4601 9.81014,-15.4308 15.06453,-8.6004 19.37666,-19.8328 19.37666,-50.4731 0,-23.4496 -0.56399,-26.4384 -6.75287,-35.7866 -3.71408,-5.6101 -10.28551,-11.6634 -14.60317,-13.4518 -6.92533,-2.8686 -7.85031,-4.4498 -7.85031,-13.4198 0,-10.1089 0.048,-10.1587 8.25397,-8.5577 21.91144,4.2751 40.88845,27.5262 45.58146,55.8476 7.04269,42.5013 -13.64706,83.0758 -45.62301,89.471 -8.12871,1.6257 -8.21222,1.5421 -8.19287,-8.1988 z m 650.06138,5.3055 c -16.0381,-4.944 -31.0549,-18.6237 -38.1125,-34.7188 -8.2406,-18.7929 -8.2336,-50.8883 0.015,-69.9306 6.354,-14.6681 21.1155,-29.5693 35.0672,-35.3986 10.2903,-4.2996 32.753,-5.499 47.1455,-2.5175 22.9471,4.7537 39.7719,30.9173 39.7719,61.8479 v 13.5073 h -40.6349 -40.6349 v -8.8889 -8.8888 h 29.2063 29.2064 v -6.4504 c 0,-10.801 -9.1427,-25.5046 -18.6699,-30.0256 -18.7897,-8.9163 -41.7157,-3.6034 -54.0112,12.5166 -6.3736,8.3561 -7.4379,12.213 -8.2403,29.8616 -1.5103,33.2206 7.0403,50.6625 28.9359,59.0244 18.6527,7.1236 41.2714,3.5701 70.3982,-11.0599 1.0476,-0.5262 1.9047,4.8069 1.9047,11.8513 v 12.808 l -16.7754,5.1814 c -19.5922,6.0514 -47.3126,6.6012 -64.5722,1.2806 z M 396.19048,1497.1429 v -95.2381 h 11.42857 11.42857 l 0.0886,50.1587 0.0886,50.1587 29.71375,-31.746 c 16.34258,-17.4603 37.75142,-40.1007 47.57522,-50.3119 l 17.86143,-18.5659 13.92356,0.7881 13.92355,0.7881 -40.63492,42.6217 c -22.3492,23.442 -41.01597,43.7279 -41.4817,45.08 -0.4657,1.3521 14.96287,20.3343 34.28571,42.1827 19.32287,21.8484 38.93585,44.1339 43.58436,49.5232 l 8.45189,9.7988 h -16.11713 -16.11713 l -31.69981,-35.6797 c -17.43492,-19.6238 -34.23876,-38.7446 -37.34185,-42.4907 l -5.64203,-6.8112 -10.23098,9.9903 -10.23101,9.9904 v 32.5004 32.5005 h -11.42857 -11.42857 v -95.2381 z m 177.77778,24.1269 v -71.1111 h 11.42857 c 10.99743,0 11.42857,0.2866 11.42857,7.5956 v 7.5956 l 12.11406,-7.4539 c 16.25818,-10.0037 32.87667,-13.5694 47.72924,-10.2409 16.1263,3.614 22.79116,8.6644 29.55579,22.3965 5.45099,11.0655 5.89546,15.5237 6.68861,67.0913 l 0.8496,55.2381 h -12.9131 -12.91309 v -52.1897 c 0,-58.2344 -1.40493,-64.5123 -15.53991,-69.4397 -12.86817,-4.4859 -20.67429,-3.3696 -38.03429,5.4389 l -16.26707,8.254 -0.68543,53.9682 -0.68544,53.9683 h -11.37806 -11.37805 z m 307.30159,70.0326 c 0,-0.8321 28.4544,-37.8166 51.39995,-66.8087 1.7557,-2.2183 -2.94802,-10.1873 -16.20927,-27.4613 -10.27551,-13.3849 -22.50652,-29.4071 -27.18004,-35.6049 l -8.4973,-11.2688 14.8465,0.108 14.8465,0.1079 19.85009,26.7293 19.85008,26.7293 20.20538,-26.8373 20.20541,-26.8372 h 14.01395 14.0139 l -25.9148,32.3809 c -14.25316,17.8095 -26.87556,33.6475 -28.04978,35.1955 -2.01976,2.6626 2.11108,8.4843 41.70288,58.7728 l 12.4968,15.873 h -15.1081 -15.10812 l -19.56647,-26.6667 c -10.76158,-14.6666 -20.34705,-26.6443 -21.30108,-26.617 -0.95401,0.027 -10.30601,11.9856 -20.7822,26.5739 l -19.04762,26.5242 -13.33333,0.093 c -7.33333,0.051 -13.33333,-0.3925 -13.33333,-0.9857 z m 208.41455,-4.4962 c -1.2977,-3.2196 -13.8647,-34.3864 -27.9267,-69.2596 -14.062,-34.8732 -25.5672,-64.3018 -25.5672,-65.3968 0,-1.0951 5.4286,-1.991 12.0635,-1.9909 l 12.0635,2e-4 21.5524,55.7808 c 11.8538,30.6794 22.3284,54.965 23.2769,53.968 0.9486,-0.997 10.5326,-24.6698 21.2979,-52.6063 10.7652,-27.9365 20.1272,-52.2222 20.8042,-53.9683 0.7493,-1.9322 6.0366,-3.1746 13.5102,-3.1746 h 12.2792 l -28.5451,70.4762 -28.5452,70.4762 -11.9521,0.7745 c -10.4703,0.6784 -12.2445,0.049 -14.3115,-5.0794 z m 116.6648,-65.5364 v -71.1111 h 11.4286 11.4286 v 71.1111 71.1112 h -11.4286 -11.4286 z m 71.1111,-27.9365 v -99.0476 h 11.4286 11.4286 v 99.0476 99.0477 h -11.4286 -11.4286 z m 71.1111,0 v -99.0476 H 1360 h 11.4286 v 99.0476 99.0477 H 1360 1348.5714 Z m -144.7619,-80 v -11.4285 h 12.6984 12.6985 v 11.4285 11.4286 h -12.6985 -12.6984 z m -704.32495,-92.8084 c -12.659,-9.9576 -10.94735,-30.3214 3.1843,-37.8844 3.3052,-1.7689 157.08838,-2.6511 474.28572,-2.7207 l 469.39463,-0.1032 5.7143,6.5825 c 10.0103,11.5312 5.985,28.5786 -8.3548,35.3832 -7.386,3.505 -58.7485,3.932 -472.95637,3.932 -464.10956,0 -464.67847,-0.01 -471.26778,-5.1894 z M 280.63492,1144.3647 c -23.74926,-4.6247 -46.70991,-10.7497 -58.03425,-15.4813 l -9.26734,-3.8722 v -26.6543 -26.6543 l 13.5601,7.6529 c 30.25128,17.0727 71.53253,27.0616 101.78439,24.6288 49.83527,-4.0076 75.83784,-30.3241 75.87657,-76.7926 C 404.59383,979.88689 378.56691,960 316.61737,960 h -19.47451 v -19.94153 -19.94154 l 22.22222,-1.48505 c 30.75866,-2.05549 47.4527,-8.00508 61.93605,-22.07332 9.80226,-9.5213 12.32104,-13.9405 14.76775,-25.91005 5.45613,-26.69176 -3.49948,-45.51634 -27.16142,-57.09305 -12.854,-6.28887 -17.29484,-7.08287 -39.93872,-7.14093 -31.50235,-0.0808 -54.58974,5.4767 -83.93487,20.20434 l -21.54181,10.81133 v -26.15167 -26.15167 l 14.57763,-5.4542 c 30.88737,-11.55644 56.26931,-16.1408 89.54936,-16.17394 49.20858,-0.049 78.23418,9.93613 100.33351,34.51589 13.58766,15.11273 19.03157,30.58664 19.03157,54.09567 0,15.17755 -1.2769,20.74484 -7.71119,33.621 -11.06705,22.1471 -32.37851,39.26672 -58.95548,47.35919 -7.05275,2.1475 -5.17912,5.88655 3.80953,7.60239 25.03499,4.77889 50.47415,23.50895 62.44165,45.97381 6.29983,11.82578 6.76104,14.88003 6.71154,44.44443 -0.0465,27.6803 -0.80107,33.3723 -5.8929,44.4445 -14.3486,31.2008 -40.98941,54.681 -73.67317,64.9328 -21.82232,6.845 -67.96569,8.7666 -93.07919,3.8763 z m 617.90548,1.1391 c -6.5647,-1.204 -13.13613,-2.9309 -14.60318,-3.8376 -1.54572,-0.9553 -2.66737,-11.3217 -2.66737,-24.652 0,-22.6952 0.0764,-22.9793 5.71428,-21.2047 30.619,9.638 49.90062,11.2781 75.50481,6.4224 42.27286,-8.0169 73.37186,-37.769 87.61376,-83.8192 5.8725,-18.98824 9.7947,-97.95309 6.283,-126.49239 -6.3507,-51.60978 -29.2817,-80.65801 -69.05003,-87.47002 -30.40502,-5.20815 -58.73866,5.70654 -75.74039,29.17674 -9.04668,12.48856 -12.31957,23.14344 -14.24462,46.37297 -3.0525,36.83447 7.90926,60.81217 34.71284,75.93072 13.75982,7.76125 14.47984,7.87662 48.25397,7.73158 25.49813,-0.10946 37.05223,-1.21973 45.07933,-4.33178 l 10.7937,-4.18456 v 18.58992 18.58992 l -10.7937,4.05795 c -25.42674,9.55935 -65.87113,12.36715 -93.84322,6.51475 -58.32676,-12.2031 -93.37981,-67.95297 -83.46184,-132.74126 7.44203,-48.61448 37.55438,-84.67432 84.25983,-100.90192 22.83617,-7.93433 62.60422,-7.88097 86.06113,0.11555 42.2096,14.38918 69.2784,45.10835 82.9368,94.12127 6.7171,24.10405 6.7111,111.84915 -0.01,140.95236 -16.8961,73.1662 -59.6193,121.0859 -122.29228,137.1669 -18.37522,4.7148 -63.99632,6.9205 -80.50723,3.8925 z m -332.19119,-6.0437 c 0,-0.4716 39.42857,-73.1295 87.61905,-161.46208 48.19047,-88.33254 87.61905,-161.661 87.61905,-162.95212 0,-1.39868 -42.08567,-2.34748 -104.12699,-2.34748 H 533.33334 v -21.58731 -21.5873 h 125.71428 125.71429 v 29.05969 29.05968 l -83.1746,156.32404 -83.17461,156.32408 -26.03174,0.013 c -14.31747,0.01 -26.03175,-0.3727 -26.03175,-0.8443 z m 614.60319,-24.3721 v -25.2294 l 45.0794,-39.1865 c 47.6943,-41.4597 96.7831,-90.2471 114.3122,-113.61023 15.3138,-20.41059 23.5038,-39.97943 25.1672,-60.13376 1.8916,-22.918 -2.1374,-36.6638 -14.7603,-50.3581 -14.2991,-15.51269 -28.0499,-20.26215 -58.0525,-20.05105 -29.4489,0.20724 -49.5475,5.30273 -79.3651,20.12127 l -22.2222,11.04386 v -26.27863 -26.2786 l 14.5776,-5.4542 c 41.415,-15.49528 97.7421,-21.12015 130.1843,-13.00025 58.6431,14.67766 87.9423,58.13572 79.2771,117.58768 -3.6995,25.38192 -13.7706,47.80513 -32.4204,72.18352 -16.8696,22.0513 -64.0587,68.19899 -111.4398,108.98029 l -35.3767,30.4491 98.2339,0.6648 98.2339,0.6647 v 21.5575 21.5575 h -125.7143 -125.7143 z m 325.0794,-0.8143 V 1088.23 l 23.492,-19.9566 c 82.238,-69.86133 132.9694,-122.17514 148.183,-152.8049 17.5444,-35.32249 15.706,-73.00363 -4.4812,-91.85237 -13.2592,-12.38001 -29.4608,-17.27619 -56.7177,-17.14032 -29.989,0.14959 -53.4613,6.33362 -81.9901,21.60145 l -18.498,9.89966 0.7203,-27.14164 0.7202,-27.14161 16.9467,-5.80874 c 57.3266,-19.6496 117.2138,-19.75487 155.4011,-0.27312 15.4369,7.8753 33.8629,26.65562 41.5896,42.38936 6.5361,13.30941 7.0116,16.45171 6.9643,46.03058 -0.043,27.21333 -0.8927,33.85054 -5.9478,46.48551 -14.629,36.56495 -56.4825,83.34504 -134.6449,150.49394 l -38.2516,32.8618 98.3364,1.2699 98.3364,1.2698 0.7376,20.9524 0.7376,20.9524 h -125.817 -125.8169 z M 506.11843,645.54901 c -8.0093,-1.13885 -18.49938,-14.58758 -18.49938,-23.71701 0,-5.03535 2.51777,-10.13729 7.4237,-15.04322 l 7.42367,-7.4237 h 468.89292 c 409.38186,0 469.81706,0.47789 476.17426,3.76536 8.7976,4.54939 14.0465,17.97994 10.585,27.08432 -5.5346,14.55713 28.9884,13.48541 -478.82615,14.86461 -257.15053,0.69841 -470.07883,0.90974 -473.17402,0.46964 z M 440,557.55236 426.66667,551.34479 v -14.06832 -14.06832 l 11.22832,8.57077 c 30.21767,23.06568 67.50184,14.73176 67.50184,-15.0883 0,-5.98311 -0.71238,-12.73481 -1.58306,-15.00379 -2.11721,-5.51733 -16.84064,-12.54445 -34.01816,-16.23601 -25.67368,-5.51741 -38.73527,-18.02009 -42.07213,-40.27177 -3.16688,-21.11837 4.58814,-39.36764 21.60142,-50.83289 6.98477,-4.70705 11.90398,-5.74921 26.60623,-5.63662 10.60815,0.0813 22.74422,1.93658 29.4657,4.50466 11.36642,4.34281 11.43276,4.43941 12.20061,17.76645 l 0.77204,13.3999 -9.66093,-6.32793 c -21.8111,-14.28624 -47.75414,-14.22968 -59.04848,0.12877 -8.49923,10.805 -6.11879,30.04449 4.72302,38.1731 2.21628,1.66166 12.02961,4.93841 21.80739,7.28168 23.23487,5.56833 37.63814,13.9442 42.84411,24.91497 8.0107,16.88124 3.96313,47.58095 -8.02034,60.83248 -14.1229,15.61737 -46.91345,19.38923 -71.01425,8.16871 z m 272.04021,1.38453 c -18.32275,-11.17265 -26.28851,-29.75835 -26.31175,-61.3904 -0.0254,-34.64223 10.72876,-56.64444 31.57862,-64.60708 13.86179,-5.29387 26.19713,-3.52648 36.62433,5.24744 9.64147,8.11276 14.77196,21.37023 16.99309,43.91111 l 1.7953,18.2195 h -20.64561 -20.64561 v -8.88889 -8.88889 h 12.63492 12.63492 l -1.51652,-8.25396 c -3.95917,-21.54847 -19.25839,-32.12734 -35.38931,-24.47045 -23.48788,11.14897 -25.91058,70.08609 -3.69415,89.86727 8.90052,7.9249 29.30685,6.99993 42.8172,-1.9408 l 10.60817,-7.02016 v 11.58877 c 0,11.17222 -0.38798,11.7649 -10.79365,16.48821 -14.35233,6.51476 -36.12706,6.57927 -46.68995,0.13841 z m 102.99898,-0.90209 c -17.79561,-11.99246 -25.16112,-29.68351 -25.18374,-60.48831 -0.0254,-34.64223 10.72876,-56.64444 31.57861,-64.60708 13.86179,-5.29387 26.19713,-3.52648 36.62433,5.24744 9.64721,8.11758 15.1629,22.33523 17.21006,44.36205 l 1.65143,17.76856 h -20.68216 -20.68216 v -8.88889 -8.88889 h 12.63492 12.63492 l -1.51652,-8.25396 c -3.95916,-21.54847 -19.25839,-32.12734 -35.38931,-24.47045 -21.58011,10.24342 -26.07096,63.41925 -7.24538,85.79217 10.80779,12.84432 30.25595,13.47241 47.83228,1.54479 l 9.14433,-6.20551 v 11.47622 c 0,11.03974 -0.41049,11.66252 -10.79365,16.37562 -15.43779,7.00746 -36.79238,6.66638 -47.81796,-0.76376 z m 99.54334,1.63329 c -10.95941,-7.67629 -12.99522,-17.75695 -12.99522,-64.34842 v -43.25618 h -6.34921 c -5.53859,0 -6.34921,-1.1123 -6.34921,-8.71225 0,-7.10133 1.05659,-8.8623 5.71429,-9.52381 5.24355,-0.74471 5.77575,-2.32833 6.46047,-19.22425 l 0.74618,-18.4127 h 7.50779 7.50778 v 19.04762 19.04762 h 16.50794 16.50793 v 8.88889 8.88888 H 933.33334 916.8254 v 39.24559 c 0,24.58365 1.11147,41.68501 2.97509,45.77516 3.58415,7.86637 11.99405,10.4235 22.37691,6.80402 7.65671,-2.66916 7.66387,-2.66256 7.66387,7.05876 0,7.94393 -1.04911,10.01156 -5.71428,11.26177 -10.40721,2.78903 -23.54865,1.65892 -29.54446,-2.5407 z m 263.72137,-1.57285 c -4.6634,-3.14286 -11.4039,-11.39662 -14.9787,-18.34171 -5.817,-11.30088 -6.4998,-15.56968 -6.4998,-40.63492 0,-20.97451 1.1574,-31.00706 4.6093,-39.95264 4.6755,-12.1168 19.1612,-27.41994 25.9553,-27.41994 5.2651,0 5.089,17.41227 -0.1966,19.44056 -8.6755,3.32909 -14.7715,21.38705 -14.871,44.05151 -0.1072,24.42118 3.3885,37.2113 12.5132,45.78352 4.2344,3.97803 6.2755,8.64264 6.2755,14.34171 0,9.98034 -1.5585,10.31279 -12.8072,2.73191 z m 28.0453,-2.10011 c 0,-5.23226 2.4279,-10.24229 7.3475,-15.16186 9.6704,-9.67047 14.0533,-28.26621 12.2578,-52.00746 -1.499,-19.81961 -6.5044,-32.46931 -14.5522,-36.77639 -6.15,-3.29135 -7.3552,-20.30339 -1.4384,-20.30339 5.8494,0 19.0257,12.51584 25.0681,23.81153 4.92,9.19752 5.6029,14.34365 5.6029,42.22022 0,35.46842 -3.4476,46.1663 -19.1311,59.36307 -10.651,8.96224 -15.1546,8.62177 -15.1546,-1.14572 z m 251.2297,2.03967 c -17.7956,-11.99246 -25.1611,-29.68351 -25.1838,-60.48831 -0.025,-34.64223 10.7288,-56.64444 31.5786,-64.60708 13.8618,-5.29387 26.1972,-3.52648 36.6244,5.24744 9.6472,8.11758 15.1629,22.33523 17.21,44.36205 l 1.6515,17.76856 h -20.6822 -20.6822 v -8.88889 -8.88889 h 12.635 12.6349 l -1.5165,-8.25396 c -3.9592,-21.54847 -19.2584,-32.12734 -35.3893,-24.47045 -21.5802,10.24342 -26.071,63.41925 -7.2454,85.79217 10.8078,12.84432 30.2559,13.47241 47.8323,1.54479 l 9.1443,-6.20551 v 11.47622 c 0,11.03974 -0.4105,11.66252 -10.7937,16.37562 -15.4378,7.00746 -36.7923,6.66638 -47.8179,-0.76376 z M 553.96407,504.88435 c -5.98223,-31.1467 -11.49999,-59.77324 -12.26169,-63.61451 -1.26873,-6.39822 -0.73346,-6.98412 6.38044,-6.98412 9.35416,0 8.54329,-2.32963 17.23784,49.52381 3.74741,22.3492 7.57044,41.49348 8.4956,42.54283 0.92515,1.04934 6.6768,-19.23637 12.78141,-45.07937 11.0611,-46.8255 11.12327,-46.98727 18.05897,-46.98727 6.92348,0 7.01531,0.23466 17.65201,45.07936 5.88076,24.79365 11.45239,46.50261 12.38138,48.24211 0.929,1.7395 4.8606,-16.54621 8.73689,-40.63492 8.90085,-55.31332 8.05021,-52.68655 17.06169,-52.68655 4.09633,0 7.37844,0.85714 7.29354,1.90476 -0.0848,1.04762 -5.53369,29.33333 -12.10842,62.85714 L 643.7197,560 l -7.62809,0.75251 -7.62809,0.75248 -9.87225,-40.11756 c -5.42972,-22.06468 -10.9611,-44.09757 -12.29191,-48.96198 -2.23442,-8.16709 -3.32844,-5.15246 -14.28582,39.36508 L 580.14743,560 l -7.65328,0.75736 -7.65328,0.75739 z m 477.14703,-28.69387 v -85.07937 h 8.8889 8.8889 v 33.01588 33.01587 h 31.746 31.7461 v -33.01587 -33.01588 h 7.619 7.6191 v 85.07937 85.07936 H 1120 h -7.619 v -41.90476 -41.90476 h -31.7461 -31.746 v 41.90476 41.90476 H 1040 h -8.8889 z m 236.1905,21.5873 v -63.49206 h 8.8889 c 7.1333,0 8.8889,0.98247 8.8889,4.97447 0,4.55657 1.0567,4.31759 12.5785,-2.84482 15.9957,-9.94342 27.1534,-8.71254 37.3971,4.12556 l 6.8398,8.57201 10.1008,-8.64592 c 12.5611,-10.75184 24.5867,-13.37706 36.1087,-7.88261 15.8638,7.56495 17.5117,14.24734 18.4256,74.71718 l 0.8156,53.96825 h -7.7997 -7.7998 l -0.015,-43.80952 c -0.01,-24.09524 -1.2198,-48.15126 -2.6934,-53.45783 -4.585,-16.51091 -19.2827,-18.75149 -35.1919,-5.36477 l -7.8137,6.57572 v 48.02819 48.02821 h -7.6191 -7.619 l -0.2512,-37.46031 c -0.3539,-52.78268 -1.9647,-63.69392 -10.3214,-69.91368 -8.1523,-6.06766 -16.1246,-4.68424 -27.3269,4.74187 l -7.8148,6.57572 v 48.02819 48.02821 h -8.8889 -8.8889 z M 881.62327,338.46484 c -22.29052,-10.79561 -34.36079,-47.84607 -28.59477,-87.77343 4.14479,-28.70117 16.91187,-48.1795 35.22547,-53.74238 5.27723,-1.603 5.71429,-0.94154 5.71429,8.64856 0,8.59561 -1.08721,10.87969 -6.31172,13.26014 -3.47147,1.5817 -8.87282,8.12862 -12.00305,14.54872 -4.71098,9.66226 -5.67256,15.82877 -5.58255,35.7999 0.1252,27.77016 4.0434,39.60991 16.04477,48.48292 5.97778,4.41956 7.85255,7.77801 7.85255,14.06702 0,10.54685 -2.0828,11.67868 -12.34499,6.70855 z m 310.15743,2.04856 c -28.5253,-7.21844 -44.7822,-44.06898 -38.621,-87.54501 3.1964,-22.55575 9.4196,-36.35657 20.9656,-46.49392 23.4539,-20.59252 57.4251,-10.24143 66.4822,20.25726 2.1103,7.10619 3.837,20.14148 3.837,28.96732 v 16.04698 h -22.8572 -22.8571 v -8.88889 -8.88888 h 15.2381 c 16.691,0 16.6158,0.10158 12.3803,-16.71904 -3.6708,-14.57813 -12.097,-21.3762 -26.4957,-21.3762 -21.9812,0 -33.9463,23.22602 -30.5868,59.37343 2.9071,31.27909 14.8926,46.16793 36.9057,45.84569 8.3434,-0.12216 15.7705,-2.30588 23.7533,-6.98413 6.3879,-3.74354 12.2679,-6.80642 13.0668,-6.80642 0.7989,0 1.4526,5.20711 1.4526,11.57138 0,11.23692 -0.3237,11.71456 -11.1985,16.52497 -13.3551,5.90761 -30.1481,7.97933 -41.4653,5.11546 z M 909.20635,330.24808 c 0,-7.31734 1.3278,-10.77999 4.85824,-12.66941 14.15794,-7.57709 19.69298,-63.80435 8.41859,-85.51941 -2.99279,-5.76423 -7.20437,-11.15693 -9.35911,-11.98378 -2.63401,-1.01077 -3.91772,-4.85815 -3.91772,-11.7418 0,-12.30636 3.72811,-13.18454 15.15459,-3.56977 30.43211,25.60692 30.43211,103.27797 0,128.88488 -11.3792,9.57496 -15.15459,8.72777 -15.15459,-3.40071 z M 718.73016,245.07937 v -92.69842 h 8.88889 8.88889 v 36.8254 36.8254 h 34.28571 34.28572 v -36.8254 -36.8254 h 8.88889 8.88889 v 92.69842 92.69841 h -8.88889 -8.88889 v -44.44445 -44.44444 h -34.28572 -34.28571 v 44.44444 44.44445 h -8.88889 -8.88889 z m 256.50794,24.12698 v -68.57143 h 7.61905 c 6.43385,0 7.61905,0.98766 7.61905,6.34921 0,7.7515 2.74783,8.05562 9.12419,1.00983 6.64321,-7.34069 17.17571,-12.44025 25.67031,-12.42891 9.0855,0.0122 22.6727,8.24866 24.8324,15.05337 1.8293,5.76362 5.1448,6.80831 7.8282,2.4666 0.9476,-1.5334 6.9531,-6.10483 13.3455,-10.15873 15.0185,-9.52448 27.6702,-9.79876 38.3278,-0.83093 12.8717,10.83077 15.4748,24.9744 15.4748,84.07988 v 51.60254 h -8.749 -8.7489 l -0.7749,-54.34258 c -0.7021,-49.24065 -1.2291,-54.8439 -5.6129,-59.68253 -7.5983,-8.38652 -21.4121,-7.16843 -33.0465,2.914 l -9.5245,8.25397 0.3061,51.42857 0.3062,51.42857 h -8.7987 -8.7987 l -0.8188,-52.81879 c -0.7037,-45.39199 -1.452,-53.78392 -5.3218,-59.68255 -6.4758,-9.87084 -20.1409,-9.48309 -34.3618,0.97502 l -10.659,7.83875 v 51.84379 51.84378 h -7.61905 -7.61905 z m 610.9096,47.76013 c -2.7298,-1.58349 -18.8534,-14.40589 -35.8301,-28.4942 C 1401.8102,165.23159 1237.1971,96.576633 1047.6191,78.812475 1011.6801,75.444861 928.93042,75.459947 891.42858,78.840953 713.30596,94.899721 539.49692,164.72325 407.11259,273.40307 c -10.89605,8.94502 -25.3422,20.80295 -32.10256,26.35094 -10.94367,8.9811 -13.78859,10.08726 -25.94336,10.08726 -11.63685,0 -14.97161,-1.15878 -22.59368,-7.85105 -10.10479,-8.87212 -14.96513,-22.70415 -12.43065,-35.37648 2.07456,-10.3728 11.39525,-19.75424 51.68894,-52.02582 C 491.07497,114.199 641.52808,45.256922 797.46032,16.756839 1074.9019,-33.951782 1359.8709,36.308526 1578.4127,209.30398 c 45.2359,35.80827 59.3562,49.33495 62.5187,59.89046 5.4461,18.17752 -3.3323,38.05933 -20.7903,47.08726 -8.4906,4.39063 -26.9631,4.76275 -33.9934,0.68478 z"
       id="path736" />
  </g>
</svg>
