<?xml version="1.0" encoding="UTF-8" standalone="no"?>
<!-- Created with Inkscape (http://www.inkscape.org/) -->

<svg
   version="1.1"
   id="svg446"
   width="2016.5079"
   height="2852.0635"
   viewBox="0 0 2016.5079 2852.0635"
   sodipodi:docname="sws-norfolk.svg"
   inkscape:version="1.2 (dc2aedaf03, 2022-05-15)"
   xmlns:inkscape="http://www.inkscape.org/namespaces/inkscape"
   xmlns:sodipodi="http://sodipodi.sourceforge.net/DTD/sodipodi-0.dtd"
   xmlns="http://www.w3.org/2000/svg"
   xmlns:svg="http://www.w3.org/2000/svg">
  <defs
     id="defs450" />
  <sodipodi:namedview
     id="namedview448"
     pagecolor="#ffffff"
     bordercolor="#000000"
     borderopacity="0.25"
     inkscape:showpageshadow="2"
     inkscape:pageopacity="0.0"
     inkscape:pagecheckerboard="0"
     inkscape:deskcolor="#d1d1d1"
     showgrid="false"
     inkscape:zoom="0.28190116"
     inkscape:cx="1009.219"
     inkscape:cy="1427.8054"
     inkscape:window-width="1920"
     inkscape:window-height="991"
     inkscape:window-x="-9"
     inkscape:window-y="-9"
     inkscape:window-maximized="1"
     inkscape:current-layer="g452" />
  <g
     inkscape:groupmode="layer"
     inkscape:label="Image"
     id="g452">
    <path
       style="fill:#000000;stroke-width:2.53968"
       d="m 895.72199,1947.8857 c -163.54694,-14.6472 -321.96416,-69.3643 -456.65894,-157.7293 -43.67304,-28.6513 -111.00927,-82.0156 -114.25244,-90.5458 -6.00081,-15.7833 -0.84185,-35.9602 11.72135,-45.8424 15.94273,-12.5406 36.30986,-8.7164 57.08779,10.7189 16.11744,15.076 66.36584,52.2085 95.02194,70.2192 117.60531,73.9164 246.29719,118.5997 388.81861,135.0024 41.7965,4.8103 151.9145,4.0611 195.5556,-1.3306 170.315,-21.0418 325.1187,-85.5833 457.2594,-190.6428 11.938,-9.4915 25.635,-18.3422 30.4376,-19.6682 23.1723,-6.3982 47.3733,13.7125 47.2985,39.3043 -0.054,18.3588 -5.1885,25.6665 -33.5722,47.7796 -137.2855,106.9557 -298.4664,173.9701 -476.0265,197.9181 -43.4402,5.8589 -160.0994,8.6311 -202.69071,4.8166 z m 743.41781,-299.3548 c -17.3577,-10.5846 -24.4923,-28.0682 -18.9723,-46.4923 1.8313,-6.1123 8.8599,-16.4184 17.6165,-25.831 52.0342,-55.933 102.5961,-131.0669 140.3711,-208.5885 l 19.8007,-40.635 -146.597,-1.2698 c -153.6321,-1.3308 -154.5186,-1.4003 -160.507,-12.5897 -4.3322,-8.0949 -2.9574,-19.7249 3.1745,-26.8537 l 5.7723,-6.7107 155.9057,0.3223 c 85.7482,0.1773 156.7461,0.8417 157.7731,1.4764 2.4594,1.52 20.5854,-55.439 30.0631,-94.4701 17.546,-72.2582 24.2563,-131.3496 24.1787,-212.92054 -0.081,-85.26088 -6.9257,-141.66499 -26.8125,-220.95238 -8.3284,-33.20506 -22.7283,-79.28003 -30.293,-96.92773 l -4.7782,-11.14707 -151.8067,0.21994 -151.8066,0.21993 -5.7143,-6.64149 c -8.7492,-10.16894 -7.8357,-24.43912 2.0996,-32.79919 l 7.8139,-6.57519 h 139.6588 139.6589 l -1.6753,-5.71428 c -7.3402,-25.03696 -74.8084,-134.07383 -109.7288,-177.33529 -29.1534,-36.11693 -33.5953,-51.00285 -21.4036,-71.72902 9.934,-16.88803 36.6928,-23.43967 53.1423,-13.0114 9.708,6.15443 52.3644,60.62504 80.4336,102.71063 158.2904,237.33277 205.1124,534.27725 127.1446,806.34918 -29.2003,101.8954 -69.0957,188.413 -127.0657,275.5556 -38.5375,57.931 -92.32,123.4091 -108.9085,132.5919 -10.5679,5.8501 -28.7264,5.7315 -38.5379,-0.2514 z M 254.59565,1628.5714 c -13.00888,-7.0662 -55.48217,-59.8915 -91.56172,-113.8781 C -1.9109676,1267.8827 -44.22082,952.45087 49.626148,669.20635 84.391402,564.27949 142.56088,456.09448 209.26395,372.30804 c 10.21215,-12.82758 19.94982,-25.90568 21.63928,-29.06248 7.53551,-14.08023 32.4955,-20.07352 48.70027,-11.69369 15.24709,7.88458 22.33712,31.33958 14.16521,46.86083 -1.83856,3.49206 -13.00877,18.34921 -24.82268,33.01587 -39.75086,49.34969 -71.27774,97.8881 -100.62471,154.92064 l -16.33541,31.74603 146.0264,1.26984 146.02641,1.26984 6.55205,6.15698 c 8.93438,8.39563 9.08226,23.28975 0.3183,32.05369 l -6.23375,6.23378 H 288.64111 c -146.21734,0 -156.14872,0.27962 -157.85467,4.44444 -18.99994,46.3855 -41.787442,133.41699 -51.036168,194.92064 -8.099165,53.85912 -11.002588,148.81727 -6.266134,204.93755 5.68609,67.3721 23.620655,155.5545 42.512712,209.0307 l 7.17775,20.3175 161.26984,1.2698 c 166.48706,1.3109 169.81948,1.5329 173.66946,11.5657 3.59431,9.3667 1.52985,21.7198 -4.66515,27.9148 l -6.23375,6.2338 H 294.7186 c -83.873,0 -152.49638,0.8713 -152.49638,1.9362 0,3.9119 36.03491,75.5757 49.93544,99.3083 21.52093,36.743 51.17872,79.6259 76.24043,110.2377 34.50425,42.1454 38.90494,49.0684 38.89399,61.1858 -0.0254,27.0007 -28.51626,43.3234 -52.69643,30.1891 z m 433.13089,-6.7356 c -35.62204,-9.5884 -55.85747,-42.0315 -55.72561,-89.3437 0.13993,-50.2582 22.04439,-82.0467 61.96731,-89.9296 l 9.52381,-1.8805 v 12.1605 c 0,11.4733 -0.46745,12.3147 -8.27319,14.8908 -11.47817,3.7882 -21.88864,14.1256 -28.10057,27.9036 -6.36777,14.1235 -7.50789,53.9388 -1.998,69.7744 4.54852,13.0726 18.82624,28.532 29.65041,32.1043 8.36435,2.7605 8.72135,3.3901 8.72135,15.3798 0,6.8758 -0.85714,12.4243 -1.90476,12.33 -1.04762,-0.094 -7.28495,-1.6196 -13.86075,-3.3896 z m 31.00361,-8.5906 c 0,-12.5286 0.0229,-12.5643 11.35634,-16.8922 21.43903,-8.1876 31.83019,-29.3431 31.80409,-64.7505 -0.0254,-34.2312 -8.14786,-50.8287 -29.91449,-61.1263 l -13.42073,-6.3492 0.72232,-11.4286 c 0.69925,-11.0637 0.96551,-11.4013 8.34135,-10.576 37.38637,4.1835 64.59104,41.9358 64.72224,89.8161 0.13663,49.8718 -23.64335,83.394 -65.35716,92.1328 l -8.25396,1.7291 z m 415.23805,8.5991 c -39.9232,-12.6261 -60.325,-48.3323 -56.4537,-98.8024 3.3897,-44.1914 27.8359,-74.967 64.7077,-81.4611 l 8.254,-1.4538 v 12.2899 c 0,12.2144 -0.07,12.3165 -11.3564,16.6269 -21.1989,8.0959 -31.8182,29.3407 -31.8182,63.6546 0,34.3139 10.6193,55.5587 31.8182,63.6546 11.2978,4.3147 11.3564,4.4008 11.3564,16.6905 0,13.618 -0.4751,13.8713 -16.508,8.8008 z m 34.2857,-9.3818 c 0,-11.595 0.5349,-12.6178 8.2937,-15.8596 10.5827,-4.4218 23.2255,-18.7881 27.55,-31.3057 1.851,-5.3579 3.3655,-20.0274 3.3655,-32.5988 0,-12.5714 -1.5145,-27.2409 -3.3655,-32.5988 -4.3245,-12.5176 -16.9673,-26.8839 -27.55,-31.3056 -7.6178,-3.1829 -8.2937,-4.3939 -8.2937,-14.8598 0,-10.4742 0.5151,-11.3945 6.3769,-11.3945 9.5809,0 27.4457,9.2894 38.1451,19.8349 26.9692,26.5811 33.2209,81.7766 13.7739,121.6092 -10.1742,20.8396 -26.0466,33.6272 -47.8081,38.5167 l -10.4878,2.3564 z M 403.80952,1503.4921 v -116.8254 l 24.7619,0.091 24.76191,0.091 49.5238,93.9591 49.52381,93.9591 0.66583,-94.0499 0.66583,-94.0498 h 15.20719 15.20718 v 116.8254 116.8254 l -19.68254,-0.031 -19.68254,-0.031 -54.60317,-103.1874 -54.60317,-103.1874 -0.66342,103.2185 -0.66339,103.2185 h -15.20962 -15.2096 v -116.8254 z m 434.2857,29.2063 v -87.619 h 15.2381 15.23809 v 12.8276 12.8277 l 8.25397,-6.1884 c 19.60378,-14.6978 47.1985,-22.6728 63.92523,-18.4747 6.10431,1.5321 6.55096,2.6537 6.55096,16.4494 v 14.8053 l -13.904,-2.1804 c -17.80043,-2.7914 -34.15428,0.7733 -51.49282,11.2241 l -13.33334,8.0365 v 62.9555 62.9555 h -15.23809 -15.2381 z m 139.68254,12.6984 v -74.9206 H 967.61903 957.4603 v -12.6984 -12.6984 h 10.15873 c 10.07825,0 10.15873,-0.077 10.15873,-9.6978 0,-13.2249 6.50177,-33.3411 13.37536,-41.383 12.91748,-15.1129 33.06928,-21.267 60.71878,-18.5424 l 17.3344,1.708 v 13.8113 c 0,11.9387 -0.6026,13.641 -4.4444,12.5558 -12.4287,-3.5109 -26.4949,-4.2373 -35.435,-1.83 -14.678,3.9524 -21.098,12.1285 -22.8496,29.0998 l -1.4737,14.2783 h 27.022 27.022 v 12.6984 12.6984 h -26.6667 -26.6666 v 74.9206 74.9207 h -13.96829 -13.96825 z m 307.30154,-46.9841 v -121.9048 h 13.9683 13.9682 v 121.9048 121.9048 h -13.9682 -13.9683 z m 88.8889,0 v -121.9048 h 13.9683 13.9682 v 77.4604 c 0,42.6031 0.8572,77.4477 1.9048,77.4322 1.0476,-0.015 20.565,-19.4439 43.3719,-43.1746 l 41.4672,-43.1465 h 18.1856 18.1856 l -40.5423,40.6018 -40.5423,40.6018 11.4925,12.0966 c 6.3209,6.6531 26.1274,27.8109 44.0144,47.0172 l 32.5219,34.9207 -19.9503,-0.1174 -19.9502,-0.1173 -22.8572,-25.2447 c -12.5714,-13.8846 -28.2414,-31.2498 -34.8222,-38.5894 l -11.9651,-13.3447 -10.2571,10.0159 -10.2572,10.0158 v 28.6909 28.6909 h -13.9682 -13.9683 V 1498.4128 Z M 498.61203,1319.6346 c -9.29717,-7.9971 -9.95571,-24.0227 -1.34118,-32.6376 l 5.72688,-5.7272 L 969.59409,1280 c 351.62941,-0.9569 468.57971,-0.5406 474.64591,1.6898 12.4788,4.5881 17.4664,19.2399 10.7936,31.708 -6.8762,12.8485 14.0578,12.3165 -484.6517,12.3165 H 505.68007 Z M 302.5075,1143.9224 c -47.63157,-12.8097 -80.53593,-50.8758 -92.00346,-106.4361 -9.34874,-45.29475 -5.08997,-121.31538 8.97283,-160.16851 20.76944,-57.38242 64.88699,-97.62387 119.57074,-109.06547 20.6352,-4.31754 69.32198,-4.98171 83.1746,-1.13465 l 9.52381,2.6449 v 23.03383 c 0,22.58803 -0.11073,23.0081 -5.71428,21.70339 -46.83906,-10.90558 -58.75606,-11.10995 -89.52381,-1.53524 -35.565,11.06755 -61.04396,39.9092 -74.71141,84.57176 -4.67272,15.26951 -5.42588,24.62565 -5.82677,72.38095 -0.30614,36.46944 0.58656,58.99874 2.66448,67.24344 8.14517,32.3183 29.21303,58.1826 54.13562,66.4605 9.34839,3.1051 18.30806,3.9744 32.30537,3.1345 33.20523,-1.9924 55.76327,-17.9103 65.69592,-46.3578 6.18403,-17.7112 6.1246,-56.7373 -0.11098,-72.89593 -5.17839,-13.41905 -22.59916,-30.9315 -36.5809,-36.77346 -11.8095,-4.93432 -49.10255,-7.22176 -66.14271,-4.05696 l -13.33333,2.47631 v -18.45247 -18.45247 l 8.19469,-2.85668 c 13.64214,-4.75569 49.89077,-6.20175 70.08328,-2.79584 37.10151,6.25798 69.39024,29.33539 83.1761,59.44765 3.39799,7.42219 7.47703,22.67946 9.06453,33.90504 9.58723,67.79331 -28.93199,127.37441 -93.16381,144.10471 -18.49915,4.8184 -51.28769,4.7592 -69.45046,-0.1255 z m 309.55598,-0.028 c -34.76366,-9.2273 -62.85592,-30.7091 -76.55873,-58.5434 -9.50887,-19.3153 -12.52383,-48.1776 -7.41656,-70.9993 3.43932,-15.36851 19.61344,-41.41953 30.55152,-49.20815 l 7.1677,-5.10385 14.87408,6.56414 c 8.18072,3.61026 15.28444,6.96406 15.78603,7.45288 0.50159,0.48881 -1.54045,4.33282 -4.53783,8.5423 -11.44112,16.06753 -16.27827,31.17908 -16.34146,51.05158 -0.0764,24.0232 7.01994,41.3264 22.98344,56.041 18.06939,16.6558 30.91266,21.2846 59.25951,21.3573 22.22331,0.057 25.54021,-0.6074 40.98153,-8.2092 27.68833,-13.6309 39.38916,-34.7355 37.08813,-66.8953 -2.34832,-32.8207 -17.52287,-46.28469 -79.57679,-70.60659 -59.12452,-23.17372 -85.57021,-36.35337 -98.08167,-48.88071 -17.5502,-17.57245 -21.09953,-27.12302 -21.09953,-56.77476 0,-21.83378 0.87553,-27.17833 6.24058,-38.09524 38.57791,-78.49864 188.20939,-79.75675 226.5487,-1.90481 4.96457,10.08107 5.94087,16.0285 5.94087,36.19053 0,22.52612 -0.56129,25.16173 -8.45953,39.72178 -4.65272,8.57714 -11.59797,18.60165 -15.43388,22.27667 l -6.97437,6.68188 -15.04231,-6.63853 c -8.27325,-3.6512 -15.44701,-7.03281 -15.94169,-7.51472 -0.49468,-0.48188 2.25407,-7.32162 6.10829,-15.19939 10.04366,-20.52848 11.38712,-46.38948 3.2286,-62.14831 -6.92084,-13.36813 -23.32178,-26.57514 -38.38555,-30.91033 -5.87777,-1.69155 -19.98824,-3.08503 -31.3566,-3.09661 -18.06991,-0.0178 -22.71045,0.9836 -36.89437,7.96633 -24.13382,11.88104 -34.82631,29.9972 -31.59959,53.53874 3.82278,27.89021 31.0929,48.29595 90.43354,67.66979 7.68254,2.50822 26.62736,10.6178 42.09956,18.02131 48.49605,23.20543 66.8563,45.71459 69.11504,84.73307 3.11454,53.8021 -32.14593,98.0736 -90.14333,113.18 -18.6559,4.8592 -65.82301,4.7142 -84.56333,-0.2601 z m 655.50382,0.023 c -55.5244,-14.9313 -81.9535,-59.9369 -89.5765,-152.53804 -3.464,-42.07769 -0.2215,-92.91111 8.1573,-127.88732 14.2086,-59.31159 48.2694,-93.81209 97.1399,-98.3939 l 14.7165,-1.37974 -0.7483,19.93918 -0.7483,19.93917 -9.6063,1.9886 c -20.569,4.25796 -33.3608,14.66707 -44.1628,35.93679 -11.7879,23.21092 -14.4635,44.97013 -14.4125,117.208 0.042,59.74046 0.5705,67.94666 5.5452,86.13036 9.8682,36.0705 25.4103,54.6343 50.429,60.2333 l 13.4773,3.016 v 19.9134 19.9133 l -8.254,-0.1671 c -4.5397,-0.092 -14.4201,-1.8253 -21.9565,-3.852 z m 47.9882,-16.2619 v -20.2809 l 11.4075,-2.8724 c 6.6583,-1.6766 16.0023,-6.9169 22.444,-12.5871 23.0606,-20.2988 32.1397,-58.2693 32.1653,-134.5215 0.031,-91.48228 -11.4299,-129.67786 -43.7414,-145.77937 -7.2127,-3.59424 -15.1753,-6.53496 -17.6946,-6.53496 -4.0393,0 -4.5808,-2.44305 -4.5808,-20.66713 v -20.66712 l 14.6032,1.65661 c 32.2154,3.65455 62.3459,26.24165 78.2337,58.64724 31.6546,64.5648 32.2749,195.90543 1.2384,262.23253 -13.7271,29.3356 -38.1116,49.4464 -70.0371,57.7619 -24.7003,6.4336 -24.0382,6.8851 -24.0382,-16.3878 z m -423.13299,8.6555 c 0.8845,-2.305 40.45125,-75.385 87.92615,-162.40006 47.47484,-87.01509 86.31794,-158.88501 86.31794,-159.71094 0,-0.82593 -47.4747,-1.50169 -105.49948,-1.50169 H 855.66759 l 0.73763,-20.95238 0.73762,-20.95238 126.34921,-0.65864 126.34915,-0.65861 -0.077,28.59512 -0.077,28.59515 -83.2206,156.19048 -83.22068,156.19045 -26.21567,0.7272 c -23.4913,0.6516 -26.04856,0.2916 -24.60749,-3.4637 z m 644.08539,-15.0413 v -19.0476 h 38.0952 38.0953 V 977.77778 853.33334 h -38.0953 -38.0952 v -16.14279 -16.1428 l 20.1199,-1.67792 c 11.0659,-0.92287 25.0497,-3.41729 31.0751,-5.54319 17.888,-6.31123 32.6145,-23.39159 32.6145,-37.8275 0,-6.40104 0.2331,-6.47533 20.3175,-6.47533 h 20.3175 v 166.34921 166.34918 h 36.8253 36.8254 v 19.0476 19.0477 h -99.0476 -99.0476 z M 506.11842,645.549 c -7.83668,-1.11431 -18.49938,-14.59012 -18.49938,-23.38001 0,-4.03682 2.73171,-10.45844 6.12917,-14.40833 l 6.12919,-7.12574 466.88667,-0.74682 c 329.49883,-0.52703 469.68483,0.0622 476.39573,2.00229 6.3588,1.83835 10.7759,5.19911 13.3333,10.14451 5.5067,10.64866 4.7557,16.69658 -3.1598,25.44751 l -6.9841,7.72127 -467.3016,0.57275 c -257.01587,0.31503 -469.834,0.21257 -472.92918,-0.22755 z m -61.67398,-92.62234 -13.96826,-5.64745 -0.76924,-14.84627 -0.76925,-14.84625 11.12671,7.99061 c 31.96188,22.95329 66.3842,16.33356 69.73684,-13.41108 1.15961,-10.288 0.47898,-12.43332 -5.99256,-18.88825 -5.0046,-4.99175 -12.78951,-8.65763 -24.75251,-11.6558 -36.76152,-9.21323 -47.31015,-20.46181 -47.31015,-50.4495 0,-19.71398 5.41931,-30.88038 20.00465,-41.21935 9.28528,-6.58197 12.69532,-7.48787 27.67375,-7.35172 10.40412,0.0947 22.04838,2.06309 29.78192,5.03472 l 12.69841,4.87939 0.76765,13.26595 c 0.72127,12.46449 -1.92455,17.07294 -6.00833,10.46525 -3.25905,-5.27325 -27.76732,-14.92744 -37.93392,-14.94276 -23.24724,-0.035 -37.22791,20.06245 -27.62926,39.71762 4.94659,10.12914 10.67398,12.92071 43.53562,21.21963 25.05041,6.32625 37.51553,29.34875 31.19121,57.60876 -3.49686,15.62565 -13.33607,28.52064 -26.54448,34.78844 -12.60988,5.98378 -37.74519,5.19912 -54.8388,-1.71194 z m 270.47618,0.0475 c -7.58123,-4.23327 -12.09186,-9.53877 -17.77778,-20.91061 -6.98039,-13.96078 -7.60883,-17.36693 -7.49727,-40.63492 0.0968,-20.17371 1.20714,-27.74722 5.39924,-36.82539 9.90601,-21.45189 24.95218,-31.85275 43.11718,-29.80531 22.84526,2.57501 33.98073,18.31096 35.91838,50.75769 l 1.17541,19.68254 h -25.72312 -25.72315 v -8.88889 -8.88889 h 18.10237 18.10238 l -1.64218,-10.26964 c -2.03053,-12.69823 -5.84892,-19.03715 -13.59282,-22.56551 -8.11629,-3.69803 -14.79388,-3.41788 -23.29308,0.97724 -11.15007,5.76592 -15.56393,18.12867 -15.81013,44.28211 -0.18311,19.44061 0.66669,24.38324 5.78489,33.6509 10.36391,18.7663 31.27319,22.23538 51.45821,8.53745 l 9.14433,-6.20557 v 11.47622 c 0,11.03975 -0.41049,11.66253 -10.79365,16.37562 -14.78771,6.71238 -33.53351,6.41102 -46.34921,-0.74509 z m 104.12698,0.14476 c -7.49917,-4.2943 -12.15339,-9.8066 -17.77777,-21.05534 -6.7725,-13.54497 -7.61905,-17.77778 -7.61905,-38.09524 0,-29.14369 5.47573,-45.84919 19.04747,-58.11042 12.06905,-10.90365 25.03075,-13.86106 39.16236,-8.93547 17.10214,5.96096 26.82793,25.41318 26.85536,53.71256 l 0.0142,14.6031 h -25.39682 -25.39683 v -8.88889 -8.88889 h 17.77778 c 17.45021,0 17.77778,-0.12165 17.77778,-6.60031 0,-3.63017 -1.76937,-10.32896 -3.93191,-14.88619 -9.35995,-19.72463 -35.45062,-18.04041 -45.88437,2.96193 -7.2162,14.52569 -6.13783,50.02359 1.96538,64.69618 10.33819,18.71951 31.26545,22.10798 51.54489,8.346 l 9.28422,-6.30044 -0.77481,12.06181 c -0.67718,10.54187 -1.73493,12.528 -8.39388,15.7611 -4.19047,2.03461 -14.47619,4.08998 -22.85714,4.56746 -12.28447,0.69991 -17.20719,-0.25938 -25.39683,-4.94903 z m 100.1695,1.87416 c -11.76287,-6.39789 -13.58794,-14.27459 -14.58121,-62.92958 -0.86623,-42.43243 -1.20645,-45.07936 -5.79395,-45.07936 -3.99286,0 -4.8737,-1.83601 -4.8737,-10.15873 0,-8.4656 0.84655,-10.15873 5.07936,-10.15873 4.59561,0 5.07937,-1.69313 5.07937,-17.77778 v -17.77778 h 7.61905 7.61904 v 17.77778 17.77778 h 16.50794 16.50794 v 10.15873 10.15873 H 935.873 919.36506 v 36.90697 c 0,41.49407 2.74344,52.74725 13.51873,55.45168 3.54542,0.88986 9.38268,0.50146 12.97168,-0.86306 6.30873,-2.39858 6.52547,-2.15548 6.52547,7.31868 0,8.01575 -1.04023,10.07843 -5.71429,11.33102 -9.33912,2.50281 -20.51995,1.63256 -27.44955,-2.13643 z m 260.8745,-3.86339 c -13.6989,-12.02776 -20.1052,-30.06484 -20.2987,-57.15109 -0.1122,-15.70768 1.2693,-27.09803 4.4124,-36.37958 4.79,-14.14504 17.4768,-29.20239 26.6193,-31.59322 4.7002,-1.22913 5.3659,-0.30971 5.3659,7.41189 0,6.55464 -1.8392,10.36259 -7.172,14.8499 -9.0552,7.61943 -13.1494,21.16843 -13.1313,43.45572 0.018,22.79457 3.5001,34.62306 12.7653,43.36785 5.3548,5.05412 7.538,9.50753 7.538,15.37686 0,10.53633 -4.6353,10.72686 -16.0989,0.66167 z m 31.3369,-2.28653 c 0,-6.59012 1.3135,-10.39106 3.9391,-11.39858 13.745,-5.27444 19.4962,-56.85254 8.8025,-78.94275 -2.9457,-6.08511 -7.0177,-11.70149 -9.0487,-12.48089 -2.266,-0.86954 -3.6929,-4.88239 -3.6929,-10.38568 0,-12.07538 5.7103,-11.80185 17.7458,0.85001 12.1176,12.73833 16.5429,28.46844 16.5285,58.75284 -0.01,21.25198 -0.857,25.85145 -7.1066,38.59873 -6.1493,12.54245 -18.8322,24.89333 -25.5626,24.89333 -0.8828,0 -1.6051,-4.44917 -1.6051,-9.88701 z m 250.216,4.227 c -7.2384,-4.20338 -12.2534,-10.07388 -17.6944,-20.71287 -6.7857,-13.26839 -7.5953,-17.31365 -7.6143,-38.04657 -0.027,-29.60856 5.3376,-46.19815 18.9021,-58.45288 11.5541,-10.43843 24.3787,-13.60084 38.2736,-9.43782 17.5477,5.25743 27.7159,25.12717 27.7441,54.21491 l 0.014,14.60318 h -25.3968 -25.3968 v -8.88889 -8.88889 h 17.7777 c 17.4503,0 17.7778,-0.12165 17.7778,-6.60031 0,-3.63017 -1.7694,-10.32896 -3.9319,-14.88619 -9.3617,-19.72826 -35.5572,-18.03403 -45.7966,2.96193 -6.8926,14.1332 -6.2447,47.02321 1.2304,62.46471 5.7904,11.96134 16.9885,19.60439 28.5645,19.49615 7.0114,-0.0655 26.1612,-8.33661 28.6591,-12.37818 3.7243,-6.02611 6.5126,-2.27817 6.5126,8.75403 0,10.93105 -0.5167,11.78154 -9.5238,15.67527 -5.2381,2.26441 -16.3809,4.53814 -24.7619,5.05273 -12.4159,0.76231 -17.109,-0.15086 -25.3396,-4.93031 z M 567.64804,550.4762 c -0.73569,-3.14286 -5.9697,-29.71428 -11.63114,-59.04762 -5.66146,-29.33333 -10.94036,-55.98796 -11.73092,-59.23253 -1.31476,-5.39589 -0.70575,-5.82923 7.13831,-5.07937 l 8.5757,0.81984 5.64061,31.74603 c 3.10235,17.46032 7.15253,39.74603 9.00043,49.52381 l 3.3598,17.77778 9.62321,-40.63492 c 15.14268,-63.94141 13.67208,-59.68254 20.60843,-59.68254 7.05686,0 6.0578,-2.83251 20.37158,57.75682 5.3596,22.68689 10.05532,40.93831 10.4349,40.55871 0.37958,-0.37958 4.2305,-21.70438 8.55761,-47.38845 4.32709,-25.68409 8.45549,-47.64977 9.17422,-48.81269 2.51368,-4.06723 13.7054,-2.32041 13.7054,2.13917 0,2.33945 -5.27566,31.48231 -11.72368,64.7619 l -11.72371,60.50835 h -7.20455 c -8.24932,0 -6.57762,4.38062 -21.55563,-56.48562 -5.41074,-21.9877 -10.59517,-38.55913 -11.52094,-36.82539 -0.92579,1.73376 -6.49478,23.43799 -12.37554,48.23164 l -10.69232,45.07937 h -7.3471 c -5.52972,0 -7.67791,-1.41346 -8.68467,-5.71429 z m 468.54246,-79.36508 v -85.07936 h 7.619 7.6191 v 33.01587 33.01587 h 31.746 31.746 v -33.01587 -33.01587 h 8.8889 8.8889 v 85.07936 85.07937 h -8.8889 -8.8889 v -41.90476 -41.90477 h -31.746 -31.746 v 41.90477 41.90476 h -7.6191 -7.619 z m 236.1904,20.31746 v -64.7619 H 1280 c 6.8718,0 7.619,0.79378 7.619,8.09419 v 8.0942 l 6.9842,-6.51403 c 9.4351,-8.80008 16.6101,-12.21404 25.6699,-12.21404 8.2585,0 23.2189,10.78184 23.2189,16.73368 0,1.97108 1.1429,3.58378 2.5397,3.58378 1.3968,0 2.5397,-1.03515 2.5397,-2.30035 0,-4.27517 23.673,-18.01711 31.0377,-18.01711 12.0116,0 21.2653,6.46473 26.2166,18.31512 3.7035,8.86402 4.7619,20.46367 5.6863,62.3198 l 1.1357,51.42857 h -9.181 -9.181 v -49.18131 c 0,-45.90984 -0.3502,-49.62644 -5.2637,-55.87302 -7.037,-8.94613 -16.6786,-8.64208 -29.9108,0.94327 l -10.5398,7.63497 v 48.23804 48.23805 h -7.471 -7.471 l -0.783,-50.53351 c -0.7047,-45.48328 -1.2664,-51.06715 -5.621,-55.87302 -7.797,-8.60513 -20.6401,-6.49089 -33.8921,5.5793 -5.5392,5.04528 -5.7143,6.66916 -5.7143,53.01595 v 47.81128 H 1280 1272.3809 Z M 887.42175,334.07535 c -21.31421,-9.00797 -33.07137,-38.8324 -30.99055,-78.61376 1.84497,-35.27221 13.66105,-57.12611 34.36243,-63.55351 5.2032,-1.6155 5.71429,-0.94861 5.71429,7.4564 0,7.20074 -1.89171,11.01469 -8.60241,17.34369 -10.28244,9.6976 -14.22146,22.32716 -14.24056,45.65927 -0.0229,28.1968 7.77656,48.80089 20.01821,52.88145 2.04391,0.6813 2.88523,4.80731 2.36406,11.5938 l -0.80914,10.53608 z m 315.11795,2.0319 c -2.7937,-0.58682 -7.6797,-1.62286 -10.8577,-2.30232 -9.4693,-2.02456 -25.333,-18.33151 -30.2638,-31.10926 -3.431,-8.89112 -4.5928,-18.96922 -4.5928,-39.83853 0,-25.52099 0.6209,-29.20098 7.1812,-42.56078 9.6456,-19.64281 20.8586,-27.96825 39.4163,-29.26591 11.8707,-0.83007 15.8931,0.0246 23.2437,4.93893 12.9746,8.67421 20.5018,25.74326 22.1855,50.30898 l 1.3975,20.38831 h -29.5693 -29.5692 v -8.88889 -8.88889 h 20.3174 20.3175 v -7.70062 c 0,-13.44003 -6.5712,-25.13661 -16.4379,-29.2592 -15.3784,-6.42551 -31.1002,1.11651 -38.4926,18.46555 -4.8446,11.3699 -4.5677,49.07517 0.4486,61.08086 11.0049,26.33862 34.7792,32.07164 60.5302,14.59652 l 9.1898,-6.23639 v 12.7647 c 0,12.59535 -0.1432,12.82631 -10.7936,17.41071 -12.0499,5.18677 -25.9726,7.70903 -33.6508,6.09623 z m -290.79368,-9.56269 c 0,-6.21054 2.1077,-10.80122 7.37963,-16.07314 9.46336,-9.46337 12.906,-22.21517 12.92365,-47.87023 0.0178,-24.28894 -3.07187,-34.99718 -13.19812,-45.75803 -5.91616,-6.28691 -7.2852,-9.79696 -6.64353,-17.03306 l 0.80821,-9.11431 8.50986,4.14088 c 17.76678,8.64525 28.31553,34.43755 28.31553,69.23299 0,29.90418 -5.26128,46.62185 -18.99456,60.35513 -13.47386,13.47388 -19.10067,14.09833 -19.10067,2.11977 z M 721.26983,240 v -92.69841 h 8.88889 8.88889 v 36.82539 36.8254 h 34.28571 34.28571 v -36.8254 -36.82539 h 10.15873 10.15873 V 240 332.69841 h -10.15873 -10.15873 v -45.71428 -45.71429 h -34.28571 -34.28571 v 45.71429 45.71428 h -8.88889 -8.88889 z m 256.50793,22.85714 v -69.84127 h 8.88889 c 8.29938,0 8.88889,0.53681 8.88889,8.0942 v 8.0942 l 6.98416,-6.51404 c 9.8399,-9.17768 16.6598,-12.21404 27.4334,-12.21404 7.5436,0 11.3418,1.98723 19.6193,10.26466 l 10.2646,10.26467 7.8493,-7.42024 c 10.7628,-10.17455 17.2383,-13.10909 28.9271,-13.10909 12.6376,0 21.4024,6.72591 27.242,20.90484 3.626,8.80424 4.698,21.21989 5.7056,66.07929 l 1.2407,55.23809 h -8.9637 -8.9638 l -0.8916,-52.813 c -0.7647,-45.30158 -1.532,-53.79002 -5.3945,-59.68253 -7.2218,-11.01723 -24.7471,-9.21182 -39.3065,4.04925 -5.5678,5.07127 -5.7143,6.52808 -5.7143,56.82548 v 51.6208 h -8.8889 -8.8889 v -52.23045 c 0,-62.94204 -1.2665,-67.01496 -20.864,-67.09574 -6.967,-0.0287 -11.784,2.02316 -18.4127,7.84325 l -8.97726,7.88214 v 51.8004 51.8004 h -8.88889 -8.88889 z m 608.25394,54.25745 c -2.7936,-1.66334 -15.3651,-11.79924 -27.9365,-22.52424 C 1497.8325,243.17872 1437.5581,203.41072 1367.619,168.91743 1274.8464,123.16283 1187.2472,96.535096 1083.1746,82.454113 1041.1175,76.763805 941.66596,74.704828 896.0781,78.580595 715.91338,93.897753 544.48743,162.11641 408.41261,272.64622 c -14.00751,11.37791 -30.07149,24.4014 -35.69772,28.94108 -8.67551,7.00008 -12.28572,8.25397 -23.76478,8.25397 -11.50659,0 -14.8755,-1.17671 -22.47713,-7.85105 -12.24048,-10.7473 -15.93008,-24.69861 -10.37711,-39.23878 4.25188,-11.13341 27.84998,-32.44773 76.28508,-68.90238 C 527.97241,91.796249 690.37083,27.725778 868.57141,5.9793542 c 51.32094,-6.26286965 162.05439,-6.26125731 213.28539,0.0031 185.3113,22.6592748 348.7159,88.4312468 487.667,196.2907858 63.5543,49.3335 73.6508,60.02058 73.6508,77.95929 0,10.31353 -8.6507,27.19162 -17.0644,33.29379 -8.1426,5.90555 -32.5207,8.08816 -40.0785,3.58827 z"
       id="path456" />
  </g>
</svg>
