<?xml version="1.0" encoding="UTF-8" standalone="no"?>
<!-- Created with Inkscape (http://www.inkscape.org/) -->

<svg
   version="1.1"
   id="svg59"
   width="1562.0339"
   height="1562.0339"
   viewBox="0 0 1562.0339 1562.0339"
   sodipodi:docname="sws-wauneta.svg"
   inkscape:version="1.2 (dc2aedaf03, 2022-05-15)"
   xmlns:inkscape="http://www.inkscape.org/namespaces/inkscape"
   xmlns:sodipodi="http://sodipodi.sourceforge.net/DTD/sodipodi-0.dtd"
   xmlns="http://www.w3.org/2000/svg"
   xmlns:svg="http://www.w3.org/2000/svg">
  <defs
     id="defs63" />
  <sodipodi:namedview
     id="namedview61"
     pagecolor="#ffffff"
     bordercolor="#000000"
     borderopacity="0.25"
     inkscape:showpageshadow="2"
     inkscape:pageopacity="0.0"
     inkscape:pagecheckerboard="0"
     inkscape:deskcolor="#d1d1d1"
     showgrid="false"
     inkscape:zoom="0.49614799"
     inkscape:cx="781.01697"
     inkscape:cy="781.01697"
     inkscape:window-width="1920"
     inkscape:window-height="991"
     inkscape:window-x="-9"
     inkscape:window-y="-9"
     inkscape:window-maximized="1"
     inkscape:current-layer="g65" />
  <g
     inkscape:groupmode="layer"
     inkscape:label="Image"
     id="g65">
    <path
       style="fill:#000000;stroke-width:2.0339"
       d="m 734.23729,1560.6216 c -44.24215,-2.6097 -106.07496,-12.5518 -149.73305,-24.0755 -109.64532,-28.9413 -206.20365,-77.8512 -296.13787,-150.0036 -25.47983,-20.442 -28.0533,-23.1131 -29.61318,-30.7362 -3.43588,-16.7912 4.76651,-31.5152 20.1187,-36.1149 12.77373,-3.8271 19.76489,-0.9797 39.97393,16.2808 76.12537,65.0184 184.44057,119.4102 286.20274,143.7202 61.49132,14.6897 106.59458,19.9584 170.88364,19.9619 71.85704,0 130.77238,-7.8862 195.88469,-26.2331 89.65551,-25.2626 179.93051,-71.3425 250.39281,-127.8104 10.5374,-8.4446 22.2666,-16.3794 26.0648,-17.6329 18.8027,-6.2055 39.1831,9.7347 39.1831,30.6462 0,18.1524 -11.6642,29.8944 -67.1623,67.6104 -142.9797,97.1677 -314.25104,144.5214 -486.05801,134.3871 z m 577.81411,-240.9489 c -10.2789,-7.0548 -14.8912,-14.4673 -15.8379,-25.4534 -1.0898,-12.6472 1.1663,-16.4966 27.3925,-46.7371 38.9318,-44.8909 73.7056,-97.7953 100.3337,-152.6462 7.7145,-15.891 14.0264,-29.8486 14.0264,-31.0169 0,-1.451 -36.1153,-2.1242 -113.9636,-2.1242 -121.4801,0 -124.7964,-0.2517 -129.9405,-9.8636 -3.586,-6.7005 -2.5451,-15.9462 2.4488,-21.752 l 4.6465,-5.4018 126.4075,0.2982 126.4076,0.2982 7.0957,-21.959 c 23.56,-72.91076 34.451,-142.70201 34.5312,-221.281 0.068,-66.72246 -6.4715,-120.62091 -21.8869,-180.39177 -6.7065,-26.0038 -21.9665,-74.02056 -25.9057,-81.51458 -1.7802,-3.38656 -9.117,-3.59339 -123.0645,-3.46901 -113.7891,0.12427 -121.4184,-0.0901 -125.2242,-3.51739 -6.248,-5.62665 -8.0962,-12.41701 -5.5113,-20.24914 C 1198.344,479.74971 1195.9196,480 1318.882,480 c 61.0217,0 110.9485,-0.47288 110.9485,-1.05083 0,-0.57796 -5.0463,-11.11294 -11.2141,-23.41109 -21.5785,-43.02634 -50.9418,-88.71441 -80.7186,-125.59493 -20.6057,-25.52154 -23.8825,-38.41773 -13.914,-54.75966 7.8002,-12.78734 28.8865,-17.77952 41.8199,-9.90091 6.8791,4.19054 35.4,39.88271 57.5857,72.06516 61.9426,89.85364 105.8804,195.56408 125.2317,301.29633 9.6874,52.93062 12.2232,82.46695 12.2232,142.37288 0,59.90593 -2.5358,89.44226 -12.2232,142.37288 -23.9182,130.68527 -83.6532,257.05657 -170.0851,359.82047 -28.9038,34.3655 -34.7954,39.2328 -48.855,40.3612 -8.7705,0.7039 -11.9468,0 -17.6296,-3.8988 z M 204.25456,1304.152 c -7.15594,-3.9751 -14.0162,-11.482 -36.63958,-40.0933 C 55.580223,1122.371 -4.8646109,940.11803 0.66700784,760.67797 5.5372883,602.69103 54.517609,455.56369 144.00532,330.11754 c 29.57796,-41.46311 46.60013,-62.75921 52.20547,-65.31317 7.40808,-3.37534 20.44655,-3.03745 27.70897,0.7181 12.73362,6.58481 17.74163,24.41447 10.71221,38.13786 -1.83378,3.58004 -7.61867,11.54306 -12.85533,17.6956 -15.28127,17.95396 -33.37161,42.56654 -49.53792,67.39823 -15.20403,23.35362 -41.23098,69.5788 -47.08127,83.61872 L 121.97931,480 H 237.78275 353.5862 l 6.25774,5.26554 c 8.2343,6.9287 8.80497,18.81283 1.26545,26.35232 l -4.99228,4.99231 H 231.08603 106.05498 l -4.38821,11.69492 c -18.276047,48.70704 -32.109498,104.47602 -39.729907,160.16949 -4.530952,33.1143 -6.192122,115.1209 -3.079792,152.03947 4.51137,53.51404 16.806316,114.86341 32.302044,161.18085 l 7.484953,22.3729 130.858392,1.0169 130.85841,1.017 3.88735,4.8016 c 4.40087,5.4358 5.09756,17.8604 1.28032,22.8323 -6.01104,7.8291 -8.16162,7.9593 -131.49653,7.9593 -66.07353,0 -120.1337,0.7291 -120.1337,1.6203 0,4.4901 36.33951,73.8932 50.62262,96.6818 19.48767,31.0924 31.54498,47.8267 55.59304,77.1578 22.2593,27.1494 25.97054,33.1774 25.98012,42.199 0.0226,21.3037 -23.27386,35.1115 -41.83953,24.7982 z m 349.98273,-30.6687 c -20.41355,-12.6783 -24.95536,-38.5442 -9.72763,-55.3995 8.06939,-8.9318 20.01136,-13.5154 41.07747,-15.7663 L 600,1200.7775 v 7.5125 7.5125 l -11.69491,1.4244 c -14.34171,1.7467 -27.88951,7.4379 -30.84301,12.9566 -3.82831,7.1532 -2.622,17.9217 2.70081,24.1099 4.49823,5.2295 6.08455,5.7066 18.97306,5.7066 12.13181,0 15.43989,-0.852 24.0744,-6.2003 l 10.00999,-6.2003 v -29.859 c 0,-29.8348 -0.004,-29.8637 -5.57174,-35.427 -4.75703,-4.7537 -7.60442,-5.6827 -19.47261,-6.3533 -8.61811,-0.487 -18.73692,0.4535 -26.62641,2.4747 -6.99907,1.793 -13.56691,3.2601 -14.59521,3.2601 -1.0283,0 -1.86962,-4.0428 -1.86962,-8.984 v -8.984 l 10.2696,-2.2024 c 13.24157,-2.8398 41.35403,-2.8113 51.66886,0.052 10.28138,2.8545 20.40983,12.9829 23.26428,23.2643 1.2801,4.6108 2.23703,25.6075 2.24353,49.2266 l 0.0113,41.1864 h -9.15254 c -8.76205,0 -9.15254,-0.2539 -9.15254,-5.951 v -5.9509 l -13.36812,6.9679 c -11.33596,5.9087 -15.43269,6.9668 -26.94916,6.9603 -9.69927,-0.01 -15.32501,-1.0907 -19.68272,-3.7972 z m 134.23729,1.0583 c -16.65564,-7.6415 -19.12257,-16.6157 -19.23277,-69.9653 l -0.0893,-43.2204 h 9.00529 9.00527 l 0.65575,42.5685 c 0.60602,39.3412 0.97568,42.9966 4.87598,48.2153 8.08192,10.8138 27.20724,10.6304 44.08483,-0.4227 l 7.62712,-4.9951 v -42.683 -42.683 h 10.16949 10.16949 v 56.9492 56.9491 h -10.16949 c -9.91196,0 -10.16949,-0.1523 -10.16949,-6.0177 v -6.0176 l -10.45826,6.5012 c -8.79932,5.4699 -12.75153,6.59 -24.91526,7.0611 -9.09293,0.3521 -16.72094,-0.4788 -20.55868,-2.2396 z m 276.335,0.5315 c -12.08195,-3.5016 -25.70856,-14.5128 -31.16504,-25.1833 -6.61684,-12.9396 -8.18495,-37.908 -3.41192,-54.3266 7.67497,-26.401 34.14547,-41.5824 62.97179,-36.1156 23.27349,4.4137 35.89039,20.9758 35.92829,47.1626 l 0.02,13.7288 h -35.59321 -35.59322 v -7.1187 -7.1186 h 26.44068 26.44065 l -0.01,-6.6102 c -0.034,-29.5678 -46.49246,-35.4842 -60.50088,-7.7046 -5.08401,10.0819 -6.19954,29.7442 -2.45286,43.2347 7.76459,27.9576 39.56445,33.7829 77.70714,14.2348 0.8389,-0.43 1.5254,3.8339 1.5254,9.4754 v 10.2573 l -13.4346,4.1495 c -14.23166,4.3957 -37.24009,5.3064 -48.87448,1.9345 z m 114.17352,-0.6375 c -15.9347,-7.0338 -19.1196,-17.2552 -19.2328,-61.7237 l -0.089,-35.0848 h -6.1017 c -5.7627,0 -6.1017,-0.452 -6.1017,-8.1356 0,-7.6836 0.339,-8.1356 6.1017,-8.1356 h 6.1017 v -16.2712 -16.2711 h 9.1526 9.1525 v 16.2711 16.2712 h 20.339 20.339 v 8.1356 8.1356 h -20.339 -20.339 l 0.1212,27.9661 c 0.1406,32.4153 1.9677,46.1806 6.767,50.9811 3.7208,3.7219 20.9582,4.7622 29.2135,1.7632 4.3079,-1.565 4.5762,-1.1333 4.5762,7.361 0,8.8471 -0.149,9.0481 -7.6271,10.2842 -12.1507,2.0084 -25.4322,1.3669 -32.0339,-1.5471 z m 72.1827,-1.7237 c -3.6982,-2.517 -8.5443,-7.034 -10.7691,-10.0378 -7.8464,-10.5939 -7.8613,-31.2103 -0.03,-42.0466 6.2152,-8.6003 23.9048,-16.2897 41.837,-18.1859 l 15.7627,-1.6668 v 7.5138 7.5139 l -11.695,1.3956 c -24.5207,2.9263 -35.7884,13.2742 -31.8425,29.2431 3.5708,14.4514 25.4574,18.7354 44.9394,8.7964 13.066,-6.6657 13.2194,-7.1429 12.4826,-38.8135 -0.6517,-28.0094 -0.7691,-28.6514 -6.2359,-34.1126 -4.7563,-4.7513 -7.6064,-5.6809 -19.4726,-6.3514 -8.6182,-0.487 -18.737,0.4535 -26.6265,2.4747 -6.999,1.793 -13.5668,3.2601 -14.5951,3.2601 -1.0283,0 -1.8697,-4.0428 -1.8697,-8.984 v -8.984 l 10.2696,-2.2024 c 13.0538,-2.7996 41.3052,-2.825 51.3115,-0.046 10.4599,2.9047 21.2693,12.863 23.7819,21.9094 1.1396,4.1029 2.0771,26.4513 2.0833,49.6632 l 0.011,42.2033 h -9.0237 c -8.5983,0 -9.0537,-0.2972 -9.661,-6.3059 l -0.6374,-6.306 -5.4609,4.3156 c -13.959,11.0315 -42.3986,14.0308 -54.5597,5.754 z m -773.52267,1.0169 c -0.49613,-0.839 -9.29792,-33.5593 -19.55959,-72.7118 -10.26165,-39.1526 -19.12397,-72.7882 -19.69403,-74.7458 -0.88782,-3.0487 0.40212,-3.5593 8.99219,-3.5593 h 10.02868 l 8.33579,32.0339 c 4.58467,17.6186 11.77475,45.9768 15.97794,63.0182 4.20319,17.0415 8.24636,29.855 8.98481,28.4746 0.73844,-1.3804 8.00873,-29.7813 16.15619,-63.1131 l 14.81353,-60.6033 10.31841,0.6033 10.31839,0.6033 15.53431,63.0509 c 8.54386,34.6779 16.08126,61.6779 16.74978,60 0.66852,-1.678 7.93001,-30.0509 16.13665,-63.0509 l 14.92116,-60 9.54421,-0.6199 c 5.24931,-0.341 9.54421,-0.01 9.54421,0.7436 0,0.7499 -8.69491,34.7253 -19.32203,75.5008 -10.62712,40.7755 -19.32203,74.5798 -19.32203,75.1206 0,0.5408 -5.18649,0.7088 -11.52554,0.3734 l -11.52553,-0.61 -15.11679,-60 c -8.31421,-33 -15.75425,-60.6825 -16.53337,-61.5166 -0.77915,-0.8341 -8.18349,26.3947 -16.45412,60.5085 l -15.03748,62.025 h -10.68185 c -5.87504,0 -11.08778,-0.6864 -11.58389,-1.5254 z m 423.7128,-55.4237 v -56.9492 h 10.16949 c 10.05452,0 10.1695,0.073 10.1695,6.417 0,6.0325 0.21766,6.2199 3.63364,3.1285 12.07043,-10.9236 39.55242,-15.6868 52.30336,-9.0652 16.90493,8.7787 19.11779,16.8574 19.22797,70.1977 l 0.0893,43.2203 h -9.15254 -9.15254 l -0.0122,-38.1356 c -0.0163,-54.0752 -2.61061,-60.5791 -24.10554,-60.4274 -8.69388,0.061 -14.06522,1.4958 -22.1543,5.9164 l -10.67797,5.8355 v 43.4056 43.4055 h -10.16949 -10.16949 v -56.9491 z m -401.345,-160.7661 c -10.13793,-7.9745 -8.76716,-24.2828 2.55014,-30.3396 2.64696,-1.4167 125.80383,-2.1231 379.83051,-2.1789 l 375.91352,-0.083 4.5763,5.2716 c 8.0166,9.2347 4.793,22.887 -6.6909,28.3365 -5.9151,2.807 -47.0487,3.1489 -378.76596,3.1489 -371.68097,0 -372.13658,0 -377.41361,-4.1559 z M 243.32355,916.09534 c -36.13859,-8.74725 -61.93353,-36.46017 -73.66859,-79.14619 -4.56741,-16.61385 -6.213,-70.92972 -2.88931,-95.36756 9.03631,-66.44066 44.94736,-111.05332 100.91465,-125.36735 15.85596,-4.05527 55.35152,-5.60787 69.69258,-2.73966 l 6.35593,1.27118 v 19.10655 19.10654 l -5.59322,-1.3535 c -3.07627,-0.74445 -7.48328,-2.04775 -9.79336,-2.89625 -9.1177,-3.349 -27.48891,-4.25235 -41.79362,-2.05511 -32.07903,4.9274 -54.45966,21.7155 -68.7314,51.55665 -4.394,9.18755 -9.00647,21.7819 -10.24994,27.98746 -3.20859,16.01262 -3.55964,92.01985 -0.48134,104.21827 8.62977,34.19736 29.94362,53.97698 60.23722,55.90121 27.88495,1.77122 46.51135,-8.09882 58.02846,-30.749 6.68632,-13.14968 7.08258,-15.07001 7.13514,-34.57627 0.0665,-24.72122 -2.54669,-33.28935 -13.94225,-45.7124 -11.9263,-13.00163 -22.07992,-16.91396 -46.82728,-18.04318 -15.95329,-0.72795 -23.81847,-0.0757 -35.27654,2.92579 l -14.74576,3.86259 v -14.60776 -14.60774 l 13.72881,-4.58933 c 17.01157,-5.68668 45.62256,-7.56848 64.66186,-4.25294 50.80507,8.84733 79.79326,51.80141 72.27085,107.08944 -5.50686,40.47423 -35.75971,73.74328 -75.59658,83.1335 -16.02513,3.77738 -37.59645,3.73906 -53.43631,-0.095 z m 222.43916,1.89272 c -2.79661,-0.42903 -8.05932,-1.2611 -11.69491,-1.8491 l -6.61017,-1.06905 v -19.44747 c 0,-17.69113 0.32146,-19.32287 3.55932,-18.06765 29.67262,11.50304 67.50175,8.65013 91.56978,-6.90579 20.61399,-13.32346 33.40113,-32.87303 41.02001,-62.71326 3.46456,-13.56936 4.18721,-22.68897 4.17451,-52.68139 -0.0244,-57.7024 -5.31339,-77.55175 -25.60576,-96.09781 -32.77025,-29.95017 -87.19924,-16.43091 -99.41148,24.6922 -3.68686,12.41498 -4.07943,41.57282 -0.71109,52.81532 3.04292,10.15637 15.98901,24.92957 26.83886,30.6267 12.20568,6.40908 49.44443,7.43864 68.90483,1.90505 l 13.72881,-3.90382 v 14.60499 14.605 l -13.72881,4.9524 c -12.21515,4.40638 -16.98041,4.94453 -43.22034,4.88107 -25.57869,-0.0618 -30.9757,-0.6671 -40.67796,-4.56179 -22.47352,-9.02129 -42.0648,-28.55406 -49.94525,-49.79603 -6.09691,-16.43439 -5.58939,-59.05784 0.89758,-75.38284 15.42598,-38.82074 52.79384,-63.21104 96.84428,-63.21104 47.73899,0 82.62685,25.33525 97.70631,70.95348 11.06427,33.47152 11.49133,88.59018 1.00882,130.20514 -5.29591,21.02439 -19.72308,50.04358 -31.53818,63.43664 -11.88844,13.4762 -34.17929,28.30469 -51.56445,34.30206 -20.90082,7.21021 -52.55505,10.62008 -71.54471,7.70699 z m 295.13559,-0.86589 c -25.1546,-4.94009 -48.40568,-22.97221 -59.4442,-46.10131 -12.10519,-25.36416 -16.38268,-47.91991 -17.53967,-92.48895 -0.66274,-25.52985 -0.14928,-47.19927 1.41253,-59.60703 8.34929,-66.33238 34.21208,-99.9316 81.96118,-106.47862 l 11.69491,-1.60351 v 16.95151 c 0,16.78302 -0.0513,16.9515 -5.15007,16.9515 -19.29387,0 -37.61724,19.08096 -44.64118,46.48688 -7.85091,30.63249 -7.89678,118.35655 -0.0771,147.59815 7.07,26.43844 19.78975,41.13883 39.7365,45.92398 l 10.13192,2.43061 v 16.06833 c 0,18.09956 0.7054,17.55862 -18.08475,13.86846 z m 34.78041,-14.26444 0.59248,-16.68014 9.30571,-2.70775 c 19.41745,-5.65005 31.8284,-24.80429 37.78263,-58.31128 3.97367,-22.36149 4.5129,-94.09859 0.87454,-116.345 -5.88474,-35.98169 -19.09703,-56.91905 -39.33364,-62.33152 l -9.64619,-2.57996 v -15.84933 -15.84936 h 5.88744 c 10.52894,0 31.5032,7.88951 41.90917,15.76422 18.17744,13.75574 31.53604,38.93981 39.64725,74.74426 3.61433,15.95438 4.99366,85.2185 2.14737,107.83143 -8.36028,66.41959 -33.6044,99.55568 -82.04811,107.69843 l -7.71112,1.29614 z m 468.68479,14.22895 c -12.6877,-1.85325 -39.5964,-8.96437 -47.4334,-12.53514 -4.5027,-2.05157 -4.7267,-3.1502 -4.7267,-23.18311 0,-11.56618 0.7116,-21.02945 1.5813,-21.02945 0.8698,0 3.6156,1.42481 6.1018,3.16623 15.1355,10.60133 52.8179,21.24055 75.2306,21.24055 29.316,0 50.208,-11.19264 61.1834,-32.7784 5.91,-11.62335 6.8819,-15.64068 7.1351,-29.49153 0.3789,-20.72237 -4.0136,-32.53643 -16.0298,-43.1135 -4.8931,-4.30704 -13.7475,-9.47481 -19.6766,-11.48396 -19.5068,-6.61013 -63.2192,-6.4573 -97.7292,0.34172 l -5.5932,1.10194 v -76.52542 -76.52542 h 88.4746 88.4745 v 17.28813 17.28814 h -69.1525 -69.1526 v 39.96557 39.96559 l 17.7967,-1.25696 c 62.8421,-4.43848 105.499,16.19505 118.4652,57.30276 5.5455,17.58151 5.563,45.90244 0.039,63.786 -4.9146,15.91184 -17.0042,35.11625 -27.6963,43.99609 -24.7113,20.52272 -64.1381,28.78355 -107.2923,22.48017 z m -192.9919,-127.83317 -0.5241,-123.96684 -56.309,65.49226 -56.30887,65.49226 48.68177,0.54463 48.6818,0.54464 v 16.23503 16.23502 h -63.05083 -63.05084 v -22.56094 -22.56093 l 72.23057,-84.21873 72.2307,-84.21872 h 18.2778 18.2779 v 90.50847 90.50848 h 21.3559 21.3559 v 16.27118 16.27119 h -21.3559 -21.3559 v 41.69491 41.69492 h -19.3064 -19.3064 z M 405.32365,516.98628 c -6.41422,-0.91204 -14.81518,-11.68243 -14.81518,-18.9937 0,-4.03255 2.01635,-8.11843 5.94525,-12.04733 L 402.39895,480 h 375.51171 c 327.85234,0 376.25174,0.38272 381.34294,3.01548 7.0455,3.64336 11.2491,14.39918 8.477,21.69041 -4.4324,11.65804 23.2152,10.79975 -383.46673,11.90428 -205.93835,0.55932 -376.46144,0.72856 -378.94022,0.37611 z m -58.34904,-83.86759 c -9.02138,-7.92088 -12.19672,-17.42565 -12.19672,-36.50852 0,-19.30121 3.17754,-28.58453 12.63444,-36.9121 l 7.50292,-6.60698 0.61912,5.23499 c 0.36637,3.09783 -1.50185,8.3604 -4.57627,12.89081 -9.70373,14.29926 -7.0299,50.38725 4.04827,54.63834 1.81084,0.69488 5.97678,1.26341 9.25768,1.26341 15.51984,0 21.34328,-37.48543 8.71448,-56.09503 -2.66361,-3.92504 -4.84294,-9.4357 -4.84294,-12.24588 v -5.1094 l 6.1449,3.62988 c 10.1055,5.96947 15.16537,19.08578 15.16537,39.31196 0,14.0052 -0.90423,19.13325 -4.76172,27.00464 -8.19606,16.72434 -24.73769,20.8933 -37.70953,9.50388 z m 179.70732,1.62016 c -10.25512,-6.91092 -14.64105,-16.06237 -15.70196,-32.76291 -1.22739,-19.32128 2.08894,-30.77764 11.68806,-40.37679 6.62138,-6.62137 8.97893,-7.70084 16.81839,-7.70084 6.11909,0 10.86496,1.3745 14.43098,4.17953 5.93796,4.67081 11.50633,20.54392 11.50633,32.79979 v 7.76644 h -17.28814 c -17.08474,0 -17.28813,-0.0598 -17.28813,-5.08475 0,-4.87082 0.52462,-5.08474 12.4695,-5.08474 h 12.46951 l -1.2144,-7.62712 c -1.32783,-8.33949 -9.21002,-16.77966 -15.67035,-16.77966 -2.15726,0 -6.87533,2.63853 -10.48461,5.86342 -5.99927,5.36036 -6.63156,7.08944 -7.36975,20.15327 -0.4455,7.88426 0.26846,17.54986 1.59271,21.56239 4.85445,14.70911 20.10366,19.76439 33.89953,11.23808 l 6.85023,-4.23368 v 7.38832 c 0,6.50827 -0.84014,7.73933 -7.05331,10.33538 -10.369,4.33242 -21.72779,3.70574 -29.65459,-1.63613 z m 100.26722,0.57016 c -8.10451,-3.67877 -8.64406,-4.43878 -8.64406,-12.17611 v -8.25242 l 11.29035,6.37187 c 9.46395,5.34114 12.79098,6.20276 20.5668,5.32631 10.98801,-1.23852 16.64984,-6.16433 18.22216,-15.85342 1.75214,-10.79727 -4.26093,-16.908 -20.70167,-21.03777 -16.58036,-4.16485 -23.01799,-8.23432 -26.60428,-16.81753 -6.32201,-15.13068 -1.59936,-33.89947 10.39511,-41.31246 8.57066,-5.29696 27.60783,-5.56847 37.67898,-0.53738 5.98046,2.9876 7.21957,4.77566 7.74991,11.18329 0.73548,8.88655 0.0803,9.13491 -8.31987,3.15348 -4.13863,-2.94698 -10.24126,-4.76 -17.88262,-5.31273 -9.73157,-0.70391 -12.28355,-0.15539 -15.84399,3.40497 -5.71348,5.71349 -7.3562,13.35505 -4.40341,20.48368 2.5212,6.08676 6.77921,8.45156 22.4288,12.45646 14.12796,3.6155 20.39912,7.66471 23.55006,15.20594 6.58393,15.7576 0.15803,36.94651 -13.34884,44.01703 -9.24808,4.84113 -25.09312,4.70817 -36.13343,-0.30321 z m 172.39184,0.23945 c -4.1566,-2.22919 -8.99736,-7.43162 -11.8282,-12.71186 -4.271,-7.96652 -4.71299,-11.04334 -4.06541,-28.30036 0.81468,-21.71029 5.21188,-32.07315 15.97,-37.63639 19.10787,-9.88106 35.36573,3.13896 36.88715,29.54083 l 0.64462,11.18644 h -17.28813 c -16.37994,0 -17.32229,-0.24041 -17.93807,-4.57627 -0.61308,-4.31673 0.0539,-4.57627 11.75874,-4.57627 14.37775,0 16.10447,-1.94935 11.49626,-12.97837 -6.17294,-14.77389 -21.32088,-14.66518 -28.92372,0.20758 -3.42356,6.69718 -4.13166,11.12282 -3.52302,22.01892 1.2239,21.90993 9.13318,30.98138 25.14039,28.83435 4.62376,-0.62017 10.00957,-2.57802 11.96846,-4.35079 5.17997,-4.68783 6.29214,-4.0383 6.29214,3.67458 0,6.15476 -0.88082,7.25024 -8.17676,10.1695 -10.73574,4.29559 -19.76646,4.13609 -28.41445,-0.50189 z m 67.90564,0.86638 c -13.03306,-5.6734 -20.6316,-24.69923 -18.39824,-46.0669 2.37881,-22.75918 13.23249,-36.44963 28.89696,-36.44963 15.89007,0 25.3055,13.14179 25.3055,35.32071 v 9.42505 h -17.28814 c -17.08474,0 -17.28813,-0.0598 -17.28813,-5.08475 0,-4.85876 0.54238,-5.08474 12.20339,-5.08474 11.96412,0 12.2028,-0.10963 12.17341,-5.59322 -0.1076,-20.05776 -21.93625,-24.71313 -30.98382,-6.60783 -6.77064,13.54889 -3.34056,39.38912 6.2277,46.9155 6.47062,5.08979 17.87701,5.0267 26.36068,-0.14583 3.66262,-2.2331 7.09483,-4.06019 7.62712,-4.06019 0.53229,0 0.96779,3.10401 0.96779,6.8978 0,6.15476 -0.88082,7.25024 -8.17676,10.1695 -9.85387,3.94273 -19.12641,4.06507 -27.62746,0.36449 z m 62.663,0.77648 c -8.13496,-3.26481 -10.5876,-13.3571 -10.5876,-43.56667 0,-23.10891 -0.48927,-27.52295 -3.05084,-27.52295 -1.8983,0 -3.05085,-1.9209 -3.05085,-5.08475 0,-3.16385 1.15255,-5.08475 3.05085,-5.08475 2.37289,0 3.05084,-2.71185 3.05084,-12.20339 0,-11.66101 0.22599,-12.20339 5.08475,-12.20339 4.85876,0 5.08475,0.54238 5.08475,12.20339 v 12.20339 h 10.16949 c 9.49153,0 10.16949,0.33899 10.16949,5.08475 0,4.74576 -0.67796,5.08475 -10.16949,5.08475 h -10.16949 v 25.98811 c 0,30.93382 2.07341,36.21478 13.49127,34.36192 6.42307,-1.04233 6.84771,-0.75427 6.84771,4.64498 0,7.98083 -8.63691,10.62323 -19.92088,6.09461 z m 163.32207,-4.83622 c -7.3591,-7.80293 -11.1978,-20.05654 -11.1978,-35.74493 0,-15.68839 3.8387,-27.942 11.1978,-35.74493 3.6138,-3.8318 7.6066,-6.96693 8.8729,-6.96693 4.1296,0 2.4223,10.45647 -2.7016,16.54592 -6.0669,7.21011 -7.9648,16.24467 -6.7988,32.36461 1.1739,16.22884 6.2953,23.29286 16.8873,23.29286 6.0765,0 8.5991,-1.20877 11.9839,-5.74237 3.6044,-4.8276 4.2873,-8.60748 4.2873,-23.72791 0,-15.60081 -0.623,-18.82822 -4.6989,-24.34114 -3.1511,-4.26208 -4.491,-8.5055 -4.0678,-12.88227 l 0.6311,-6.52665 7.4175,7.21407 c 8.7056,8.46688 11.8819,18.2281 11.8819,36.51474 0,17.82714 -3.1523,27.98856 -11.1701,36.00626 -5.6954,5.69541 -8.1554,6.7056 -16.3298,6.7056 -8.3245,0 -10.5116,-0.9409 -16.1949,-6.96693 z m 182.0225,3.40446 c -22.0814,-11.03095 -23.2277,-64.58451 -1.6638,-77.73161 13.657,-8.32639 29.3323,-3.28802 35.4696,11.40076 1.5424,3.6915 2.8044,11.81214 2.8044,18.04584 v 11.33402 l -16.7797,-0.59073 c -15.5275,-0.54665 -16.8271,-0.92471 -17.4164,-5.06662 -0.591,-4.15444 0.2854,-4.51961 12.2034,-5.08475 l 12.8402,-0.60884 -0.6737,-6.1017 c -1.4162,-12.82602 -10.6705,-19.44734 -21.4517,-15.34834 -8.9815,3.41477 -12.4057,11.31624 -12.3239,28.43839 0.079,16.45922 3.7553,26.7297 10.9468,30.57848 6.1883,3.31188 16.8136,2.43696 24.0601,-1.98122 3.6626,-2.2331 7.0948,-4.06019 7.6271,-4.06019 0.5323,0 0.9678,3.10401 0.9678,6.8978 0,6.15476 -0.8808,7.25024 -8.1768,10.1695 -10.5757,4.23158 -19.5646,4.13965 -28.4334,-0.29079 z M 256.27119,383.38983 v -53.8983 h 5.08474 5.08475 v 21.42958 21.42958 l 19.83051,-0.58213 19.83051,-0.58212 0.57962,-20.84746 c 0.57402,-20.64569 0.62814,-20.84745 5.59322,-20.84745 h 5.0136 v 53.8983 53.89831 h -5.08475 -5.08475 v -26.44068 -26.44068 h -20.33898 -20.33898 v 26.44068 26.44068 h -5.08475 -5.08474 z m 150.50847,13.22034 V 355.9322 h 5.08475 c 3.80095,0 5.08474,1.0727 5.08474,4.24859 0,4.08853 0.23579,4.05021 6.25776,-1.01695 8.64447,-7.27385 18.27883,-7.09869 24.62878,0.44781 l 4.80746,5.71334 7.87912,-5.71334 c 8.23762,-5.9733 16.8793,-7.24711 23.85143,-3.51574 7.91554,4.23627 9.86359,13.83169 9.86359,48.58452 v 32.60771 h -5.08475 -5.08474 v -31.52543 c 0,-28.81356 -0.34991,-31.87533 -4.0678,-35.59322 -5.46311,-5.46311 -10.63898,-5.12154 -18.14902,1.19774 l -6.25776,5.26556 v 30.32766 30.32769 h -4.94479 -4.9448 l -0.64842,-32.71052 c -0.58695,-29.60843 -1.02285,-32.98389 -4.59649,-35.59322 -5.3137,-3.87982 -9.0506,-3.6227 -16.8994,1.1628 l -6.61017,4.03029 v 31.55532 31.55533 h -5.08474 -5.08475 z m 298.07136,36.10169 c -0.54407,-2.51694 -3.82168,-19.22033 -7.2836,-37.11864 -3.46191,-17.8983 -6.77875,-34.21291 -7.37076,-36.2547 -0.88892,-3.06578 -0.0742,-3.59714 4.67792,-3.05085 5.74737,0.66069 5.76025,0.6964 10.71364,29.69278 2.72765,15.96722 5.61301,28.32315 6.41193,27.45763 0.79889,-0.86553 4.43955,-14.15842 8.09034,-29.53977 5.98367,-25.21017 7.06904,-27.96611 11.01386,-27.96611 3.96397,0 5.01867,2.77745 11.19897,29.49153 3.75257,16.22034 7.41074,29.49152 8.12927,29.49152 0.71852,0 3.43595,-13.27118 6.03875,-29.49152 4.6203,-28.79327 4.85213,-29.49153 9.79135,-29.49153 4.4309,0 4.92177,0.69442 3.95373,5.59322 -0.60789,3.07628 -4.08942,21.38136 -7.73674,40.67797 -6.26559,33.14888 -6.88577,35.08475 -11.23965,35.08475 -5.15433,0 -4.77519,1.00126 -14.0588,-37.12937 -3.20162,-13.14994 -6.42669,-22.76011 -7.16684,-21.35593 -0.74018,1.4042 -4.40596,15.13784 -8.14619,30.51919 -6.25298,25.71474 -7.17185,27.96611 -11.41422,27.96611 -3.13562,0 -4.93068,-1.46614 -5.60296,-4.57628 z m 297.86088,-49.32203 v -53.8983 h 5.0136 c 4.965,0 5.0192,0.20176 5.5932,20.84745 l 0.5796,20.84746 19.8305,0.58212 19.8305,0.58213 v -21.42958 -21.42958 h 6.1017 6.1017 v 53.8983 53.89831 h -6.1017 -6.1017 v -26.44068 -26.44068 h -20.339 -20.3389 v 26.44068 26.44068 h -5.0848 -5.0847 z m 150.5084,13.22034 V 355.9322 h 5.0848 c 3.7709,0 5.0847,1.07785 5.0847,4.17131 0,4.00309 0.2743,3.96207 6.8022,-1.01695 9.3283,-7.11503 18.4559,-6.88442 25.4884,0.64393 l 5.4481,5.8322 6.9861,-5.8322 c 13.5586,-11.31926 28.5825,-5.91004 32.6847,11.76785 0.9985,4.30304 1.8374,20.86607 1.864,36.80675 l 0.049,28.98305 h -5.0848 -5.0847 l -0.012,-26.94916 c -0.014,-31.60037 -2.1055,-41.63623 -9.043,-43.37743 -4.9116,-1.23273 -11.5542,1.30454 -17.8948,6.83538 -3.0906,2.69583 -3.5594,7.08118 -3.5594,33.29797 l 9e-4,30.19324 h -5.0847 -5.0848 V 405.061 c 0,-28.6381 -0.4142,-32.60203 -3.7195,-35.59322 -5.2919,-4.78914 -11.279,-4.17434 -18.4973,1.89945 l -6.2578,5.26556 v 30.32766 30.32769 h -5.0847 -5.0848 z M 1270.2624,253.8418 c -2.1862,-1.26814 -15.0987,-11.53693 -28.6945,-22.81951 C 1122.6361,132.3253 990.80618,77.343151 838.98305,63.11677 810.2014,60.419825 743.93156,60.431907 713.89831,63.139576 571.24926,76.0002 432.05473,131.9182 326.03508,218.95416 c -8.72608,7.16359 -20.29524,16.65998 -25.70925,21.10307 -8.76421,7.1925 -11.04256,8.07836 -20.77668,8.07836 -9.31934,0 -11.98997,-0.928 -18.09409,-6.28749 -8.09239,-7.10522 -11.98478,-18.18256 -9.95505,-28.33116 1.66141,-8.30703 9.12585,-15.82014 41.39495,-41.66475 C 393.27614,91.45598 513.76613,36.243891 638.64407,13.419672 c 222.1884,-40.60987 450.40503,15.657919 625.42373,154.200888 36.227,28.67696 47.5353,39.50977 50.0679,47.96312 4.3616,14.55743 -2.6686,30.47972 -16.6499,37.70972 -6.7996,3.51622 -21.5933,3.81423 -27.2234,0.5484 z"
       id="path123" />
  </g>
</svg>
