<?xml version="1.0" encoding="UTF-8" standalone="no"?>
<!-- Created with Inkscape (http://www.inkscape.org/) -->

<svg
   version="1.1"
   id="svg59"
   width="1562.0339"
   height="1562.0339"
   viewBox="0 0 1562.0339 1562.0339"
   sodipodi:docname="sws-holdrege.svg"
   inkscape:version="1.2 (dc2aedaf03, 2022-05-15)"
   xmlns:inkscape="http://www.inkscape.org/namespaces/inkscape"
   xmlns:sodipodi="http://sodipodi.sourceforge.net/DTD/sodipodi-0.dtd"
   xmlns="http://www.w3.org/2000/svg"
   xmlns:svg="http://www.w3.org/2000/svg">
  <defs
     id="defs63" />
  <sodipodi:namedview
     id="namedview61"
     pagecolor="#ffffff"
     bordercolor="#000000"
     borderopacity="0.25"
     inkscape:showpageshadow="2"
     inkscape:pageopacity="0.0"
     inkscape:pagecheckerboard="0"
     inkscape:deskcolor="#d1d1d1"
     showgrid="false"
     inkscape:zoom="0.49614799"
     inkscape:cx="781.01697"
     inkscape:cy="781.01697"
     inkscape:window-width="1920"
     inkscape:window-height="991"
     inkscape:window-x="-9"
     inkscape:window-y="-9"
     inkscape:window-maximized="1"
     inkscape:current-layer="g65" />
  <g
     inkscape:groupmode="layer"
     inkscape:label="Image"
     id="g65">
    <path
       style="fill:#000000;stroke-width:2.0339"
       d="m 734.23729,1560.6216 c -44.24215,-2.6097 -106.07496,-12.5518 -149.73305,-24.0755 -109.64532,-28.9413 -206.20365,-77.8512 -296.13787,-150.0036 -25.47983,-20.442 -28.0533,-23.1131 -29.61318,-30.7362 -3.43588,-16.7912 4.76651,-31.5152 20.1187,-36.1149 12.77373,-3.8271 19.76489,-0.9797 39.97393,16.2808 76.12537,65.0184 184.44057,119.4102 286.20274,143.7202 61.49132,14.6897 106.59458,19.9584 170.88364,19.9619 71.85704,0 130.77238,-7.8862 195.88469,-26.2331 89.65551,-25.2626 179.93051,-71.3425 250.39281,-127.8104 10.5374,-8.4446 22.2666,-16.3794 26.0648,-17.6329 18.8027,-6.2055 39.1831,9.7347 39.1831,30.6462 0,18.1524 -11.6642,29.8944 -67.1623,67.6104 -142.9797,97.1677 -314.25104,144.5214 -486.05801,134.3871 z m 577.81411,-240.9489 c -10.2789,-7.0548 -14.8912,-14.4673 -15.8379,-25.4534 -1.0898,-12.6472 1.1663,-16.4966 27.3925,-46.7371 38.9318,-44.8909 73.7056,-97.7953 100.3337,-152.6462 7.7145,-15.891 14.0264,-29.8486 14.0264,-31.0169 0,-1.451 -36.1153,-2.1242 -113.9636,-2.1242 -121.4801,0 -124.7964,-0.2517 -129.9405,-9.8636 -3.586,-6.7005 -2.5451,-15.9462 2.4488,-21.752 l 4.6465,-5.4018 126.4075,0.2982 126.4076,0.2982 7.0957,-21.959 c 23.56,-72.91076 34.451,-142.70201 34.5312,-221.281 0.068,-66.72246 -6.4715,-120.62091 -21.8869,-180.39177 -6.7065,-26.0038 -21.9665,-74.02056 -25.9057,-81.51458 -1.7802,-3.38656 -9.117,-3.59339 -123.0645,-3.46901 -113.7891,0.12427 -121.4184,-0.0901 -125.2242,-3.51739 -6.248,-5.62665 -8.0962,-12.41701 -5.5113,-20.24914 C 1198.344,479.74971 1195.9196,480 1318.882,480 c 61.0217,0 110.9485,-0.47288 110.9485,-1.05083 0,-0.57796 -5.0463,-11.11294 -11.2141,-23.41109 -21.5785,-43.02634 -50.9418,-88.71441 -80.7186,-125.59493 -20.6057,-25.52154 -23.8825,-38.41773 -13.914,-54.75966 7.8002,-12.78734 28.8865,-17.77952 41.8199,-9.90091 6.8791,4.19054 35.4,39.88271 57.5857,72.06516 61.9426,89.85364 105.8804,195.56408 125.2317,301.29633 9.6874,52.93062 12.2232,82.46695 12.2232,142.37288 0,59.90593 -2.5358,89.44226 -12.2232,142.37288 -23.9182,130.68527 -83.6532,257.05657 -170.0851,359.82047 -28.9038,34.3655 -34.7954,39.2328 -48.855,40.3612 -8.7705,0.7039 -11.9468,0 -17.6296,-3.8988 z m -298.6616,-3.9681 -8.644,-2.0457 v -9.6895 -9.6894 l 14.7457,3.847 c 16.847,4.3951 35.3649,3.8173 43.2508,-1.3497 11.1907,-7.3325 12.0077,-12.654 11.4899,-74.8413 -0.3886,-46.6714 0.8106,-44.3522 -23.7118,-45.8593 -12.4505,-0.7651 -15.1339,-0.2724 -21.2579,3.9036 -12.0009,8.1836 -15.3653,16.3571 -15.3565,37.3078 0.01,20.0404 3.0686,28.7831 12.1597,34.7398 5.3307,3.4928 18.3122,4.3889 29.019,2.0032 6.6083,-1.4725 6.6102,-1.4706 6.6102,6.7286 0,7.7449 -0.4247,8.3196 -7.6271,10.3198 -26.4814,7.3543 -50.6677,-5.2703 -57.684,-30.1092 -3.42739,-12.1336 -3.36193,-35.6153 0.12834,-46.055 7.51096,-22.4661 26.00806,-36.4599 47.84206,-36.1944 6.7408,0.082 16.3184,1.792 21.2837,3.8003 6.5429,2.6463 9.2487,2.9884 9.8305,1.243 0.4604,-1.3811 4.7209,-2.4083 9.9893,-2.4083 h 9.1866 l -0.8904,59.4916 c -0.9397,62.7832 -1.5995,67.5593 -11.1018,80.3577 -8.3297,11.2193 -19.1741,15.4271 -41.2962,16.0238 -10.6271,0.2867 -23.2118,-0.3993 -27.9661,-1.5244 z M 204.25456,1304.152 c -7.15594,-3.9751 -14.0162,-11.482 -36.63958,-40.0933 C 55.580223,1122.371 -4.8646109,940.11803 0.66700784,760.67797 5.5372883,602.69103 54.517609,455.56369 144.00532,330.11754 c 29.57796,-41.46311 46.60013,-62.75921 52.20547,-65.31317 7.40808,-3.37534 20.44655,-3.03745 27.70897,0.7181 12.73362,6.58481 17.74163,24.41447 10.71221,38.13786 -1.83378,3.58004 -7.61867,11.54306 -12.85533,17.6956 -15.28127,17.95396 -33.37161,42.56654 -49.53792,67.39823 -15.20403,23.35362 -41.23098,69.5788 -47.08127,83.61872 L 121.97931,480 H 237.78275 353.5862 l 6.25774,5.26554 c 8.2343,6.9287 8.80497,18.81283 1.26545,26.35232 l -4.99228,4.99231 H 231.08603 106.05498 l -4.38821,11.69492 c -18.276047,48.70704 -32.109498,104.47602 -39.729907,160.16949 -4.530952,33.1143 -6.192122,115.1209 -3.079792,152.03947 4.51137,53.51404 16.806316,114.86341 32.302044,161.18085 l 7.484953,22.3729 130.858392,1.0169 130.85841,1.017 3.88735,4.8016 c 4.40087,5.4358 5.09756,17.8604 1.28032,22.8323 -6.01104,7.8291 -8.16162,7.9593 -131.49653,7.9593 -66.07353,0 -120.1337,0.7291 -120.1337,1.6203 0,4.4901 36.33951,73.8932 50.62262,96.6818 19.48767,31.0924 31.54498,47.8267 55.59304,77.1578 22.2593,27.1494 25.97054,33.1774 25.98012,42.199 0.0226,21.3037 -23.27386,35.1115 -41.83953,24.7982 z m 288.96578,-30.7198 c -16.70951,-7.7363 -27.36624,-25.9201 -29.05944,-49.5846 -1.96937,-27.5244 9.6736,-51.9356 28.94593,-60.6894 12.95554,-5.8846 15.36775,-5.2097 15.36775,4.2994 0,5.5185 -0.89317,8.1356 -2.77656,8.1356 -4.95704,0 -13.91475,8.6326 -17.77328,17.1283 -5.28338,11.6329 -5.23698,39.6354 0.085,51.3572 8.96998,19.7563 35.67,24.0293 50.34234,8.0566 8.3343,-9.0729 11.48345,-21.021 10.32925,-39.1902 -1.20864,-19.026 -6.23276,-28.954 -17.35833,-34.301 -7.67143,-3.687 -8.47073,-4.7819 -8.53753,-11.6949 -0.0629,-6.5082 0.57806,-7.6272 4.3689,-7.6272 7.39326,0 21.63244,8.0513 28.08626,15.8809 8.86259,10.7519 12.98982,24.9871 12.79151,44.1191 -0.27888,26.9076 -8.94728,43.4968 -27.58021,52.782 -13.15489,6.5553 -34.63676,7.1594 -47.23169,1.3282 z m 179.48654,-0.3529 c -14.46883,-7.6382 -23.89332,-28.423 -23.89332,-52.6944 0,-37.2956 20.77743,-62.0389 51.70139,-61.57 7.01998,0.1064 16.2182,1.637 20.44052,3.4012 4.22229,1.7642 8.02275,3.2076 8.44545,3.2076 0.42273,0 0.76857,-10.983 0.76857,-24.4067 v -24.4068 h 9.15254 9.15255 v 79.322 79.322 h -9.15255 -9.15254 v -46.83 -46.83 l -5.59322,-2.3012 c -3.07627,-1.2656 -11.54237,-2.695 -18.81356,-3.1764 -11.37482,-0.7531 -14.18796,-0.2119 -20.15196,3.8769 -3.8124,2.6138 -8.6615,7.0888 -10.77578,9.9446 -8.20326,11.0802 -8.24725,47.5642 -0.0708,58.7299 6.16774,8.4226 16.34817,12.715 26.68233,11.25 4.89726,-0.6942 10.15997,-1.7441 11.69491,-2.3331 2.07462,-0.7961 2.79081,0.9889 2.79081,6.9558 0,6.6276 -0.90296,8.4381 -5.18044,10.3871 -8.33111,3.7959 -29.28109,2.778 -38.04488,-1.8485 z m 232.76429,1.2005 c -11.36461,-3.5474 -20.97171,-10.2191 -26.65166,-18.5084 -14.30947,-20.8833 -13.53191,-56.5757 1.69031,-77.5894 17.35534,-23.9583 63.22231,-26.4481 80.07971,-4.3469 7.16585,9.3949 9.35426,15.9065 10.88648,32.3924 l 1.31152,14.1115 h -35.88529 -35.88529 v -7.0579 -7.0579 l 25.9322,-0.5692 25.93221,-0.5693 -0.65427,-6.1016 c -1.53221,-14.2894 -10.61351,-23.211 -25.31288,-24.8678 -26.24638,-2.9584 -42.36482,16.4359 -39.46533,47.486 2.45127,26.25 16.15806,39.4635 40.83711,39.3674 11.41204,-0.044 16.59244,-1.5571 39.46337,-11.5231 2.03564,-0.887 2.51575,1.1818 2.0339,8.7645 l -0.63072,9.9255 -13.22034,4.5043 c -15.27838,5.2054 -36.79761,5.9048 -50.46103,1.6399 z m 253.85083,-0.1169 c -12.6813,-3.9377 -23.1754,-13.2745 -29.5394,-26.2822 -4.3841,-8.9607 -5.4113,-13.9875 -5.4985,-26.9076 -0.1305,-19.3507 2.6042,-29.9084 10.6095,-40.9594 12.3044,-16.9858 33.3586,-24.7839 55.551,-20.5752 22.7008,4.3051 34.2528,19.2543 35.666,46.1547 l 0.7747,14.7458 h -35.8155 -35.8156 v -7.1187 -7.1186 h 26.7085 26.7085 l -1.1016,-8.2131 c -2.1276,-15.8627 -12.5476,-24.3293 -29.9425,-24.3293 -11.6871,0 -20.8999,4.4419 -27.698,13.3546 -5.1042,6.692 -5.9566,9.7808 -6.5992,23.9146 -1.2095,26.6046 5.6383,40.5729 23.1733,47.2696 14.9379,5.7048 33.052,2.859 56.3782,-8.8573 0.8389,-0.4214 1.5254,3.8495 1.5254,9.491 v 10.2573 l -13.4346,4.1495 c -15.6913,4.8466 -37.9206,5.2874 -51.6502,1.0243 z m -844.06776,-75.1798 v -76.2712 h 10.16949 10.16949 v 30.5533 30.5534 l 38.13559,-0.5534 38.1356,-0.5533 0.56284,-30 0.56286,-30 h 9.09815 9.09818 v 76.2712 76.2711 h -9.10666 -9.10665 l -0.55436,-37.1186 -0.55436,-37.1186 -38.1356,-0.5534 -38.13559,-0.5534 v 37.672 37.672 H 325.42373 315.25424 Z M 600,1195.9322 v -79.322 h 9.15254 9.15255 v 79.322 79.322 H 609.15254 600 Z m 187.11864,22.3729 v -56.9492 h 9.15255 9.15254 v 8.3837 c 0,8.3361 0.026,8.3646 4.57627,5.0159 11.77709,-8.6671 25.69654,-13.6217 36.52324,-13.0004 l 10.7649,0.6178 0.60146,9.2092 0.60147,9.2092 -16.0114,-0.057 c -14.34134,-0.051 -17.05587,0.5887 -26.02519,6.1302 l -10.0138,6.1869 -0.5506,41.1013 -0.55057,41.1012 h -9.11044 -9.11043 V 1218.305 Z M 400.01093,1057.539 c -10.13793,-7.9745 -8.76716,-24.2828 2.55014,-30.3396 2.64696,-1.4167 125.80383,-2.1231 379.83051,-2.1789 l 375.91352,-0.083 4.5763,5.2716 c 8.0166,9.2347 4.793,22.887 -6.6909,28.3365 -5.9151,2.807 -47.0487,3.1489 -378.76596,3.1489 -371.68097,0 -372.13658,0 -377.41361,-4.1559 z M 243.32355,916.09534 c -36.13859,-8.74725 -61.93353,-36.46017 -73.66859,-79.14619 -4.56741,-16.61385 -6.213,-70.92972 -2.88931,-95.36756 9.03631,-66.44066 44.94736,-111.05332 100.91465,-125.36735 15.85596,-4.05527 55.35152,-5.60787 69.69258,-2.73966 l 6.35593,1.27118 v 19.10655 19.10654 l -5.59322,-1.3535 c -3.07627,-0.74445 -7.48328,-2.04775 -9.79336,-2.89625 -9.1177,-3.349 -27.48891,-4.25235 -41.79362,-2.05511 -32.07903,4.9274 -54.45966,21.7155 -68.7314,51.55665 -4.394,9.18755 -9.00647,21.7819 -10.24994,27.98746 -3.20859,16.01262 -3.55964,92.01985 -0.48134,104.21827 8.62977,34.19736 29.94362,53.97698 60.23722,55.90121 27.88495,1.77122 46.51135,-8.09882 58.02846,-30.749 6.68632,-13.14968 7.08258,-15.07001 7.13514,-34.57627 0.0665,-24.72122 -2.54669,-33.28935 -13.94225,-45.7124 -11.9263,-13.00163 -22.07992,-16.91396 -46.82728,-18.04318 -15.95329,-0.72795 -23.81847,-0.0757 -35.27654,2.92579 l -14.74576,3.86259 v -14.60776 -14.60774 l 13.72881,-4.58933 c 17.01157,-5.68668 45.62256,-7.56848 64.66186,-4.25294 50.80507,8.84733 79.79326,51.80141 72.27085,107.08944 -5.50686,40.47423 -35.75971,73.74328 -75.59658,83.1335 -16.02513,3.77738 -37.59645,3.73906 -53.43631,-0.095 z m 245.01517,-0.93877 c -39.41791,-10.3225 -64.80769,-38.96988 -66.92292,-75.50939 -0.52511,-9.07112 0.13261,-21.18545 1.47608,-27.18895 3.02432,-13.51403 15.13253,-32.52864 26.39274,-41.4469 l 8.56306,-6.78207 13.23555,5.62519 13.23553,5.62517 -6.04965,6.32799 c -12.55993,13.13778 -20.34647,37.51845 -17.5167,54.84701 3.46029,21.18981 17.53661,39.9151 36.17843,48.12706 18.05604,7.95393 46.57849,6.97495 64.68586,-2.22018 29.75064,-15.10776 38.04077,-59.39833 15.33346,-81.92006 -11.18095,-11.08954 -23.21022,-17.3355 -57.44382,-29.82648 -53.03046,-19.34947 -75.34037,-33.44187 -85.27591,-53.86581 -6.1923,-12.72917 -6.65642,-39.42744 -0.94985,-54.64027 8.59579,-22.91499 33.57236,-42.04015 64.38635,-49.30214 18.85761,-4.44423 51.64078,-2.94454 69.68095,3.18761 46.00546,15.63799 66.99777,58.06484 48.51903,98.06019 -5.65377,12.23699 -20.63876,30.15224 -25.2205,30.15224 -1.5036,0 -7.83202,-2.25466 -14.06315,-5.01037 l -11.32932,-5.01036 7.02978,-10.21949 c 11.36663,-16.52416 14.64436,-40.65553 7.62206,-56.11511 -10.23488,-22.53201 -42.94865,-34.3273 -73.51833,-26.50777 -22.71008,5.80907 -35.28999,17.7976 -37.78627,36.00998 -3.83388,27.97119 15.23986,45.69671 69.70395,64.77702 64.14236,22.47085 89.59265,45.57657 91.77775,83.32281 2.05554,35.50829 -16.12053,65.10031 -50.77098,82.65901 -22.53968,11.42172 -62.12156,14.39953 -90.97318,6.84407 z m 231.25507,2.21721 c -5.25732,-0.96419 -10.52003,-2.34718 -11.69491,-3.0733 -1.2379,-0.76505 -2.13617,-9.06699 -2.13617,-19.74248 0,-18.17544 0.0612,-18.40295 4.57627,-16.98177 24.52115,7.71858 39.96279,9.03204 60.46784,5.14334 33.85408,-6.42028 58.75963,-30.24716 70.16526,-67.12635 4.70299,-15.20668 7.84408,-78.44548 5.03168,-101.30111 -5.08588,-41.33156 -23.45017,-64.59476 -55.2985,-70.05014 -24.34979,-4.17094 -47.04071,4.57006 -60.6565,23.36611 -7.24501,10.00143 -9.86609,18.53437 -11.40777,37.13768 -2.44509,29.50495 6.34422,48.7246 27.79969,60.78973 10.16988,5.71885 13.13973,6.35776 32.68104,7.03053 19.8573,0.68366 35.36052,-1.48133 49.18337,-6.86833 3.18707,-1.24206 3.55932,0.1322 3.55932,13.14004 v 14.52716 l -8.70313,3.73062 c -19.22992,8.2429 -53.76226,10.96202 -77.12897,6.07324 -46.71083,-9.77286 -74.78298,-54.42 -66.8402,-106.30554 5.95993,-38.93278 30.07533,-67.81121 67.47927,-80.80705 18.28829,-6.35418 50.13643,-6.31145 68.92184,0.0926 33.80343,11.52353 55.48139,36.1249 66.41976,75.37678 5.37937,19.30366 5.37455,89.5741 -0.008,112.88135 -13.5312,58.59496 -47.74598,96.97131 -97.93745,109.84973 -14.71574,3.77585 -51.25129,5.54231 -64.47401,3.11728 z m 518.64411,0 c -5.2574,-0.96419 -10.5201,-2.34718 -11.695,-3.0733 -1.2378,-0.76505 -2.1361,-9.06699 -2.1361,-19.74248 0,-18.17544 0.061,-18.40295 4.5763,-16.98177 17.2007,5.41432 26.3285,7.16953 37.2842,7.16953 49.1085,0 82.0664,-25.97154 94.462,-74.43815 5.6713,-22.1745 6.5881,-93.21716 1.4476,-112.16907 -9.7265,-35.85919 -30.2512,-54.03726 -61.3003,-54.29152 -21.5913,-0.17674 -32.8545,3.84159 -45.1422,16.10549 -14.0449,14.01781 -18.1242,25.98696 -18.0552,52.97701 0.048,18.90608 0.504,21.19629 6.2728,31.52542 6.763,12.10912 20.0873,22.74676 32.9755,26.3264 4.1136,1.14254 15.7531,2.08244 25.8655,2.08867 16.0355,0.0102 24.1467,-1.29981 45.1731,-7.29407 4.4339,-1.26403 4.5763,-0.86205 4.5763,12.91942 v 14.22405 l -9.661,4.09477 c -14.2425,6.03657 -28.9824,8.60955 -49.3221,8.60955 -22.8923,0 -36.5145,-2.85124 -51.5882,-10.79778 -26.1638,-13.79301 -40.4075,-35.53971 -44.4393,-67.84802 -3.882,-31.10718 4.7572,-60.56343 24.0104,-81.86693 12.0829,-13.36965 26.436,-22.8311 43.7733,-28.85484 18.2882,-6.35418 50.1364,-6.31145 68.9218,0.0926 33.796,11.52099 55.431,36.06728 66.4371,75.37678 3.0741,10.97943 3.6836,20.63257 3.5956,56.94915 -0.098,40.51706 -0.4937,45.16385 -5.3865,63.26715 -8.3324,30.82993 -18.1811,48.87238 -37.1886,68.12789 -17.6968,17.92777 -35.6671,28.40434 -58.983,34.38689 -14.7158,3.77585 -51.2513,5.54231 -64.474,3.11728 z m -166.8663,-128.12027 -0.5241,-123.96684 -56.3103,65.49226 -56.31027,65.49226 49.19167,1.01695 49.1916,1.01695 0.594,15.76271 0.594,15.76271 h -64.15333 -64.15334 v -22.56094 -22.56093 l 72.23057,-84.21873 72.2307,-84.21872 h 18.2778 18.2779 v 90.50847 90.50848 h 21.3559 21.3559 v 16.27118 16.27119 h -21.3559 -21.3559 v 41.69491 41.69492 h -19.3064 -19.3064 z M 405.32365,516.98628 c -6.41422,-0.91204 -14.81518,-11.68243 -14.81518,-18.9937 0,-4.03255 2.01635,-8.11843 5.94525,-12.04733 L 402.39895,480 h 375.51171 c 327.85234,0 376.25174,0.38272 381.34294,3.01548 7.0455,3.64336 11.2491,14.39918 8.477,21.69041 -4.4324,11.65804 23.2152,10.79975 -383.46673,11.90428 -205.93835,0.55932 -376.46144,0.72856 -378.94022,0.37611 z m -37.18806,-67.56899 c -5.03389,-0.84033 -13.04237,-3.09728 -17.79661,-5.01545 l -8.64406,-3.48759 v -12.36307 -12.36307 l 5.59322,5.23308 c 13.97996,13.07979 37.0768,17.14021 48.65802,8.55404 8.08499,-5.99412 11.45642,-16.91664 8.23863,-26.6909 -2.7099,-8.23148 -8.21025,-11.2367 -32.85673,-17.95198 -14.75935,-4.02139 -24.20154,-12.71423 -27.62666,-25.43417 -4.62997,-17.19439 0.58263,-34.10473 13.5651,-44.00695 9.8793,-7.5353 31.06103,-9.04043 46.46231,-3.30152 l 10.1695,3.7894 0.61751,10.70292 0.61749,10.70292 -10.78698,-6.03472 c -5.93287,-3.3191 -14.15956,-6.64867 -18.28156,-7.39906 -21.29343,-3.87628 -36.61177,15.18582 -27.05483,33.66694 2.42233,4.68427 5.56245,6.64385 14.74576,9.20201 24.3092,6.77172 30.80899,9.42447 36.14337,14.75111 7.27275,7.26219 9.09291,12.59143 9.03932,26.46626 -0.11256,29.13397 -20.97141,45.95966 -50.8028,40.9798 z m 581.78409,-0.54903 c -27.32112,-9.43513 -33.81948,-73.44303 -9.88611,-97.3764 9.78602,-9.78602 13.86474,-10.07988 13.86474,-0.99893 0,4.56409 -1.63461,8.29973 -5.02573,11.48552 -6.68542,6.28064 -9.7264,16.22 -9.92658,32.44471 -0.22346,18.11449 1.93174,27.34442 8.09538,34.6695 4.16323,4.94771 6.77,6.16158 13.23188,6.16158 14.77867,0 22.07694,-12.77508 22.07694,-38.64407 0,-17.45752 -3.15087,-28.04107 -10.3504,-34.76646 -4.05397,-3.78696 -5.8981,-7.48027 -5.8981,-11.81227 0,-7.86861 3.59029,-8.15321 12.13651,-0.96204 13.17035,11.08211 19.26378,34.0927 16.06477,60.66515 -2.44322,20.29448 -11.34682,34.53393 -24.77437,39.6215 -7.09613,2.68865 -10.6683,2.59979 -19.60893,-0.48779 z m -379.68409,-3.27897 c -15.71427,-9.58208 -22.08161,-26.35694 -20.7237,-54.59681 0.70882,-14.74084 1.85164,-19.60214 6.70035,-28.50118 7.356,-13.50083 16.60925,-19.54476 29.92296,-19.54476 18.13224,0 28.92688,14.07921 31.39802,40.95177 l 1.356,14.74576 h -23.6819 -23.6819 v -7.11865 -7.11864 h 17.50863 17.50864 l -1.3075,-5.59322 c -2.65141,-11.34244 -5.94829,-17.04397 -11.52236,-19.92643 -7.27488,-3.76198 -10.74347,-3.71843 -18.38044,0.23081 -17.69591,9.15089 -19.32628,55.24273 -2.47737,70.03627 10.51902,9.23583 26.89575,7.75127 39.85685,-3.61302 3.33158,-2.92112 3.55932,-2.46764 3.55932,7.08759 0,10.14862 -0.0511,10.22788 -8.71206,13.53557 -12.00763,4.58575 -29.29686,4.31937 -37.32354,-0.57506 z m 82.48647,-0.72244 c -15.10712,-10.18068 -21.05198,-25.94837 -19.78979,-52.4889 1.50374,-31.62 14.68906,-49.43141 36.59276,-49.43141 18.15928,0 29.31199,14.57137 31.54574,41.21548 l 1.21412,14.48205 h -23.68481 -23.68483 v -7.11865 -7.11864 h 17.44975 17.44973 l -1.38008,-6.61017 c -3.74036,-17.91504 -15.1751,-25.54621 -28.65036,-19.12031 -9.68242,4.61723 -14.93874,16.49847 -14.98251,33.86607 -0.0448,17.79084 3.10495,27.97453 11.13669,36.00627 5.43028,5.43028 8.31077,6.7056 15.14558,6.7056 8.43739,0 18.31253,-3.834 25.01765,-9.71305 3.33158,-2.92112 3.55932,-2.46764 3.55932,7.08759 0,10.14862 -0.0511,10.22788 -8.71206,13.53557 -12.96029,4.94958 -29.80528,4.37783 -38.2269,-1.2975 z m 79.71903,1.30802 C 723.66427,440.02733 722.0339,431.95426 722.0339,394.6416 V 360 h -5.08475 c -4.43556,0 -5.08474,-0.89079 -5.08474,-6.97719 0,-5.68708 0.84616,-7.09735 4.57627,-7.62711 4.19929,-0.5964 4.62549,-1.86464 5.17385,-15.3957 l 0.59758,-14.74576 h 6.01259 6.01259 v 15.25423 15.25424 h 13.22034 13.22034 V 352.88136 360 h -13.22034 -13.22034 v 31.42973 c 0,19.68775 0.89011,33.38333 2.38259,36.65892 2.85386,6.26357 10.44069,8.59113 18.31509,5.61887 5.67517,-2.14212 5.743,-2.07631 5.743,5.57359 0,5.1828 -1.06328,8.14932 -3.2172,8.97586 -6.20004,2.37917 -20.32898,1.20338 -25.01968,-2.0821 z m 434.85721,-1.30802 c -15.3557,-10.34823 -21.1115,-25.99155 -19.6963,-53.53184 0.7881,-15.33612 1.9302,-20.29568 6.6863,-29.03412 7.2396,-13.30155 16.5632,-19.35435 29.813,-19.35435 18.1593,0 29.312,14.57137 31.5457,41.21548 l 1.2142,14.48205 h -23.6848 -23.6849 v -7.11865 -7.11864 h 17.4498 17.4497 l -1.3801,-6.61017 c -3.7403,-17.91504 -15.1751,-25.54621 -28.6503,-19.12031 -9.6825,4.61723 -14.9388,16.49847 -14.9826,33.86607 -0.045,17.79084 3.105,27.97453 11.1367,36.00627 5.4303,5.43028 8.3108,6.7056 15.1456,6.7056 8.4374,0 18.3126,-3.834 25.0177,-9.71305 3.3316,-2.92112 3.5593,-2.46764 3.5593,7.08759 0,10.14862 -0.051,10.22788 -8.7121,13.53557 -12.9603,4.94958 -29.8052,4.37783 -38.2269,-1.2975 z M 443.45906,401.28421 c -4.89496,-25.50293 -9.30787,-48.42828 -9.80644,-50.94523 -0.78113,-3.9434 -0.0488,-4.57627 5.29526,-4.57627 7.44299,0 6.80746,-1.80335 13.61904,38.64407 2.91999,17.33898 5.93951,33.1293 6.71006,35.08957 0.86632,2.20391 4.84454,-11.18596 10.42397,-35.08475 8.99475,-38.52797 9.04033,-38.64889 14.57243,-38.64889 5.50562,0 5.61556,0.27724 13.91402,35.08475 4.60052,19.29661 9.04778,36.75663 9.8828,38.80003 0.9556,2.33841 3.61999,-9.34469 7.18952,-31.52543 7.18184,-44.62702 6.43711,-42.35935 13.9114,-42.35935 5.37691,0 6.04458,0.59799 5.1097,4.57627 -0.5915,2.51695 -5.03211,25.39831 -9.86803,50.84746 l -8.7926,46.27119 h -6.22387 -6.22389 l -9.04383,-37.60294 c -4.97412,-20.68161 -9.5264,-37.61382 -10.11617,-37.62712 -0.58977,-0.0142 -5.20326,16.67921 -10.25219,37.09446 l -9.17987,37.11865 -6.11067,0.60624 -6.11066,0.60627 z M 825.76271,379.32203 V 311.18644 H 832.88136 840 v 26.44068 26.44068 h 25.42373 25.42373 v -26.44068 -26.44068 h 7.11864 7.11865 v 68.13559 68.1356 h -7.11865 -7.11864 V 413.89831 380.33898 H 865.42373 840 v 33.55933 33.55932 h -7.11864 -7.11865 z m 189.15259,17.28814 v -50.84746 h 7.1186 c 6.3128,0 7.1186,0.59943 7.1186,5.29544 v 5.29544 l 6.9676,-6.1176 c 12.4038,-10.89072 25.1471,-10.38909 33.8121,1.33096 l 4.4424,6.0087 8.8359,-6.74456 c 11.1671,-8.52409 18.6946,-10.23603 27.9691,-6.36088 13.1356,5.48839 14.4967,10.82736 15.2363,59.76708 l 0.6531,43.22034 h -6.2463 -6.2464 l -0.012,-35.08475 c -0.012,-39.86475 -1.7747,-49.57214 -9.5322,-52.52154 -6.3617,-2.41871 -11.7478,-0.95137 -20.4565,5.57299 l -6.6102,4.95217 v 38.54056 38.54057 h -5.8606 -5.8606 l -0.8107,-39.42212 c -0.8607,-41.85075 -1.4732,-44.46746 -11.2828,-48.19704 -5.5566,-2.11265 -13.9051,0.648 -20.4225,6.75325 -4.4319,4.1516 -4.5763,5.49482 -4.5763,42.57637 l 8e-4,38.28954 h -7.1186 -7.1186 z M 706.5338,269.62052 c -6.8904,-2.99889 -15.47886,-13.0402 -18.94017,-22.14415 -11.36751,-29.89884 -3.39679,-75.83867 15.11726,-87.12932 9.4369,-5.75503 13.22133,-4.93259 13.22125,2.87329 -4e-5,5.10407 -1.60602,7.89157 -7.04853,12.23416 -8.92495,7.12123 -11.9516,17.43343 -11.78077,40.13872 0.14522,19.29262 2.34315,26.86288 10.18674,35.08475 4.04402,4.23905 7.26208,5.59322 13.29187,5.59322 16.32653,0 25.52095,-19.81225 23.23782,-50.07318 -1.14014,-15.11141 -6.91056,-29.82242 -12.54618,-31.98502 -3.77417,-1.44828 -4.49651,-17.60282 -0.7871,-17.60282 4.47598,0 16.00916,10.43833 19.84871,17.96447 12.9142,25.31388 9.55828,70.22072 -6.53575,87.45769 -9.70281,10.39185 -24.0914,13.32177 -37.26515,7.58819 z m 244.59283,0.0639 c -18.92129,-7.03751 -27.7368,-24.45932 -27.7368,-54.81525 0,-23.9711 3.89315,-37.46722 13.80639,-47.86181 14.43669,-15.13764 34.22119,-16.16164 47.2681,-2.44647 8.75648,9.20495 12.14585,19.68061 12.14585,37.53953 v 13.49284 h -25.42373 -25.42373 v -7.11864 -7.11865 h 19.32204 c 12.22214,0 19.32203,-0.79009 19.32203,-2.15019 0,-1.18261 -1.02988,-6.24025 -2.28864,-11.2392 -5.5474,-22.03073 -30.53282,-23.33763 -41.93988,-2.19373 -4.22569,7.83265 -4.69916,38.98249 -0.76914,50.6013 6.67896,19.74582 29.89336,25.14244 49.37943,11.47916 2.96929,-2.082 5.94386,-3.78547 6.61017,-3.78547 0.6663,0 1.21145,4.10003 1.21145,9.11121 0,8.629 -0.4443,9.33787 -8.39512,13.39408 -10.84741,5.53393 -26.94453,6.88433 -37.08842,3.11139 z M 575.59322,195.25424 v -75.51197 l 6.61017,0.63734 6.61017,0.63734 0.56433,28.98305 0.5643,28.98305 h 27.4018 27.40177 V 149.49153 120 h 7.11865 7.11864 v 75.25424 75.25423 h -7.11864 -7.11865 v -36.61016 -36.61017 h -27.4107 -27.41069 l -0.55541,36.10169 -0.5554,36.1017 -6.61017,0.63734 -6.61017,0.63734 z m 205.42373,19.32203 v -55.9322 h 6.10169 c 5.15254,0 6.1017,0.79096 6.1017,5.08474 0,6.49197 1.02563,6.39141 9.34902,-0.91663 13.17553,-11.56826 31.39623,-9.66835 38.47029,4.01138 l 3.25737,6.29907 7.43841,-7.2249 c 16.82073,-16.33795 34.83891,-14.37646 45.46804,4.94973 2.08574,3.79239 2.96781,17.13955 3.47042,52.51407 l 0.67389,47.42935 -6.77558,-0.64969 -6.77559,-0.64966 -1.01695,-44.02927 c -0.9147,-39.60216 -1.40654,-44.4592 -4.8915,-48.30508 -6.5027,-7.17616 -21.20795,-4.59683 -30.15466,5.28918 -3.04257,3.362 -3.58481,9.42923 -4.063,45.46248 l -0.55186,41.58269 -6.61016,0.63734 -6.61017,0.63734 -0.11472,-40.29836 c -0.073,-25.61709 -0.99919,-42.87588 -2.54237,-47.37336 -4.34589,-12.66579 -17.63127,-13.4567 -30.86485,-1.83746 l -7.15603,6.28301 v 41.48421 41.48422 h -6.1017 -6.10169 z m 489.24545,39.26553 c -2.1862,-1.26814 -15.0987,-11.53693 -28.6945,-22.81951 C 1122.6361,132.3253 990.80618,77.343151 838.98305,63.11677 810.2014,60.419825 743.93156,60.431907 713.89831,63.139576 571.24926,76.0002 432.05473,131.9182 326.03508,218.95416 c -8.72608,7.16359 -20.29524,16.65998 -25.70925,21.10307 -8.76421,7.1925 -11.04256,8.07836 -20.77668,8.07836 -9.31934,0 -11.98997,-0.928 -18.09409,-6.28749 -8.09239,-7.10522 -11.98478,-18.18256 -9.95505,-28.33116 1.66141,-8.30703 9.12585,-15.82014 41.39495,-41.66475 C 393.27614,91.45598 513.76613,36.243891 638.64407,13.419672 c 222.1884,-40.60987 450.40503,15.657919 625.42373,154.200888 36.227,28.67696 47.5353,39.50977 50.0679,47.96312 4.3616,14.55743 -2.6686,30.47972 -16.6499,37.70972 -6.7996,3.51622 -21.5933,3.81423 -27.2234,0.5484 z"
       id="path177" />
  </g>
</svg>
