<?xml version="1.0" encoding="UTF-8" standalone="no"?>
<!-- Created with Inkscape (http://www.inkscape.org/) -->

<svg
   version="1.1"
   id="svg469"
   width="1614.9153"
   height="2284.0679"
   viewBox="0 0 1614.9153 2284.0679"
   sodipodi:docname="wauneta..svg"
   inkscape:version="1.2 (dc2aedaf03, 2022-05-15)"
   xmlns:inkscape="http://www.inkscape.org/namespaces/inkscape"
   xmlns:sodipodi="http://sodipodi.sourceforge.net/DTD/sodipodi-0.dtd"
   xmlns="http://www.w3.org/2000/svg"
   xmlns:svg="http://www.w3.org/2000/svg">
  <defs
     id="defs473" />
  <sodipodi:namedview
     id="namedview471"
     pagecolor="#ffffff"
     bordercolor="#000000"
     borderopacity="0.25"
     inkscape:showpageshadow="2"
     inkscape:pageopacity="0.0"
     inkscape:pagecheckerboard="0"
     inkscape:deskcolor="#d1d1d1"
     showgrid="false"
     inkscape:zoom="0.35200355"
     inkscape:cx="808.23048"
     inkscape:cy="1143.4544"
     inkscape:window-width="1920"
     inkscape:window-height="991"
     inkscape:window-x="-9"
     inkscape:window-y="-9"
     inkscape:window-maximized="1"
     inkscape:current-layer="g475" />
  <g
     inkscape:groupmode="layer"
     inkscape:label="Image"
     id="g475">
    <path
       style="fill:#000000;stroke-width:2.0339"
       d="m 717.33671,1559.9594 c -130.97616,-11.7302 -257.84419,-55.5503 -365.71416,-126.3172 -34.97545,-22.9452 -88.9015,-65.6819 -91.49879,-72.5133 -4.80573,-12.6401 -0.67419,-28.7987 9.38701,-36.7128 12.7677,-10.0431 29.07867,-6.9805 45.71862,8.5842 12.90761,12.0736 53.14892,41.8111 76.09809,56.2349 94.18391,59.1958 197.24648,94.9803 311.3844,108.1163 33.47262,3.8524 121.66034,3.2523 156.61018,-1.0656 136.39637,-16.8512 260.37054,-68.5391 366.19504,-152.6758 9.5606,-7.6012 20.5297,-14.6893 24.3759,-15.7512 18.5575,-5.124 37.9388,10.9816 37.8789,31.4767 -0.043,14.7026 -4.1552,20.555 -26.8862,38.2642 -109.9448,85.6552 -239.0261,139.3235 -381.22466,158.5022 -34.789,4.6921 -128.21518,6.9122 -162.32433,3.8574 z M 1312.701,1320.2219 c -13.9009,-8.4767 -19.6146,-22.4784 -15.1939,-37.2333 1.4666,-4.895 7.0955,-13.1486 14.1081,-20.6867 41.6715,-44.7938 82.1639,-104.9646 112.4159,-167.0476 l 15.8573,-32.5424 -117.4018,-1.0169 c -123.0359,-1.0658 -123.7459,-1.1215 -128.5416,-10.0824 -3.4695,-6.4828 -2.3685,-15.7967 2.5422,-21.5058 l 4.6228,-5.3742 124.8567,0.2581 c 68.6711,0.1419 125.5296,0.674 126.3522,1.1824 1.9696,1.2173 16.4857,-44.39824 24.0759,-75.65617 14.0517,-57.86785 19.4256,-105.19101 19.3635,-170.51689 -0.065,-68.28096 -5.5465,-113.45206 -21.4728,-176.94917 -6.6698,-26.59218 -18.2019,-63.4912 -24.2601,-77.62432 l -3.8266,-8.9271 -121.5739,0.17613 -121.574,0.17614 -4.5763,-5.31883 c -7.0068,-8.14377 -6.2752,-19.572 1.6815,-26.26715 l 6.2577,-5.26572 h 111.8454 111.8455 l -1.3417,-4.57627 c -5.8784,-20.05078 -59.9101,-107.37269 -87.876,-142.01852 -23.3474,-28.92415 -26.9047,-40.8455 -17.141,-57.444 7.9556,-13.52474 29.3853,-18.7716 42.5588,-10.42015 7.7747,4.92876 41.936,48.55141 64.4151,82.25555 126.7665,190.06735 164.2637,427.8746 101.8234,645.76274 -23.3849,81.60273 -55.3351,150.89003 -101.7602,220.67793 -30.8627,46.3939 -73.9343,98.8319 -87.2192,106.186 -8.4632,4.685 -23.0054,4.59 -30.8629,-0.2014 z M 203.89229,1304.2373 c -10.41813,-5.6589 -44.43276,-47.9639 -73.32698,-91.199 C -1.5303936,1015.3807 -35.414133,762.76789 39.742976,535.93223 67.584643,451.90182 114.16952,365.26212 167.58851,298.16196 c 8.17837,-10.27294 15.97676,-20.7465 17.32976,-23.27461 6.0348,-11.27612 26.02394,-16.07583 39.00149,-9.36486 12.21059,6.31434 17.88863,25.09822 11.34417,37.52837 -1.4724,2.79661 -10.41803,14.69492 -19.87918,26.44068 -31.83438,39.52158 -57.0826,78.39344 -80.58504,124.0678 l -13.08217,25.42373 116.94487,1.01695 116.94489,1.01695 5.24719,4.9308 c 7.15507,6.72362 7.27351,18.65154 0.25491,25.67012 l -4.99228,4.9923 H 231.15751 c -117.09779,0 -125.05131,0.22394 -126.41752,3.55933 -15.216054,37.14771 -33.465366,106.84666 -40.872185,156.1017 -6.486195,43.13294 -8.811395,119.17993 -5.018217,164.1237 4.553691,53.95477 18.916542,124.57544 34.046202,167.40178 l 5.748281,16.2711 129.152549,1.017 c 133.33074,1.0498 135.9995,1.2276 139.08275,9.2624 2.87849,7.5012 1.22518,17.3942 -3.73607,22.3555 l -4.99229,4.9923 H 236.02465 c -67.16948,0 -122.12634,0.6978 -122.12634,1.5506 0,3.1328 28.85846,60.5246 39.99067,79.5308 17.23499,29.4256 40.98635,63.7681 61.05696,88.2835 27.63264,33.7521 31.15692,39.2963 31.14816,49.0005 -0.0203,21.6235 -22.83719,34.6955 -42.20181,24.1769 z m 326.9716,-31.3773 c -15.40849,-7.9678 -22.25482,-22.5958 -19.42074,-41.4947 2.79624,-18.6467 21.03053,-30.0153 52.59624,-32.7925 l 13.86989,-1.2203 -0.64955,7.934 -0.64954,7.9339 -11.20186,1.205 c -24.29451,2.6133 -34.56086,9.8553 -34.56086,24.3796 0,5.258 1.57747,9.5818 4.90865,13.4545 4.55758,5.2985 5.98719,5.7067 19.99001,5.7067 13.26128,0 16.28939,-0.7478 25.09135,-6.1957 l 10.00999,-6.1957 v -31.0939 -31.0938 l -6.64226,-5.9308 c -6.13098,-5.4743 -7.85304,-5.929 -22.37288,-5.9067 -8.65184,0.013 -20.76452,1.3753 -26.91706,3.0267 -6.15254,1.6514 -11.92304,3.0134 -12.8233,3.0267 -0.90029,0.014 -1.35791,-4.3159 -1.01695,-9.6205 l 0.61991,-9.6446 14.23729,-2.6943 c 19.79077,-3.7454 43.28392,-2.0522 55.48047,3.9985 7.2223,3.583 10.73925,7.0155 14.18055,13.8398 4.33743,8.6014 4.57627,11.4409 4.57627,54.4067 v 45.3318 h -9.15254 c -8.40678,0 -9.15255,-0.4143 -9.15255,-5.0847 0,-2.7967 -0.47149,-5.0848 -1.04776,-5.0848 -0.57626,0 -6.13849,2.873 -12.36047,6.3845 -15.70334,8.8624 -34.46556,10.2125 -47.5923,3.4246 z m 139.30562,0.603 c -18.99557,-8.7228 -21.15382,-16.0234 -21.26666,-71.9375 l -0.0893,-44.2373 h 8.88057 8.88059 l 1.01034,42.2034 c 1.09438,45.7137 2.34207,51.5824 12.03195,56.5932 9.24132,4.7789 20.4494,3.5572 34.61207,-3.7727 l 12.88956,-6.671 0.54814,-44.1765 0.54814,-44.1764 h 9.11288 9.11288 v 57.9661 57.9661 h -9.15254 c -8.85871,0 -9.15255,-0.2003 -9.15255,-6.2402 v -6.2402 l -5.95395,4.2396 c -17.29232,12.3132 -36.75795,15.4881 -52.01215,8.4834 z m 290.52967,1.7071 c -18.71223,-3.7021 -31.83842,-14.1156 -39.63169,-31.4412 -6.51783,-14.4902 -6.52021,-42.4491 -0.004,-56.9492 9.13501,-20.3301 25.04663,-31.5097 47.07299,-33.0736 32.95522,-2.3398 51.44492,14.133 54.31712,48.3924 l 1.1873,14.1727 h -37.92208 -37.92211 v -7.1186 -7.1186 h 28.20148 28.20151 l -1.4725,-8.0527 c -3.26175,-17.8367 -13.73289,-25.3852 -33.47065,-24.1284 -15.35613,0.9778 -23.39642,6.1552 -29.66361,19.1015 -3.86146,7.9768 -4.36554,11.7653 -3.62532,27.2475 0.73092,15.2878 1.68199,19.2251 6.34669,26.2739 8.52037,12.8752 18.93104,17.1752 38.9131,16.0727 12.53676,-0.6917 18.89919,-2.1844 27.01019,-6.3368 5.8357,-2.9876 11.0984,-5.432 11.6949,-5.432 0.5965,0 1.0846,4.4294 1.0846,9.843 0,11.3203 -1.6912,12.61 -23.18369,17.6787 -13.56154,3.1983 -24.11135,3.4451 -37.13416,0.8687 z m 117.82122,-0.2223 c -11.0692,-2.5087 -19.7353,-11.2498 -22.6571,-22.8534 -1.2811,-5.0877 -2.3039,-25.0034 -2.3039,-44.8594 v -35.7095 h -6.1017 c -5.6175,0 -6.1017,-0.565 -6.1017,-7.1187 0,-6.5536 0.4842,-7.1186 6.1017,-7.1186 h 6.1017 v -17.2881 -17.2882 h 10.1694 10.1695 v 17.2882 17.2881 h 20.339 20.339 v 7.1186 7.1187 h -20.339 -20.339 v 36.7112 c 0,47.2946 1.455,50.7464 21.3899,50.7464 4.8696,0 11.2015,-0.8926 14.071,-1.9836 5.1165,-1.9453 5.2171,-1.8087 5.2171,7.0799 0,7.7634 -0.6565,9.199 -4.5763,10.0081 -11.2417,2.3206 -23.5515,2.657 -31.4796,0.8603 z m 73.683,-1.3746 c -14.6714,-7.0042 -21.3559,-17.6188 -21.3559,-33.9121 0,-24.5427 17.2119,-38.0732 52.1938,-41.0302 l 15.2074,-1.2855 -0.6498,7.9375 -0.6497,7.9375 -13.1171,1.4465 c -23.6877,2.6123 -32.6456,9.4962 -32.6456,25.0877 0,7.2151 1.0665,9.5948 6.2577,13.963 9.0333,7.601 25.75,7.4253 40.7982,-0.429 l 10.9102,-5.6944 1.3158,-12.1022 c 0.7238,-6.6561 1.0266,-20.616 0.6729,-31.0217 -0.7022,-20.6641 -3.4804,-27.6116 -12.397,-31.0017 -7.7542,-2.9482 -33.4529,-2.3239 -44.6922,1.0857 -5.4913,1.6659 -10.7209,3.0387 -11.6211,3.0509 -0.9003,0.012 -1.3579,-4.2642 -1.017,-9.5028 0.5591,-8.5908 1.2182,-9.7085 6.7216,-11.3987 3.356,-1.0307 16.6271,-2.0072 29.4916,-2.1702 20.7134,-0.2623 24.4865,0.244 32.9741,4.4244 5.8727,2.8925 11.3863,7.6184 14.2373,12.2034 4.443,7.1452 4.682,9.6163 5.2967,54.771 l 0.6437,47.2881 h -10.3047 c -9.5538,0 -10.3048,-0.3598 -10.3048,-4.9374 v -4.9374 l -11.9618,6.1692 c -15.6776,8.0855 -34.1543,9.7155 -46.0043,4.0584 z m -825.46684,-75.8331 c -10.95547,-41.5141 -20.40682,-76.7514 -21.00301,-78.305 -0.84222,-2.1948 1.35622,-2.8249 9.85637,-2.8249 h 10.94038 l 16.20517,65.1797 c 10.56527,42.4951 16.73099,63.9078 17.71598,61.5254 0.83097,-2.0098 7.5213,-27.9085 14.86739,-57.5525 7.34612,-29.6441 14.27435,-57.3767 15.39609,-61.6281 l 2.03951,-7.7297 10.46062,0.6111 10.46063,0.6111 16.13985,64.6494 c 8.87691,35.5572 16.57207,64.2172 17.10033,63.689 0.52826,-0.5283 8.09408,-29.4501 16.81296,-64.2706 8.71887,-34.8206 16.30594,-63.7636 16.86016,-64.3178 0.55424,-0.5543 5.07037,-0.7247 10.03586,-0.3789 l 9.02817,0.6289 -11.90692,45.7627 c -6.54883,25.1695 -15.67205,60.178 -20.27386,77.7966 l -8.36693,32.0339 h -11.84713 -11.84714 l -2.01189,-7.6271 c -1.10652,-4.1949 -8.05491,-31.8209 -15.44085,-61.391 -7.38596,-29.5701 -14.08881,-54.9428 -14.89525,-56.3838 -0.80644,-1.4411 -8.16757,24.5832 -16.35806,57.8316 -8.19048,33.2484 -15.3233,62.0533 -15.85072,64.011 -0.77119,2.8626 -3.23345,3.5593 -12.57878,3.5593 h -11.61991 z m 460.38211,17.5142 v -57.9661 h 9.15254 c 8.40677,0 9.15254,0.4143 9.15254,5.0847 0,2.7966 0.4715,5.0848 1.04776,5.0848 0.57627,0 5.96858,-2.7771 11.9829,-6.1714 18.53668,-10.4615 40.15894,-10.6443 52.28364,-0.442 12.6591,10.6519 13.91328,16.6809 13.96307,67.1219 l 0.0447,45.2542 h -9.15254 -9.15255 v -35.3156 c 0,-38.9282 -2.14393,-55.1899 -8.05554,-61.1015 -2.5443,-2.5443 -7.67105,-4.2124 -14.70496,-4.7847 -9.27399,-0.7544 -12.66559,0.091 -24.01916,5.9852 l -13.22034,6.8637 -0.54813,44.1765 -0.54814,44.1764 h -9.11288 -9.11288 z M 399.31219,1056.8261 c -7.44561,-6.4045 -7.973,-19.2386 -1.07408,-26.1378 l 4.58636,-4.5866 373.67253,-1.0169 c 281.6016,-0.7664 375.2609,-0.433 380.119,1.3532 9.9936,3.6744 13.9879,15.4083 8.6441,25.3934 -5.5069,10.2896 11.258,9.8636 -388.13219,9.8636 H 404.97261 Z M 242.26237,916.1074 c -38.14562,-10.25864 -64.49699,-40.74381 -73.68074,-85.23912 -7.48692,-36.27417 -4.07629,-97.15509 7.18587,-128.27053 16.63316,-45.95457 51.96458,-78.18183 95.75793,-87.34481 16.52565,-3.45769 55.51634,-3.98959 66.61017,-0.90868 l 7.62712,2.11816 v 18.44659 c 0,18.08957 -0.0887,18.42598 -4.57627,17.3811 -29.16022,-6.7894 -35.9809,-7.71578 -47.28814,-6.42268 -15.14392,1.73186 -34.65409,7.68789 -42.66748,13.02543 -19.83332,13.21053 -36.07821,37.655 -42.77663,64.36798 -4.06731,16.22022 -5.01254,92.71446 -1.32647,107.34672 6.51918,25.87865 23.39344,46.59516 43.35322,53.22474 14.99494,4.98053 37.99658,3.30905 51.85564,-3.76823 21.17469,-10.81307 30.20042,-28.86319 30.20376,-60.40302 0.002,-24.22802 -3.83168,-35.09804 -16.4989,-46.77429 -14.45431,-13.32352 -20.37647,-15.11833 -49.60076,-15.03242 -18.74154,0.0551 -27.7629,0.97056 -34.32352,3.48309 -4.89489,1.8746 -9.28243,3.40837 -9.75013,3.40837 -0.46767,0 -0.58141,-6.63163 -0.25275,-14.73696 l 0.59758,-14.73696 13.00326,-4.62793 c 27.90519,-9.93163 66.14248,-7.91945 91.60864,4.82075 25.82648,12.92046 40.82294,34.61347 45.16783,65.33721 7.67791,54.29214 -23.17011,102.00749 -74.61,115.40588 -14.815,3.85881 -41.07362,3.81142 -55.61923,-0.10047 z m 222.48341,2.34858 c -1.11865,-0.45907 -5.46611,-1.40874 -9.66102,-2.11035 l -7.62712,-1.27568 v -19.44747 c 0,-17.72266 0.31568,-19.31776 3.55932,-17.98489 10.57544,4.34561 25.62316,7.06265 39.2337,7.08407 48.63828,0.0765 80.81306,-26.37063 93.5457,-76.89316 4.98602,-19.78434 5.64083,-84.84004 1.07094,-106.40014 -5.47106,-25.81175 -18.69197,-43.86824 -38.76559,-52.9442 -13.73888,-6.21183 -38.4766,-6.34926 -52.04622,-0.28916 -11.89238,5.31106 -23.5714,16.97599 -28.94624,28.91136 -5.27959,11.72389 -7.19261,44.65316 -3.38432,58.2551 3.091,11.03988 15.83168,26.02123 26.9557,31.69629 15.30887,7.81001 53.47123,8.2321 74.46897,0.82367 l 8.37584,-2.95518 v 15.07552 15.07554 l -16.37618,5.17322 c -21.28354,6.72348 -55.65793,7.32871 -74.96424,1.3199 -39.81354,-12.39136 -61.26413,-43.34792 -61.1719,-88.28067 0.0606,-29.54815 9.12928,-53.09971 27.57598,-71.61592 23.40029,-23.48843 54.83559,-33.82479 89.53437,-29.44007 63.39378,8.01076 95.76374,60.04158 91.71899,147.42729 -1.78814,38.63227 -10.39074,72.78527 -24.32854,96.58628 -3.61061,6.16568 -13.06151,17.72731 -21.00197,25.69251 -15.72779,15.77674 -34.69001,26.59895 -56.74922,32.38814 -11.31468,2.96941 -56.40653,6.02001 -61.01695,4.128 z m 292.88136,-2.07775 c -32.27229,-8.24424 -51.155,-26.89214 -62.74741,-61.96713 -9.36317,-28.33007 -12.00478,-52.57674 -10.87666,-99.83479 0.86685,-36.31378 1.67811,-44.31987 6.28578,-62.03391 10.14139,-38.98806 23.79899,-58.91321 48.87753,-71.3077 10.15098,-5.0169 18.77583,-7.68834 27.32477,-8.46352 l 12.49192,-1.13274 v 16.28587 16.28588 l -8.47285,1.13646 c -22.99123,3.08375 -38.38741,25.0717 -44.44019,63.46694 -3.35762,21.2987 -2.78046,98.05125 0.89471,118.98306 5.83076,33.20872 21.70814,54.18433 43.67325,57.69669 l 8.34508,1.33444 v 16.24715 16.24715 l -5.59322,-0.17309 c -3.07627,-0.0952 -10.16949,-1.34201 -15.76271,-2.77086 z m 38.05021,-13.42379 0.59386,-16.75405 8.70144,-2.56355 c 27.34388,-8.05586 38.89866,-34.79195 42.15261,-97.53511 1.52373,-29.3808 -1.51284,-77.50064 -5.93532,-94.05574 -6.64823,-24.88694 -19.73364,-41.1359 -36.80374,-45.70145 l -9.13194,-2.44243 v -16.13266 -16.13264 l 10.67797,1.25459 c 15.43641,1.81367 38.13478,13.6644 48.30736,25.22108 15.46725,17.5717 25.49294,43.58412 30.62457,79.45765 3.35662,23.46501 1.37136,95.95748 -3.18563,116.32506 -11.34883,50.72378 -36.12279,77.57297 -77.86559,84.38807 l -8.72943,1.42522 z m 473.47525,15.01284 c -14.416,-2.27049 -36.808,-7.70537 -46.2712,-11.23074 l -10.678,-3.97792 v -21.37929 c 0,-11.75861 0.6865,-21.02672 1.5254,-20.5958 37.1953,19.10441 58.2858,24.858 86.1942,23.51412 16.1276,-0.7766 21.8303,-1.96621 31.0506,-6.47725 22.0687,-10.79721 32.7907,-30.2409 32.6321,-59.1763 -0.1296,-23.61986 -8.3589,-37.34365 -28.4159,-47.38769 -17.5395,-8.78333 -53.6535,-11.06498 -87.3932,-5.52143 -10.0678,1.65417 -19.4491,3.02358 -20.8474,3.0431 -1.9893,0.0279 -2.5424,-16.56 -2.5424,-76.25705 v -76.29257 l 88.9831,0.52985 88.983,0.52985 0.5907,16.77967 0.5908,16.77966 h -70.2518 -70.2517 v 39.43422 39.43421 l 36.1017,0.95211 c 30.2405,0.79754 38.0563,1.66133 48.1409,5.32046 33.9586,12.32164 52.186,34.67054 55.9978,68.65957 3.5585,31.73186 -5.9312,63.22147 -25.2895,83.91698 -11.4734,12.26599 -32.9289,23.86472 -51.3768,27.774 -12.5538,2.66028 -45.0706,3.58151 -57.4724,1.62824 z m -197.781,-128.57657 -0.5241,-123.8297 -55.9322,65.19298 c -30.76273,35.85612 -56.23731,65.95234 -56.61018,66.88051 -0.3729,0.92817 21.82202,1.68757 49.32208,1.68757 h 49.9999 v 15.25424 15.25424 h -64.06775 -64.0678 v -22.42701 -22.427 l 72.40835,-84.35266 72.4084,-84.35267 h 18.1001 18.1001 v 91.52543 91.52543 h 22.3729 22.3729 v 15.25424 15.25424 h -22.3729 -22.3729 v 41.69491 41.69492 h -19.3064 -19.3064 z M 405.32367,516.9863 c -6.27598,-0.89239 -14.81518,-11.68446 -14.81518,-18.72382 0,-3.23288 2.18768,-8.37562 4.90852,-11.53888 l 4.90855,-5.70663 373.90502,-0.59809 c 263.87832,-0.42207 376.14592,0.0498 381.52032,1.60353 5.0924,1.47224 8.6299,4.16369 10.678,8.1242 4.41,8.52795 3.8085,13.37142 -2.5306,20.37958 l -5.5932,6.18356 -374.23728,0.45869 c -205.83052,0.25228 -376.26538,0.17023 -378.74415,-0.18224 z m -52.83216,-61.2731 c -14.9445,-5.3796 -14.86438,-5.28458 -14.86438,-17.63164 v -11.16991 l 6.71965,5.12533 c 19.54263,14.90589 46.21251,15.27301 53.98866,0.74314 1.42909,-2.67028 2.31199,-9.35359 1.96197,-14.85179 -0.54905,-8.62464 -1.52127,-10.5912 -7.08362,-14.32798 -3.54598,-2.3822 -11.90271,-5.489 -18.57055,-6.90401 -26.42322,-5.60739 -35.99916,-16.18031 -35.99916,-39.74717 0,-16.77936 4.81157,-26.45978 16.88219,-33.96527 9.74292,-6.05817 31.32899,-6.43886 45.66018,-0.80526 l 9.66102,3.79775 v 11.22535 c 0,10.60546 -0.19851,11.04564 -3.59589,7.9711 -6.65429,-6.02203 -21.72584,-11.52371 -31.69225,-11.56884 -8.53615,-0.0386 -10.79556,0.8865 -16.77966,6.87059 -5.65696,5.65696 -6.91525,8.46108 -6.91525,15.41069 0,12.49 7.01034,18.52729 26.88242,23.15101 26.24089,6.1056 36.15893,16.28022 36.16527,37.10091 0.004,14.08424 -3.23621,22.76563 -11.89017,31.85408 -11.56344,12.14402 -30.29424,15.00641 -50.53043,7.72192 z m 214.90503,-0.62843 c -16.01418,-8.09012 -22.28164,-22.07337 -22.30043,-49.75422 -0.0224,-33.02901 13.99056,-53.46613 36.65978,-53.46613 16.90314,0 26.74228,10.57823 30.31363,32.59066 3.91673,24.1413 5.6437,22.3246 -21.22205,22.3246 h -23.38983 v -6.1017 -6.10169 h 17.4252 c 15.62126,0 17.32146,-0.36848 16.42302,-3.55932 -0.55119,-1.95763 -1.59838,-6.52276 -2.3271,-10.1447 -4.14914,-20.62233 -32.69234,-18.58469 -39.76264,2.83857 -3.29656,9.98866 -1.56958,38.52311 2.84142,46.94799 7.55252,14.42505 24.12653,17.63841 40.74468,7.89952 l 9.40119,-5.50947 v 8.98782 c 0,8.83045 -0.17573,9.06344 -10.03806,13.30609 -12.89588,5.54764 -23.43139,5.46945 -34.76881,-0.25802 z m 83.38984,0 c -15.75682,-7.96009 -22.28105,-22.13305 -22.30044,-48.44441 -0.0252,-34.31522 13.80826,-54.78851 37.0063,-54.76833 18.25307,0.0163 28.71329,13.45641 31.25634,40.16189 l 1.40416,14.74576 h -23.65263 -23.65263 v -6.1017 -6.10169 h 17.52535 c 17.18188,0 17.50133,-0.0897 16.29897,-4.57627 -0.67453,-2.51695 -1.23891,-6.10774 -1.25419,-7.97953 -0.0163,-1.87182 -2.39725,-6.21928 -5.2933,-9.66102 -10.66387,-12.6733 -30.66844,-5.53402 -35.5979,12.70428 -3.06071,11.32421 -1.3883,37.30304 2.93522,45.59508 7.51945,14.42147 24.11073,17.63931 40.73042,7.89952 l 9.40119,-5.50947 v 8.98782 c 0,8.83045 -0.17573,9.06344 -10.03806,13.30609 -12.89587,5.54764 -23.43138,5.46945 -34.7688,-0.25802 z m 78.92579,1.51989 c -9.68386,-5.45455 -10.6586,-9.58924 -11.74605,-49.82498 -1.00326,-37.1208 -1.07853,-37.63587 -5.59322,-38.27705 -3.73011,-0.52977 -4.57627,-1.94004 -4.57627,-7.62712 0,-6.0864 0.64918,-6.97719 5.08475,-6.97719 4.93946,0 5.08474,-0.40678 5.08474,-14.23729 v -14.23729 h 6.1017 6.10169 v 14.23729 14.23729 h 13.22034 13.22034 v 7.11865 7.11864 h -13.22034 -13.22034 v 33.10676 c 0,40.46897 1.06461,43.14903 16.54906,41.66116 l 9.89162,-0.95045 v 6.70005 c 0,7.90904 -0.96466,8.68115 -12.54319,10.03937 -5.83924,0.68499 -10.68269,-0.0203 -14.35483,-2.08784 z m 211.95104,-0.72061 c -4.90194,-2.6125 -8.96813,-7.42798 -13.18861,-15.61892 -5.70598,-11.0739 -6.10169,-13.31154 -6.10169,-34.5024 0,-21.19086 0.39571,-23.4285 6.10169,-34.5024 4.22307,-8.19594 8.29345,-13.01488 13.22034,-15.6516 l 7.11865,-3.8097 0.63803,7.26519 c 0.50603,5.76212 -0.41026,8.08977 -4.42904,11.25094 -7.25143,5.70398 -10.32592,16.65325 -10.23895,36.46452 0.06,13.69611 0.99867,19.07001 4.51719,25.86419 7.36393,14.21959 18.81301,17.01289 28.79951,7.02639 6.97806,-6.97808 10.1821,-17.64785 10.1821,-33.90753 0,-16.13675 -2.96871,-26.09012 -10.25776,-34.3919 -5.69709,-6.48862 -8.53845,-19.50641 -4.25762,-19.50641 4.90985,0 15.92819,10.34636 20.51919,19.26775 4.73711,9.20537 5.20531,12.32024 5.20531,34.63056 0,22.31032 -0.4682,25.42519 -5.20531,34.63056 -9.26966,18.01318 -26.2861,24.19757 -42.62303,15.49076 z m 224.57629,0.0163 c -15.2182,-7.12001 -23.1886,-24.3373 -23.1886,-50.09168 0,-33.48202 14.052,-53.95658 37.0176,-53.93661 18.2708,0.0163 28.881,13.61144 31.3494,40.1702 l 1.3697,14.73745 h -23.6819 -23.6819 v -6.1017 -6.10169 h 17.5253 c 17.1819,0 17.5013,-0.0897 16.299,-4.57627 -0.6745,-2.51695 -1.2389,-6.10774 -1.2542,-7.97953 -0.016,-1.87182 -2.3973,-6.21928 -5.2933,-9.66102 -10.6639,-12.6733 -30.6684,-5.53402 -35.5979,12.70428 -3.0607,11.32421 -1.3883,37.30304 2.9352,45.59508 7.4463,14.28112 23.8216,17.55284 40.6837,8.12843 l 9.4479,-5.28055 v 9.11315 c 0,8.59454 -0.434,9.2989 -7.6271,12.37727 -11.8907,5.08875 -26.5737,5.45369 -36.3029,0.90231 z M 438.68224,407.38554 c -5.30357,-27.73953 -9.61741,-51.12194 -9.58629,-51.96092 0.0311,-0.83898 2.72652,-1.52542 5.98977,-1.52542 6.81348,0 6.52379,-0.93322 14.5222,46.77966 2.53159,15.10169 5.14275,28.097 5.80257,28.87847 0.65983,0.78144 5.28423,-15.92195 10.27643,-37.11865 8.88104,-37.70947 9.1897,-38.54036 14.31671,-38.54036 5.11194,0 5.45903,0.90712 14.20188,37.11865 4.92903,20.41525 9.50461,37.79436 10.16795,38.62025 0.66331,0.82588 3.74487,-14.27581 6.84791,-33.55932 7.13536,-44.34222 6.43019,-42.17958 13.75363,-42.17958 5.73181,0 5.99024,0.35469 4.81649,6.61017 -0.68217,3.63559 -5.12745,26.74576 -9.87842,51.35594 l -8.63811,44.74576 h -5.97644 -5.97647 l -9.45362,-37.62712 c -5.1995,-20.69492 -9.64729,-38.08475 -9.88398,-38.64407 -0.23668,-0.55932 -4.7652,16.37288 -10.06336,37.62712 l -9.63303,38.64407 -5.98145,0.60498 -5.98147,0.60501 -9.6429,-50.43552 z m 383.0127,-18.91095 v -69.15254 h 7.11864 7.11865 v 27.45763 27.45763 h 25.42373 25.42373 v -27.5865 -27.5865 l 6.61017,0.63735 6.61017,0.63734 v 68.13559 68.1356 l -6.61017,0.63734 -6.61017,0.63734 v -33.68819 -33.68819 h -25.42373 -25.42373 v 33.55933 33.55932 h -7.11865 -7.11864 z m 189.15256,17.28814 v -51.86441 h 7.1186 c 6.361,0 7.1187,0.57889 7.1187,5.43928 v 5.43929 l 4.5762,-4.16817 c 6.8621,-6.25015 12.6921,-8.7443 20.4395,-8.7443 7.764,0 16.7255,5.94112 18.7945,12.45997 1.2898,4.06373 1.5737,3.9962 7.7474,-1.8429 13.367,-12.64257 26.3281,-14.4002 35.8647,-4.86358 8.6431,8.64306 10.181,17.82472 10.1934,60.85669 l 0.011,39.15254 h -5.949 -5.9491 l -0.6611,-40.46909 c -0.5946,-36.39561 -1.0511,-40.89958 -4.5357,-44.74576 -5.3049,-5.85549 -14.5724,-5.43633 -23.9822,1.08468 l -7.7365,5.36135 v 39.38441 39.38441 h -5.8606 -5.8606 l -0.8089,-39.33252 c -0.6799,-33.06424 -1.3741,-40.19523 -4.3557,-44.74577 -4.664,-7.11816 -14.0917,-7.217 -24.337,-0.25517 l -7.5907,5.15807 v 39.58769 39.5877 h -7.1187 -7.1186 z M 708.77103,280.74146 c -15.57765,-3.53179 -25.78481,-18.26846 -29.57546,-42.69985 -5.26373,-33.92551 7.28625,-67.46288 27.07564,-72.35432 5.39064,-1.33243 5.59322,-1.09169 5.59322,6.64711 0,6.64018 -0.90047,8.43989 -5.20383,10.40064 -17.36167,7.9105 -19.27422,63.83119 -2.69622,78.83408 2.59428,2.34779 7.23293,3.76218 12.33844,3.76218 6.59614,0 9.28196,-1.23189 13.86212,-6.35799 13.57889,-15.19741 13.42696,-58.74518 -0.2527,-72.42483 -4.45029,-4.4503 -5.84442,-7.74777 -5.84442,-13.82357 0,-4.38853 0.91261,-7.97914 2.02804,-7.97914 4.52624,0 18.09903,14.90911 22.15405,24.33525 8.53544,19.84119 7.60357,52.83071 -2.05598,72.7847 -6.8636,14.17829 -22.76527,22.19892 -37.4229,18.87574 z m 235.97476,-2.95754 c -14.01738,-6.28273 -22.60621,-20.38312 -25.20588,-41.38076 -3.47908,-28.10097 4.43591,-55.8351 18.86742,-66.11123 8.13437,-5.79219 26.71153,-7.21065 35.42477,-2.70485 3.4918,1.80567 8.8441,7.5411 11.89402,12.74539 4.50893,7.6939 5.71175,12.63338 6.43584,26.42935 l 0.89054,16.967 h -25.67878 -25.67878 v -6.02536 -6.02538 l 18.81356,-0.58479 18.81356,-0.58481 -0.46088,-7.74119 c -1.62136,-27.23394 -30.06525,-32.14676 -43.49854,-7.51304 -1.79872,3.29847 -2.7602,11.87257 -2.73693,24.40678 0.0291,15.71333 0.87134,21.03972 4.50933,28.51899 5.34192,10.98236 13.35238,16.22677 24.78525,16.22677 8.10116,0 22.88225,-5.87343 25.51941,-10.14043 2.93823,-4.75417 5.1027,-1.42179 5.1027,7.85608 v 9.91902 l -10.03806,4.31827 c -11.52136,4.95634 -28.4531,5.59499 -37.75855,1.42419 z M 571.52544,204.40679 V 130.1695 h 7.11864 7.11865 v 29.49152 29.49153 h 27.45763 27.45762 V 159.66102 130.1695 h 7.11865 7.11864 v 74.23729 74.23729 h -7.11864 -7.11865 v -36.61017 -36.61017 h -27.45762 -27.45763 v 36.61017 36.61017 h -7.11865 -7.11864 z m 205.42373,18.30508 v -55.9322 h 6.1017 c 5.42075,0 6.10169,0.67946 6.10169,6.08826 v 6.08826 l 9.30834,-7.10521 c 7.50356,-5.7276 11.11373,-7.10521 18.62,-7.10521 8.18977,0 10.22758,0.9628 16.91349,7.99117 l 7.60182,7.99117 4.79514,-5.13357 c 7.10497,-7.60646 14.64653,-10.84877 25.23402,-10.84877 7.86175,0 10.40535,1.0179 15.09883,6.0423 8.56196,9.1656 10.22498,19.90733 10.22498,66.04479 v 41.81122 h -7.11865 -7.11864 v -41.79592 c 0,-46.88431 -1.22923,-52.40392 -12.20734,-54.81512 -4.66539,-1.02469 -8.38004,-0.0651 -15.18447,3.92256 -4.95446,2.90351 -9.58308,6.20942 -10.28581,7.34647 -0.70273,1.13705 -1.17452,20.80416 -1.0484,43.70469 l 0.22931,41.63732 h -7.04762 -7.04764 l -0.65317,-43.90841 -0.65317,-43.9084 -5.92505,-5.09302 c -7.29909,-6.27413 -15.10474,-5.30387 -25.59213,3.18114 l -7.12689,5.76614 -0.54974,41.98128 -0.54974,41.98127 h -6.06043 -6.06043 z m 493.22033,31.24856 c -2.2373,-1.33209 -12.3051,-9.4494 -22.3729,-18.03849 C 1199.5354,194.74907 1151.2648,162.90097 1095.2543,135.2771 1020.9575,98.634645 950.80398,77.30989 867.45765,66.03317 833.77634,61.4761 754.13083,59.827174 717.62191,62.931072 573.33744,75.19778 436.0514,129.83052 327.07622,218.34804 c -11.21789,9.11197 -24.08268,19.5418 -28.58844,23.17739 -6.94775,5.606 -9.83898,6.61017 -19.03196,6.61017 -9.21502,0 -11.91301,-0.94236 -18.00075,-6.28749 -9.80276,-8.60695 -12.75756,-19.77982 -8.31049,-31.42428 3.40512,-8.91616 22.30359,-25.98568 61.09272,-55.18029 C 422.82538,73.514796 552.88175,22.20412 695.59324,4.7885508 c 41.10025,-5.01560344 129.78088,-5.0143122 170.8091,0.00248 148.40606,18.1466232 279.26826,70.8199422 390.54686,157.1989892 50.8973,39.50861 58.983,48.06733 58.983,62.4335 0,8.25956 -6.9278,21.77634 -13.6659,26.66325 -6.521,4.72944 -26.0442,6.47738 -32.0968,2.87366 z"
       id="path479" />
  </g>
</svg>
