<?xml version="1.0" encoding="UTF-8" standalone="no"?>
<!-- Created with Inkscape (http://www.inkscape.org/) -->

<svg
   version="1.1"
   id="svg59"
   width="2052.2034"
   height="1494.9153"
   viewBox="0 0 2052.2034 1494.9153"
   sodipodi:docname="wineglass-abstract.svg"
   inkscape:version="1.2 (dc2aedaf03, 2022-05-15)"
   xmlns:inkscape="http://www.inkscape.org/namespaces/inkscape"
   xmlns:sodipodi="http://sodipodi.sourceforge.net/DTD/sodipodi-0.dtd"
   xmlns="http://www.w3.org/2000/svg"
   xmlns:svg="http://www.w3.org/2000/svg">
  <defs
     id="defs63" />
  <sodipodi:namedview
     id="namedview61"
     pagecolor="#ffffff"
     bordercolor="#000000"
     borderopacity="0.25"
     inkscape:showpageshadow="2"
     inkscape:pageopacity="0.0"
     inkscape:pagecheckerboard="0"
     inkscape:deskcolor="#d1d1d1"
     showgrid="false"
     inkscape:zoom="0.97"
     inkscape:cx="1083.5052"
     inkscape:cy="675.7732"
     inkscape:window-width="1920"
     inkscape:window-height="991"
     inkscape:window-x="-9"
     inkscape:window-y="-9"
     inkscape:window-maximized="1"
     inkscape:current-layer="g65" />
  <g
     inkscape:groupmode="layer"
     inkscape:label="Image"
     id="g65"
     style="display:inline">
    <path
       style="display:inline;fill:none;stroke:#000000;stroke-width:2.0339;stroke-opacity:1"
       d="m 1194.8617,1199.9727 c -7.4669,-3.8068 -8.574,-3.8784 -15.7255,-1.0169 -21.4155,8.5687 -46.24,-2.1178 -55.2995,-23.8057 -1.7373,-4.159 -3.1587,-9.4217 -3.1587,-11.6949 0,-3.303 -1.3277,-4.1371 -6.6102,-4.153 -8.753,-0.026 -26.228,-8.3153 -31.4046,-14.8963 -2.274,-2.891 -5.2875,-8.0395 -6.6965,-11.4413 -2.3276,-5.6192 -3.4229,-6.189 -11.9762,-6.2296 -15.9992,-0.076 -32.7038,-10.4023 -40.1638,-24.8283 l -2.9142,-5.6355 -59.4393,-0.029 c -60.41504,-0.03 -66.98966,-0.7174 -81.5879,-8.5302 -4.36186,-2.3344 -10.60389,-9.3292 -14.89796,-16.6945 -1.87137,-3.2099 -2.48778,-38.4276 -2.54237,-145.25558 l -0.0721,-141.01847 -8.64407,6.72853 c -4.75424,3.70069 -9.10483,7.35628 -9.66798,8.12353 -0.56314,0.76727 -8.85829,5.13535 -18.43366,9.70688 -14.34332,6.84787 -18.01402,9.57903 -20.8405,15.5062 -3.1028,6.50664 -3.42792,18.99901 -3.40115,130.68468 0.0311,129.97263 0.15234,131.88693 9.22796,145.73803 4.01404,6.1262 23.05479,16.1783 38.53906,20.3457 6.71186,1.8064 22.04237,3.8533 34.06779,4.5485 21.23585,1.2278 21.86441,1.4015 21.86441,6.0441 v 4.7801 H 795.25424 685.42373 v -4.7801 c 0,-4.6457 0.61442,-4.8141 21.86441,-5.9943 12.02542,-0.6678 26.8983,-2.7227 33.05085,-4.5665 15.20115,-4.5553 33.75838,-14.6333 37.52211,-20.3775 9.0756,-13.8511 9.1968,-15.7654 9.22795,-145.73803 0.035,-145.88818 2.01061,-133.65739 -23.56177,-145.86629 -18.84582,-8.99748 -22.76301,-11.87929 -41.69347,-30.67322 -47.67918,-47.33529 -69.92982,-143.21049 -52.76661,-227.36468 4.30101,-21.0886 14.23402,-51.32616 18.58135,-56.56438 1.94048,-2.33811 20.21374,-2.8208 106.79089,-2.8208 h 104.44983 l 2.87774,4.57628 c 1.58276,2.51695 4.0308,7.88383 5.44007,11.92641 l 2.56233,7.35014 8.55828,-5.7759 c 4.70705,-3.17675 14.18473,-8.4368 21.0615,-11.689 6.87679,-3.2522 13.86982,-7.04725 15.54008,-8.43346 2.63337,-2.1855 3.03684,-19.25874 3.03684,-128.50959 V 235.65906 l -7.11865,-6.71376 c -4.79908,-4.52611 -7.11864,-8.54542 -7.11864,-12.33512 0,-3.78971 2.31956,-7.80901 7.11864,-12.33513 7.05922,-6.65769 7.11865,-6.85924 7.11865,-24.13846 v -17.42472 h 38.64406 38.64403 v 17.42472 c 0,17.27922 0.059,17.48077 7.1187,24.13846 4.7991,4.52612 7.1186,8.54542 7.1186,12.33513 0,3.7897 -2.3195,7.80901 -7.1186,12.33512 l -7.1187,6.71376 v 122.93837 c 0,95.87681 0.5597,123.39983 2.5424,125.0346 1.3983,1.15289 11.2373,6.51628 21.8644,11.91862 38.2122,19.42532 65.283,54.00545 69.2777,88.49474 0.9516,8.21573 1.7703,69.16649 1.8195,135.44616 l 0.089,120.50848 h 7.2468 c 10.5729,0 32.3757,11.34162 43.8384,22.80439 5.4782,5.47818 10.938,9.35612 12.1329,8.61765 1.4034,-0.86734 0.7624,-2.88694 -1.8103,-5.70442 -2.1906,-2.39892 -5.4745,-7.10745 -7.2975,-10.46339 -4.5009,-8.28541 -8.102,-14.03131 -9.5603,-15.25423 -0.6669,-0.55933 -1.8052,-5.44949 -2.5294,-10.86704 l -1.3167,-9.85009 10.0064,1.37624 10.0063,1.37621 1.3659,-9.10826 c 1.1695,-7.79884 2.1548,-9.26606 6.8534,-10.20578 3.0182,-0.60364 6.6944,-3.35243 8.1694,-6.10844 1.5353,-2.86884 5.1907,-5.51272 8.5509,-6.18476 3.9513,-0.79028 5.8692,-2.413 5.8692,-4.96601 0,-2.0857 2.2881,-4.83472 5.0847,-6.10896 2.7966,-1.27421 5.0848,-3.25163 5.0848,-4.39426 0,-3.65961 5.882,-2.22065 8.1356,1.9903 1.1973,2.23728 3.5128,4.06779 5.1454,4.06779 1.6327,0 8.1429,5.47292 14.4672,12.16202 6.3243,6.68911 13.1936,12.69993 15.2651,13.35739 2.0715,0.65748 3.7663,2.5887 3.7663,4.29164 0,3.27733 7.712,10.68495 11.2429,10.79925 4.16,0.13465 9.0908,8.39585 8.8555,14.83668 -0.4297,11.76098 -2.6617,17.04484 -11.4543,27.11538 -9.6315,11.03138 -10.1739,12.43796 -5.1686,13.40191 3.6195,0.69706 18.8974,-12.77644 18.8974,-16.66548 0,-2.6654 12.3694,-8.11234 18.4222,-8.11234 2.3736,0 5.8352,-1.6928 7.6925,-3.76176 1.9861,-2.2125 8.8646,-4.7833 16.7017,-6.24216 20.9966,-3.90846 29.4962,2.22013 21.02,15.15639 -2.1507,3.28243 -2.8519,7.11419 -2.0339,11.11489 0.6866,3.35803 1.7773,8.62906 2.4237,11.7134 0.8343,3.98065 -0.051,7.02183 -3.0508,10.4807 -5.0107,5.77737 -5.2365,8.23896 -1.2401,13.52268 7.0101,9.26817 0.039,19.40508 -18.0074,26.18538 -8.6091,3.23455 -9.4242,4.00388 -6.1017,5.7587 16.0111,8.45652 13.0621,27.93619 -4.2292,27.93619 -2.836,0 -5.1563,0.91525 -5.1563,2.03389 0,1.11865 2.9746,2.054 6.6102,2.07857 22.8818,0.15457 44.0521,24.74577 41.7679,48.51721 -2.7573,28.6961 -33.931,48.7203 -59.3278,38.1088 -7.3162,-3.0569 -7.6911,-3.0394 -6.3039,0.2938 3.9409,9.4691 3.3031,21.8878 -1.6159,31.4656 -4.9229,9.5853 -4.9258,9.6282 -0.8821,13.2203 6.8675,6.1005 13.6102,23.0002 13.6102,34.1123 0,12.014 -6.8289,27.9017 -15.4658,35.9818 -13.4746,12.606 -35.4625,17.2523 -50.9738,10.7712 -4.0511,-1.6927 -7.4919,-2.8367 -7.6464,-2.5424 -12.0998,23.0619 -33.4425,31.8585 -53.0465,21.8638 z"
       id="path123" />
    <path
       style="display:inline;fill:none;stroke:#000000;stroke-width:2.0339;stroke-opacity:1"
       d="m 813.69865,802.14855 c 17.85663,-5.29408 25.99899,-10.4434 42.57437,-26.92457 20.79964,-20.68139 37.62128,-50.02133 47.69587,-83.19006 l 1.38999,-4.57627 H 794.23729 683.11571 l 1.38998,4.57627 c 10.06914,33.15081 26.89766,62.51006 47.66829,83.16275 16.66874,16.57407 23.01362,20.68871 40.70738,26.39847 14.12085,4.55679 26.7371,4.72784 40.81729,0.55341 z"
       id="path866" />
    <path
       style="display:inline;fill:none;stroke:#000000;stroke-width:2.0339;stroke-opacity:1"
       d="m 1108.4746,911.12264 c 0,-2.27241 1.3008,-4.6308 2.8906,-5.24086 2.275,-0.87301 2.4468,-2.38253 0.8065,-7.08785 -1.1463,-3.28823 -1.645,-9.85357 -1.1083,-14.58965 0.5368,-4.73607 0.023,-14.58288 -1.1419,-21.88179 -1.1648,-7.29893 -1.4694,-15.85426 -0.6769,-19.01185 1.2212,-4.86571 2.2027,-5.54988 6.4371,-4.48708 l 4.9963,1.25396 v -59.0218 -59.0218 h -51.8644 -51.8644 v 96.61017 96.61018 h 45.7627 c 44.6424,0 45.7627,-0.10109 45.7627,-4.13163 z"
       id="path864" />
    <path
       style="fill:none;stroke:#000000;stroke-width:2.0339;stroke-opacity:1"
       d="m 1338.9484,950.59941 c -0.2055,-0.98221 -2.2648,-3.04153 -4.5763,-4.57627 -3.9961,-2.65334 -4.2026,-2.41627 -4.2026,4.82435 0,7.4412 0.1043,7.54554 4.5763,4.57627 2.5169,-1.6712 4.4081,-3.84216 4.2026,-4.82435 z"
       id="path860" />
    <path
       style="fill:none;stroke:#000000;stroke-width:2.0339;stroke-opacity:1"
       d="m 1248.7637,955.93223 c 2.2123,0 6.1516,-11.43701 6.1516,-17.86005 0,-11.95631 -13.9664,-24.85181 -26.9156,-24.85181 -12.2063,0 -25.9658,14.11364 -25.9658,26.63412 0,4.92122 0.8329,5.44029 10.5822,6.59496 6.9287,0.82059 14.4775,3.67993 21.8644,8.28177 8.4928,5.29071 11.4448,6.30805 11.9398,4.11473 0.3617,-1.60254 1.4162,-2.91372 2.3434,-2.91372 z"
       id="path858" />
    <path
       style="fill:none;stroke:#000000;stroke-width:2.0339;stroke-opacity:1"
       d="m 1306.1326,977.03185 c 14.6813,-10.17417 19.5675,-28.17541 12.0761,-44.48945 -4.4437,-9.67692 -8.9794,-14.0134 -19.0653,-18.22751 -10.0001,-4.17832 -18.9875,-3.87889 -29.718,0.9901 -7.6402,3.46676 -8.6868,4.66713 -7.4974,8.5994 4.1256,13.64016 3.6823,21.75989 -1.7999,32.96512 -3.4184,6.98685 -5.2355,13.66886 -4.836,17.7826 0.626,6.44459 0.8421,6.57915 9.7927,6.09879 5.0339,-0.27016 10.5254,0.48158 12.2033,1.67056 5.1217,3.62913 19.7837,0.88953 28.8445,-5.38961 z"
       id="path856" />
    <path
       style="fill:none;stroke:#000000;stroke-width:2.0339;stroke-opacity:1"
       d="m 1194.863,978.40612 c 3.9018,-7.5452 4.0295,-18.17827 0.2358,-19.63404 -1.577,-0.60516 -3.4208,-3.30555 -4.0972,-6.00087 -1.3817,-5.50497 -10.5676,-11.07627 -18.2625,-11.07627 -6.2833,0 -15.6744,4.09463 -14.3407,6.25268 0.5405,0.87453 -0.7222,2.13118 -2.806,2.79254 -6.4983,2.06249 -10.5752,15.65428 -7.2751,24.25426 0.9597,2.501 3.6965,2.92364 13.7288,2.12011 9.7895,-0.78407 14.3097,-0.1322 20.6658,2.9797 4.4745,2.19082 8.3409,4.05739 8.5918,4.14794 0.2509,0.0905 1.8526,-2.53567 3.5593,-5.83605 z"
       id="path854" />
    <path
       style="fill:none;stroke:#000000;stroke-width:2.0339;stroke-opacity:1"
       d="m 1211.1864,996.6102 c 4.3884,-2.23729 11.1454,-4.0678 15.0157,-4.0678 7.876,0 14.4759,-4.79324 14.4759,-10.51324 0,-6.71884 -8.9259,-17.88582 -17.7489,-22.20518 -13.1841,-6.4544 -15.7633,-5.03765 -15.7889,8.67315 -0.016,8.46689 -1.1476,13.02368 -4.2905,17.27481 -3.3636,4.54983 -3.8368,6.74252 -2.2315,10.34018 1.1205,2.51123 2.1616,4.56588 2.3134,4.56588 0.1519,0 3.8665,-1.83051 8.2548,-4.0678 z"
       id="path852" />
    <path
       style="fill:none;stroke:#000000;stroke-width:2.0339;stroke-opacity:1"
       d="m 1070.4891,1013.0176 c 8.6777,-3.2992 19.5319,-14.42288 21.9505,-22.49533 1.3982,-4.66686 1.7369,-11.66424 0.8524,-17.60796 -1.9944,-13.40077 -14.8333,-26.21846 -28.2819,-28.23521 -32.4673,-4.86879 -54.5186,32.80397 -33.2259,56.7637 9.5473,10.7431 27.0921,15.99 38.7049,11.5748 z"
       id="path850" />
    <path
       style="fill:none;stroke:#000000;stroke-width:2.0339;stroke-opacity:1"
       d="m 1126.7797,1012.8161 c 0,-5.6356 5.4733,-18.30706 10.0629,-23.29678 3.3234,-3.6132 3.508,-5.33482 1.5671,-14.61769 -1.7973,-8.59613 -1.6128,-12.01698 1.0079,-18.68874 l 3.2079,-8.16659 -6.1925,-2.15872 c -3.4059,-1.18731 -9.0306,-2.13864 -12.4992,-2.11407 -6.5013,0.046 -22.2,6.22246 -24.251,9.5412 -0.637,1.03059 0.2235,5.88417 1.9122,10.7857 1.6888,4.90153 2.8418,13.21999 2.5623,18.48547 -0.437,8.23306 0.3952,10.60243 5.943,16.921 3.5481,4.04112 7.0212,9.61882 7.7179,12.39482 1.5851,6.3156 8.9615,7.0681 8.9615,0.9144 z"
       id="path848" />
    <path
       style="fill:none;stroke:#000000;stroke-width:2.0339;stroke-opacity:1"
       d="m 1273.333,1029.0923 c 4.6666,-2.4975 10.0568,-12.2764 10.0568,-18.2448 0,-7.6258 -5.9751,-16.16373 -13.5173,-19.31507 -9.7268,-4.06409 -14.1597,-3.85534 -18.9054,0.89034 -3.9083,3.90828 -3.8679,4.02834 3.9911,11.88743 5.1355,5.1355 8.8336,11.283 10.4717,17.4077 2.822,10.5511 2.5105,10.2604 7.9031,7.3744 z"
       id="path846" />
    <path
       style="fill:none;stroke:#000000;stroke-width:2.0339;stroke-opacity:1"
       d="m 1292.3397,1032.4086 c -1.397,-3.6405 -5.1436,-3.4883 -6.3929,0.2596 -0.4115,1.2344 0.9042,2.6105 2.9237,3.0578 4.7564,1.0537 5.0418,0.7807 3.4692,-3.3174 z"
       id="path844" />
    <path
       style="fill:none;stroke:#000000;stroke-width:2.0339;stroke-opacity:1"
       d="m 1182.6825,1038.5114 c 3.5206,-2.3068 5.1141,-5.1923 5.1141,-9.2604 0,-3.2503 1.3729,-7.2824 3.0509,-8.9604 1.8398,-1.8399 3.0508,-6.817 3.0508,-12.5391 0,-7.77772 -0.7333,-9.68001 -4.0678,-10.55198 -2.2373,-0.58507 -4.0678,-2.25716 -4.0678,-3.71579 0,-2.90074 -6.6157,-4.71706 -19.5033,-5.35446 -16.176,-0.80003 -29.3001,12.34133 -29.3071,29.34603 0,8.7644 7.3155,18.5739 17.285,23.1663 7.4776,3.4445 21.5449,2.391 28.4452,-2.1302 z"
       id="path842" />
    <path
       style="fill:none;stroke:#000000;stroke-width:2.0339;stroke-opacity:1"
       d="m 1348.5559,1042.7741 c 21.4885,-11.3634 24.1631,-39.2381 5.3499,-55.75637 -13.883,-12.18944 -30.2636,-11.45104 -44.6863,2.01443 -14.3814,13.42684 -15.5057,31.17144 -2.8858,45.54474 11.8018,13.4415 26.7991,16.3531 42.2222,8.1972 z"
       id="path840" />
    <path
       style="fill:none;stroke:#000000;stroke-width:2.0339;stroke-opacity:1"
       d="m 1107.7384,1037.862 c 3.2722,-7.7312 3.6255,-21.6157 0.6896,-27.1016 -1.1443,-2.1381 -3.8899,-4.8558 -6.1013,-6.0393 -3.384,-1.8111 -5.001,-1.0352 -10.2122,4.9 -7.9425,9.0459 -21.2558,15.4637 -32.0787,15.4637 -8.671,0 -10.064,1.7204 -7.2758,8.9862 0.8684,2.263 3.904,3.2172 10.2348,3.2172 9.9058,0 20.4988,3.7548 28.6244,10.1465 5.0598,3.98 5.4479,4.0034 9.3144,0.5626 2.219,-1.9748 5.2812,-6.5357 6.8048,-10.1353 z"
       id="path838" />
    <path
       style="fill:none;stroke:#000000;stroke-width:2.0339;stroke-opacity:1"
       d="m 1240.6356,1058.8306 c 6.1621,-2.2247 7.675,-4.2275 11.7114,-15.5029 3.0565,-8.5382 4.2188,-15.1672 3.4128,-19.4638 -3.9,-20.7885 -40.6105,-27.89584 -51.6687,-10.0032 -6.6227,10.7156 -5.2309,37.6648 1.9451,37.6648 1.0039,0 2.3883,1.7739 3.0764,3.942 1.8885,5.9501 19.2326,7.8005 31.523,3.3631 z"
       id="path836" />
    <path
       style="fill:none;stroke:#000000;stroke-width:2.0339;stroke-opacity:1"
       d="m 1191.8132,1065.7627 c 5.4107,0 6.4846,-5.1868 2.5174,-12.1584 -4.0507,-7.1182 -3.8332,-7.0675 -13.3168,-3.105 l -7.2795,3.0415 4.4888,7.0491 c 2.5093,3.9406 5.6833,6.6354 7.1975,6.111 1.4898,-0.516 4.3664,-0.9382 6.3926,-0.9382 z"
       id="path834" />
    <path
       style="fill:none;stroke:#000000;stroke-width:2.0339;stroke-opacity:1"
       d="m 1129.0981,1047.8918 9.4371,-4.821 -5.2221,-7.976 c -6.9926,-10.6804 -11.1586,-10.3421 -14.2339,1.1558 -1.3433,5.0226 -5.4857,12.5734 -9.2054,16.7797 -5.8393,6.6032 -6.4932,8.3796 -4.7879,13.0064 l 1.9751,5.3587 6.3,-9.3413 c 3.9798,-5.901 9.7756,-11.1168 15.7371,-14.1623 z"
       id="path832" />
    <path
       style="fill:none;stroke:#000000;stroke-width:2.0339;stroke-opacity:1"
       d="m 1301.7924,1078.6878 c 4.6585,-14.1154 -2.2444,-28.9382 -15.5161,-33.3183 -10.5479,-3.4811 -20.5386,-1.0064 -24.1529,5.9828 -2.6885,5.1991 -2.5922,6.4899 1.0119,13.5592 2.1909,4.2972 3.9834,10.3653 3.9834,13.4847 0,5.0193 0.7602,5.6848 6.6101,5.7864 3.6356,0.063 9.8136,1.2663 13.7288,2.6737 8.4784,3.0477 11.1321,1.5355 14.3348,-8.1685 z"
       id="path828" />
    <path
       style="fill:none;stroke:#000000;stroke-width:2.0339;stroke-opacity:1"
       d="m 1239.679,1096.2422 c 0.7012,-1.1347 4.8739,-3.899 9.2726,-6.1431 8.5106,-4.3418 9.9388,-8.7963 6.0767,-18.9542 -1.9133,-5.0323 -1.959,-5.0403 -11.6949,-2.0305 -5.3757,1.6619 -13.9581,2.653 -19.0718,2.2024 l -9.2978,-0.8193 7.7039,6.96 c 4.2372,3.828 8.8339,10.0847 10.2148,13.9038 2.5708,7.1093 4.5436,8.5261 6.7965,4.8809 z"
       id="path826" />
    <path
       style="fill:none;stroke:#000000;stroke-width:2.0339;stroke-opacity:1"
       d="m 1150.3148,1109.6368 c 1.598,-1.598 2.9055,-4.8469 2.9055,-7.2196 0,-6.2366 5.5006,-16.2363 13.565,-24.6603 l 7.0151,-7.3278 -5.3552,-6.3642 c -18.2283,-21.6632 -54.4254,-6.4204 -51.2683,21.5893 1.2247,10.8647 6.4271,18.5213 15.849,23.3257 8.4682,4.3181 13.4389,4.5069 17.2889,0.6569 z"
       id="path824" />
    <path
       style="fill:none;stroke:#000000;stroke-width:2.0339;stroke-opacity:1"
       d="m 1071.8644,1111.9248 c 0,-8.4825 10.2188,-25.798 18.4328,-31.2337 6.6465,-4.3985 7.5112,-5.8004 6.0113,-9.7455 -2.6628,-7.0037 -14.5412,-18.9411 -21.3901,-21.4962 -4.6128,-1.721 -8.9916,-1.6334 -17.9746,0.3594 -26.4061,5.8582 -36.4265,34.1694 -19.0847,53.9206 7.6351,8.6959 15.8685,12.6915 26.3782,12.8012 6.6293,0.069 7.6271,-0.5333 7.6271,-4.6058 z"
       id="path822" />
    <path
       style="fill:none;stroke:#000000;stroke-width:2.0339;stroke-opacity:1"
       d="m 1186.3815,1128.7862 c 7.6971,-7.258 19.7078,-10.9892 30.0502,-9.3354 l 7.4501,1.1913 1.0903,-9.6431 c 2.023,-17.8914 -9.3882,-32.7382 -25.6366,-33.3551 -11.3333,-0.4303 -16.2193,0.1112 -17.5517,1.945 -0.6082,0.8371 -3.611,3.116 -6.6729,5.0641 -9.6552,6.1432 -17.6588,27.2705 -11.7211,30.9403 1.1187,0.6913 2.0339,2.9521 2.0339,5.0239 0,3.185 10.4825,14.2981 13.4867,14.2981 0.5342,0 3.8962,-2.7581 7.4711,-6.1291 z"
       id="path818" />
    <path
       style="fill:none;stroke:#000000;stroke-width:2.0339;stroke-opacity:1"
       d="m 1127.8635,1146.2049 c 8.8713,-3.7067 17.2213,-12.5716 17.2213,-18.2834 0,-3.4476 -1.901,-4.8744 -9.038,-6.7832 -12.0009,-3.2098 -22.4244,-12.7109 -26.8273,-24.4534 -4.577,-12.2067 -6.2265,-13.1973 -13.2851,-7.9786 -19.3703,14.321 -16.5282,46.6998 4.9551,56.4521 10.3539,4.7001 17.5604,4.9797 26.974,1.0465 z"
       id="path816" />
    <path
       style="fill:none;stroke:#000000;stroke-width:2.0339;stroke-opacity:1"
       d="m 1286.9867,1170.4114 c 27.6077,-11.5352 32.9437,-45.1722 10.7034,-67.4726 -7.6383,-7.659 -16.2114,-9.7508 -32.2728,-7.8746 -14.4076,1.6831 -24.3905,9.1455 -29.0682,21.729 -3.4997,9.4148 -3.0661,14.0543 1.3137,14.0543 4.0398,0 13.1847,20.0951 13.1847,28.9721 0,6.8936 0.7938,8.1795 6.6101,10.7075 8.7519,3.8039 20.2562,3.7588 29.5291,-0.1157 z"
       id="path814" />
    <path
       style="display:inline;fill:none;stroke:#000000;stroke-width:2.0339;stroke-opacity:1"
       d="m 1174.5093,1189.856 c 5.1401,-1.9542 5.1976,-2.1727 2.1322,-8.1005 -4.2313,-8.1824 -5.9423,-22.0162 -3.7897,-30.6398 1.6398,-6.5694 1.1806,-7.609 -6.7639,-15.3137 l -8.5231,-8.2659 -3.5555,7.8849 c -3.7835,8.3901 -12.2157,16.6332 -19.3223,18.8888 -3.7063,1.1763 -4.166,2.5036 -3.2452,9.3692 2.6868,20.0311 24.4462,33.2568 43.0675,26.177 z"
       id="path812" />
    <path
       style="display:inline;fill:none;stroke:#000000;stroke-width:2.0339;stroke-opacity:1"
       d="m 1223.5353,1190.6422 c 8.1012,-3.8443 19.1766,-19.5759 19.1766,-27.2387 0,-2.9649 -1.4677,-9.6981 -3.2615,-14.9627 -4.2607,-12.5045 -13.3443,-19.6272 -25.0303,-19.6272 -10.3057,0 -15.356,2.387 -23.9672,11.3279 -10.1226,10.5103 -11.1992,25.0421 -3.0669,41.3958 5.5475,11.1559 22.715,15.4798 36.1493,9.1049 z"
       id="path810" />
  </g>
</svg>
